<svg width="82" height="487" viewBox="0 0 82 487" fill="none" xmlns="http://www.w3.org/2000/svg">
<path d="M-0.24758 241.445C6.42487 232.133 15.0328 226.752 21.0798 223.878C29.3496 219.948 36.3253 218.976 40.0959 219.378L40.5669 214.947C34.9007 214.344 26.9006 216.178 19.1669 219.853C16.1758 221.275 12.6032 223.266 8.91332 225.98C4.55891 229.182 0.0419806 233.39 -3.86945 238.849C-20.7512 262.412 -13.4741 290.746 -4.39632 310.365L-0.352919 308.494C-8.93323 289.95 -15.8798 263.264 -0.24758 241.445Z" fill="#F37423"/>
<path d="M25.4723 21.6378C28.9578 26.3376 28.9723 26.6631 23.7011 32.2536C18.7618 37.3736 13.8225 42.4937 8.95647 47.5595C6.40385 50.2371 1.87233 49.7874 -1.51617 46.1363C-6.78662 40.4067 -12.5158 35.1294 -18.1718 29.7978C-19.4103 28.5869 -19.5465 27.7912 -18.131 26.1811C-12.3764 19.5596 -6.28037 13.2455 0.819986 7.97965C2.86957 6.4596 3.56917 2.35439 6.82232 3.52811C8.97321 4.28649 10.4696 6.76308 12.4299 8.3353C16.7257 11.9859 21.1483 15.6545 25.4723 21.6378Z" fill="#284193"/>
<path d="M-4.99207 358.082C-6.04965 356.78 -6.83096 355.329 -7.31428 353.77C-7.77433 352.287 -7.9305 350.773 -7.77798 349.27C-7.66256 348.132 -7.37513 347.024 -6.92226 345.963C-6.77585 345.62 -6.61294 345.282 -6.432 344.949C-5.60131 343.422 -4.5546 342.172 -3.3217 341.235C-2.0825 340.293 -0.541844 339.58 1.25758 339.114C2.79465 338.741 4.32357 338.64 5.80153 338.816C7.27393 338.992 8.69928 339.45 10.0377 340.178C13.2769 341.94 15.3631 344.369 16.4153 347.603C17.459 350.812 17.1634 353.848 15.5114 356.885C15.3525 357.177 15.1777 357.46 14.9919 357.736C14.3256 358.728 13.4902 359.619 12.4949 360.39C11.2163 361.381 9.76574 362.104 8.18518 362.537C6.70215 362.942 5.12831 363.032 3.50832 362.803C1.86904 362.572 0.258263 362.031 -1.27953 361.195C-2.6873 360.429 -3.9364 359.382 -4.99207 358.082ZM9.37552 370.367C12.2392 369.704 14.7895 368.541 16.9554 366.909C19.1245 365.275 20.9301 363.149 22.3222 360.589C23.7042 358.049 24.5154 355.385 24.7326 352.673C24.9492 349.967 24.582 347.181 23.6399 344.391C22.8288 342.001 21.5868 339.842 19.949 337.976C18.3229 336.123 16.2814 334.521 13.8819 333.216C11.4525 331.895 8.90899 331.086 6.32107 330.813C3.73015 330.541 1.07738 330.811 -1.56424 331.617C-4.1325 332.402 -6.42276 333.604 -8.3708 335.191C-10.3207 336.779 -11.9666 338.793 -13.2629 341.176C-14.528 343.502 -15.3041 345.942 -15.5697 348.428C-15.8346 350.911 -15.6023 353.455 -14.8793 355.991C-14.1147 358.667 -12.8915 361.073 -11.2447 363.142C-9.59543 365.215 -7.54811 366.924 -5.15978 368.223C-2.83408 369.488 -0.411394 370.315 2.04156 370.682C4.50925 371.05 6.98079 370.943 9.37552 370.367Z" fill="#8B9A5A"/>
<path d="M42.8793 106.127L42.879 106.127C42.526 106.237 42.3411 106.207 42.2291 106.162C42.1041 106.111 41.9063 105.973 41.6564 105.572C40.5763 103.838 38.8446 102.931 36.8858 103.088L36.1086 103.15L35.9792 103.918C35.909 104.336 35.8486 104.694 35.793 105.024C35.1597 105.123 34.6703 105.454 34.3017 105.755C34.1809 105.854 34.0635 105.957 33.9616 106.047L33.931 106.074C33.8166 106.174 33.7196 106.258 33.624 106.334C33.432 106.486 33.2973 106.561 33.1835 106.596L33.1831 106.596C30.9994 107.259 29.5693 108.942 28.374 110.35C28.2674 110.475 28.1626 110.599 28.0593 110.719L42.8793 106.127ZM42.8793 106.127C43.0204 106.082 43.16 106.039 43.2983 105.996C44.413 105.651 45.4342 105.334 46.3558 104.849C46.7844 104.623 47.1965 104.425 47.5853 104.304C47.9818 104.18 48.4277 104.112 48.8936 104.225C49.8113 104.449 50.3567 105.268 50.8044 106.055C50.8051 106.056 50.8058 106.057 50.8067 106.058L50.8089 106.062C50.8169 106.074 50.8389 106.107 50.8595 106.141C50.8969 106.204 51.0173 106.406 51.0369 106.684C51.1075 107.683 51.5333 108.277 52.1689 108.778C52.5074 109.045 52.9049 109.283 53.3609 109.533C53.4954 109.607 53.6399 109.685 53.7894 109.765C54.1175 109.941 54.47 110.13 54.7944 110.323L54.795 110.323M42.8793 106.127L54.795 110.323M13.8079 86.9608C14.4807 87.5781 15.0985 88.3234 15.6822 89.0275C15.7874 89.1545 15.8916 89.2801 15.9947 89.4034L9.0381 88.6334C8.6504 89.6477 8.35004 90.6966 8.04263 91.7702C7.90333 92.2567 7.76259 92.7482 7.61161 93.2439M13.8079 86.9608L13.1318 87.6977L13.808 86.9609C13.8079 86.9609 13.8079 86.9608 13.8079 86.9608ZM13.8079 86.9608C12.8545 86.0859 11.6996 85.6273 10.551 85.8899C9.39873 86.1533 8.56491 87.0709 8.10405 88.2762L8.10402 88.2763C7.70051 89.332 7.38011 90.4504 7.06667 91.5446C6.99189 91.8056 6.9175 92.0653 6.84248 92.3224M6.84248 92.3224C7.03003 92.3 7.21218 92.2807 7.38615 92.2622C7.42634 92.258 7.4661 92.2537 7.50539 92.2495L7.61161 93.2439M6.84248 92.3224C5.98255 92.4251 5.0092 92.593 4.19227 93.0405C3.64298 93.3415 3.14954 93.7725 2.78627 94.3869C2.42706 94.9944 2.22714 95.7269 2.176 96.5876L2.14022 97.1897L2.65615 97.5023C3.44678 97.9812 3.98391 98.681 4.41302 99.6266M6.84248 92.3224C6.78062 92.5344 6.71831 92.7446 6.655 92.9525L7.61161 93.2439M7.61161 93.2439L7.57558 93.2477C5.49033 93.4704 3.34938 93.699 3.17424 96.6469L4.41302 99.6266M4.41302 99.6266C4.30878 99.6359 4.20216 99.6489 4.09607 99.6672C3.75501 99.726 3.37292 99.8462 3.014 100.11C2.65184 100.376 2.37739 100.74 2.17786 101.189L3.09158 101.595L2.17784 101.189C1.75044 102.15 1.56321 103.175 1.79495 104.16C2.03209 105.169 2.67741 106.005 3.66178 106.614L3.66185 106.614C4.51993 107.144 5.04039 107.83 5.39876 108.79L4.41302 99.6266ZM54.795 110.323C54.9199 110.397 55.0521 110.466 55.2159 110.551L55.2285 110.558C55.3887 110.641 55.5803 110.741 55.7701 110.857L55.7703 110.857C56.5246 111.318 57.2008 111.906 57.4579 112.755C57.7213 113.625 57.4633 114.486 57.0216 115.29L57.0215 115.29C56.5357 116.174 55.8802 117.083 55.058 117.779L55.0576 117.779C53.9666 118.701 53.3848 119.654 53.3594 120.937C53.3465 121.608 53.1644 122.225 52.774 122.744C52.3894 123.255 51.8599 123.595 51.2794 123.82C50.6497 124.064 50.0655 124.315 49.4633 124.574C49.0202 124.765 48.5674 124.96 48.0796 125.159L48.0793 125.159C47.5066 125.393 47.2267 125.628 47.1032 125.829C47.0078 125.985 46.9201 126.257 47.0994 126.824C47.2238 127.217 47.1187 127.583 47.0815 127.713C47.0799 127.719 47.0783 127.724 47.077 127.729C47.0602 127.788 47.0448 127.84 47.0302 127.889C46.9976 127.998 46.9688 128.094 46.9375 128.236L46.7312 129.17L45.7892 129.005C45.6073 128.974 45.4445 128.951 45.2658 128.926C45.1512 128.91 45.03 128.893 44.8931 128.873C44.5739 128.824 44.2166 128.76 43.8559 128.647C41.8622 128.024 40.0615 127.724 38.2723 128.323L38.2722 128.323C36.9922 128.751 35.8174 128.557 34.71 127.832L34.7099 127.831C34.3165 127.574 33.8992 127.35 33.4367 127.102C33.3761 127.07 33.3147 127.037 33.2525 127.003C32.7337 126.724 32.165 126.411 31.6325 126.019L31.6324 126.019C30.9648 125.529 30.3893 125.425 29.8419 125.491C29.245 125.563 28.6058 125.848 27.8591 126.286L27.8588 126.287C27.5944 126.442 27.3344 126.642 27.0454 126.886C26.9533 126.963 26.8499 127.053 26.7409 127.147C26.6521 127.224 26.5596 127.304 26.4665 127.383L54.795 110.323ZM10.6326 115.856L9.84089 116.449C10.7087 117.609 11.8034 118.389 13.2944 118.703L13.2946 118.703C13.951 118.841 14.5536 119.054 15.2312 119.295C15.3556 119.339 15.4826 119.384 15.6129 119.43C15.6142 119.474 15.6155 119.517 15.6164 119.556C15.6226 119.814 15.6197 119.998 15.5991 120.147C15.5797 120.288 15.5491 120.36 15.5235 120.401C15.5021 120.435 15.4568 120.494 15.3296 120.563L10.6326 115.856ZM10.6326 115.856L9.84088 116.449M10.6326 115.856L9.84088 116.449M11.6539 121.311L11.6538 121.311C10.8339 120.349 9.97565 119.391 9.05611 118.488C7.8638 117.317 5.97947 116.218 4.02742 116.944L4.02719 116.944C2.56154 117.489 1.12885 117.727 -0.426265 117.768C-0.42633 117.768 -0.426393 117.768 -0.426458 117.768L-0.400379 118.767L11.6539 121.311ZM11.6539 121.311C11.896 121.595 12.0937 121.707 12.2394 121.749C12.3743 121.787 12.5639 121.794 12.8566 121.675C13.7413 121.317 14.5661 120.983 15.3296 120.563L11.6539 121.311ZM-15.1078 136.405L-15.1074 136.405C-14.1898 136.619 -13.6148 137.067 -13.2091 137.807L-15.1078 136.405ZM-15.1078 136.405C-15.9227 136.214 -16.7416 135.846 -17.1231 135.02M-15.1078 136.405L-17.1231 135.02M-7.96803 143.016L-6.82467 142.669C-6.56209 142.589 -6.34071 142.54 -6.09373 142.485C-5.93566 142.45 -5.76709 142.412 -5.5705 142.363C-5.1401 142.255 -4.60495 142.093 -4.14438 141.738L-4.14427 141.738C-3.48662 141.231 -2.81939 141.15 -1.77914 141.023C-1.65328 141.008 -1.52197 140.992 -1.38455 140.974L-1.38447 140.974C-0.869409 140.909 -0.691435 140.994 -0.618725 141.044C-0.521668 141.109 -0.367345 141.277 -0.171203 141.786L-0.171145 141.787C0.112289 142.522 0.537954 143.255 1.20556 143.797C1.89349 144.356 2.7637 144.651 3.80647 144.621L4.3869 144.604L4.66006 144.092C5.50154 142.513 6.78307 141.517 8.52844 140.944C9.46977 140.635 10.2725 139.971 10.8596 139.475C11.5364 138.903 12.1047 138.27 12.5849 137.593C12.5824 137.623 12.5801 137.653 12.5779 137.683M-7.96803 143.016L18.4953 131.164C18.0208 131.877 17.3972 132.574 16.6774 133.018C14.8791 134.126 13.7263 135.648 13.5754 137.754M-7.96803 143.016L-8.10858 141.83M-7.96803 143.016L-8.10858 141.83M12.5779 137.683L13.5754 137.754M12.5779 137.683L13.5754 137.754M12.5779 137.683C12.5543 138.012 12.5191 138.381 12.4822 138.768C12.4207 139.413 12.3546 140.105 12.331 140.734C12.2913 141.786 12.3487 142.917 12.7459 143.965M13.5754 137.754C13.5479 138.137 13.5103 138.528 13.4724 138.922C13.3161 140.546 13.1547 142.223 13.6809 143.61M12.7459 143.965L13.6809 143.61M12.7459 143.965C12.7459 143.965 12.7459 143.965 12.7459 143.965L13.6809 143.61M12.7459 143.965C13.058 144.788 13.0418 145.363 12.9115 146.034M13.6809 143.61C14.2 144.979 13.9822 145.894 13.742 146.904C13.7278 146.964 13.7134 147.025 13.6991 147.085M12.9115 146.034C13.1833 146.051 13.464 146.069 13.7621 146.087L13.6991 147.085M12.9115 146.034C12.871 146.242 12.8196 146.459 12.7636 146.696C12.7511 146.749 12.7384 146.802 12.7256 146.857L13.6991 147.085M12.9115 146.034C12.5192 146.009 12.1454 145.986 11.7643 145.962L11.5183 145.946L10.6674 145.893L10.4801 146.725C10.1172 148.338 11.0628 149.399 11.6005 150.002C11.66 150.068 11.7145 150.13 11.7617 150.185L11.7617 150.185C12.6551 151.239 13.751 151.56 14.7865 151.643C15.2848 151.683 15.7906 151.67 16.2457 151.657L16.2912 151.656C16.448 151.652 16.5996 151.648 16.7475 151.645M13.6991 147.085C12.9728 147.04 12.3501 147.001 11.7068 146.96L11.4557 146.945L16.279 150.656C16.7209 150.644 17.1699 150.631 17.6182 150.657M17.8495 130.125C17.7833 130.377 17.7253 130.516 17.6629 130.61C17.2357 131.252 16.7081 131.824 16.1529 132.166L16.1528 132.166C15.528 132.551 14.9624 132.99 14.4746 133.486C14.5423 133.249 14.6055 133.011 14.6645 132.772L14.6646 132.772C14.8376 132.072 14.9755 131.587 15.1203 131.232C15.2606 130.887 15.3826 130.728 15.4895 130.634C15.7293 130.423 16.1675 130.279 17.6379 130.145L17.8495 130.125ZM17.8495 130.125C17.7777 130.132 17.7078 130.138 17.638 130.145L17.8495 130.125ZM16.7475 151.645C16.7078 151.363 16.668 151.081 16.628 150.796L17.6182 150.657M16.7475 151.645C17.0285 151.64 17.2963 151.64 17.5616 151.655L17.6182 150.657M16.7475 151.645C16.7952 151.984 16.8428 152.321 16.8905 152.66C17.0931 154.098 17.297 155.545 17.5193 157.124L17.6441 158.01L18.5385 157.984C18.7844 157.977 19.0508 157.977 19.3285 157.977C20.0243 157.977 20.7917 157.977 21.4891 157.865L21.4891 157.865C21.9114 157.798 22.1847 157.796 22.388 157.844C22.5585 157.884 22.734 157.971 22.9373 158.21C24.5189 160.069 26.5874 160.846 29.0469 160.987L29.7 161.024L29.9959 160.441C30.1656 160.107 30.3623 159.748 30.569 159.371C31.0845 158.43 31.662 157.377 32.036 156.306L17.6182 150.657M-8.10858 141.83C-8.20022 141.056 -8.4542 140.668 -8.73162 140.436C-9.03764 140.181 -9.50632 140.004 -10.2207 139.911M-8.10858 141.83L-10.2207 139.911M35.2595 147.635L35.2597 147.635C37.055 146.634 37.6563 144.922 38.1612 143.484C38.2073 143.353 38.2525 143.224 38.2977 143.098L38.499 142.539L38.1039 142.095C37.96 141.933 37.8133 141.766 37.6644 141.597C37.3294 141.215 36.9832 140.82 36.6322 140.446C36.6322 140.446 36.6322 140.446 36.6322 140.446L35.9026 141.13L35.2595 147.635ZM35.2595 147.635C35.1363 147.704 35.0969 147.76 35.082 147.785C35.0647 147.815 35.0432 147.868 35.0377 147.973C35.0245 148.225 35.106 148.558 35.254 149.039M35.2595 147.635L34.2982 149.333M9.84088 116.449C8.09706 114.117 6.46077 111.636 5.39881 108.79L9.84088 116.449ZM-17.1231 135.02C-17.4838 134.24 -17.2918 133.375 -17.0228 132.636L-17.1231 135.02ZM-10.2207 139.911C-11.5407 139.74 -12.5619 138.987 -13.2091 137.807L-10.2207 139.911ZM34.2514 154.483C34.9867 154.544 35.7395 154.31 36.1546 153.612C36.524 152.992 36.4587 152.267 36.272 151.696M34.2514 154.483L35.3215 152.007M34.2514 154.483C33.51 154.422 33.1288 154.591 32.8733 154.815M34.2514 154.483L32.8733 154.815M36.272 151.696L35.3215 152.007M36.272 151.696C36.272 151.696 36.272 151.696 36.272 151.696L35.3215 152.007M36.272 151.696C36.1185 151.226 35.9294 150.772 35.7577 150.36L35.7271 150.287C35.5418 149.842 35.378 149.442 35.254 149.039M35.3215 152.007C35.1807 151.576 35.0056 151.156 34.8307 150.736C34.6378 150.273 34.4451 149.81 34.2982 149.333M35.254 149.039C35.254 149.039 35.254 149.039 35.254 149.039L34.2982 149.333M35.254 149.039L34.2982 149.333M32.8733 154.815C32.5718 155.078 32.3056 155.536 32.0361 156.306L32.8733 154.815ZM28.0529 110.726L28.0585 110.72L16.2499 90.3711C16.6939 90.2386 17.1232 90.1103 17.5602 90.0153L17.3472 89.0383C17.3474 89.0382 17.3476 89.0382 17.3477 89.0382C17.765 88.9472 18.2203 88.8926 18.6825 88.8371C18.8822 88.8131 19.0831 88.789 19.2827 88.7617L20.3622 88.6143L20.4168 89.7024C20.495 91.2622 20.7432 92.4942 21.4892 93.5208C25.1911 93.8239 27.2957 96.4134 29.0377 99.1479L29.4999 99.8734L28.8515 100.439C28.6524 100.613 28.4434 100.777 28.2786 100.907C28.2114 100.96 28.1515 101.007 28.1026 101.047C27.9053 101.207 27.813 101.3 27.7571 101.379L26.9427 100.798L27.7571 101.379C26.6582 102.921 25.9185 103.981 26.3169 105.56L26.3169 105.56C26.8583 107.705 26.5834 109.991 25.3625 111.869C24.7337 112.837 24.4862 113.74 24.4918 114.639C24.4966 115.397 24.6825 116.199 25.0379 117.08C25.2867 117.064 25.4614 117.013 25.5878 116.943C25.7605 116.848 25.9821 116.643 26.1535 116.068C26.2923 115.603 26.5088 115.191 26.7069 114.845C26.7886 114.703 26.8623 114.579 26.931 114.463C27.0469 114.268 27.1485 114.098 27.2499 113.902C27.5318 113.358 27.631 112.945 27.4566 112.424C27.3385 112.071 27.4216 111.762 27.4743 111.613C27.5332 111.445 27.6167 111.304 27.6814 111.205C27.8079 111.011 27.9656 110.828 28.0529 110.726Z" stroke="#F37524" stroke-width="2"/>
<path d="M75.4884 197.898C73.2271 195.358 70.9498 192.829 68.595 190.376C66.54 191.814 64.4911 193.26 62.4641 194.737C60.9982 195.805 59.5176 196.864 58.1227 198.023C56.8847 199.052 55.6998 200.143 54.4889 201.203C53.8731 201.742 53.2423 202.28 52.5964 202.807C55.8339 206.74 59.0814 210.665 62.3359 214.584C64.0704 216.673 65.5613 217.066 67.7232 215.377C71.3525 212.543 74.8287 209.501 78.2395 206.404C79.7701 205.014 79.7312 203.596 78.5333 201.902C77.5654 200.533 76.6003 199.147 75.4884 197.898Z" fill="#8B9A5A"/>
<path d="M5.23157 470.719L5.25295 472.903C6.41706 473.446 7.68045 473.793 9.1384 474.309C9.45564 475.567 10.4344 476.414 12.1188 476.349C12.98 476.317 13.2009 477.035 13.4712 477.658C13.8921 478.627 14.3103 479.598 14.7154 480.536C16.4596 480.014 17.9653 478.845 19.4678 476.949C19.6344 477.033 19.8145 477.108 19.9792 477.207C21.6164 478.196 21.8012 478.168 22.9375 476.648C23.3797 476.057 23.7878 475.44 24.201 474.85C25.1319 475.311 25.9809 475.923 26.9227 476.149C28.1574 476.447 28.7449 475.26 29.1395 474.826C30.7123 475.123 31.9376 475.478 33.1793 475.551C34.1886 475.61 34.4489 475.139 34.2593 474.107C33.9512 472.429 33.3151 470.91 31.9786 469.86C32.7417 468.868 33.4167 467.989 34.1028 467.097C33.5184 466.483 33.1161 466.06 32.7824 465.71C33.2879 464.464 33.7381 463.354 34.235 462.129C35.7541 461.185 37.891 461.333 39.6448 460.06C38.2419 458.199 37.6046 455.859 34.6791 455.731C34.8026 454.582 34.9091 453.591 35.0354 452.417C34.5234 452.748 34.2635 452.916 34.0067 453.082C33.106 451.852 33.106 451.852 34.3892 449.941C33.1533 449.92 32.9201 449.103 32.8796 448.43C33.5967 446.971 34.2665 445.794 34.7476 444.545C34.9659 443.978 35.0379 443.14 34.7684 442.649C34.3873 441.953 33.5162 441.863 32.7715 442.217C31.5484 442.798 30.2669 442.494 29.2625 442.005C27.7122 441.251 26.342 441.02 24.7954 442.082C24.3874 441.641 23.8166 441.305 23.7135 440.862C23.2789 438.989 21.9444 438.437 20.2619 438.326C19.5427 437.148 18.8471 436.01 18.1791 434.916C15.9481 435.422 15.2458 435.809 14.1018 437.788C13.4845 438.856 12.7172 439.129 11.7651 438.672C10.3212 437.978 9.46941 438.569 8.74089 439.727C8.56538 440.006 8.36145 440.267 8.125 440.6C6.51599 440.064 5.02513 440.01 4.01644 441.632C3.53942 441.37 3.18776 441.171 2.82974 440.984C2.4092 440.764 1.99995 440.506 1.55552 440.352C0.459978 439.971 -0.217151 440.499 0.00379203 441.65C0.180869 442.574 0.554679 443.462 0.874477 444.354C1.06666 444.89 1.3221 445.404 1.54927 445.928C1.44417 446.029 1.33888 446.131 1.23379 446.233C0.651449 445.95 0.0692374 445.667 -0.840255 445.224C-0.850003 446.639 -0.857977 447.851 -0.867166 449.162C-1.72216 449.205 -2.37861 449.239 -3.40723 449.292C-3.40839 450.113 -3.46591 450.835 -3.39961 451.544C-3.24464 453.2 -3.43029 453.53 -5.0999 453.848C-5.78662 453.979 -6.51229 453.995 -6.71279 454.808C-6.81653 455.229 -6.7844 455.608 -6.64553 455.944C-3.52203 456.77 -0.60514 458.556 1.63981 461.155C3.29268 463.069 4.33896 465.762 4.7279 468.444C4.9476 469.181 5.11978 469.937 5.23157 470.719Z" fill="#F37524"/>
</svg>
