<svg width="89" height="1140" viewBox="0 0 89 1140" fill="none" xmlns="http://www.w3.org/2000/svg">
<path d="M-0.549521 241.445C6.12293 232.133 14.7309 226.752 20.7779 223.878C29.0477 219.948 36.0233 218.976 39.794 219.378L40.2649 214.947C34.5988 214.344 26.5987 216.178 18.865 219.853C15.8739 221.275 12.3013 223.266 8.61138 225.98C4.25697 229.182 -0.25996 233.39 -4.17139 238.849C-21.0532 262.412 -13.776 290.746 -4.69826 310.365L-0.65486 308.494C-9.23517 289.95 -16.1817 263.264 -0.549521 241.445Z" fill="#F37423"/>
<path d="M25.1703 21.6378C28.6559 26.3376 28.6704 26.6631 23.3992 32.2536C18.4599 37.3736 13.5206 42.4937 8.65452 47.5595C6.10191 50.2371 1.57039 49.7874 -1.81811 46.1363C-7.08856 40.4067 -12.8178 35.1294 -18.4738 29.7978C-19.7122 28.5869 -19.8484 27.7912 -18.433 26.1811C-12.6783 19.5596 -6.58232 13.2455 0.518045 7.97965C2.56763 6.4596 3.26723 2.35439 6.52038 3.52811C8.67127 4.28649 10.1677 6.76308 12.1279 8.3353C16.4238 11.9859 20.8464 15.6545 25.1703 21.6378Z" fill="black"/>
<path d="M-5.29401 358.082C-6.3516 356.78 -7.1329 355.329 -7.61622 353.77C-8.07627 352.287 -8.23244 350.773 -8.07993 349.27C-7.9645 348.132 -7.67707 347.024 -7.2242 345.963C-7.07779 345.62 -6.91488 345.282 -6.73394 344.949C-5.90325 343.422 -4.85654 342.172 -3.62364 341.235C-2.38444 340.293 -0.843785 339.58 0.955637 339.114C2.49271 338.741 4.02163 338.64 5.49959 338.816C6.97199 338.992 8.39734 339.45 9.73578 340.178C12.9749 341.94 15.0611 344.369 16.1134 347.603C17.1571 350.812 16.8614 353.848 15.2095 356.885C15.0506 357.177 14.8758 357.46 14.6899 357.736C14.0237 358.728 13.1883 359.619 12.193 360.39C10.9143 361.381 9.4638 362.104 7.88324 362.537C6.40021 362.942 4.82637 363.032 3.20637 362.803C1.5671 362.572 -0.0436775 362.031 -1.58147 361.195C-2.98924 360.429 -4.23834 359.382 -5.29401 358.082ZM9.07358 370.367C11.9373 369.704 14.4875 368.541 16.6535 366.909C18.8226 365.275 20.6281 363.149 22.0202 360.589C23.4023 358.049 24.2134 355.385 24.4307 352.673C24.6473 349.967 24.28 347.181 23.338 344.391C22.5268 342.001 21.2848 339.842 19.6471 337.976C18.021 336.123 15.9795 334.521 13.58 333.216C11.1506 331.895 8.60704 331.086 6.01913 330.813C3.42821 330.541 0.775437 330.811 -1.86618 331.617C-4.43444 332.402 -6.72471 333.604 -8.67274 335.191C-10.6227 336.779 -12.2685 338.793 -13.5648 341.176C-14.8299 343.502 -15.6061 345.942 -15.8716 348.428C-16.1365 350.911 -15.9042 353.455 -15.1813 355.991C-14.4167 358.667 -13.1935 361.073 -11.5467 363.142C-9.89737 365.215 -7.85005 366.924 -5.46172 368.223C-3.13602 369.488 -0.713335 370.315 1.73962 370.682C4.20731 371.05 6.67885 370.943 9.07358 370.367Z" fill="black"/>
<path d="M42.5773 106.127L42.577 106.127C42.224 106.237 42.0392 106.207 41.9271 106.162C41.8022 106.111 41.6043 105.973 41.3544 105.572C40.2744 103.838 38.5426 102.931 36.5839 103.088L35.8067 103.15L35.6773 103.918C35.6071 104.336 35.5467 104.694 35.4911 105.024C34.8578 105.123 34.3684 105.454 33.9997 105.755C33.879 105.854 33.7615 105.957 33.6597 106.047L33.6291 106.074C33.5146 106.174 33.4176 106.258 33.3221 106.334C33.1301 106.486 32.9954 106.561 32.8815 106.596L32.8812 106.596C30.6974 107.259 29.2674 108.942 28.0721 110.35C27.9654 110.475 27.8606 110.599 27.7574 110.719L42.5773 106.127ZM42.5773 106.127C42.7184 106.082 42.8581 106.039 42.9963 105.996C44.1111 105.651 45.1323 105.334 46.0539 104.849C46.4825 104.623 46.8945 104.425 47.2834 104.304C47.6798 104.18 48.1258 104.112 48.5917 104.225C49.5094 104.449 50.0548 105.268 50.5025 106.055C50.5031 106.056 50.5039 106.057 50.5048 106.058L50.5069 106.062C50.515 106.074 50.5369 106.107 50.5575 106.141C50.595 106.204 50.7153 106.406 50.735 106.684C50.8056 107.683 51.2314 108.277 51.8669 108.778C52.2054 109.045 52.6029 109.283 53.0589 109.533C53.1934 109.607 53.3379 109.685 53.4874 109.765C53.8156 109.941 54.168 110.13 54.4925 110.323L54.493 110.323M42.5773 106.127L54.493 110.323M13.5059 86.9608C14.1788 87.5781 14.7966 88.3234 15.3802 89.0275C15.4855 89.1545 15.5896 89.2801 15.6928 89.4034L8.73616 88.6334C8.34846 89.6477 8.0481 90.6966 7.74069 91.7702C7.60139 92.2567 7.46064 92.7482 7.30967 93.2439M13.5059 86.9608L12.8299 87.6977L13.506 86.9609C13.506 86.9609 13.506 86.9608 13.5059 86.9608ZM13.5059 86.9608C12.5526 86.0859 11.3977 85.6273 10.2491 85.8899C9.09679 86.1533 8.26296 87.0709 7.80211 88.2762L7.80208 88.2763C7.39857 89.332 7.07817 90.4504 6.76473 91.5446C6.68995 91.8056 6.61556 92.0653 6.54054 92.3224M6.54054 92.3224C6.72809 92.3 6.91024 92.2807 7.08421 92.2622C7.1244 92.258 7.16416 92.2537 7.20345 92.2495L7.30967 93.2439M6.54054 92.3224C5.68061 92.4251 4.70726 92.593 3.89033 93.0405C3.34104 93.3415 2.8476 93.7725 2.48433 94.3869C2.12512 94.9944 1.92519 95.7269 1.87406 96.5876L1.83828 97.1897L2.35421 97.5023C3.14484 97.9812 3.68197 98.681 4.11108 99.6266M6.54054 92.3224C6.47867 92.5344 6.41637 92.7446 6.35306 92.9525L7.30967 93.2439M7.30967 93.2439L7.27364 93.2477C5.18839 93.4704 3.04744 93.699 2.8723 96.6469L4.11108 99.6266M4.11108 99.6266C4.00684 99.6359 3.90022 99.6489 3.79413 99.6672C3.45307 99.726 3.07098 99.8462 2.71205 100.11C2.3499 100.376 2.07545 100.74 1.87592 101.189L2.78964 101.595L1.8759 101.189C1.4485 102.15 1.26127 103.175 1.49301 104.16C1.73015 105.169 2.37547 106.005 3.35984 106.614L3.35991 106.614C4.21799 107.144 4.73845 107.83 5.09682 108.79L4.11108 99.6266ZM54.493 110.323C54.618 110.397 54.7501 110.466 54.9139 110.551L54.9266 110.558C55.0868 110.641 55.2784 110.741 55.4682 110.857L55.4684 110.857C56.2227 111.318 56.8988 111.906 57.156 112.755C57.4194 113.625 57.1613 114.486 56.7196 115.29L56.7196 115.29C56.2338 116.174 55.5782 117.083 54.7561 117.779L54.7557 117.779C53.6647 118.701 53.0828 119.654 53.0575 120.937C53.0445 121.608 52.8625 122.225 52.4721 122.744C52.0874 123.255 51.558 123.595 50.9774 123.82C50.3477 124.064 49.7635 124.315 49.1614 124.574C48.7183 124.765 48.2654 124.96 47.7776 125.159L47.7773 125.159C47.2046 125.393 46.9248 125.628 46.8013 125.829C46.7059 125.985 46.6181 126.257 46.7974 126.824C46.9218 127.217 46.8168 127.583 46.7796 127.713C46.7779 127.719 46.7764 127.724 46.775 127.729C46.7583 127.788 46.7429 127.84 46.7283 127.889C46.6956 127.998 46.6669 128.094 46.6356 128.236L46.4292 129.17L45.4872 129.005C45.3054 128.974 45.1425 128.951 44.9639 128.926C44.8492 128.91 44.7281 128.893 44.5912 128.873C44.272 128.824 43.9146 128.76 43.554 128.647C41.5603 128.024 39.7596 127.724 37.9704 128.323L37.9703 128.323C36.6902 128.751 35.5155 128.557 34.4081 127.832L34.408 127.831C34.0146 127.574 33.5973 127.35 33.1347 127.102C33.0741 127.07 33.0127 127.037 32.9505 127.003C32.4318 126.724 31.863 126.411 31.3306 126.019L31.3305 126.019C30.6628 125.529 30.0873 125.425 29.5399 125.491C28.9431 125.563 28.3039 125.848 27.5572 126.286L27.5569 126.287C27.2925 126.442 27.0324 126.642 26.7435 126.886C26.6513 126.963 26.548 127.053 26.439 127.147C26.3502 127.224 26.2577 127.304 26.1645 127.383L54.493 110.323ZM10.3307 115.856L9.53895 116.449C10.4068 117.609 11.5015 118.389 12.9925 118.703L12.9926 118.703C13.6491 118.841 14.2517 119.054 14.9293 119.295C15.0537 119.339 15.1807 119.384 15.311 119.43C15.3123 119.474 15.3135 119.517 15.3145 119.556C15.3207 119.814 15.3178 119.998 15.2972 120.147C15.2778 120.288 15.2472 120.36 15.2216 120.401C15.2001 120.435 15.1549 120.494 15.0277 120.563L10.3307 115.856ZM10.3307 115.856L9.53894 116.449M10.3307 115.856L9.53894 116.449M11.3519 121.311L11.3519 121.311C10.532 120.349 9.6737 119.391 8.75417 118.488C7.56185 117.317 5.67752 116.218 3.72548 116.944L3.72525 116.944C2.2596 117.489 0.826913 117.727 -0.728206 117.768C-0.728271 117.768 -0.728334 117.768 -0.728399 117.768L-0.70232 118.767L11.3519 121.311ZM11.3519 121.311C11.5941 121.595 11.7917 121.707 11.9374 121.749C12.0724 121.787 12.262 121.794 12.5547 121.675C13.4393 121.317 14.2642 120.983 15.0276 120.563L11.3519 121.311ZM-15.4097 136.405L-15.4094 136.405C-14.4918 136.619 -13.9168 137.067 -13.5111 137.807L-15.4097 136.405ZM-15.4097 136.405C-16.2247 136.214 -17.0435 135.846 -17.4251 135.02M-15.4097 136.405L-17.4251 135.02M-8.26997 143.016L-7.12661 142.669C-6.86403 142.589 -6.64265 142.54 -6.39567 142.485C-6.2376 142.45 -6.06903 142.412 -5.87244 142.363C-5.44204 142.255 -4.90689 142.093 -4.44632 141.738L-4.44621 141.738C-3.78856 141.231 -3.12133 141.15 -2.08108 141.023C-1.95522 141.008 -1.82391 140.992 -1.68649 140.974L-1.68641 140.974C-1.17135 140.909 -0.993376 140.994 -0.920666 141.044C-0.823609 141.109 -0.669286 141.277 -0.473144 141.786L-0.473086 141.787C-0.189652 142.522 0.236013 143.255 0.903622 143.797C1.59155 144.356 2.46176 144.651 3.50453 144.621L4.08496 144.604L4.35812 144.092C5.1996 142.513 6.48113 141.517 8.2265 140.944C9.16783 140.635 9.97056 139.971 10.5577 139.475C11.2345 138.903 11.8028 138.27 12.283 137.593C12.2805 137.623 12.2781 137.653 12.276 137.683M-8.26997 143.016L18.1934 131.164C17.7188 131.877 17.0953 132.574 16.3754 133.018C14.5771 134.126 13.4243 135.648 13.2734 137.754M-8.26997 143.016L-8.41052 141.83M-8.26997 143.016L-8.41052 141.83M12.276 137.683L13.2734 137.754M12.276 137.683L13.2734 137.754M12.276 137.683C12.2524 138.012 12.2171 138.381 12.1803 138.768C12.1187 139.413 12.0527 140.105 12.029 140.734C11.9894 141.786 12.0468 142.917 12.444 143.965M13.2734 137.754C13.246 138.137 13.2084 138.528 13.1705 138.922C13.0142 140.546 12.8528 142.223 13.379 143.61M12.444 143.965L13.379 143.61M12.444 143.965C12.444 143.965 12.444 143.965 12.444 143.965L13.379 143.61M12.444 143.965C12.7561 144.788 12.7399 145.363 12.6095 146.034M13.379 143.61C13.8981 144.979 13.6803 145.894 13.4401 146.904C13.4258 146.964 13.4115 147.025 13.3972 147.085M12.6095 146.034C12.8813 146.051 13.162 146.069 13.4601 146.087L13.3972 147.085M12.6095 146.034C12.5691 146.242 12.5176 146.459 12.4616 146.696C12.4492 146.749 12.4365 146.802 12.4237 146.857L13.3972 147.085M12.6095 146.034C12.2172 146.009 11.8434 145.986 11.4623 145.962L11.2164 145.946L10.3654 145.893L10.1782 146.725C9.81522 148.338 10.7609 149.399 11.2985 150.002C11.358 150.068 11.4126 150.13 11.4597 150.185L11.4598 150.185C12.3531 151.239 13.449 151.56 14.4846 151.643C14.9829 151.683 15.4887 151.67 15.9437 151.657L15.9893 151.656C16.1461 151.652 16.2976 151.648 16.4456 151.645M13.3972 147.085C12.6709 147.04 12.0482 147.001 11.4048 146.96L11.1538 146.945L15.9771 150.656C16.419 150.644 16.868 150.631 17.3162 150.657M17.5476 130.125C17.4813 130.377 17.4233 130.516 17.3609 130.61C16.9338 131.252 16.4061 131.824 15.851 132.166L15.8508 132.166C15.226 132.551 14.6605 132.99 14.1727 133.486C14.2404 133.249 14.3035 133.011 14.3626 132.772L14.3626 132.772C14.5357 132.072 14.6736 131.587 14.8184 131.232C14.9587 130.887 15.0807 130.728 15.1875 130.634C15.4274 130.423 15.8655 130.279 17.336 130.145L17.5476 130.125ZM17.5476 130.125C17.4758 130.132 17.4058 130.138 17.3361 130.145L17.5476 130.125ZM16.4456 151.645C16.4059 151.363 16.3661 151.081 16.326 150.796L17.3162 150.657M16.4456 151.645C16.7265 151.64 16.9944 151.64 17.2597 151.655L17.3162 150.657M16.4456 151.645C16.4933 151.984 16.5409 152.321 16.5885 152.66C16.7912 154.098 16.9951 155.545 17.2174 157.124L17.3421 158.01L18.2365 157.984C18.4825 157.977 18.7488 157.977 19.0266 157.977C19.7224 157.977 20.4897 157.977 21.1872 157.865L21.1872 157.865C21.6094 157.798 21.8827 157.796 22.086 157.844C22.2566 157.884 22.4321 157.971 22.6354 158.21C24.217 160.069 26.2854 160.846 28.745 160.987L29.3981 161.024L29.694 160.441C29.8636 160.107 30.0603 159.748 30.267 159.371C30.7826 158.43 31.3601 157.377 31.734 156.306L17.3162 150.657M-8.41052 141.83C-8.50216 141.056 -8.75614 140.668 -9.03356 140.436C-9.33958 140.181 -9.80826 140.004 -10.5227 139.911M-8.41052 141.83L-10.5227 139.911M34.9575 147.635L34.9577 147.635C36.753 146.634 37.3543 144.922 37.8593 143.484C37.9053 143.353 37.9505 143.224 37.9958 143.098L38.1971 142.539L37.802 142.095C37.6581 141.933 37.5114 141.766 37.3624 141.597C37.0275 141.215 36.6813 140.82 36.3303 140.446C36.3303 140.446 36.3303 140.446 36.3303 140.446L35.6007 141.13L34.9575 147.635ZM34.9575 147.635C34.8344 147.704 34.795 147.76 34.78 147.785C34.7627 147.815 34.7412 147.868 34.7358 147.973C34.7226 148.225 34.8041 148.558 34.952 149.039M34.9575 147.635L33.9963 149.333M9.53894 116.449C7.79512 114.117 6.15883 111.636 5.09687 108.79L9.53894 116.449ZM-17.4251 135.02C-17.7858 134.24 -17.5938 133.375 -17.3248 132.636L-17.4251 135.02ZM-10.5227 139.911C-11.8426 139.74 -12.8638 138.987 -13.511 137.807L-10.5227 139.911ZM33.9494 154.483C34.6848 154.544 35.4376 154.31 35.8527 153.612C36.222 152.992 36.1567 152.267 35.97 151.696M33.9494 154.483L35.0195 152.007M33.9494 154.483C33.2081 154.422 32.8269 154.591 32.5714 154.815M33.9494 154.483L32.5714 154.815M35.97 151.696L35.0195 152.007M35.97 151.696C35.9701 151.696 35.9701 151.696 35.9701 151.696L35.0195 152.007M35.97 151.696C35.8165 151.226 35.6274 150.772 35.4557 150.36L35.4252 150.287C35.2398 149.842 35.076 149.442 34.952 149.039M35.0195 152.007C34.8787 151.576 34.7037 151.156 34.5287 150.736C34.3359 150.273 34.1431 149.81 33.9963 149.333M34.952 149.039C34.952 149.039 34.952 149.039 34.9521 149.039L33.9963 149.333M34.952 149.039L33.9963 149.333M32.5714 154.815C32.2698 155.078 32.0037 155.536 31.7342 156.306L32.5714 154.815ZM27.751 110.726L27.7565 110.72L15.9479 90.3711C16.3919 90.2386 16.8213 90.1103 17.2583 90.0153L17.0453 89.0383C17.0454 89.0382 17.0456 89.0382 17.0458 89.0382C17.463 88.9472 17.9184 88.8926 18.3806 88.8371C18.5802 88.8131 18.7811 88.789 18.9808 88.7617L20.0602 88.6143L20.1148 89.7024C20.1931 91.2622 20.4413 92.4942 21.1873 93.5208C24.8892 93.8239 26.9937 96.4134 28.7358 99.1479L29.198 99.8734L28.5496 100.439C28.3504 100.613 28.1415 100.777 27.9766 100.907C27.9094 100.96 27.8495 101.007 27.8007 101.047C27.6034 101.207 27.5111 101.3 27.4552 101.379L26.6407 100.798L27.4552 101.379C26.3562 102.921 25.6166 103.981 26.0149 105.56L26.0149 105.56C26.5563 107.705 26.2814 109.991 25.0606 111.869C24.4318 112.837 24.1843 113.74 24.1899 114.639C24.1946 115.397 24.3806 116.199 24.7359 117.08C24.9847 117.064 25.1594 117.013 25.2859 116.943C25.4585 116.848 25.6801 116.643 25.8516 116.068C25.9903 115.603 26.2068 115.191 26.4049 114.845C26.4866 114.703 26.5604 114.579 26.629 114.463C26.745 114.268 26.8466 114.098 26.9479 113.902C27.2299 113.358 27.3291 112.945 27.1546 112.424C27.0366 112.071 27.1197 111.762 27.1723 111.613C27.2312 111.445 27.3147 111.304 27.3794 111.205C27.506 111.011 27.6637 110.828 27.751 110.726Z" stroke="#F37524" stroke-width="2"/>
<path d="M75.1869 197.898C72.9256 195.358 70.6483 192.829 68.2935 190.376C66.2385 191.814 64.1896 193.26 62.1626 194.737C60.6968 195.805 59.2162 196.864 57.8212 198.023C56.5833 199.052 55.3984 200.143 54.1874 201.203C53.5717 201.742 52.9408 202.28 52.295 202.807C55.5324 206.74 58.7799 210.665 62.0345 214.584C63.7689 216.673 65.2598 217.066 67.4218 215.377C71.051 212.543 74.5272 209.501 77.9381 206.404C79.4686 205.014 79.4297 203.596 78.2318 201.902C77.2639 200.533 76.2989 199.147 75.1869 197.898Z" fill="black"/>
<path d="M20.4014 598.172C29.5553 602.19 36.823 608.424 42.0034 616.699C54.5407 636.726 51.4876 663.059 46.3354 671.558L50.4001 674.022C56.2438 664.382 59.7818 636.139 46.033 614.176C42.0249 607.773 36.8863 602.485 30.693 598.377C28.0849 596.647 25.2886 595.125 22.3128 593.819C10.7694 588.752 -3.47305 586.965 -20.02 588.508L-19.5794 593.242C-3.84559 591.774 9.60583 593.433 20.4014 598.172Z" fill="black"/>
<path d="M51.4198 734.859C59.0406 733.497 66.6614 732.093 74.2246 730.446C73.8839 724.746 73.5194 719.049 73.0691 713.357C72.7437 709.241 72.4528 705.106 71.8646 701.018C71.3432 697.391 70.6389 693.793 70.0249 690.18C69.7127 688.344 69.4201 686.478 69.1681 684.598C57.6801 686.193 46.1961 687.818 34.7151 689.463C28.5964 690.339 26.0588 692.764 26.7586 698.97C27.9336 709.388 29.6938 719.756 31.6398 730.063C32.5132 734.689 35.3096 736.302 40.0236 735.996C43.8329 735.749 47.672 735.529 51.4198 734.859Z" fill="#F37423"/>
<path d="M23.4478 887.11C32.7932 880.243 38.1356 871.464 40.9715 865.307C44.8493 856.888 45.748 849.815 45.2956 846.003L49.7751 845.472C50.4548 851.201 48.6955 859.321 45.0688 867.195C43.6659 870.24 41.6933 873.881 38.9913 877.649C35.8026 882.096 31.5983 886.719 26.1192 890.745C2.4714 908.121 -26.2984 901.098 -46.2691 892.147L-44.4245 888.032C-25.5481 896.492 1.55012 903.2 23.4478 887.11Z" fill="#F37423"/>
<path d="M60.7144 796.447C59.0613 796.057 57.3949 795.985 55.7607 796.232C54.207 796.466 52.7584 796.991 51.4555 797.793C50.4692 798.4 49.5862 799.15 48.8188 800.03C48.5707 800.315 48.3343 800.613 48.1109 800.924C47.0854 802.354 46.408 803.859 46.0975 805.396C45.7853 806.941 45.8142 808.659 46.1835 810.504C46.5204 812.07 47.1028 813.507 47.9145 814.777C48.724 816.041 49.7701 817.138 51.0236 818.037C54.0572 820.212 57.1903 821.043 60.6013 820.576C63.9858 820.113 66.6224 818.505 68.662 815.661C68.8582 815.387 69.0388 815.103 69.2087 814.812C69.8195 813.767 70.2632 812.613 70.5268 811.366C70.8665 809.764 70.8853 808.124 70.5834 806.492C70.2988 804.962 69.6868 803.488 68.7645 802.112C67.8314 800.72 66.6282 799.491 65.188 798.458C63.8696 797.513 62.3643 796.836 60.7144 796.447ZM78.2439 804.125C78.9024 807.027 78.9663 809.864 78.4339 812.558C77.9012 815.255 76.7592 817.837 75.0405 820.234C73.3342 822.614 71.2643 824.527 68.8884 825.921C66.5181 827.311 63.8173 828.205 60.859 828.576C58.3232 828.891 55.8087 828.71 53.3859 828.04C50.9802 827.375 48.6205 826.221 46.3733 824.609C44.098 822.978 42.2398 821.016 40.8504 818.778C39.4599 816.537 38.5367 814 38.1066 811.238C37.6898 808.551 37.7759 805.934 38.3635 803.459C38.951 800.982 40.0609 798.594 41.6613 796.362C43.2233 794.184 45.1049 792.401 47.2533 791.063C49.3991 789.727 51.8203 788.817 54.4505 788.358C57.226 787.875 59.9579 787.929 62.5699 788.518C65.1855 789.107 67.646 790.22 69.8828 791.823C72.0609 793.385 73.8825 795.229 75.2977 797.303C76.7214 799.389 77.7135 801.689 78.2439 804.125Z" fill="#F37423"/>
<path d="M9.76585 1080.56C10.5291 1080.2 11.3005 1080.24 11.933 1080.34C12.1256 1080.37 12.3177 1080.41 12.4896 1080.44L12.541 1080.45C12.7331 1080.49 12.902 1080.52 13.0652 1080.55C13.3928 1080.59 13.6315 1080.59 13.8304 1080.54L13.8307 1080.54C16.5983 1079.88 19.1989 1080.79 21.4502 1081.58C21.6477 1081.65 21.8426 1081.72 22.0346 1081.79C22.0348 1081.79 22.0349 1081.79 22.035 1081.79L22.0419 1081.79C22.2058 1081.84 22.4844 1081.94 22.7335 1082.06C22.8599 1082.13 23.022 1082.22 23.1713 1082.35C23.3063 1082.46 23.5436 1082.7 23.6224 1083.07C23.7892 1083.87 24.2394 1084.32 24.9384 1084.76C25.184 1084.92 25.4195 1085.05 25.6806 1085.19C25.8309 1085.28 25.9897 1085.36 26.1637 1085.46C26.6025 1085.72 27.0871 1086.02 27.5188 1086.42C28.1206 1086.99 28.5692 1087.11 28.9171 1087.1C29.1982 1087.1 29.5234 1087 29.9186 1086.77C29.7436 1085.45 29.4141 1084.34 28.8768 1083.41C28.27 1082.35 27.3657 1081.47 25.9938 1080.79C23.4987 1079.53 21.7573 1077.24 20.9849 1074.58L21.9454 1074.3L20.9849 1074.58C20.3606 1072.43 18.7169 1071.68 16.5156 1070.69L16.9255 1069.78L16.5155 1070.69C16.3659 1070.63 16.1714 1070.58 15.8432 1070.53C15.7565 1070.52 15.6551 1070.5 15.5431 1070.49C15.2779 1070.45 14.9538 1070.4 14.6273 1070.34L13.7821 1070.18L13.8147 1069.32C13.9735 1065.13 14.6363 1060.98 18.522 1058.33C18.7345 1056.57 18.176 1054.95 17.2171 1053.1L16.7148 1052.14L17.7209 1051.72C17.9709 1051.61 18.2154 1051.51 18.4555 1051.4C18.9981 1051.17 19.5178 1050.94 20.0264 1050.78C20.0266 1050.78 20.0268 1050.78 20.027 1050.78L9.76585 1080.56ZM9.76585 1080.56C9.45203 1080.19 9.11185 1079.78 8.70462 1079.29L8.20467 1078.7L7.50253 1079.03C5.32901 1080.08 4.05298 1082.11 3.98281 1084.64C3.96496 1085.28 3.82648 1085.63 3.67148 1085.83C3.52496 1086.02 3.27216 1086.2 2.76508 1086.32L2.76477 1086.32C2.58005 1086.36 2.39693 1086.4 2.21523 1086.45C0.757906 1086.79 -0.60773 1087.1 -1.97373 1087.16C-2.59257 1087.19 -3.1565 1087.24 -3.64016 1087.35C-4.13154 1087.46 -4.61598 1087.66 -5.00881 1088.04C-5.78553 1088.79 -5.86884 1089.93 -5.85411 1091.11C-5.85384 1091.1 -5.85413 1091.11 -5.85402 1091.12L9.76585 1080.56ZM47.4876 1082.67L47.4876 1082.67C47.7718 1081.07 48.1006 1079.46 48.5318 1077.88C49.0859 1075.84 50.4141 1073.54 52.8829 1073.1L52.8831 1073.1C54.8991 1072.75 56.6733 1072.07 58.4484 1071.1C59.5268 1070.5 60.6441 1069.95 61.9251 1069.32C62.5395 1069.02 63.1916 1068.7 63.8951 1068.34L64.4293 1068.08L64.9186 1068.42C65.0769 1068.53 65.2824 1068.66 65.5478 1068.82L65.6118 1068.86C65.8532 1069.01 66.1299 1069.17 66.414 1069.36C67.0305 1069.76 67.734 1070.28 68.3229 1070.94C68.7266 1071.39 69.0755 1071.64 69.4079 1071.78C69.7342 1071.92 70.1163 1071.97 70.6358 1071.92L70.6363 1071.92C71.0537 1071.88 71.4707 1071.86 71.8628 1071.84L71.9377 1071.83C72.3595 1071.81 72.754 1071.79 73.1412 1071.75C73.1414 1071.75 73.1415 1071.75 73.1417 1071.75L73.2124 1071.74C73.8315 1071.67 74.3698 1071.61 74.8113 1071.61C75.2824 1071.61 75.7725 1071.66 76.2338 1071.92C76.6936 1072.17 77.0005 1072.56 77.25 1072.96C77.4205 1073.24 77.5945 1073.57 77.7839 1073.96C81.6344 1074.26 84.0932 1075.04 86.196 1076.79C86.9648 1077.43 87.6583 1078.2 87.7531 1079.18C87.8527 1080.21 87.2644 1081.06 86.5032 1081.79L86.503 1081.79C85.5676 1082.68 85.1857 1083.62 85.2178 1084.79L47.4876 1082.67ZM47.4876 1082.67C47.3966 1083.18 47.2313 1083.49 47.0467 1083.68C46.8698 1083.87 46.6013 1084.02 46.1492 1084.09L46.1415 1084.09M47.4876 1082.67L46.1415 1084.09M82.6714 1093.77L81.509 1094.04C81.1578 1094.13 80.8625 1094.22 80.5436 1094.33C80.3461 1094.39 80.1397 1094.46 79.9052 1094.52C79.3646 1094.68 78.7131 1094.83 78.0331 1094.75L78.033 1094.75C76.8925 1094.6 76.0254 1094.98 74.7992 1095.51C74.6476 1095.57 74.4906 1095.64 74.3269 1095.71L74.3268 1095.71C73.6791 1095.99 73.4667 1096.24 73.3763 1096.42C73.2732 1096.64 73.2218 1097 73.3377 1097.71L73.3378 1097.71C73.496 1098.68 73.4951 1099.71 73.1297 1100.69C72.7551 1101.68 72.0308 1102.53 70.9089 1103.14L70.3995 1103.42L69.905 1103.11C67.8764 1101.87 65.7311 1101.59 63.3594 1102.1C62.1761 1102.35 60.9068 1102.15 59.9272 1101.98C58.3486 1101.7 56.9317 1101.15 55.6408 1100.4C55.9731 1100.75 56.2847 1101.13 56.5735 1101.55C56.8218 1101.91 57.1046 1102.3 57.398 1102.71C57.8801 1103.38 58.3906 1104.09 58.8225 1104.76C59.5422 1105.89 60.1892 1107.15 60.4189 1108.51M82.6714 1093.77L59.4328 1108.68M82.6714 1093.77L82.1934 1092.67M82.6714 1093.77L82.1934 1092.67M60.4189 1108.51L59.4328 1108.68M60.4189 1108.51C60.4189 1108.51 60.4189 1108.51 60.4189 1108.51L59.4328 1108.68M60.4189 1108.51C60.6369 1109.81 61.1261 1110.49 61.8135 1111.24M59.4328 1108.68C59.7453 1110.53 60.5814 1111.41 61.5034 1112.37C61.5582 1112.43 61.6134 1112.49 61.6687 1112.55M61.8135 1111.24C61.5873 1111.4 61.3543 1111.55 61.1104 1111.72L61.6687 1112.55M61.8135 1111.24C62.3098 1110.91 62.7734 1110.6 63.2476 1110.28L63.5085 1110.1L64.216 1109.63L64.7977 1110.25C66.1408 1111.69 65.8149 1113.33 65.6109 1114.36C65.5881 1114.47 65.5668 1114.58 65.5495 1114.68L65.5495 1114.68C65.2598 1116.33 64.3139 1117.34 63.2571 1118.08C62.7447 1118.43 62.1883 1118.74 61.6736 1119.02L61.6179 1119.05C61.3655 1119.19 61.1219 1119.33 60.8863 1119.46M61.8135 1111.24C61.9488 1111.39 62.0918 1111.54 62.2419 1111.7C62.2916 1111.75 62.3422 1111.8 62.3935 1111.86L61.6687 1112.55M61.6687 1112.55L60.8863 1119.46M60.8863 1119.46C61.0864 1119.95 61.2855 1120.43 61.485 1120.92C62.1927 1122.64 62.905 1124.38 63.6822 1126.27L64.0219 1127.1L63.2369 1127.53C62.9438 1127.69 62.6387 1127.87 62.3249 1128.05C61.5601 1128.5 60.743 1128.98 59.9192 1129.3L59.9191 1129.3C59.3947 1129.5 59.0496 1129.7 58.8148 1129.92C58.6044 1130.12 58.4384 1130.38 58.358 1130.84C58.358 1130.84 58.3579 1130.84 58.3579 1130.84L57.3733 1130.66L60.8863 1119.46ZM39.8934 1132.26C40.0482 1132.97 40.4152 1133.72 41.1265 1134.12C41.9159 1134.55 42.7844 1134.37 43.5016 1133.86C44.333 1133.28 44.9433 1133.19 45.4634 1133.29C46.0435 1133.4 46.6828 1133.78 47.4923 1134.46L39.297 1128.64C39.4244 1129.18 39.504 1129.75 39.5872 1130.36L39.6006 1130.46C39.6779 1131.03 39.7613 1131.65 39.8934 1132.26ZM39.8934 1132.26L40.8707 1132.04L39.8935 1132.26C39.8934 1132.26 39.8934 1132.26 39.8934 1132.26ZM11.7323 1111.68C11.8299 1112.11 12.1285 1112.4 12.2521 1112.52L12.2645 1112.53C12.3163 1112.58 12.3642 1112.63 12.4111 1112.67C12.5215 1112.77 12.6258 1112.87 12.7597 1113.01L13.4093 1113.72L14.1394 1113.1C14.3234 1112.94 14.4963 1112.81 14.682 1112.66C14.7985 1112.57 14.9201 1112.47 15.0525 1112.37C15.3716 1112.11 15.7133 1111.82 16.0254 1111.47C17.8443 1109.47 19.6987 1107.92 22.163 1107.4L22.1631 1107.4C23.7698 1107.06 24.8779 1106.15 25.5999 1104.69L25.5999 1104.69C25.8752 1104.14 26.2 1103.61 26.5514 1103.04C26.5977 1102.96 26.6443 1102.88 26.6914 1102.81C27.0858 1102.16 27.5038 1101.46 27.8319 1100.7L27.8319 1100.7C28.2824 1099.66 28.9056 1099.11 29.6246 1098.8C30.3892 1098.47 31.3314 1098.37 32.4549 1098.37L32.4553 1098.37C32.8735 1098.37 33.311 1098.43 33.7948 1098.52C33.9553 1098.54 34.132 1098.58 34.3159 1098.61C34.5064 1098.65 34.7047 1098.68 34.9011 1098.72L1.78269 1108.61L0.929467 1109.13C1.35375 1109.82 1.91312 1110.34 2.61892 1110.64C3.31589 1110.93 4.06723 1110.97 4.82031 1110.84C5.67856 1110.71 6.50205 1110.6 7.34524 1110.5C7.96092 1110.42 8.58711 1110.35 9.245 1110.25L9.24534 1110.25C10.0575 1110.14 10.5929 1110.21 10.9385 1110.39C11.2368 1110.55 11.5503 1110.88 11.7323 1111.68ZM11.7323 1111.68L12.7076 1111.46L11.7324 1111.68C11.7324 1111.68 11.7323 1111.68 11.7323 1111.68ZM82.1934 1092.67C81.7706 1091.7 81.7856 1091.03 81.9733 1090.51C82.1737 1089.96 82.6273 1089.41 83.3787 1088.83M82.1934 1092.67L83.3787 1088.83M46.1415 1084.09C44.9334 1084.26 43.7868 1084.43 42.6501 1084.46L46.1415 1084.09ZM83.3787 1088.83C84.6533 1087.85 85.2632 1086.44 85.2178 1084.79L83.3787 1088.83ZM-7.54691 1098.57L-7.54723 1098.57L-4.8541 1091.11C-4.85375 1091.13 -4.85518 1091.16 -4.85662 1091.19C-4.86037 1091.26 -4.86419 1091.33 -4.83651 1091.39L-5.73311 1091.83C-5.73303 1091.83 -5.73294 1091.83 -5.73286 1091.83C-5.12093 1093.07 -5.21689 1094.09 -5.62004 1095.12C-5.83128 1095.66 -6.12776 1096.19 -6.47325 1096.77C-6.57767 1096.95 -6.68953 1097.13 -6.8044 1097.32C-7.05263 1097.72 -7.31497 1098.15 -7.54691 1098.57ZM22.0651 1049.43C22.0191 1049.71 21.9736 1049.99 21.9265 1050.26L42.65 1084.46C42.42 1084.47 42.2827 1084.42 42.1889 1084.37C42.0881 1084.32 41.9784 1084.23 41.8486 1084.07C41.7135 1083.89 41.5818 1083.67 41.4205 1083.38C41.3846 1083.32 41.3467 1083.25 41.307 1083.18C41.2874 1083.14 41.2675 1083.1 41.2471 1083.07C41.401 1082.89 41.5496 1082.71 41.6951 1082.54C42.2986 1081.82 42.8477 1081.17 43.5008 1080.58L43.5009 1080.58C44.8945 1079.31 45.5749 1077.8 45.7778 1076.01L44.7842 1075.9L45.7778 1076.01C46.1982 1072.3 46.4 1068.52 45.7378 1064.71C45.5029 1063.36 45.6399 1062.2 46.2813 1060.99L46.2813 1060.99C46.9487 1059.73 47.1057 1058.46 46.7395 1057.27C46.3803 1056.1 45.5561 1055.14 44.4919 1054.37L43.9084 1055.18L44.4918 1054.37C44.0122 1054.03 43.5174 1053.82 43.0006 1053.77C42.4878 1053.72 42.0314 1053.82 41.6424 1053.96C41.3904 1054.06 41.1484 1054.18 40.9301 1054.3C40.7149 1052.76 40.8221 1051.44 41.4836 1050.22L41.7711 1049.69L41.4362 1049.19C40.8396 1048.3 40.1736 1047.65 39.4291 1047.24C38.6776 1046.82 37.9021 1046.67 37.1417 1046.69C35.9319 1046.73 34.7223 1047.2 33.6684 1047.67C33.3676 1047.38 33.0668 1047.1 32.765 1046.81C31.7112 1045.8 30.6447 1044.78 29.5217 1043.88L29.5216 1043.88C28.2762 1042.88 26.8527 1042.45 25.5216 1042.87C24.194 1043.29 23.2623 1044.45 22.7901 1045.99C22.4502 1047.09 22.2541 1048.28 22.0651 1049.43ZM64.5804 1111.7C64.5913 1111.72 64.6017 1111.75 64.6117 1111.77L64.6245 1111.76L64.5804 1111.7ZM38.8056 1127.23C39.0158 1127.55 39.1506 1128.02 39.297 1128.64L33.1649 1120.35L32.1898 1120.13C32.1898 1120.13 32.1898 1120.13 32.1898 1120.13C32.0445 1120.77 31.918 1121.42 31.7945 1122.06C31.7392 1122.35 31.6845 1122.63 31.629 1122.91L31.5122 1123.49L31.9684 1123.87C32.0999 1123.98 32.2326 1124.09 32.3667 1124.21C33.8699 1125.48 35.5669 1126.92 38.0955 1126.87L38.0958 1126.87C38.4783 1126.86 38.6498 1126.99 38.8056 1127.23ZM53.258 1098.72C52.044 1098.17 50.6905 1097.9 49.2545 1097.87L49.2543 1097.87C48.3612 1097.85 47.3625 1097.54 46.45 1097.09C46.2495 1097 46.0344 1096.82 45.7166 1096.49C45.6711 1096.44 45.6218 1096.38 45.5693 1096.33C45.7913 1096.23 45.9865 1096.14 46.1795 1096.05C47.8805 1095.25 48.5469 1095.07 49.0569 1095.17C49.2948 1095.22 49.574 1095.34 49.974 1095.65C50.3834 1095.97 50.8632 1096.43 51.5104 1097.09L51.5104 1097.09C52.0672 1097.66 52.6479 1098.21 53.258 1098.72Z" stroke="black" stroke-width="2"/>
<path d="M56.8522 973.132C56.3231 973.022 55.8563 973.018 55.3818 973.453C54.6904 974.087 53.8845 974.595 52.9778 975.267C53.0237 976.191 52.5328 976.974 51.3705 977.282C50.7763 977.44 50.7756 977.976 50.7211 978.458C50.6364 979.207 50.554 979.957 50.4731 980.682C49.1744 980.69 47.9032 980.207 46.4823 979.227C46.386 979.319 46.2789 979.408 46.1871 979.51C45.2769 980.527 45.1451 980.547 44.0526 979.747C43.6275 979.436 43.2204 979.1 42.8149 978.783C42.2762 979.293 41.8248 979.888 41.2296 980.239C40.4497 980.7 39.801 980.013 39.441 979.799C38.4301 980.331 37.6684 980.829 36.8365 981.139C36.1602 981.39 35.8846 981.122 35.7983 980.378C35.6581 979.169 35.7749 977.999 36.4672 977.003C35.7396 976.485 35.0957 976.027 34.4412 975.561C34.7116 975.02 34.8977 974.647 35.0524 974.338C34.4473 973.593 33.9086 972.93 33.3135 972.198C32.0802 971.871 30.6534 972.419 29.1911 971.916C29.7596 970.353 29.706 968.623 31.6747 967.924C31.3506 967.165 31.0712 966.512 30.7398 965.736C31.1581 965.855 31.3705 965.916 31.58 965.975C31.9381 964.947 31.9381 964.947 30.6634 963.912C31.502 963.638 31.4908 963.032 31.3779 962.564C30.5838 961.718 29.8812 961.055 29.2925 960.303C29.0246 959.962 28.801 959.405 28.8818 959.013C28.9967 958.458 29.5723 958.215 30.1542 958.301C31.1097 958.442 31.9207 957.967 32.5037 957.423C33.4036 956.585 34.2904 956.141 35.5673 956.542C35.7534 956.156 36.0729 955.808 36.0505 955.483C35.9558 954.114 36.7512 953.458 37.8757 953.031C38.1205 952.077 38.3572 951.155 38.5844 950.268C40.2123 950.148 40.7721 950.265 41.9656 951.377C42.6099 951.977 43.1902 952.003 43.7443 951.492C44.5843 950.716 45.2888 950.941 46.0277 951.58C46.2057 951.733 46.3992 951.868 46.6299 952.047C47.6158 951.345 48.6216 950.996 49.6486 951.892C49.9194 951.614 50.1173 951.405 50.3226 951.202C50.5639 950.965 50.7888 950.703 51.0599 950.504C51.7276 950.015 52.2999 950.235 52.3894 951.067C52.4616 951.734 52.392 952.418 52.3602 953.094C52.341 953.5 52.2739 953.904 52.2284 954.309C52.3214 954.356 52.4145 954.404 52.5075 954.451C52.8457 954.136 53.1835 953.821 53.7116 953.329C54.0138 954.294 54.2724 955.118 54.5522 956.011C55.1447 955.863 55.5997 955.748 56.3122 955.569C56.4848 956.13 56.6744 956.61 56.7774 957.108C56.9212 957.805 57.0505 958.149 57.3889 958.286C56.2413 960.361 55.5512 962.734 55.4396 965.231C55.3205 967.89 56.3228 970.828 57.8651 973.19C57.5352 973.217 57.199 973.205 56.8522 973.132Z" fill="#F37524"/>
<path d="M35.9472 501.488L35.9686 503.672C37.1327 504.215 38.3961 504.561 39.854 505.078C40.1713 506.335 41.1501 507.182 42.8345 507.118C43.6956 507.086 43.9165 507.804 44.1869 508.427C44.6077 509.396 45.0259 510.366 45.431 511.304C47.1752 510.783 48.6809 509.614 50.1834 507.718C50.3501 507.802 50.5302 507.876 50.6949 507.976C52.332 508.965 52.5168 508.937 53.6531 507.417C54.0954 506.826 54.5034 506.209 54.9166 505.618C55.8476 506.079 56.6965 506.692 57.6383 506.918C58.873 507.216 59.4606 506.029 59.8551 505.595C61.4279 505.892 62.6532 506.247 63.895 506.32C64.9043 506.379 65.1646 505.908 64.9749 504.875C64.6668 503.198 64.0307 501.679 62.6943 500.629C63.4573 499.636 64.1323 498.758 64.8185 497.865C64.234 497.252 63.8317 496.829 63.4981 496.479C64.0035 495.232 64.4537 494.123 64.9507 492.898C66.4697 491.953 68.6066 492.101 70.3605 490.829C68.9576 488.968 68.3202 486.628 65.3947 486.5C65.5182 485.351 65.6247 484.36 65.751 483.185C65.239 483.517 64.9791 483.685 64.7223 483.851C63.8216 482.621 63.8216 482.621 65.1049 480.71C63.8689 480.689 63.6357 479.872 63.5952 479.198C64.3123 477.74 64.9822 476.563 65.4632 475.314C65.6816 474.746 65.7535 473.909 65.484 473.418C65.1029 472.721 64.2318 472.632 63.4871 472.986C62.2641 473.566 60.9825 473.263 59.9782 472.774C58.4278 472.02 57.0577 471.789 55.511 472.851C55.1031 472.409 54.5322 472.074 54.4291 471.631C53.9946 469.757 52.66 469.206 50.9776 469.095C50.2583 467.917 49.5628 466.779 48.8947 465.685C46.6638 466.191 45.9614 466.578 44.8174 468.557C44.2001 469.625 43.4328 469.898 42.4807 469.441C41.0369 468.747 40.185 469.338 39.4565 470.496C39.281 470.774 39.0771 471.036 38.8406 471.368C37.2316 470.833 35.7408 470.779 34.7321 472.4C34.2551 472.139 33.9034 471.94 33.5454 471.753C33.1248 471.533 32.7156 471.275 32.2712 471.12C31.1756 470.739 30.4985 471.268 30.7194 472.419C30.8965 473.342 31.2703 474.231 31.5901 475.123C31.7823 475.659 32.0377 476.173 32.2649 476.697C32.1598 476.798 32.0545 476.9 31.9494 477.002C31.3671 476.718 30.7849 476.435 29.8754 475.993C29.8656 477.408 29.8577 478.619 29.8485 479.93C28.9935 479.974 28.337 480.008 27.3084 480.061C27.3072 480.882 27.2497 481.603 27.316 482.313C27.471 483.969 27.2853 484.298 25.6157 484.617C24.929 484.748 24.2033 484.763 24.0028 485.577C23.8991 485.997 23.9312 486.377 24.0701 486.713C27.1936 487.538 30.1105 489.325 32.3554 491.924C34.0083 493.838 35.0546 496.531 35.4435 499.213C35.6632 499.95 35.8354 500.705 35.9472 501.488Z" fill="black"/>
</svg>
