<svg width="99" height="494" viewBox="0 0 99 494" fill="none" xmlns="http://www.w3.org/2000/svg">
<path d="M104.681 399.2C95.336 392.333 89.9936 383.553 87.1577 377.397C83.2799 368.978 82.3812 361.905 82.8336 358.093L78.3541 357.562C77.6744 363.291 79.4337 371.411 83.0604 379.285C84.4633 382.33 86.4359 385.971 89.1379 389.739C92.3266 394.186 96.5309 398.809 102.01 402.835C125.658 420.211 154.428 413.188 174.398 404.237L172.554 400.121C153.677 408.582 126.579 415.29 104.681 399.2Z" fill="#F37423"/>
<path d="M67.4149 308.537C69.0679 308.147 70.7343 308.075 72.3685 308.322C73.9222 308.556 75.3709 309.081 76.6737 309.883C77.66 310.49 78.543 311.24 79.3104 312.121C79.5585 312.405 79.7949 312.703 80.0183 313.014C81.0439 314.445 81.7212 315.949 82.0317 317.486C82.3439 319.031 82.315 320.749 81.9457 322.594C81.6088 324.16 81.0264 325.597 80.2147 326.867C79.4052 328.131 78.3592 329.228 77.1056 330.127C74.072 332.302 70.939 333.133 67.5279 332.666C64.1434 332.203 61.5068 330.595 59.4672 327.751C59.2711 327.477 59.0904 327.193 58.9205 326.902C58.3098 325.857 57.866 324.703 57.6024 323.456C57.2627 321.854 57.2439 320.214 57.5459 318.582C57.8305 317.052 58.4424 315.578 59.3647 314.202C60.2978 312.81 61.501 311.581 62.9412 310.548C64.2596 309.603 65.7649 308.926 67.4149 308.537ZM49.8853 316.215C49.2268 319.117 49.1629 321.954 49.6953 324.648C50.228 327.345 51.37 329.928 53.0887 332.324C54.795 334.704 56.8649 336.618 59.2409 338.011C61.6111 339.401 64.312 340.295 67.2702 340.666C69.806 340.981 72.3205 340.8 74.7433 340.13C77.149 339.465 79.5087 338.311 81.7559 336.7C84.0312 335.068 85.8894 333.106 87.2788 330.868C88.6693 328.627 89.5925 326.09 90.0226 323.328C90.4394 320.641 90.3533 318.024 89.7657 315.549C89.1782 313.072 88.0683 310.684 86.4679 308.452C84.9059 306.274 83.0244 304.491 80.8759 303.153C78.7301 301.817 76.3089 300.907 73.6787 300.448C70.9032 299.965 68.1713 300.019 65.5593 300.608C62.9437 301.197 60.4832 302.31 58.2464 303.914C56.0683 305.475 54.2467 307.319 52.8315 309.393C51.4078 311.479 50.4157 313.779 49.8853 316.215Z" fill="#F37423"/>
<path d="M84.1221 96.1527C89.3139 91.5162 92.7787 85.8204 94.421 79.2239C98.3954 63.2592 90.6882 46.4876 85.4422 41.9739L87.6008 39.465C93.5507 44.5844 101.992 62.5161 97.6332 80.0239C96.3628 85.128 94.103 89.7377 90.8905 93.7947C89.5376 95.5032 88.0152 97.1143 86.3274 98.6214C79.7803 104.468 70.7383 108.727 59.4517 111.278L58.7211 108.05C69.4531 105.624 77.9992 101.621 84.1221 96.1527Z" fill="black"/>
<path d="M13.0023 126.264C9.49558 122.171 6.0077 118.054 2.65771 113.832C5.35408 110.911 8.06254 108.001 10.8146 105.131C12.8047 103.057 14.7842 100.957 16.9034 99.0129C18.7837 97.2878 20.7496 95.6591 22.6731 93.983C23.6511 93.1308 24.6311 92.2546 25.5958 91.3524C31.0839 97.2768 36.5569 103.215 42.0191 109.163C44.9302 112.333 45.2287 114.759 42.1156 117.795C36.8896 122.891 31.3699 127.703 25.7768 132.4C23.2669 134.508 21.0485 134.145 18.6428 131.901C16.6986 130.089 14.727 128.278 13.0023 126.264Z" fill="#F37423"/>
<path d="M73.6982 32.7162L73.2381 34.1657C72.3523 34.2894 71.4404 34.2624 70.3644 34.3087C69.8966 35.0808 69.0721 35.4448 67.9639 35.0583C67.3973 34.8608 67.1036 35.2938 66.7964 35.6536C66.3184 36.2126 65.8419 36.7732 65.3808 37.3148C64.3262 36.6115 63.5625 35.5259 62.9493 33.9574C62.8214 33.9788 62.6862 33.9918 62.5562 34.0245C61.2645 34.3485 61.1472 34.2921 60.701 33.0486C60.5273 32.5648 60.3817 32.0707 60.2272 31.5932C59.5133 31.71 58.8232 31.9443 58.15 31.9028C57.2673 31.8489 57.1186 30.9386 56.9445 30.5691C55.8368 30.4459 54.9487 30.432 54.1072 30.2271C53.4232 30.0606 53.3462 29.6935 53.6832 29.0451C54.2307 27.9914 54.9644 27.1098 56.0683 26.684C55.763 25.8674 55.493 25.1449 55.2185 24.4106C55.7329 24.1214 56.0869 23.9222 56.3806 23.757C56.2986 22.8242 56.2254 21.9937 56.1447 21.0767C55.3263 20.1379 53.8735 19.8002 52.9659 18.5948C54.2796 17.6427 55.1816 16.2153 57.1553 16.7269C57.3077 15.9369 57.439 15.2556 57.5947 14.448C57.868 14.7729 58.0067 14.9379 58.1438 15.1008C58.9943 14.4661 58.9943 14.4661 58.5302 12.9322C59.3573 13.1701 59.6794 12.6739 59.8438 12.2339C59.6642 11.1165 59.4585 10.1967 59.3933 9.26691C59.3639 8.84433 59.4869 8.27228 59.7666 8.00014C60.1625 7.61456 60.7606 7.73296 61.1842 8.12022C61.8797 8.75665 62.7948 8.81605 63.5632 8.69591C64.7493 8.51027 65.7085 8.63626 66.5212 9.65916C66.8829 9.44836 67.3314 9.34177 67.4906 9.06764C68.1623 7.9093 69.1633 7.81449 70.306 8.08395C71.0252 7.44691 71.7206 6.83114 72.3887 6.23925C73.7704 7.03184 74.1589 7.43293 74.5164 8.9838C74.7093 9.82079 75.1644 10.1591 75.8915 10.0491C76.9943 9.88227 77.4407 10.4493 77.6893 11.3687C77.7493 11.5902 77.8317 11.8056 77.9211 12.0755C79.1016 12.0473 80.105 12.316 80.4455 13.6012C80.8163 13.5248 81.0911 13.4638 81.3676 13.4126C81.6925 13.352 82.0176 13.2636 82.345 13.2517C83.1521 13.2216 83.495 13.7115 83.1128 14.4329C82.8064 15.0115 82.3762 15.5266 81.9812 16.0551C81.7438 16.3729 81.4689 16.6624 81.2107 16.9649C81.2599 17.054 81.3092 17.1433 81.3585 17.2324C81.8039 17.1627 82.2493 17.0931 82.9451 16.9843C82.6627 17.9283 82.4206 18.7363 82.1591 19.6109C82.7194 19.8145 83.1494 19.9711 83.8234 20.2162C83.6564 20.7634 83.5475 21.2552 83.3585 21.714C82.9173 22.7847 82.9736 23.0419 84.02 23.5949C84.4504 23.8223 84.9303 23.9807 84.8977 24.5631C84.8809 24.8643 84.782 25.1102 84.621 25.3056C82.3732 25.2175 80.0667 25.8114 78.0416 27.0832C76.5507 28.0195 75.3043 29.5988 74.4978 31.3048C74.2012 31.7503 73.9323 32.2182 73.6982 32.7162Z" fill="#8B9A5A"/>
<path d="M71.2765 485.222C71.8056 485.111 72.2724 485.108 72.7469 485.543C73.4383 486.176 74.2442 486.684 75.1509 487.357C75.105 488.281 75.5959 489.064 76.7583 489.372C77.3524 489.529 77.3531 490.066 77.4076 490.548C77.4923 491.297 77.5748 492.047 77.6556 492.772C78.9543 492.78 80.2255 492.297 81.6464 491.317C81.7427 491.409 81.8498 491.497 81.9416 491.6C82.8518 492.617 82.9837 492.636 84.0761 491.837C84.5012 491.526 84.9083 491.19 85.3139 490.873C85.8525 491.382 86.3039 491.978 86.8991 492.329C87.679 492.79 88.3277 492.103 88.6877 491.889C89.6987 492.421 90.4603 492.919 91.2922 493.228C91.9685 493.479 92.2441 493.212 92.3304 492.468C92.4706 491.259 92.3538 490.089 91.6615 489.093C92.3891 488.575 93.033 488.116 93.6875 487.651C93.4171 487.109 93.231 486.737 93.0764 486.428C93.6814 485.683 94.2201 485.02 94.8153 484.287C96.0485 483.961 97.4753 484.508 98.9376 484.006C98.3691 482.443 98.4227 480.712 96.4541 480.013C96.7781 479.255 97.0576 478.601 97.389 477.826C96.9706 477.945 96.7582 478.005 96.5487 478.065C96.1907 477.037 96.1907 477.037 97.4653 476.001C96.6267 475.728 96.6379 475.122 96.7508 474.654C97.5449 473.808 98.2475 473.145 98.8362 472.393C99.1041 472.051 99.3278 471.495 99.2469 471.103C99.132 470.548 98.5565 470.305 97.9745 470.391C97.0191 470.532 96.208 470.056 95.625 469.513C94.7251 468.674 93.8383 468.23 92.5614 468.632C92.3753 468.245 92.0558 467.897 92.0783 467.573C92.1729 466.203 91.3776 465.548 90.253 465.12C90.0083 464.166 89.7715 463.244 89.5443 462.358C87.9164 462.237 87.3566 462.355 86.1631 463.466C85.5189 464.066 84.9385 464.092 84.3844 463.581C83.5445 462.806 82.8399 463.031 82.1011 463.669C81.923 463.823 81.7295 463.958 81.4989 464.136C80.5129 463.434 79.5071 463.086 78.4802 463.982C78.2094 463.704 78.0114 463.495 77.8061 463.292C77.5648 463.054 77.3399 462.792 77.0688 462.594C76.4012 462.105 75.8288 462.324 75.7393 463.156C75.6671 463.823 75.7367 464.508 75.7685 465.184C75.7877 465.59 75.8548 465.994 75.9004 466.399C75.8073 466.446 75.7143 466.494 75.6212 466.541C75.2831 466.226 74.9452 465.911 74.4171 465.419C74.1149 466.383 73.8563 467.208 73.5766 468.101C72.984 467.952 72.5291 467.838 71.8165 467.659C71.6439 468.219 71.4543 468.7 71.3513 469.198C71.2076 469.894 71.0783 470.239 70.7398 470.376C71.8874 472.45 72.5775 474.823 72.6892 477.321C72.8082 479.98 71.8059 482.918 70.2637 485.28C70.5935 485.306 70.9297 485.294 71.2765 485.222Z" fill="#E2AC34"/>
<path d="M102.573 222.383C101.714 224.014 100.552 225.401 99.2151 226.392C95.5183 229.131 90.4095 229.003 86.8882 228.667L86.6262 228.642L86.8335 228.48C87.3441 228.081 87.8012 227.746 88.2059 227.45C89.4473 226.54 90.2675 225.938 90.9592 224.716C91.3876 223.959 91.4843 223.001 91.224 222.087C90.9718 221.202 90.408 220.464 89.6762 220.065C88.9154 219.649 87.9618 219.593 87.0596 219.911C86.1845 220.22 85.5001 220.839 85.1825 221.609C84.8862 222.326 84.8668 223.12 84.8481 223.887L84.7372 228.457C84.723 229.045 84.7068 229.711 84.4288 230.292C84.171 230.83 83.5745 231.364 82.8736 231.263C82.4455 231.202 82.0918 230.913 81.8071 230.68L77.8751 227.57C77.4415 227.215 76.9759 226.874 76.4733 226.918C75.7307 226.984 75.3051 227.862 75.1662 228.593C75.1409 228.728 75.1177 228.869 75.0949 229.007C74.9829 229.694 74.9073 230.338 74.4103 230.833C73.9031 231.338 73.039 231.501 72.2086 231.249C71.8228 231.132 71.4604 230.945 71.013 230.638C70.7567 230.462 70.4741 230.256 70.2622 230.09C68.5787 228.778 67.9285 227.501 68.3823 226.4C68.6207 225.821 69.1263 225.433 69.6155 225.058C70.0979 224.688 70.5731 224.295 70.795 223.779C71.2676 222.68 70.467 221.501 70.1835 221.161C69.9644 220.898 69.6531 220.605 69.415 220.36C68.9631 219.896 68.3895 219.441 68.0734 218.858C67.0586 216.984 67.9663 214.689 69.2509 213.207C70.1879 212.125 71.3809 211.294 72.5349 210.49C73.0186 210.153 73.5189 209.805 73.9919 209.443C76.5091 207.521 78.5329 205.02 79.8973 202.183C80.326 201.291 80.671 200.409 80.9639 199.459C81.1404 198.886 81.2709 198.288 81.031 197.793C80.8739 197.47 80.5921 197.19 80.2888 196.981C80.2863 196.98 80.284 196.978 80.2816 196.977C79.3531 196.345 78.3673 195.838 77.2732 195.583C77.2314 195.574 77.1893 195.564 77.147 195.554C76.7648 195.468 76.4276 195.418 76.1178 195.159C75.9036 194.98 75.7258 194.784 75.7161 194.51C75.709 194.301 75.8185 194.028 75.9551 193.896C76.2378 193.624 76.7562 193.594 77.1301 193.591C78.2109 193.584 79.1579 193.38 79.9889 193.144C78.7203 190.391 78.7524 187.129 80.2194 184.712C81.8157 182.082 84.8351 180.378 87.9112 180.371C89.2234 180.367 90.5756 180.695 91.8635 181.283C97.6543 184.145 100.183 191.103 97.5089 197.043C95.9345 200.54 92.8998 202.921 89.4494 203.791C88.7862 203.958 88.1077 204.07 87.4214 204.122C87.3212 204.13 87.2209 204.137 87.1203 204.142L87.63 203.887C89.0394 203.163 90.0769 201.787 90.3695 200.23C90.6623 198.672 90.6197 197.16 89.5693 195.973C89.0946 195.437 88.3767 195.063 87.8422 195.438C87.6173 195.596 87.4952 195.826 87.4325 196.088C87.6847 196.354 88.1149 196.81 88.3109 197.039C88.5976 197.374 88.8366 198.216 87.9135 198.894C87.8128 198.968 87.7159 199.049 87.6251 199.132C87.2763 199.45 86.9945 199.834 86.7847 200.256L85.4402 202.966C83.9193 205.902 81.619 210.67 81.0038 213.941L80.9756 214.091L81.1258 214.063C82.285 213.849 83.1297 212.897 83.5303 212.348C83.9065 211.832 84.2193 211.259 84.5228 210.702C84.754 210.278 84.9931 209.84 85.2607 209.427C86.1916 207.988 87.5287 206.804 89.1281 206.002C90.7276 205.2 92.4762 204.835 94.1853 204.949C96.0399 205.073 97.8692 205.754 99.4753 206.92C101.05 208.063 102.295 209.583 103.075 211.316C103.836 213.004 104.184 214.931 104.082 216.891C103.982 218.8 103.461 220.699 102.573 222.383ZM106.009 216.99C106.127 214.726 105.72 212.49 104.834 210.523C103.916 208.484 102.455 206.699 100.608 205.358C98.9454 204.151 97.0714 203.383 95.144 203.111C96.9015 201.735 98.3206 199.939 99.2678 197.835C100.765 194.508 100.91 190.787 99.6756 187.356C98.4441 183.933 95.9735 181.162 92.7185 179.553L92.665 179.528C91.1013 178.814 89.4547 178.438 87.9072 178.441C84.1729 178.45 80.5082 180.518 78.5705 183.711C77.1879 185.989 76.8063 188.878 77.4495 191.652C77.3409 191.658 77.2299 191.662 77.117 191.662C76.6701 191.665 75.4828 191.674 74.6174 192.506C74.0876 193.017 73.7624 193.829 73.7883 194.577C73.8158 195.363 74.1833 196.057 74.8814 196.64C75.5197 197.173 76.1756 197.317 76.6097 197.412L76.8359 197.462C77.5883 197.637 78.334 197.987 79.1813 198.561L79.2063 198.579C79.1897 198.652 79.1631 198.752 79.1205 198.89C78.8569 199.746 78.5423 200.549 78.159 201.347C76.9226 203.918 75.077 206.188 72.8213 207.91C72.3831 208.245 71.9023 208.58 71.4315 208.908C70.239 209.739 68.8875 210.68 67.7933 211.943C65.2228 214.909 65.424 218.017 66.3773 219.777C66.7583 220.48 67.2938 220.993 67.7243 221.405C67.8304 221.506 67.9351 221.606 68.0326 221.706C68.1063 221.782 68.187 221.862 68.27 221.945C68.4252 222.1 68.6014 222.276 68.701 222.395C68.8473 222.571 68.9991 222.886 69.0116 223.03C68.9391 223.125 68.7479 223.292 68.4417 223.527C67.848 223.983 67.035 224.606 66.5989 225.665C66.1311 226.8 65.8314 229.081 69.0758 231.612C69.3204 231.802 69.6363 232.033 69.9211 232.228C70.309 232.495 70.6629 232.699 71.0156 232.858C71.2246 232.952 71.4333 233.03 71.6481 233.095C73.1721 233.558 74.752 233.215 75.7709 232.2C76.6811 231.294 76.8533 230.224 76.9787 229.442L76.9961 229.334L80.5983 232.184C80.9938 232.507 81.6496 233.037 82.5986 233.173C84.2724 233.413 85.5979 232.317 86.1687 231.124C86.2594 230.935 86.3327 230.746 86.3928 230.558L86.705 230.588C90.5426 230.953 96.1337 231.077 100.363 227.942C101.932 226.779 103.286 225.168 104.28 223.283C105.297 221.353 105.895 219.177 106.009 216.99Z" fill="#284193"/>
</svg>
