<svg width="119" height="1310" viewBox="0 0 119 1310" fill="none" xmlns="http://www.w3.org/2000/svg">
<path d="M98.7522 819.765C105.425 810.453 114.033 805.072 120.08 802.198C128.349 798.268 135.325 797.297 139.096 797.698L139.567 793.268C133.9 792.664 125.9 794.498 118.167 798.174C115.176 799.595 111.603 801.587 107.913 804.3C103.559 807.503 99.0417 811.71 95.1303 817.17C78.2485 840.733 85.5257 869.066 94.6034 888.685L98.6468 886.815C90.0665 868.27 83.12 841.585 98.7522 819.765Z" fill="#F37423"/>
<path d="M130.879 949.89L130.879 949.89C130.526 950 130.341 949.97 130.229 949.925C130.104 949.874 129.906 949.736 129.656 949.335C128.576 947.601 126.844 946.695 124.886 946.851L124.108 946.913L123.979 947.682C123.909 948.099 123.848 948.457 123.793 948.787C123.159 948.886 122.67 949.217 122.301 949.518C122.181 949.617 122.063 949.72 121.961 949.81L121.931 949.837C121.816 949.937 121.719 950.022 121.624 950.097C121.432 950.25 121.297 950.324 121.183 950.359L121.183 950.359C118.999 951.022 117.569 952.706 116.374 954.113C116.267 954.238 116.162 954.362 116.059 954.482L130.879 949.89ZM130.879 949.89C131.02 949.846 131.16 949.802 131.298 949.76C132.413 949.414 133.434 949.098 134.356 948.612C134.784 948.386 135.196 948.189 135.585 948.067C135.982 947.943 136.427 947.875 136.893 947.988C137.811 948.212 138.356 949.031 138.804 949.818C138.805 949.819 138.806 949.82 138.806 949.822L138.809 949.825C138.817 949.837 138.839 949.87 138.859 949.905C138.897 949.967 139.017 950.169 139.037 950.448C139.107 951.446 139.533 952.041 140.169 952.541C140.507 952.808 140.905 953.046 141.361 953.297C141.495 953.371 141.64 953.448 141.789 953.528C142.117 953.704 142.47 953.893 142.794 954.086L142.795 954.086M130.879 949.89L142.795 954.086M101.808 930.724C102.481 931.341 103.098 932.087 103.682 932.791C103.787 932.918 103.891 933.043 103.994 933.167L97.0379 932.397C96.6502 933.411 96.3498 934.46 96.0424 935.533C95.9031 936.02 95.7623 936.511 95.6114 937.007M101.808 930.724L101.132 931.461L101.808 930.724C101.808 930.724 101.808 930.724 101.808 930.724ZM101.808 930.724C100.854 929.849 99.6994 929.39 98.5508 929.653C97.3985 929.916 96.5647 930.834 96.1038 932.039L96.1038 932.04C95.7003 933.095 95.3799 934.214 95.0664 935.308C94.9916 935.569 94.9173 935.828 94.8422 936.086M94.8422 936.086C95.0298 936.063 95.2119 936.044 95.3859 936.025C95.4261 936.021 95.4659 936.017 95.5051 936.013L95.6114 937.007M94.8422 936.086C93.9823 936.188 93.009 936.356 92.192 936.804C91.6427 937.105 91.1493 937.536 90.786 938.15C90.4268 938.758 90.2269 939.49 90.1758 940.351L90.14 940.953L90.6559 941.265C91.4465 941.744 91.9837 942.444 92.4128 943.39M94.8422 936.086C94.7804 936.298 94.7181 936.508 94.6548 936.716L95.6114 937.007M95.6114 937.007L95.5753 937.011C93.4901 937.234 91.3491 937.462 91.174 940.41L92.4128 943.39M92.4128 943.39C92.3085 943.399 92.2019 943.412 92.0958 943.43C91.7548 943.489 91.3727 943.609 91.0138 943.873C90.6516 944.139 90.3771 944.503 90.1776 944.952L91.0913 945.358L90.1776 944.952C89.7502 945.913 89.563 946.938 89.7947 947.924C90.0318 948.932 90.6772 949.769 91.6615 950.377L91.6616 950.377C92.5197 950.907 93.0401 951.594 93.3985 952.554L92.4128 943.39ZM142.795 954.086C142.92 954.16 143.052 954.229 143.216 954.314L143.228 954.321C143.388 954.404 143.58 954.504 143.77 954.62L143.77 954.62C144.524 955.081 145.201 955.669 145.458 956.518C145.721 957.388 145.463 958.249 145.021 959.053L145.021 959.053C144.535 959.937 143.88 960.846 143.058 961.542L143.057 961.542C141.966 962.464 141.385 963.417 141.359 964.7C141.346 965.371 141.164 965.988 140.774 966.507C140.389 967.019 139.86 967.358 139.279 967.583C138.649 967.827 138.065 968.079 137.463 968.338C137.02 968.528 136.567 968.723 136.079 968.922L136.079 968.922C135.506 969.156 135.226 969.391 135.103 969.592C135.008 969.748 134.92 970.02 135.099 970.587C135.224 970.98 135.118 971.347 135.081 971.476C135.08 971.482 135.078 971.487 135.077 971.492C135.06 971.552 135.045 971.603 135.03 971.652C134.997 971.761 134.969 971.858 134.937 971.999L134.731 972.933L133.789 972.769C133.607 972.737 133.444 972.714 133.266 972.689C133.151 972.673 133.03 972.657 132.893 972.636C132.574 972.587 132.216 972.523 131.856 972.411C129.862 971.787 128.061 971.487 126.272 972.086L126.272 972.086C124.992 972.514 123.817 972.32 122.71 971.595L122.71 971.595C122.316 971.337 121.899 971.113 121.436 970.865C121.376 970.833 121.314 970.8 121.252 970.766C120.733 970.487 120.165 970.174 119.632 969.783L119.632 969.783C118.965 969.292 118.389 969.188 117.842 969.254C117.245 969.327 116.606 969.611 115.859 970.05L115.859 970.05C115.594 970.205 115.334 970.405 115.045 970.649C114.953 970.726 114.85 970.816 114.741 970.91C114.652 970.987 114.559 971.067 114.466 971.146L142.795 954.086ZM98.6324 959.62L97.8406 960.212C98.7085 961.372 99.8032 962.153 101.294 962.466L101.294 962.466C101.951 962.604 102.553 962.818 103.231 963.058C103.355 963.102 103.482 963.147 103.613 963.193C103.614 963.237 103.615 963.28 103.616 963.32C103.622 963.577 103.619 963.761 103.599 963.91C103.579 964.052 103.549 964.123 103.523 964.164C103.502 964.199 103.457 964.257 103.329 964.327L98.6324 959.62ZM98.6324 959.62L97.8406 960.212M98.6324 959.62L97.8406 960.212M99.6536 965.074L99.6536 965.074C98.8337 964.112 97.9754 963.154 97.0559 962.251C95.8636 961.08 93.9792 959.981 92.0272 960.707L92.027 960.707C90.5613 961.252 89.1286 961.49 87.5735 961.531C87.5734 961.531 87.5734 961.531 87.5733 961.531L87.5994 962.531L99.6536 965.074ZM99.6536 965.074C99.8958 965.359 100.093 965.471 100.239 965.512C100.374 965.55 100.564 965.557 100.856 965.438C101.741 965.08 102.566 964.746 103.329 964.327L99.6536 965.074ZM72.892 980.168L72.8923 980.168C73.8099 980.383 74.3849 980.831 74.7906 981.57L72.892 980.168ZM72.892 980.168C72.077 979.977 71.2582 979.609 70.8766 978.783M72.892 980.168L70.8766 978.783M80.0317 986.78L81.1751 986.432C81.4377 986.352 81.659 986.303 81.906 986.248C82.0641 986.213 82.2327 986.176 82.4293 986.126C82.8597 986.018 83.3948 985.856 83.8554 985.501L83.8555 985.501C84.5131 984.995 85.1804 984.913 86.2206 984.786C86.3465 984.771 86.4778 984.755 86.6152 984.738L86.6153 984.738C87.1303 984.672 87.3083 984.757 87.381 984.807C87.4781 984.872 87.6324 985.04 87.8286 985.55L87.8286 985.55C88.112 986.285 88.5377 987.018 89.2053 987.56C89.8932 988.119 90.7635 988.414 91.8062 988.384L92.3867 988.367L92.6598 987.855C93.5013 986.277 94.7828 985.281 96.5282 984.707C97.4695 984.398 98.2723 983.734 98.8594 983.238C99.5362 982.666 100.104 982.033 100.585 981.356C100.582 981.386 100.58 981.416 100.578 981.446M80.0317 986.78L106.495 974.927C106.021 975.64 105.397 976.337 104.677 976.781C102.879 977.889 101.726 979.411 101.575 981.518M80.0317 986.78L79.8912 985.593M80.0317 986.78L79.8912 985.593M100.578 981.446L101.575 981.518M100.578 981.446L101.575 981.518M100.578 981.446C100.554 981.775 100.519 982.145 100.482 982.531C100.42 983.176 100.354 983.868 100.331 984.497C100.291 985.549 100.348 986.681 100.746 987.728M101.575 981.518C101.548 981.9 101.51 982.291 101.472 982.685C101.316 984.309 101.154 985.986 101.681 987.373M100.746 987.728L101.681 987.373M100.746 987.728C100.746 987.728 100.746 987.728 100.746 987.728L101.681 987.373M100.746 987.728C101.058 988.551 101.042 989.126 100.911 989.797M101.681 987.373C102.2 988.742 101.982 989.658 101.742 990.667C101.728 990.727 101.713 990.788 101.699 990.849M100.911 989.797C101.183 989.814 101.464 989.832 101.762 989.851L101.699 990.849M100.911 989.797C100.871 990.005 100.819 990.223 100.763 990.459C100.751 990.512 100.738 990.565 100.725 990.62L101.699 990.849M100.911 989.797C100.519 989.772 100.145 989.749 99.764 989.725L99.5181 989.71L98.6671 989.656L98.4799 990.488C98.1169 992.101 99.0626 993.162 99.6002 993.765C99.6597 993.832 99.7143 993.893 99.7614 993.948L99.7615 993.949C100.655 995.002 101.751 995.323 102.786 995.406C103.285 995.446 103.79 995.433 104.245 995.421L104.291 995.419C104.448 995.415 104.599 995.411 104.747 995.408M101.699 990.849C100.973 990.803 100.35 990.764 99.7065 990.723L99.4555 990.708L104.279 994.419C104.721 994.407 105.17 994.395 105.618 994.42M105.849 973.888C105.783 974.14 105.725 974.279 105.663 974.373C105.235 975.015 104.708 975.587 104.153 975.929L104.153 975.929C103.528 976.314 102.962 976.753 102.474 977.25C102.542 977.013 102.605 976.774 102.664 976.535L102.664 976.535C102.837 975.835 102.975 975.351 103.12 974.995C103.26 974.651 103.382 974.491 103.489 974.397C103.729 974.186 104.167 974.042 105.638 973.908L105.849 973.888ZM105.849 973.888C105.777 973.895 105.708 973.902 105.638 973.908L105.849 973.888ZM104.747 995.408C104.708 995.126 104.668 994.844 104.628 994.559L105.618 994.42M104.747 995.408C105.028 995.403 105.296 995.403 105.561 995.418L105.618 994.42M104.747 995.408C104.795 995.747 104.843 996.085 104.89 996.423C105.093 997.861 105.297 999.308 105.519 1000.89L105.644 1001.77L106.538 1001.75C106.784 1001.74 107.051 1001.74 107.328 1001.74C108.024 1001.74 108.791 1001.74 109.489 1001.63L109.489 1001.63C109.911 1001.56 110.184 1001.56 110.388 1001.61C110.558 1001.65 110.734 1001.73 110.937 1001.97C112.519 1003.83 114.587 1004.61 117.047 1004.75L117.7 1004.79L117.996 1004.2C118.165 1003.87 118.362 1003.51 118.569 1003.13C119.084 1002.19 119.662 1001.14 120.036 1000.07L105.618 994.42M79.8912 985.593C79.7995 984.819 79.5456 984.431 79.2681 984.2C78.9621 983.944 78.4934 983.768 77.779 983.674M79.8912 985.593L77.779 983.674M123.259 991.398L123.259 991.398C125.055 990.397 125.656 988.685 126.161 987.247C126.207 987.116 126.252 986.987 126.297 986.862L126.499 986.302L126.104 985.858C125.96 985.697 125.813 985.529 125.664 985.36C125.329 984.978 124.983 984.583 124.632 984.209C124.632 984.209 124.632 984.209 124.632 984.209L123.902 984.893L123.259 991.398ZM123.259 991.398C123.136 991.467 123.097 991.523 123.082 991.549C123.064 991.578 123.043 991.631 123.037 991.736C123.024 991.988 123.106 992.321 123.254 992.802M123.259 991.398L122.298 993.096M97.8406 960.212C96.0968 957.88 94.4605 955.4 93.3986 952.554L97.8406 960.212ZM70.8766 978.783C70.5159 978.003 70.7079 977.139 70.9769 976.399L70.8766 978.783ZM77.779 983.674C76.4591 983.503 75.4379 982.75 74.7907 981.57L77.779 983.674ZM122.251 998.246C122.986 998.307 123.739 998.073 124.154 997.375C124.524 996.755 124.458 996.03 124.272 995.459M122.251 998.246L123.321 995.77M122.251 998.246C121.51 998.185 121.129 998.355 120.873 998.578M122.251 998.246L120.873 998.578M124.272 995.459L123.321 995.77M124.272 995.459C124.272 995.459 124.272 995.459 124.272 995.459L123.321 995.77M124.272 995.459C124.118 994.989 123.929 994.536 123.757 994.124L123.727 994.05C123.542 993.605 123.378 993.205 123.254 992.802M123.321 995.77C123.18 995.339 123.005 994.919 122.83 994.499C122.638 994.036 122.445 993.573 122.298 993.096M123.254 992.802C123.254 992.802 123.254 992.802 123.254 992.802L122.298 993.096M123.254 992.802L122.298 993.096M120.873 998.578C120.572 998.841 120.305 999.299 120.036 1000.07L120.873 998.578ZM116.053 954.489L116.058 954.483L104.25 934.134C104.694 934.002 105.123 933.874 105.56 933.779L105.347 932.801C105.347 932.801 105.347 932.801 105.347 932.801C105.765 932.71 106.22 932.656 106.682 932.6C106.882 932.576 107.083 932.552 107.282 932.525L108.362 932.378L108.417 933.466C108.495 935.025 108.743 936.257 109.489 937.284C113.191 937.587 115.295 940.177 117.037 942.911L117.5 943.637L116.851 944.202C116.652 944.376 116.443 944.54 116.278 944.67C116.211 944.723 116.151 944.771 116.102 944.81C115.905 944.97 115.813 945.063 115.757 945.142L114.942 944.562L115.757 945.142C114.658 946.684 113.918 947.745 114.317 949.323L114.317 949.323C114.858 951.468 114.583 953.754 113.362 955.632C112.733 956.6 112.486 957.503 112.492 958.402C112.496 959.161 112.682 959.962 113.038 960.843C113.286 960.827 113.461 960.776 113.588 960.706C113.76 960.612 113.982 960.406 114.153 959.831C114.292 959.366 114.509 958.954 114.707 958.609C114.788 958.466 114.862 958.342 114.931 958.226C115.047 958.032 115.148 957.861 115.25 957.665C115.532 957.121 115.631 956.708 115.456 956.187C115.338 955.835 115.421 955.526 115.474 955.376C115.533 955.209 115.616 955.067 115.681 954.968C115.808 954.774 115.965 954.591 116.053 954.489Z" fill="#F37524" stroke="#F37524" stroke-width="2"/>
<path d="M115.935 1091.77C109.263 1082.45 100.655 1077.07 94.6077 1074.2C86.3379 1070.27 79.3622 1069.3 75.5916 1069.7L75.1206 1065.27C80.7868 1064.66 88.7869 1066.5 96.5206 1070.17C99.5117 1071.6 103.084 1073.59 106.774 1076.3C111.129 1079.5 115.646 1083.71 119.557 1089.17C136.439 1112.73 129.162 1141.07 120.084 1160.69L116.04 1158.81C124.621 1140.27 131.567 1113.58 115.935 1091.77Z" fill="#F37423"/>
<path d="M120.68 1208.4C121.737 1207.1 122.518 1205.65 123.002 1204.09C123.462 1202.61 123.618 1201.09 123.465 1199.59C123.35 1198.45 123.063 1197.34 122.61 1196.28C122.463 1195.94 122.3 1195.6 122.119 1195.27C121.289 1193.74 120.242 1192.49 119.009 1191.56C117.77 1190.61 116.229 1189.9 114.43 1189.44C112.893 1189.06 111.364 1188.96 109.886 1189.14C108.414 1189.31 106.988 1189.77 105.65 1190.5C102.411 1192.26 100.324 1194.69 99.2722 1197.92C98.2285 1201.13 98.5241 1204.17 100.176 1207.21C100.335 1207.5 100.51 1207.78 100.696 1208.06C101.362 1209.05 102.197 1209.94 103.193 1210.71C104.471 1211.7 105.922 1212.42 107.502 1212.86C108.985 1213.26 110.559 1213.35 112.179 1213.12C113.818 1212.89 115.429 1212.35 116.967 1211.52C118.375 1210.75 119.624 1209.7 120.68 1208.4ZM106.312 1220.69C103.448 1220.02 100.898 1218.86 98.7321 1217.23C96.563 1215.6 94.7574 1213.47 93.3653 1210.91C91.9833 1208.37 91.1721 1205.71 90.9549 1202.99C90.7383 1200.29 91.1055 1197.5 92.0476 1194.71C92.8587 1192.32 94.1007 1190.16 95.7385 1188.3C97.3646 1186.44 99.4061 1184.84 101.806 1183.54C104.235 1182.22 106.779 1181.41 109.366 1181.13C111.957 1180.86 114.61 1181.13 117.252 1181.94C119.82 1182.72 122.11 1183.92 124.058 1185.51C126.008 1187.1 127.654 1189.11 128.95 1191.5C130.215 1193.82 130.992 1196.26 131.257 1198.75C131.522 1201.23 131.29 1203.78 130.567 1206.31C129.802 1208.99 128.579 1211.39 126.932 1213.46C125.283 1215.54 123.236 1217.24 120.847 1218.54C118.522 1219.81 116.099 1220.64 113.646 1221C111.178 1221.37 108.707 1221.26 106.312 1220.69Z" fill="#F37524"/>
<path d="M40.1986 1048.22C42.4599 1045.68 44.7372 1043.15 47.092 1040.7C49.147 1042.13 51.1959 1043.58 53.223 1045.06C54.6888 1046.12 56.1694 1047.18 57.5643 1048.34C58.8023 1049.37 59.9872 1050.46 61.1982 1051.52C61.8139 1052.06 62.4447 1052.6 63.0906 1053.13C59.8531 1057.06 56.6057 1060.99 53.3511 1064.9C51.6166 1066.99 50.1257 1067.39 47.9638 1065.7C44.3345 1062.86 40.8583 1059.82 37.4475 1056.72C35.917 1055.33 35.9558 1053.92 37.1537 1052.22C38.1216 1050.85 39.0867 1049.47 40.1986 1048.22Z" fill="#F37524"/>
<path d="M85.5443 1294.04L85.5229 1296.22C84.3588 1296.77 83.0954 1297.11 81.6375 1297.63C81.3202 1298.89 80.3414 1299.73 78.6571 1299.67C77.7959 1299.64 77.575 1300.36 77.3047 1300.98C76.8838 1301.95 76.4656 1302.92 76.0605 1303.86C74.3163 1303.33 72.8106 1302.17 71.3081 1300.27C71.1414 1300.35 70.9613 1300.43 70.7966 1300.53C69.1595 1301.52 68.9747 1301.49 67.8384 1299.97C67.3962 1299.38 66.9881 1298.76 66.5749 1298.17C65.6439 1298.63 64.795 1299.24 63.8532 1299.47C62.6185 1299.77 62.031 1298.58 61.6364 1298.15C60.0636 1298.44 58.8383 1298.8 57.5966 1298.87C56.5872 1298.93 56.3269 1298.46 56.5166 1297.43C56.8247 1295.75 57.4608 1294.23 58.7973 1293.18C58.0342 1292.19 57.3592 1291.31 56.673 1290.42C57.2575 1289.8 57.6598 1289.38 57.9935 1289.03C57.488 1287.78 57.0378 1286.67 56.5409 1285.45C55.0218 1284.51 52.8849 1284.65 51.131 1283.38C52.5339 1281.52 53.1713 1279.18 56.0968 1279.05C55.9733 1277.9 55.8668 1276.91 55.7405 1275.74C56.2525 1276.07 56.5124 1276.24 56.7692 1276.4C57.6699 1275.17 57.6699 1275.17 56.3867 1273.26C57.6226 1273.24 57.8558 1272.42 57.8963 1271.75C57.1792 1270.29 56.5093 1269.12 56.0283 1267.87C55.81 1267.3 55.738 1266.46 56.0075 1265.97C56.3886 1265.27 57.2597 1265.18 58.0044 1265.54C59.2274 1266.12 60.509 1265.81 61.5134 1265.33C63.0637 1264.57 64.4338 1264.34 65.9805 1265.4C66.3884 1264.96 66.9593 1264.63 67.0624 1264.18C67.4969 1262.31 68.8315 1261.76 70.514 1261.65C71.2332 1260.47 71.9287 1259.33 72.5968 1258.24C74.8278 1258.74 75.5301 1259.13 76.6741 1261.11C77.2914 1262.18 78.0587 1262.45 79.0108 1261.99C80.4546 1261.3 81.3065 1261.89 82.035 1263.05C82.2105 1263.33 82.4144 1263.59 82.6509 1263.92C84.2599 1263.38 85.7507 1263.33 86.7594 1264.95C87.2365 1264.69 87.5881 1264.49 87.9461 1264.3C88.3667 1264.08 88.7759 1263.83 89.2204 1263.67C90.3159 1263.29 90.993 1263.82 90.7721 1264.97C90.595 1265.89 90.2212 1266.78 89.9014 1267.68C89.7092 1268.21 89.4538 1268.72 89.2266 1269.25C89.3317 1269.35 89.437 1269.45 89.5421 1269.55C90.1244 1269.27 90.7066 1268.99 91.6161 1268.54C91.6259 1269.96 91.6339 1271.17 91.643 1272.48C92.498 1272.53 93.1545 1272.56 94.1831 1272.61C94.1843 1273.43 94.2418 1274.16 94.1755 1274.87C94.0205 1276.52 94.2062 1276.85 95.8758 1277.17C96.5625 1277.3 97.2882 1277.32 97.4887 1278.13C97.5924 1278.55 97.5603 1278.93 97.4214 1279.26C94.2979 1280.09 91.381 1281.88 89.1361 1284.48C87.4832 1286.39 86.4369 1289.08 86.048 1291.77C85.8283 1292.5 85.6561 1293.26 85.5443 1294.04Z" fill="black"/>
<path d="M135.17 733.958C138.656 738.658 138.67 738.984 133.399 744.574C128.46 749.694 123.521 754.814 118.655 759.88C116.102 762.558 111.57 762.108 108.182 758.457C102.912 752.727 97.1823 747.45 91.5263 742.118C90.2878 740.907 90.1516 740.112 91.5671 738.502C97.3218 731.88 103.418 725.566 110.518 720.3C112.568 718.78 113.267 714.675 116.52 715.849C118.671 716.607 120.168 719.084 122.128 720.656C126.424 724.306 130.846 727.975 135.17 733.958Z" fill="black"/>
<path d="M105.296 399.2C95.9503 392.333 90.608 383.554 87.7721 377.397C83.8943 368.978 82.9956 361.905 83.448 358.093L78.9685 357.562C78.2888 363.291 80.0481 371.412 83.6748 379.285C85.0776 382.33 87.0503 385.971 89.7523 389.739C92.941 394.186 97.1453 398.809 102.624 402.835C126.272 420.211 155.042 413.189 175.013 404.238L173.168 400.122C154.292 408.582 127.193 415.29 105.296 399.2Z" fill="#F37423"/>
<path d="M68.029 308.537C69.6821 308.147 71.3484 308.075 72.9826 308.322C74.5363 308.556 75.985 309.081 77.2878 309.883C78.2742 310.49 79.1572 311.24 79.9245 312.121C80.1727 312.405 80.409 312.703 80.6324 313.014C81.658 314.445 82.3353 315.949 82.6458 317.486C82.958 319.031 82.9291 320.749 82.5598 322.594C82.223 324.16 81.6405 325.597 80.8288 326.867C80.0193 328.131 78.9733 329.228 77.7198 330.127C74.6862 332.302 71.5531 333.133 68.1421 332.666C64.7575 332.203 62.1209 330.595 60.0814 327.751C59.8852 327.477 59.7046 327.193 59.5346 326.902C58.9239 325.857 58.4801 324.703 58.2165 323.456C57.8769 321.854 57.858 320.214 58.16 318.582C58.4446 317.052 59.0566 315.578 59.9789 314.202C60.9119 312.81 62.1151 311.581 63.5553 310.548C64.8738 309.603 66.379 308.926 68.029 308.537ZM50.4995 316.215C49.8409 319.117 49.777 321.954 50.3094 324.648C50.8422 327.345 51.9841 329.928 53.7028 332.324C55.4091 334.704 57.4791 336.618 59.855 338.011C62.2253 339.401 64.9261 340.295 67.8843 340.666C70.4201 340.981 72.9346 340.8 75.3575 340.13C77.7632 339.465 80.1228 338.311 82.3701 336.7C84.6453 335.068 86.5035 333.106 87.8929 330.868C89.2834 328.627 90.2066 326.09 90.6367 323.328C91.0536 320.641 90.9674 318.024 90.3798 315.549C89.7924 313.072 88.6824 310.684 87.082 308.452C85.5201 306.274 83.6385 304.491 81.49 303.153C79.3443 301.817 76.923 300.907 74.2928 300.448C71.5173 299.965 68.7854 300.019 66.1734 300.608C63.5578 301.197 61.0973 302.31 58.8606 303.914C56.6824 305.475 54.8608 307.319 53.4457 309.393C52.022 311.479 51.0298 313.779 50.4995 316.215Z" fill="#F37423"/>
<path d="M118.978 592.654C118.214 592.29 117.443 592.333 116.81 592.432C116.618 592.462 116.426 592.5 116.254 592.533L116.203 592.543C116.01 592.58 115.841 592.612 115.678 592.636C115.351 592.682 115.112 592.682 114.913 592.635L114.913 592.635C112.145 591.973 109.545 592.884 107.293 593.673C107.096 593.742 106.901 593.81 106.709 593.876C106.709 593.876 106.709 593.876 106.708 593.876L106.702 593.879C106.538 593.935 106.259 594.03 106.01 594.155C105.884 594.218 105.722 594.309 105.572 594.436C105.437 594.55 105.2 594.788 105.121 595.165C104.954 595.962 104.504 596.412 103.805 596.854C103.559 597.009 103.324 597.139 103.063 597.283C102.913 597.367 102.754 597.454 102.58 597.554C102.141 597.806 101.656 598.109 101.225 598.513C100.623 599.075 100.174 599.203 99.8263 599.194C99.5453 599.186 99.22 599.087 98.8249 598.859C98.9999 597.54 99.3294 596.428 99.8666 595.497C100.474 594.444 101.378 593.565 102.75 592.876C105.245 591.624 106.986 589.335 107.759 586.67L106.798 586.392L107.759 586.67C108.383 584.516 110.027 583.775 112.228 582.785L111.818 581.873L112.228 582.785C112.378 582.718 112.572 582.67 112.9 582.62C112.987 582.606 113.088 582.592 113.2 582.577C113.466 582.54 113.79 582.495 114.116 582.433L114.961 582.272L114.929 581.412C114.77 577.221 114.107 573.072 110.222 570.418C110.009 568.662 110.567 567.038 111.526 565.192L112.029 564.226L111.023 563.808C110.773 563.704 110.528 563.598 110.288 563.493C109.745 563.258 109.226 563.032 108.717 562.866C108.717 562.866 108.717 562.866 108.716 562.866L118.978 592.654ZM118.978 592.654C119.291 592.279 119.632 591.872 120.039 591.384L120.539 590.786L121.241 591.125C123.414 592.174 124.69 594.205 124.761 596.729C124.779 597.371 124.917 597.719 125.072 597.921C125.219 598.112 125.471 598.292 125.978 598.409L125.979 598.409C126.163 598.451 126.347 598.494 126.528 598.536C127.986 598.876 129.351 599.194 130.717 599.255C131.336 599.282 131.9 599.33 132.384 599.441C132.875 599.555 133.359 599.751 133.752 600.131C134.529 600.881 134.612 602.023 134.598 603.201C134.597 603.194 134.598 603.199 134.597 603.208L118.978 592.654ZM81.2559 594.759L81.2559 594.759C80.9717 593.164 80.6429 591.553 80.2116 589.965C79.6576 587.925 78.3294 585.626 75.8606 585.193L75.8604 585.193C73.8443 584.841 72.0702 584.163 70.295 583.186C69.2167 582.592 68.0994 582.042 66.8184 581.411C66.204 581.108 65.5519 580.787 64.8484 580.434L64.3141 580.166L63.8249 580.509C63.6666 580.621 63.4611 580.748 63.1956 580.909L63.1316 580.948C62.8902 581.095 62.6136 581.264 62.3295 581.449C61.713 581.852 61.0095 582.366 60.4206 583.027C60.0169 583.48 59.6679 583.732 59.3355 583.871C59.0093 584.007 58.6272 584.063 58.1076 584.012L58.1072 584.012C57.6897 583.972 57.2728 583.949 56.8806 583.928L56.8057 583.924C56.384 583.901 55.9894 583.878 55.6022 583.836C55.6021 583.836 55.6019 583.836 55.6018 583.836L55.5311 583.829C54.912 583.761 54.3737 583.703 53.9322 583.699C53.4611 583.695 52.9709 583.749 52.5097 584.005C52.0499 584.261 51.743 584.649 51.4935 585.052C51.3229 585.328 51.1489 585.664 50.9596 586.046C47.1091 586.355 44.6502 587.134 42.5475 588.88C41.7786 589.517 41.0851 590.288 40.9903 591.268C40.8908 592.297 41.4791 593.155 42.2402 593.878L42.2405 593.878C43.1759 594.766 43.5578 595.713 43.5257 596.881L81.2559 594.759ZM81.2559 594.759C81.3469 595.27 81.5121 595.58 81.6968 595.773C81.8736 595.957 82.1422 596.111 82.5943 596.177L82.602 596.178M81.2559 594.759L82.602 596.178M46.0721 605.858L47.2345 606.135C47.5857 606.219 47.881 606.314 48.1999 606.416C48.3973 606.479 48.6038 606.545 48.8382 606.614C49.3788 606.771 50.0304 606.924 50.7103 606.837L50.7105 606.837C51.8509 606.691 52.7181 607.067 53.9443 607.598C54.0958 607.664 54.2529 607.732 54.4166 607.801L54.4166 607.801C55.0643 608.077 55.2768 608.326 55.3672 608.515C55.4703 608.73 55.5217 609.088 55.4057 609.799L55.4057 609.799C55.2475 610.77 55.2484 611.804 55.6138 612.777C55.9883 613.774 56.7127 614.616 57.8345 615.23L58.344 615.508L58.8385 615.204C60.8671 613.956 63.0123 613.676 65.384 614.187C66.5674 614.442 67.8367 614.238 68.8163 614.067C70.3948 613.792 71.8118 613.238 73.1026 612.494C72.7704 612.836 72.4588 613.216 72.17 613.637C71.9217 613.999 71.6389 614.392 71.3455 614.799C70.8633 615.467 70.3528 616.176 69.9209 616.854C69.2012 617.984 68.5543 619.239 68.3245 620.603M46.0721 605.858L69.3107 620.769M46.0721 605.858L46.55 604.762M46.0721 605.858L46.55 604.762M68.3245 620.603L69.3107 620.769M68.3245 620.603C68.3245 620.603 68.3246 620.603 68.3246 620.603L69.3107 620.769M68.3245 620.603C68.1066 621.897 67.6174 622.585 66.93 623.334M69.3107 620.769C68.9982 622.624 68.1621 623.499 67.24 624.464C67.1852 624.521 67.1301 624.579 67.0748 624.637M66.93 623.334C67.1562 623.486 67.3892 623.643 67.6331 623.807L67.0748 624.637M66.93 623.334C66.4337 623 65.9701 622.689 65.4958 622.37L65.235 622.194L64.5274 621.719L63.9458 622.342C62.6026 623.782 62.9285 625.422 63.1326 626.449C63.1554 626.564 63.1767 626.671 63.194 626.769L63.194 626.769C63.4836 628.419 64.4296 629.428 65.4864 630.166C65.9987 630.523 66.5552 630.83 67.0699 631.113L67.1256 631.143C67.378 631.282 67.6215 631.415 67.8572 631.551M66.93 623.334C66.7947 623.482 66.6517 623.632 66.5016 623.789C66.4518 623.841 66.4013 623.894 66.35 623.948L67.0748 624.637M67.0748 624.637L67.8572 631.551M67.8572 631.551C67.6571 632.039 67.458 632.524 67.2585 633.01C66.5508 634.735 65.8385 636.471 65.0613 638.364L64.7215 639.192L65.5066 639.621C65.7997 639.782 66.1047 639.96 66.4186 640.144C67.1834 640.591 68.0005 641.069 68.8243 641.389L68.8243 641.389C69.3488 641.593 69.6939 641.785 69.9286 642.008C70.139 642.208 70.3051 642.474 70.3855 642.928C70.3855 642.928 70.3855 642.928 70.3855 642.928L71.3702 642.753L67.8572 631.551ZM88.85 644.346C88.6953 645.06 88.3283 645.814 87.617 646.206C86.8275 646.642 85.9591 646.456 85.2419 645.953C84.4105 645.37 83.8002 645.281 83.2801 645.38C82.7 645.49 82.0607 645.866 81.2511 646.555L89.4465 640.732C89.3191 641.274 89.2394 641.838 89.1562 642.451L89.1429 642.55C89.0656 643.12 88.9822 643.736 88.85 644.346ZM88.85 644.346L87.8727 644.134L88.85 644.346C88.85 644.346 88.85 644.346 88.85 644.346ZM117.011 623.773C116.914 624.204 116.615 624.49 116.491 624.609L116.479 624.621C116.427 624.67 116.379 624.715 116.332 624.759C116.222 624.862 116.118 624.96 115.984 625.104L115.334 625.806L114.604 625.188C114.42 625.033 114.247 624.896 114.061 624.75C113.945 624.658 113.823 624.562 113.691 624.455C113.372 624.197 113.03 623.905 112.718 623.562C110.899 621.563 109.045 620.006 106.58 619.49L106.58 619.49C104.974 619.153 103.866 618.235 103.144 616.785L103.144 616.784C102.868 616.231 102.543 615.701 102.192 615.127C102.146 615.051 102.099 614.975 102.052 614.898C101.658 614.251 101.24 613.549 100.912 612.79L100.912 612.79C100.461 611.747 99.8379 611.204 99.1189 610.892C98.3542 610.561 97.412 610.463 96.2885 610.464L96.2882 610.464C95.8699 610.465 95.4325 610.522 94.9486 610.605C94.7881 610.633 94.6115 610.666 94.4275 610.7C94.2371 610.735 94.0388 610.772 93.8423 610.806L126.961 620.697L127.814 621.219C127.39 621.913 126.83 622.434 126.125 622.73C125.428 623.021 124.676 623.056 123.923 622.935C123.065 622.797 122.241 622.695 121.398 622.59C120.783 622.514 120.156 622.436 119.498 622.342L119.498 622.342C118.686 622.226 118.151 622.299 117.805 622.483C117.507 622.643 117.193 622.97 117.011 623.773ZM117.011 623.773L116.036 623.552L117.011 623.773C117.011 623.773 117.011 623.773 117.011 623.773ZM46.55 604.762C46.9729 603.793 46.9578 603.121 46.7701 602.601C46.5698 602.045 46.1161 601.504 45.3648 600.923M46.55 604.762L45.3648 600.923M82.602 596.178C83.8101 596.354 84.9566 596.521 86.0934 596.551L82.602 596.178ZM45.3648 600.923C44.0902 599.936 43.4802 598.528 43.5257 596.881L45.3648 600.923ZM136.29 610.66L136.291 610.66L133.598 603.195C133.597 603.221 133.599 603.248 133.6 603.276C133.604 603.347 133.608 603.42 133.58 603.476L134.477 603.919C134.476 603.919 134.476 603.919 134.476 603.919C133.864 605.159 133.96 606.18 134.364 607.208C134.575 607.746 134.871 608.284 135.217 608.862C135.321 609.036 135.433 609.219 135.548 609.407C135.796 609.812 136.058 610.241 136.29 610.66ZM106.678 561.524C106.724 561.804 106.77 562.082 106.817 562.355L86.0935 596.551C86.3235 596.557 86.4607 596.514 86.5545 596.464C86.6554 596.411 86.765 596.321 86.8949 596.156C87.03 595.984 87.1617 595.764 87.323 595.473C87.3588 595.408 87.3968 595.339 87.4365 595.266C87.456 595.23 87.476 595.193 87.4964 595.156C87.3424 594.976 87.1938 594.8 87.0484 594.627C86.4449 593.912 85.8957 593.261 85.2426 592.669L85.2425 592.668C83.8489 591.405 83.1686 589.895 82.9657 588.105L83.9593 587.992L82.9657 588.105C82.5452 584.395 82.3435 580.612 83.0057 576.804C83.2406 575.452 83.1036 574.287 82.4622 573.079L82.4622 573.079C81.7948 571.821 81.6378 570.553 82.0039 569.362C82.3631 568.195 83.1874 567.226 84.2516 566.462L84.8351 567.274L84.2516 566.462C84.7313 566.117 85.2261 565.913 85.7429 565.859C86.2556 565.806 86.7121 565.908 87.101 566.054C87.3531 566.148 87.5951 566.269 87.8133 566.386C88.0286 564.846 87.9214 563.533 87.2599 562.313L86.9724 561.783L87.3073 561.281C87.9038 560.388 88.5698 559.741 89.3144 559.327C90.0659 558.909 90.8413 558.76 91.6017 558.781C92.8116 558.815 94.0212 559.291 95.075 559.757C95.3758 559.474 95.6767 559.186 95.9785 558.898C97.0323 557.892 98.0987 556.873 99.2218 555.971L99.2219 555.971C100.467 554.972 101.891 554.543 103.222 554.962C104.549 555.379 105.481 556.544 105.953 558.076C106.293 559.178 106.489 560.373 106.678 561.524ZM64.1631 623.788C64.1522 623.813 64.1417 623.838 64.1318 623.863L64.119 623.854L64.1631 623.788ZM89.9379 639.317C89.7277 639.637 89.5929 640.108 89.4465 640.732L95.5786 632.442L96.5536 632.22C96.5536 632.22 96.5536 632.22 96.5536 632.22C96.699 632.859 96.8255 633.513 96.9489 634.152C97.0043 634.438 97.059 634.721 97.1145 634.998L97.2313 635.581L96.7751 635.962C96.6436 636.072 96.5109 636.184 96.3767 636.298C94.8736 637.572 93.1766 639.01 90.6479 638.958L90.6477 638.958C90.2652 638.95 90.0937 639.08 89.9379 639.317ZM75.4855 610.813C76.6994 610.257 78.053 609.993 79.489 609.96L79.4892 609.96C80.3822 609.94 81.381 609.63 82.2934 609.185C82.494 609.087 82.709 608.908 83.0269 608.575C83.0724 608.528 83.1217 608.475 83.1742 608.418C82.9522 608.317 82.757 608.228 82.5639 608.137C80.863 607.34 80.1966 607.165 79.6866 607.264C79.4487 607.31 79.1695 607.434 78.7695 607.741C78.3601 608.056 77.8802 608.517 77.2331 609.182L77.233 609.182C76.6763 609.754 76.0956 610.303 75.4855 610.813Z" stroke="#F37524" stroke-width="2"/>
<path d="M84.7365 96.1527C89.9283 91.5162 93.3931 85.8204 95.0354 79.2239C99.0098 63.2592 91.3026 46.4876 86.0566 41.9739L88.2152 39.465C94.1651 44.5844 102.606 62.5161 98.2476 80.0239C96.9771 85.128 94.7174 89.7377 91.5049 93.7947C90.152 95.5032 88.6296 97.1143 86.9418 98.6214C80.3947 104.468 71.3527 108.727 60.066 111.278L59.3355 108.05C70.0675 105.624 78.6136 101.621 84.7365 96.1527Z" fill="black"/>
<path d="M13.6163 126.264C10.1096 122.171 6.62171 118.054 3.27173 113.832C5.96809 110.911 8.67655 108.001 11.4286 105.131C13.4187 103.057 15.3982 100.957 17.5174 99.0129C19.3977 97.2878 21.3636 95.6591 23.2871 93.983C24.2651 93.1308 25.2451 92.2546 26.2098 91.3524C31.6979 97.2768 37.1709 103.215 42.6331 109.163C45.5442 112.333 45.8427 114.759 42.7296 117.795C37.5036 122.891 31.9839 127.703 26.3908 132.4C23.8809 134.508 21.6626 134.145 19.2568 131.901C17.3126 130.089 15.341 128.278 13.6163 126.264Z" fill="#F37423"/>
<path d="M74.3123 32.7162L73.8522 34.1657C72.9664 34.2894 72.0546 34.2624 70.9786 34.3087C70.5107 35.0808 69.6862 35.4448 68.578 35.0583C68.0114 34.8608 67.7178 35.2938 67.4105 35.6536C66.9325 36.2126 66.4561 36.7732 65.9949 37.3148C64.9403 36.6115 64.1767 35.5259 63.5634 33.9574C63.4355 33.9788 63.3003 33.9918 63.1703 34.0245C61.8787 34.3485 61.7614 34.2921 61.3152 33.0486C61.1414 32.5648 60.9958 32.0707 60.8413 31.5932C60.1275 31.71 59.4373 31.9443 58.7642 31.9028C57.8815 31.8489 57.7327 30.9386 57.5587 30.5691C56.451 30.4459 55.5629 30.432 54.7214 30.2271C54.0374 30.0606 53.9603 29.6935 54.2973 29.0451C54.8449 27.9914 55.5785 27.1098 56.6825 26.684C56.3771 25.8674 56.1072 25.1449 55.8326 24.4106C56.347 24.1214 56.701 23.9222 56.9947 23.757C56.9127 22.8242 56.8395 21.9937 56.7588 21.0767C55.9404 20.1379 54.4877 19.8002 53.58 18.5948C54.8938 17.6427 55.7957 16.2153 57.7694 16.7269C57.9218 15.9369 58.0532 15.2556 58.2089 14.448C58.4821 14.7729 58.6208 14.9379 58.7579 15.1008C59.6085 14.4661 59.6085 14.4661 59.1443 12.9322C59.9715 13.1701 60.2935 12.6739 60.458 12.2339C60.2784 11.1165 60.0726 10.1967 60.0075 9.26691C59.978 8.84433 60.101 8.27228 60.3808 8.00014C60.7766 7.61456 61.3747 7.73296 61.7983 8.12022C62.4939 8.75665 63.409 8.81605 64.1773 8.69591C65.3634 8.51027 66.3226 8.63626 67.1353 9.65916C67.4971 9.44836 67.9455 9.34177 68.1047 9.06764C68.7764 7.9093 69.7774 7.81449 70.9201 8.08395C71.6393 7.44691 72.3347 6.83114 73.0028 6.23925C74.3845 7.03184 74.773 7.43293 75.1306 8.9838C75.3235 9.82079 75.7785 10.1591 76.5057 10.0491C77.6084 9.88227 78.0549 10.4493 78.3035 11.3687C78.3634 11.5902 78.4458 11.8056 78.5353 12.0755C79.7158 12.0473 80.7192 12.316 81.0596 13.6012C81.4305 13.5248 81.7053 13.4638 81.9817 13.4126C82.3066 13.352 82.6318 13.2636 82.9591 13.2517C83.7662 13.2216 84.1091 13.7115 83.7269 14.4329C83.4206 15.0115 82.9903 15.5266 82.5953 16.0551C82.3579 16.3729 82.0831 16.6624 81.8249 16.9649C81.8741 17.054 81.9234 17.1433 81.9726 17.2324C82.4181 17.1627 82.8634 17.0931 83.5592 16.9843C83.2768 17.9283 83.0348 18.7363 82.7732 19.6109C83.3335 19.8145 83.7636 19.9711 84.4375 20.2162C84.2706 20.7634 84.1616 21.2552 83.9726 21.714C83.5314 22.7847 83.5877 23.0419 84.6341 23.5949C85.0645 23.8223 85.5444 23.9807 85.5118 24.5631C85.495 24.8643 85.3962 25.1102 85.2351 25.3056C82.9873 25.2175 80.6808 25.8114 78.6558 27.0832C77.1648 28.0195 75.9185 29.5988 75.112 31.3048C74.8154 31.7503 74.5464 32.2182 74.3123 32.7162Z" fill="#F37524"/>
<path d="M71.8912 485.222C72.4202 485.112 72.887 485.109 73.3615 485.543C74.0529 486.177 74.8588 486.685 75.7655 487.357C75.7196 488.281 76.2105 489.064 77.3729 489.372C77.9671 489.53 77.9677 490.066 78.0222 490.548C78.1069 491.298 78.1894 492.047 78.2702 492.772C79.569 492.781 80.8401 492.297 82.2611 491.317C82.3573 491.409 82.4645 491.498 82.5562 491.601C83.4664 492.617 83.5983 492.637 84.6907 491.837C85.1158 491.526 85.5229 491.19 85.9285 490.874C86.4672 491.383 86.9186 491.978 87.5137 492.33C88.2936 492.79 88.9424 492.103 89.3023 491.889C90.3133 492.421 91.0749 492.919 91.9068 493.229C92.5832 493.48 92.8587 493.213 92.9451 492.468C93.0853 491.259 92.9685 490.089 92.2761 489.093C93.0038 488.575 93.6477 488.117 94.3022 487.651C94.0317 487.11 93.8456 486.738 93.691 486.428C94.2961 485.683 94.8347 485.02 95.4299 484.288C96.6632 483.961 98.0899 484.509 99.5522 484.006C98.9837 482.443 99.0373 480.713 97.0687 480.014C97.3927 479.255 97.6722 478.602 98.0036 477.826C97.5852 477.945 97.3728 478.006 97.1633 478.065C96.8053 477.038 96.8053 477.038 98.08 476.002C97.2413 475.729 97.2525 475.122 97.3655 474.655C98.1595 473.808 98.8621 473.146 99.4509 472.393C99.7188 472.052 99.9424 471.495 99.8615 471.103C99.7467 470.548 99.1711 470.305 98.5891 470.391C97.6337 470.532 96.8226 470.057 96.2397 469.514C95.3397 468.675 94.453 468.231 93.1761 468.632C92.99 468.246 92.6704 467.898 92.6929 467.574C92.7875 466.204 91.9922 465.548 90.8677 465.121C90.6229 464.167 90.3861 463.245 90.159 462.358C88.5311 462.238 87.9712 462.355 86.7777 463.467C86.1335 464.067 85.5531 464.093 84.999 463.582C84.1591 462.806 83.4545 463.032 82.7157 463.67C82.5376 463.823 82.3442 463.959 82.1135 464.137C81.1276 463.435 80.1218 463.086 79.0948 463.982C78.824 463.704 78.626 463.495 78.4207 463.292C78.1794 463.055 77.9545 462.793 77.6834 462.594C77.0158 462.105 76.4434 462.325 76.3539 463.157C76.2817 463.824 76.3514 464.508 76.3831 465.184C76.4024 465.59 76.4694 465.994 76.515 466.399C76.4219 466.447 76.3289 466.494 76.2359 466.542C75.8977 466.226 75.5599 465.911 75.0318 465.419C74.7296 466.384 74.471 467.208 74.1912 468.101C73.5986 467.953 73.1437 467.838 72.4311 467.66C72.2585 468.22 72.0689 468.7 71.9659 469.198C71.8222 469.895 71.6929 470.239 71.3544 470.376C72.502 472.451 73.1921 474.824 73.3038 477.321C73.4228 479.98 72.4205 482.918 70.8783 485.28C71.2081 485.307 71.5443 485.295 71.8912 485.222Z" fill="black"/>
<path d="M103.188 222.383C102.328 224.014 101.167 225.401 99.8297 226.392C96.1329 229.131 91.0241 229.003 87.5029 228.667L87.2408 228.642L87.4482 228.48C87.9588 228.081 88.4158 227.746 88.8205 227.45C90.0619 226.54 90.8822 225.938 91.5738 224.716C92.0022 223.959 92.0989 223.001 91.8386 222.087C91.5864 221.202 91.0226 220.464 90.2909 220.065C89.5301 219.649 88.5764 219.593 87.6742 219.911C86.7991 220.22 86.1147 220.839 85.7972 221.609C85.5008 222.326 85.4814 223.12 85.4627 223.887L85.3518 228.457C85.3376 229.045 85.3214 229.711 85.0434 230.292C84.7857 230.83 84.1891 231.364 83.4882 231.263C83.0602 231.202 82.7064 230.913 82.4218 230.68L78.4897 227.57C78.0561 227.215 77.5905 226.874 77.0879 226.918C76.3453 226.984 75.9197 227.862 75.7808 228.593C75.7555 228.728 75.7323 228.869 75.7095 229.007C75.5975 229.694 75.5219 230.338 75.0249 230.833C74.5178 231.338 73.6537 231.501 72.8232 231.249C72.4374 231.132 72.075 230.945 71.6277 230.638C71.3713 230.462 71.0888 230.256 70.8769 230.09C69.1933 228.778 68.5432 227.501 68.9969 226.4C69.2353 225.821 69.741 225.433 70.2302 225.058C70.7126 224.688 71.1877 224.295 71.4096 223.779C71.8823 222.68 71.0816 221.501 70.7982 221.161C70.5791 220.898 70.2677 220.605 70.0296 220.36C69.5777 219.896 69.0041 219.441 68.688 218.858C67.6732 216.984 68.5809 214.689 69.8656 213.207C70.8025 212.125 71.9956 211.294 73.1495 210.49C73.6333 210.153 74.1335 209.805 74.6065 209.443C77.1237 207.521 79.1475 205.02 80.5119 202.183C80.9406 201.291 81.2857 200.409 81.5785 199.459C81.755 198.886 81.8855 198.288 81.6456 197.793C81.4886 197.47 81.2068 197.19 80.9034 196.981C80.901 196.98 80.8987 196.978 80.8962 196.977C79.9677 196.345 78.9819 195.838 77.8878 195.583C77.846 195.574 77.8039 195.564 77.7617 195.554C77.3794 195.468 77.0423 195.418 76.7325 195.159C76.5182 194.98 76.3404 194.784 76.3307 194.51C76.3236 194.301 76.4331 194.028 76.5697 193.896C76.8524 193.624 77.3708 193.594 77.7447 193.591C78.8255 193.584 79.7726 193.38 80.6035 193.144C79.3349 190.391 79.367 187.129 80.834 184.712C82.4303 182.082 85.4497 180.378 88.5258 180.371C89.838 180.367 91.1902 180.695 92.4781 181.283C98.2689 184.145 100.797 191.103 98.1236 197.043C96.5491 200.54 93.5145 202.921 90.064 203.791C89.4008 203.958 88.7223 204.07 88.036 204.122C87.9358 204.13 87.8355 204.137 87.7349 204.142L88.2446 203.887C89.654 203.163 90.6915 201.787 90.9841 200.23C91.2769 198.672 91.2343 197.16 90.184 195.973C89.7092 195.437 88.9913 195.063 88.4568 195.438C88.2319 195.596 88.1098 195.826 88.0471 196.088C88.2994 196.354 88.7295 196.81 88.9256 197.039C89.2122 197.374 89.4513 198.216 88.5281 198.894C88.4274 198.968 88.3305 199.049 88.2397 199.132C87.8909 199.45 87.6091 199.834 87.3993 200.256L86.0548 202.966C84.534 205.902 82.2337 210.67 81.6184 213.941L81.5902 214.091L81.7405 214.063C82.8997 213.849 83.7443 212.897 84.1449 212.348C84.5211 211.832 84.8339 211.259 85.1374 210.702C85.3686 210.278 85.6078 209.84 85.8753 209.427C86.8062 207.988 88.1433 206.804 89.7427 206.002C91.3422 205.2 93.0908 204.835 94.7999 204.949C96.6545 205.073 98.4839 205.754 100.09 206.92C101.665 208.063 102.909 209.583 103.69 211.316C104.451 213.004 104.799 214.931 104.697 216.891C104.597 218.8 104.076 220.699 103.188 222.383ZM106.623 216.99C106.741 214.726 106.335 212.49 105.449 210.523C104.53 208.484 103.069 206.699 101.223 205.358C99.56 204.151 97.6861 203.383 95.7587 203.111C97.5161 201.735 98.9353 199.939 99.8825 197.835C101.38 194.508 101.525 190.787 100.29 187.356C99.0587 183.933 96.5881 181.162 93.3332 179.553L93.2796 179.528C91.7159 178.814 90.0693 178.438 88.5218 178.441C84.7876 178.45 81.1228 180.518 79.1851 183.711C77.8026 185.989 77.4209 188.878 78.0641 191.652C77.9555 191.658 77.8445 191.662 77.7316 191.662C77.2847 191.665 76.0974 191.674 75.232 192.506C74.7023 193.017 74.3771 193.829 74.4029 194.577C74.4304 195.363 74.7979 196.057 75.496 196.64C76.1343 197.173 76.7903 197.317 77.2244 197.412L77.4505 197.462C78.2029 197.637 78.9486 197.987 79.7959 198.561L79.8209 198.579C79.8043 198.652 79.7777 198.752 79.7352 198.89C79.4715 199.746 79.1569 200.549 78.7736 201.347C77.5372 203.918 75.6916 206.188 73.4359 207.91C72.9977 208.245 72.5169 208.58 72.0462 208.908C70.8536 209.739 69.5022 210.68 68.4079 211.943C65.8375 214.909 66.0386 218.017 66.9919 219.777C67.373 220.48 67.9084 220.993 68.3389 221.405C68.445 221.506 68.5497 221.606 68.6473 221.706C68.721 221.782 68.8017 221.862 68.8846 221.945C69.0398 222.1 69.2161 222.276 69.3156 222.395C69.4619 222.571 69.6138 222.886 69.6262 223.03C69.5537 223.125 69.3626 223.292 69.0563 223.527C68.4626 223.983 67.6497 224.606 67.2135 225.665C66.7457 226.8 66.4461 229.081 69.6904 231.612C69.935 231.802 70.251 232.033 70.5357 232.228C70.9236 232.495 71.2775 232.699 71.6302 232.858C71.8392 232.952 72.0479 233.03 72.2627 233.095C73.7867 233.558 75.3666 233.215 76.3856 232.2C77.2957 231.294 77.4679 230.224 77.5933 229.442L77.6107 229.334L81.2129 232.184C81.6084 232.507 82.2642 233.037 83.2132 233.173C84.887 233.413 86.2125 232.317 86.7833 231.124C86.874 230.935 86.9473 230.746 87.0074 230.558L87.3196 230.588C91.1572 230.953 96.7483 231.077 100.978 227.942C102.547 226.779 103.901 225.168 104.894 223.283C105.912 221.353 106.509 219.177 106.623 216.99Z" fill="black"/>
</svg>
