<svg width="591" height="121" viewBox="0 0 591 121" fill="none" xmlns="http://www.w3.org/2000/svg">
<path d="M15.9315 33.4579L15.8606 33.46L15.8391 33.5275L1.67171 77.9565L1.62885 78.091L1.76988 78.0869L11.2229 77.8129L11.2951 77.8108L11.3158 77.7416L14.0276 68.6831L29.8226 68.2254L32.8498 77.1156L32.8736 77.1855L32.9473 77.1834L42.7527 76.8992L42.8934 76.8951L42.8432 76.7636L26.2442 33.2262L26.2188 33.1598L26.1478 33.1619L15.9315 33.4579ZM16.3038 60.8318L21.2539 43.7985L27.0103 60.5215L16.3038 60.8318Z" fill="white" stroke="white" stroke-width="0.2"/>
<path d="M74.9721 50.209L74.875 50.2328L74.8987 50.3299L85.2979 92.874L85.3216 92.9711L85.4188 92.9474L115.379 85.6243L115.476 85.6005L115.452 85.5034L113.582 77.8547L113.559 77.7575L113.462 77.7813L92.4886 82.9077L83.9828 48.1095L83.9591 48.0123L83.862 48.0361L74.9721 50.209Z" fill="white" stroke="white" stroke-width="0.2"/>
<path d="M160.47 15.2726L160.378 15.2332L160.339 15.3251L143.087 55.5807L143.047 55.6726L143.139 55.712L171.487 67.8609L171.579 67.9003L171.619 67.8084L174.72 60.5711L174.76 60.4792L174.668 60.4398L154.823 51.9352L168.934 19.0088L168.973 18.9169L168.881 18.8775L160.47 15.2726Z" fill="white" stroke="white" stroke-width="0.2"/>
<path d="M321.166 25.6164C320.381 22.6252 318.615 20.5707 315.868 19.4527C314.333 18.8385 312.639 18.5583 310.784 18.612C307.234 18.7149 304.352 20.1457 302.136 22.9045C299.94 25.6427 298.92 29.7041 299.076 35.0887C299.233 40.5132 300.581 44.3164 303.119 46.4983C305.658 48.6802 308.502 49.7255 311.653 49.6342C314.744 49.5446 317.251 48.5837 319.174 46.7516C321.097 44.8995 322.245 42.521 322.62 39.6159L312.419 39.9115L312.206 32.5526L330.573 32.0203L331.259 55.6827L325.157 55.8595L324.07 50.3821C322.356 52.5276 320.803 54.0496 319.412 54.9482C317.022 56.5144 314.052 57.3489 310.502 57.4518C304.659 57.6211 299.814 55.7356 295.968 51.7953C291.961 47.8396 289.855 42.3319 289.65 35.2721C289.444 28.1325 291.242 22.3519 295.046 17.9304C298.85 13.5089 303.983 11.2045 310.444 11.0172C316.048 10.8548 320.587 12.1504 324.06 14.904C327.552 17.6371 329.609 21.1203 330.231 25.3537L321.166 25.6164Z" fill="white"/>
<path d="M550.094 30.0835L560.42 34.0558L566.531 74.1702L579.186 41.2748L588.36 44.8044L570.233 91.9257L560.387 88.1379L554.018 47.2635L541.142 80.7344L531.967 77.2049L550.094 30.0835Z" fill="white"/>
<path d="M506.237 22.2802L481.807 22.9882L482.091 32.8076L504.517 32.1578L504.75 40.189L482.324 40.8389L482.669 52.7289L508.226 51.9883L508.467 60.3019L473.482 61.3157L472.142 15.0733L506 14.0921L506.237 22.2802ZM491.127 2.78007L499.302 2.54317L499.517 9.97836L491.342 10.2153L491.127 2.78007ZM478.599 3.14313L486.773 2.90623L486.989 10.3414L478.814 10.5783L478.599 3.14313Z" fill="white"/>
<path d="M375.99 80.2478L376.089 80.2449L376.087 80.1449L374.812 36.1634L374.809 36.0634L374.709 36.0663L365.713 36.327L365.613 36.3299L365.616 36.4299L366.89 80.4114L366.893 80.5114L366.993 80.5085L375.99 80.2478Z" fill="white" stroke="white" stroke-width="0.2"/>
<path d="M438.598 64.1801L438.694 64.1504L438.664 64.0549L436.358 56.6506L436.329 56.5551L436.233 56.5848L405.566 66.1347L405.471 66.1645L405.5 66.26L418.522 108.076L418.552 108.171L418.647 108.142L450.336 98.2737L450.431 98.244L450.401 98.1485L448.06 90.6307L448.031 90.5352L447.935 90.5649L424.881 97.744L421.593 87.1831L441.809 80.8875L441.905 80.8577L441.875 80.7623L439.614 73.4998L439.584 73.4043L439.488 73.434L419.272 79.7297L416.566 71.0411L438.598 64.1801Z" fill="white" stroke="white" stroke-width="0.2"/>
<path d="M246.828 39.762L246.924 39.7362L246.899 39.6396L244.891 32.1489L244.865 32.0523L244.769 32.0781L213.744 40.3924L213.647 40.4183L213.673 40.5149L225.01 82.8188L225.036 82.9154L225.133 82.8895L257.191 74.2983L257.287 74.2724L257.261 74.1758L255.223 66.5703L255.197 66.4737L255.101 66.4996L231.778 72.7498L228.915 62.0657L249.367 56.5846L249.464 56.5587L249.438 56.4621L247.469 49.1149L247.443 49.0183L247.347 49.0442L226.894 54.5253L224.538 45.7354L246.828 39.762Z" fill="white" stroke="white" stroke-width="0.2"/>
</svg>
