<svg width="32" height="33" viewBox="0 0 32 33" fill="none" xmlns="http://www.w3.org/2000/svg">
<path d="M28 21.3395V10.6729C27.9995 10.2052 27.8761 9.74594 27.6421 9.34108C27.408 8.93622 27.0717 8.60001 26.6667 8.3662L17.3333 3.03286C16.9279 2.79881 16.4681 2.6756 16 2.6756C15.5319 2.6756 15.0721 2.79881 14.6667 3.03286L5.33333 8.3662C4.92835 8.60001 4.59197 8.93622 4.35795 9.34108C4.12392 9.74594 4.00048 10.2052 4 10.6729V21.3395C4.00048 21.8072 4.12392 22.2664 4.35795 22.6713C4.59197 23.0762 4.92835 23.4124 5.33333 23.6462L14.6667 28.9795C15.0721 29.2136 15.5319 29.3368 16 29.3368C16.4681 29.3368 16.9279 29.2136 17.3333 28.9795L26.6667 23.6462C27.0717 23.4124 27.408 23.0762 27.6421 22.6713C27.8761 22.2664 27.9995 21.8072 28 21.3395Z" stroke="black" stroke-width="2" stroke-linecap="round" stroke-linejoin="round"/>
<path d="M4.36035 9.28625L16.0004 16.0196L27.6404 9.28625" stroke="black" stroke-width="2" stroke-linecap="round" stroke-linejoin="round"/>
<path d="M16 29.4462V16.0062" stroke="black" stroke-width="2" stroke-linecap="round" stroke-linejoin="round"/>
</svg>
