<svg width="78" height="116" viewBox="0 0 78 116" fill="none" xmlns="http://www.w3.org/2000/svg">
<path d="M31.2021 49.4234C31.3461 48.319 32.1856 47.8628 32.6174 47.1186C34.7522 43.4693 34.7522 39.7959 33.1211 35.9785C32.1136 33.6257 30.5785 31.825 28.1798 30.8887C26.8605 30.3845 25.1094 30.6486 24.8456 32.0411C24.7256 32.6413 24.7496 32.9294 25.3013 33.1455C25.853 33.3616 26.3808 33.5777 26.9085 33.8418C28.6595 34.6821 29.3072 36.0986 28.4436 37.8272C27.3402 40.012 27.0524 42.3168 27.1004 44.6937C27.1723 47.6468 26.9325 50.5758 26.7885 53.5289C26.6446 56.2419 26.5487 58.9549 26.6686 61.6438C26.8605 65.4852 26.9325 69.3506 27.796 73.144C28.0119 74.1283 28.2517 73.8162 28.7315 73.3841C30.4345 71.8475 31.0582 69.8068 31.442 67.646C31.9457 64.741 31.7778 61.7639 32.6174 58.9068C33.5289 55.8577 34.9681 53.1448 37.007 50.6719C39.7895 47.2866 43.2916 45.0538 47.5133 43.9014C50.4397 43.0851 53.4141 43.0371 56.4125 43.3972C60.0345 43.8294 63.3207 45.0778 66.3431 47.0225C69.7013 49.1593 72.2919 52.0644 74.2588 55.4976C77.1852 60.6115 78.3606 66.1575 77.9048 71.9676C77.4491 77.7537 75.4342 82.9155 71.3084 87.1891C66.9668 91.6787 61.6176 94.4637 55.9087 96.6965C54.5895 97.2007 53.2222 97.6329 51.687 98.1611C53.1263 95.4721 54.5175 93.0232 55.7408 90.4783C56.8682 88.1734 57.3719 85.7246 56.3885 83.2036C55.3331 80.5387 52.5026 78.1618 49.3843 78.4979C46.7457 78.762 44.0112 80.7788 43.1956 83.8519C42.6199 86.0127 43.5314 87.8373 44.275 89.734C45.7862 93.6234 47.6812 97.3688 49.0005 101.354C49.4083 102.579 49.3363 103.755 48.8326 104.932C48.1849 106.444 46.3859 107.02 44.443 106.492C40.629 105.484 36.8391 104.427 33.0012 103.539C29.8349 102.795 28.9713 105.196 29.4271 107.524C29.691 108.893 30.2427 110.213 30.2906 111.654C30.3866 114.151 28.4436 115.735 26.4047 115.927C22.5668 116.264 18.9688 115.447 15.8025 113.142C13.7636 111.654 13.4997 109.517 14.6271 107.068C14.9869 106.276 15.5386 105.58 15.8505 104.787C17.1697 101.402 16.0423 100.346 13.8116 98.4972C12.5163 97.4168 10.7892 97.0567 9.20606 96.5285C6.15971 95.5201 4.36069 93.4313 3.68905 90.3582C2.89748 86.6369 3.64108 83.1076 5.24821 79.6984C6.9273 76.1451 9.30201 72.9999 10.9571 69.4467C12.8041 65.4612 14.1234 61.3077 14.7471 56.9381C15.1548 54.0811 15.2268 51.2481 15.1548 48.391C15.1308 46.9745 14.9629 45.558 14.6511 44.1895C14.2913 42.653 13.1879 41.6686 11.6527 41.4045C8.99017 40.9724 6.30363 40.8523 3.64108 41.4765C2.87349 41.6686 2.10591 41.6686 1.31433 41.3805C-0.100899 40.8523 -0.436722 39.3878 0.618706 38.2834C1.38629 37.4911 2.46571 37.275 3.35323 36.6988C4.67251 35.8825 5.9918 35.0182 7.19115 33.9378C4.93637 31.9211 3.11336 29.4962 1.86603 26.6872C-0.19685 22.0055 -0.316784 17.2758 1.50623 12.474C2.46571 9.92911 3.92892 7.6723 5.79991 5.77561C8.72632 2.79853 12.2764 0.877836 16.4741 0.277618C21.5834 -0.466651 26.4527 0.277618 31.0102 2.60646C38.5661 6.44785 43.4115 12.5941 45.0666 20.9011C46.6258 28.7519 44.8987 36.0266 39.8854 42.4129C37.5107 45.2939 34.6563 47.5987 31.2021 49.4234Z" fill="#F27524"/>
</svg>
