<svg width="1379" height="116" viewBox="0 0 1379 116" fill="none" xmlns="http://www.w3.org/2000/svg">
<path d="M943.974 41.6398C941.646 38.0289 939.31 34.4231 936.968 30.8216C935.664 28.8164 934.39 28.3159 932.296 29.5586C928.781 31.645 925.378 33.9286 922.028 36.2678C920.524 37.3174 920.404 38.5576 921.277 40.1618C921.983 41.4583 922.684 42.7696 923.53 43.9765C925.021 46.1027 926.522 48.2238 928.075 50.3056C929.487 49.5603 930.897 48.8119 932.303 48.057C936.215 45.957 940.106 43.8181 943.974 41.6398Z" fill="#F37423"/>
<path d="M890.128 39.8019L890.779 40.0115C891.051 39.7082 891.273 39.3549 891.565 38.9588C891.968 38.9859 892.313 38.7695 892.453 38.2464C892.525 37.979 892.759 37.9823 892.97 37.9611C893.298 37.9279 893.625 37.8957 893.943 37.8643C893.952 37.2776 893.747 36.6999 893.326 36.0513C893.367 36.0084 893.406 35.9605 893.451 35.9199C893.9 35.5155 893.909 35.456 893.565 34.957C893.431 34.7628 893.286 34.5765 893.15 34.3912C893.375 34.1513 893.637 33.9515 893.793 33.6849C893.999 33.3356 893.701 33.0378 893.61 32.8738C893.847 32.4207 894.068 32.08 894.207 31.7062C894.32 31.4025 894.205 31.2759 893.88 31.2319C893.352 31.1603 892.841 31.2051 892.402 31.5111C892.18 31.1788 891.982 30.8847 891.782 30.5858C891.544 30.7044 891.381 30.7859 891.245 30.8536C890.922 30.5751 890.635 30.3272 890.318 30.0534C890.181 29.4939 890.427 28.853 890.215 28.1889C889.529 28.435 888.773 28.3989 888.459 29.2837C888.129 29.132 887.845 29.0013 887.507 28.8462C887.557 29.0361 887.583 29.1325 887.608 29.2277C887.157 29.3823 887.157 29.3823 886.711 28.7994C886.587 29.1764 886.323 29.1671 886.119 29.1128C885.753 28.7484 885.467 28.4264 885.141 28.1552C884.993 28.0319 884.751 27.927 884.579 27.961C884.336 28.009 884.227 28.2674 884.262 28.5308C884.319 28.9636 884.108 29.3267 883.867 29.5864C883.497 29.9874 883.298 30.3848 883.468 30.9645C883.298 31.0459 883.144 31.1879 883.003 31.1756C882.405 31.1234 882.115 31.4782 881.923 31.9834C881.505 32.0874 881.101 32.1881 880.712 32.2847C880.652 33.0193 880.701 33.2731 881.18 33.82C881.44 34.1151 881.448 34.3776 881.222 34.6244C880.88 34.9987 880.975 35.3185 881.25 35.6566C881.316 35.7381 881.374 35.8265 881.451 35.932C881.139 36.3726 880.983 36.8246 881.369 37.2946C881.246 37.4151 881.154 37.5033 881.064 37.5946C880.959 37.7018 880.844 37.8018 880.756 37.9229C880.539 38.2212 880.632 38.4813 880.995 38.5275C881.286 38.5646 881.586 38.5379 881.881 38.5281C882.059 38.5223 882.235 38.4947 882.413 38.4769C882.433 38.5192 882.453 38.5616 882.473 38.6039C882.334 38.7545 882.195 38.9051 881.977 39.1403C882.397 39.2834 882.756 39.4058 883.145 39.5384C883.077 39.805 883.025 40.0098 882.944 40.3306C883.188 40.4123 883.397 40.5013 883.614 40.5513C884.12 40.6677 884.201 40.7573 884.138 41.301C884.112 41.5247 884.048 41.7488 884.27 41.8909C884.386 41.9644 884.501 41.992 884.614 41.9827C885.155 41.1062 885.962 40.3882 886.947 39.9569C887.671 39.6392 888.571 39.5849 889.405 39.7312C889.644 39.7367 889.885 39.7587 890.128 39.8019Z" fill="white"/>
<path d="M905.86 60.4391C899.409 60.608 894.917 57.298 891.472 52.1979C890.391 50.5767 889.614 48.7866 889.175 46.8614C889.074 46.4561 888.702 45.7806 889.513 45.6793C890.02 45.6118 890.56 45.3753 890.83 46.3886C892.012 50.5767 894.41 54.0218 898.058 56.4536C902.483 59.4258 907.211 59.7298 912.041 57.4668C914.034 56.5549 915.959 55.5417 917.614 54.0893C918.121 53.6502 918.391 53.6165 918.897 54.2582C919.472 54.9675 919.303 55.2715 918.729 55.643C915.655 57.7033 912.514 59.6285 908.832 60.4053C907.92 60.608 906.873 60.4391 905.86 60.4391Z" fill="white"/>
<path d="M1333.16 53.4721C1328.79 50.5432 1325.6 46.62 1323.42 41.8527C1322.91 40.667 1322.17 39.3857 1323.78 38.6291C1325.38 37.8725 1325.74 39.4543 1326.18 40.4406C1330.38 49.4123 1337.47 54.822 1347.03 56.5602C1354.26 57.8557 1360.94 55.7555 1367.1 52.0953C1369.76 50.5302 1372.33 48.6836 1374.76 46.7306C1375.73 45.9329 1376.28 45.6926 1377.13 46.6242C1377.99 47.6378 1377.54 48.5338 1376.71 49.1457C1372.68 52.1477 1368.71 55.2671 1364.01 57.1872C1356.46 60.238 1348.78 61.2181 1340.8 58.0567C1338.04 56.9201 1335.54 55.3299 1333.16 53.4721Z" fill="#F27524"/>
<path d="M229.176 96.443C230.051 96.2347 230.783 96.4273 231.327 97.0821C233.345 99.542 235.573 101.831 237.406 104.457C238.344 105.82 238.324 106.924 237.088 107.974C234.612 110.048 232.069 112.053 229.557 114.08C229.135 114.423 228.836 114.556 228.435 113.956C226.387 111.019 224.318 108.112 222.222 105.21C220.76 103.161 220.708 103.17 222.55 101.45C224.297 99.8 226.176 98.2877 228.155 96.8916C228.487 96.6452 228.807 96.4814 229.176 96.443Z" fill="#F27524"/>
<path d="M259.165 86.8776C265.054 85.5952 270.524 85.8891 275.857 87.6825C280.219 89.1381 283.973 91.5593 286.78 95.3014C286.987 95.5599 287.659 95.8704 286.983 96.4459C286.332 97.0168 286.146 96.567 285.803 96.1448C283.299 93.2075 280.28 91.0049 276.692 89.5201C273.421 88.1667 270.003 87.6443 266.509 87.4571C263.042 87.2652 259.613 87.8981 256.304 88.7513C251.508 90.0012 247.065 92.1814 243.016 95.0699C242.779 95.2459 242.577 95.4694 242.309 95.624C241.894 95.8582 241.497 96.0358 241.122 95.4315C240.716 94.8058 241.21 94.7184 241.511 94.4506C243.459 92.8724 245.608 91.5268 247.865 90.4842C251.592 88.8061 255.354 87.1755 259.165 86.8776Z" fill="white"/>
<path d="M224.266 112.976C222.426 111.37 220.11 110.411 218.489 108.525C217.615 107.526 218.102 106.635 218.449 105.716C218.559 105.428 218.966 105.302 219.186 105.639C220.883 108.102 222.574 110.539 224.266 112.976Z" fill="white"/>
<path d="M608.775 43.3444C608.124 41.5099 607.762 39.971 607.919 37.9917C608.06 36.2065 608.72 34.6112 609.652 33.1129C609.937 32.6554 610.255 32.2299 610.601 31.8322C610.297 31.7196 610.019 31.5199 609.769 31.1739C609.052 30.1841 608.156 29.325 607.175 28.2288C607.471 27.0579 607.047 25.9288 605.647 25.2324C604.931 24.8767 605.068 24.1898 605.123 23.559C605.207 22.5778 605.295 21.597 605.378 20.6481C603.728 20.3003 601.985 20.5891 599.925 21.4739C599.826 21.3315 599.713 21.1903 599.622 21.0355C598.725 19.4977 598.562 19.4384 596.966 20.178C596.345 20.4658 595.741 20.7902 595.144 21.0904C594.924 20.7774 594.725 20.4515 594.524 20.1342C593.966 20.1986 593.397 20.2304 592.815 20.2284C590.508 20.2204 588.261 19.1278 586.526 17.5437C586.117 18.9514 586.025 20.3682 586.607 21.721C585.548 22.1951 584.611 22.6144 583.658 23.0409C583.863 23.8035 584.005 24.3288 584.122 24.7643C583.161 25.5604 582.304 26.2695 581.359 27.0524C579.705 27.1509 578.03 26.0795 576.04 26.3427C576.362 28.4909 575.849 30.6912 578.175 32.0971C577.568 32.9836 577.044 33.748 576.423 34.6543C576.986 34.6106 577.272 34.5884 577.554 34.5665C577.746 35.9745 577.746 35.9745 575.857 36.9696C576.855 37.5367 576.684 38.3099 576.42 38.8795C575.193 39.7561 574.128 40.4219 573.185 41.2317C572.757 41.5997 572.329 42.2537 572.332 42.7764C572.335 43.5161 573.005 43.9766 573.768 44.0179C575.02 44.0859 575.93 44.9045 576.533 45.7513C577.463 47.0584 578.477 47.8566 580.206 47.6738C580.343 48.2171 580.66 48.7456 580.548 49.1548C580.076 50.8829 580.92 51.9282 582.241 52.7673C582.308 54.0518 582.372 55.2937 582.434 56.4869C584.474 57.064 585.217 57.059 587.022 55.946C587.996 55.3454 588.741 55.4629 589.315 56.2608C590.185 57.4707 591.139 57.3659 592.244 56.741C592.509 56.5904 592.791 56.4674 593.13 56.2994C594.205 57.4539 595.395 58.1606 596.932 57.2805C597.206 57.7065 597.404 58.0262 597.613 58.3385C597.74 58.5274 597.86 58.7232 597.986 58.913C598.537 56.6854 599.735 54.7153 601.469 53.1645C603.896 50.9951 607.506 50.0469 610.696 50.4464C611.091 50.4959 611.477 50.5619 611.857 50.6402C611.869 50.6054 611.877 50.5701 611.886 50.5352C611.1 49.6827 610.437 48.6986 609.945 47.5448C609.388 46.2361 608.952 44.7821 608.775 43.3444Z" fill="white"/>
<path d="M532.126 56.8799C532.456 51.7065 534.268 47.3219 537.731 43.6716C544 36.9843 551.724 35.5358 560.349 37.4225C560.7 37.4888 560.979 37.7798 561.33 37.846C562.563 38.1219 561.828 38.8722 561.779 39.4918C561.721 40.6405 561.118 40.0173 560.588 39.874C556.039 38.615 551.414 38.2415 547.012 40.0563C540.16 42.9482 535.698 47.9819 534.569 55.6712C534.283 57.3626 533.121 56.8182 532.126 56.8799Z" fill="#F27524"/>
<path d="M162.103 68.2579C160.782 71.7346 160.295 75.5266 158.045 78.6022C157.421 79.4667 156.65 79.4228 155.674 78.9788C154.419 78.4145 153.085 78.0386 151.79 77.5685C146.939 75.8513 146.939 75.8513 148.169 70.9122C148.747 68.5826 149.46 66.2446 149.856 63.8805C150.055 62.7213 150.581 62.4592 151.411 62.7288C154.549 63.7726 157.768 64.6737 160.715 66.2798C161.461 66.6464 162.17 67.1528 162.103 68.2579Z" fill="white"/>
<path d="M71.4757 88.6002C58.0052 89.3137 44.3763 88.9712 31.0787 85.7388C22.6865 83.7184 14.8348 80.6807 8.50923 75.2937C3.75284 71.244 0.981354 66.2512 0.338653 60.3883C0.244214 59.6154 0.154851 58.9241 1.49905 58.8816C2.75072 58.8449 2.5625 59.5534 2.64933 60.2039C3.4004 65.5681 6.04639 70.0358 10.4586 73.779C18.5924 80.6114 28.801 83.4617 39.5476 85.2539C46.82 86.442 54.2293 86.8428 61.662 86.8731C67.3753 86.8873 73.0734 86.6565 78.6999 86.0201C89.2151 84.8343 99.6949 83.0768 109.877 80.272C117.458 78.2026 124.978 75.8911 132.228 72.9814C132.907 72.6933 133.843 72.0613 134.284 73.1817C134.615 74.022 134.278 74.5758 133.144 75.0151C123.025 78.8408 112.685 82.1062 101.999 84.2864C95.2593 85.6887 88.4578 86.8489 81.5898 87.6853C78.2201 88.0175 74.9303 88.1398 71.4757 88.6002Z" fill="#F27524"/>
<path d="M1082.03 19.395C1083.21 19.1625 1083.38 17.8314 1084.17 17.2014C1085.47 16.1421 1087.61 15.3874 1088.66 15.6315C1090.27 15.9923 1091.63 17.786 1093.67 17.6898C1093.82 19.2226 1094.7 20.4092 1095.53 21.6205C1095.75 21.9626 1095.65 22.3621 1095.44 22.5906C1094.43 23.5786 1093.31 24.5252 1092.21 25.3945C1091.35 26.0878 1089.64 25.5174 1088.67 26.6488C1087.35 25.4781 1085.13 25.9461 1084.04 24.3788C1083.15 23.1013 1082.09 22.8957 1080.68 23.6544C1083.68 25.5112 1081.88 29.0477 1083.44 31.3902C1083.71 31.7462 1083.25 31.9302 1083 32.1448C1082.06 32.94 1080.74 33.4672 1081.29 35.1908C1081.49 35.7396 1080.69 35.5399 1080.36 35.5973C1079.62 35.723 1079 35.7607 1078.6 36.6201C1078.18 37.5566 1076.94 37.7229 1076.47 36.9862C1075.57 35.4881 1072.51 35.3925 1073.56 32.5908C1073.83 31.8194 1072.86 31.9916 1072.49 31.6851C1071.32 30.6993 1071.34 30.2721 1072.72 29.5906C1073.08 29.4175 1073.27 29.0071 1073.19 28.7589C1072.8 27.6612 1073.79 26.8414 1073.76 25.8297C1072.51 26.6437 1070.8 27.0325 1069.65 26.9674C1068.03 26.8657 1067 24.2759 1064.74 24.8596C1064.84 23.2417 1063.18 22.6466 1062.59 21.3888C1062 20.0924 1062.46 19.5584 1063.31 18.9946C1064.01 18.505 1064.89 17.8641 1065.47 17.7216C1067.55 17.2507 1068.95 14.7032 1071.83 16.1298C1073.39 16.904 1074.95 17.1599 1075.69 18.9912C1076.14 20.1551 1077.13 19.3352 1078.16 19.1383C1075.79 17.7235 1075.24 15.6112 1075.17 13.2765C1075.15 12.7059 1075.23 11.9948 1074.62 11.6438C1074.08 11.3205 1074.36 10.8993 1074.55 10.6184C1075.21 9.63535 1076.52 8.88758 1075.71 7.37861C1077.34 6.48249 1078.94 5.53396 1080.62 4.74265C1081.04 4.54483 1081.36 5.22615 1081.55 5.68399C1081.83 6.35147 1082.08 7.00508 1083.02 6.91004C1083.3 6.87738 1083.83 7.33022 1083.83 7.33022C1082.99 9.07374 1084.75 9.74895 1085.3 10.9019C1085.77 11.8977 1086.59 13.0181 1084.72 13.4811C1084.24 13.6127 1084.2 14.0785 1084.08 14.4256C1083.65 15.6212 1083.27 16.7921 1082.14 17.6476C1081.64 17.9473 1081.4 18.7325 1082.03 19.395Z" fill="white"/>
</svg>
