<svg width="1379" height="116" viewBox="0 0 1379 116" fill="none" xmlns="http://www.w3.org/2000/svg">
<path d="M943.974 41.6399C941.646 38.029 939.31 34.4232 936.968 30.8217C935.664 28.8165 934.39 28.316 932.296 29.5587C928.781 31.6451 925.378 33.9287 922.028 36.2679C920.524 37.3175 920.404 38.5577 921.277 40.1619C921.983 41.4584 922.684 42.7697 923.53 43.9766C925.021 46.1028 926.522 48.2239 928.075 50.3057C929.487 49.5604 930.897 48.812 932.303 48.0571C936.215 45.9571 940.106 43.8182 943.974 41.6399Z" fill="#F37423"/>
<path d="M890.128 39.802L890.779 40.0116C891.051 39.7083 891.273 39.355 891.565 38.9589C891.968 38.986 892.313 38.7696 892.453 38.2465C892.525 37.9791 892.759 37.9824 892.97 37.9612C893.298 37.928 893.625 37.8958 893.943 37.8644C893.952 37.2777 893.747 36.7 893.326 36.0514C893.367 36.0085 893.406 35.9606 893.451 35.92C893.9 35.5156 893.909 35.4561 893.565 34.9571C893.431 34.7629 893.286 34.5766 893.15 34.3913C893.375 34.1514 893.637 33.9516 893.793 33.685C893.999 33.3357 893.701 33.0379 893.61 32.8739C893.847 32.4208 894.068 32.0801 894.207 31.7063C894.32 31.4026 894.205 31.276 893.88 31.232C893.352 31.1604 892.841 31.2052 892.402 31.5112C892.18 31.1789 891.982 30.8848 891.782 30.5859C891.544 30.7045 891.381 30.786 891.245 30.8537C890.922 30.5752 890.635 30.3273 890.318 30.0535C890.181 29.494 890.427 28.8531 890.215 28.189C889.529 28.4351 888.773 28.399 888.459 29.2838C888.129 29.1321 887.845 29.0014 887.507 28.8463C887.557 29.0362 887.583 29.1326 887.608 29.2278C887.157 29.3824 887.157 29.3824 886.711 28.7995C886.587 29.1765 886.323 29.1672 886.119 29.1129C885.753 28.7485 885.467 28.4265 885.141 28.1553C884.993 28.032 884.751 27.9271 884.579 27.9611C884.336 28.0091 884.227 28.2675 884.262 28.5309C884.319 28.9637 884.108 29.3268 883.867 29.5865C883.497 29.9875 883.298 30.3849 883.468 30.9646C883.298 31.046 883.144 31.188 883.003 31.1757C882.405 31.1235 882.115 31.4783 881.923 31.9835C881.505 32.0875 881.101 32.1882 880.712 32.2848C880.652 33.0194 880.701 33.2732 881.18 33.8201C881.44 34.1152 881.448 34.3777 881.222 34.6245C880.88 34.9988 880.975 35.3186 881.25 35.6567C881.316 35.7382 881.374 35.8266 881.451 35.9321C881.139 36.3727 880.983 36.8247 881.369 37.2947C881.246 37.4152 881.154 37.5034 881.064 37.5947C880.959 37.7019 880.844 37.8019 880.756 37.923C880.539 38.2213 880.632 38.4814 880.995 38.5276C881.286 38.5647 881.586 38.538 881.881 38.5282C882.059 38.5224 882.235 38.4948 882.413 38.477C882.433 38.5193 882.453 38.5617 882.473 38.604C882.334 38.7546 882.195 38.9052 881.977 39.1404C882.397 39.2835 882.756 39.4059 883.145 39.5385C883.077 39.8051 883.025 40.0099 882.944 40.3307C883.188 40.4124 883.397 40.5014 883.614 40.5514C884.12 40.6678 884.201 40.7574 884.138 41.3011C884.112 41.5248 884.048 41.7489 884.27 41.891C884.386 41.9645 884.501 41.9921 884.614 41.9828C885.155 41.1063 885.962 40.3883 886.947 39.957C887.671 39.6393 888.571 39.585 889.405 39.7313C889.644 39.7368 889.885 39.7588 890.128 39.802Z" fill="white"/>
<path d="M905.86 60.4392C899.409 60.6081 894.917 57.2981 891.472 52.198C890.391 50.5768 889.614 48.7867 889.175 46.8615C889.074 46.4562 888.702 45.7807 889.513 45.6794C890.02 45.6119 890.56 45.3754 890.83 46.3887C892.012 50.5768 894.41 54.0219 898.058 56.4537C902.483 59.4259 907.211 59.7299 912.041 57.4669C914.034 56.555 915.959 55.5418 917.614 54.0894C918.121 53.6503 918.391 53.6166 918.897 54.2583C919.472 54.9676 919.303 55.2716 918.729 55.6431C915.655 57.7034 912.514 59.6286 908.832 60.4054C907.92 60.6081 906.873 60.4392 905.86 60.4392Z" fill="white"/>
<path d="M1333.16 53.4721C1328.79 50.5432 1325.6 46.62 1323.42 41.8527C1322.91 40.667 1322.17 39.3857 1323.78 38.6291C1325.38 37.8725 1325.74 39.4543 1326.18 40.4406C1330.38 49.4123 1337.47 54.822 1347.03 56.5602C1354.26 57.8557 1360.94 55.7555 1367.1 52.0953C1369.76 50.5302 1372.33 48.6836 1374.76 46.7306C1375.73 45.9329 1376.28 45.6926 1377.13 46.6242C1377.99 47.6378 1377.54 48.5338 1376.71 49.1457C1372.68 52.1477 1368.71 55.2671 1364.01 57.1872C1356.46 60.238 1348.78 61.2181 1340.8 58.0567C1338.04 56.9201 1335.54 55.3299 1333.16 53.4721Z" fill="#F27524"/>
<path d="M229.176 96.4429C230.051 96.2346 230.783 96.4272 231.327 97.082C233.345 99.5419 235.573 101.831 237.406 104.457C238.344 105.82 238.324 106.924 237.088 107.974C234.612 110.048 232.069 112.053 229.557 114.08C229.135 114.423 228.836 114.556 228.435 113.956C226.387 111.019 224.318 108.112 222.222 105.21C220.76 103.161 220.708 103.17 222.55 101.45C224.297 99.7999 226.176 98.2876 228.155 96.8915C228.487 96.6451 228.807 96.4813 229.176 96.4429Z" fill="#F27524"/>
<path d="M259.165 86.8776C265.054 85.5952 270.524 85.8891 275.857 87.6825C280.219 89.1381 283.973 91.5593 286.78 95.3014C286.987 95.5599 287.659 95.8704 286.983 96.4459C286.332 97.0168 286.146 96.567 285.803 96.1448C283.299 93.2075 280.28 91.0049 276.692 89.5201C273.421 88.1667 270.003 87.6443 266.509 87.4571C263.042 87.2652 259.613 87.8981 256.304 88.7513C251.508 90.0012 247.065 92.1814 243.016 95.0699C242.779 95.2459 242.577 95.4694 242.309 95.624C241.894 95.8582 241.497 96.0358 241.122 95.4315C240.716 94.8058 241.21 94.7184 241.511 94.4506C243.459 92.8724 245.608 91.5268 247.865 90.4842C251.592 88.8061 255.354 87.1755 259.165 86.8776Z" fill="white"/>
<path d="M224.266 112.976C222.426 111.37 220.11 110.411 218.489 108.525C217.615 107.526 218.102 106.635 218.449 105.716C218.559 105.428 218.966 105.302 219.186 105.639C220.883 108.102 222.574 110.539 224.266 112.976Z" fill="white"/>
<path d="M532.126 56.8799C532.456 51.7065 534.268 47.3219 537.731 43.6716C544 36.9843 551.724 35.5358 560.349 37.4225C560.7 37.4888 560.979 37.7798 561.33 37.846C562.563 38.1219 561.828 38.8722 561.779 39.4918C561.721 40.6405 561.118 40.0173 560.588 39.874C556.039 38.615 551.414 38.2415 547.012 40.0563C540.16 42.9482 535.698 47.9819 534.569 55.6712C534.283 57.3626 533.121 56.8182 532.126 56.8799Z" fill="#F27524"/>
<path d="M162.103 68.2579C160.782 71.7346 160.295 75.5266 158.045 78.6022C157.421 79.4667 156.65 79.4228 155.674 78.9788C154.419 78.4145 153.085 78.0386 151.79 77.5685C146.939 75.8513 146.939 75.8513 148.169 70.9122C148.747 68.5826 149.46 66.2446 149.856 63.8805C150.055 62.7213 150.581 62.4592 151.411 62.7288C154.549 63.7726 157.768 64.6737 160.715 66.2798C161.461 66.6464 162.17 67.1528 162.103 68.2579Z" fill="white"/>
<path d="M71.4756 88.6001C58.0051 89.3136 44.3762 88.9711 31.0786 85.7387C22.6864 83.7183 14.8347 80.6806 8.50916 75.2936C3.75277 71.2439 0.981288 66.2511 0.338587 60.3882C0.244148 59.6153 0.154785 58.924 1.49898 58.8815C2.75065 58.8448 2.56243 59.5533 2.64926 60.2038C3.40033 65.568 6.04632 70.0357 10.4585 73.7789C18.5923 80.6113 28.8009 83.4616 39.5475 85.2538C46.8199 86.4419 54.2292 86.8427 61.6619 86.873C67.3752 86.8872 73.0733 86.6564 78.6998 86.02C89.215 84.8342 99.6948 83.0767 109.877 80.2719C117.458 78.2025 124.978 75.891 132.228 72.9813C132.907 72.6932 133.843 72.0612 134.284 73.1816C134.615 74.0219 134.278 74.5757 133.144 75.015C123.025 78.8407 112.685 82.1061 101.999 84.2863C95.2592 85.6886 88.4577 86.8488 81.5897 87.6852C78.22 88.0174 74.9302 88.1397 71.4756 88.6001Z" fill="#F27524"/>
<path d="M1082.03 19.395C1083.21 19.1625 1083.38 17.8314 1084.17 17.2014C1085.47 16.1421 1087.61 15.3874 1088.66 15.6315C1090.27 15.9923 1091.63 17.786 1093.67 17.6898C1093.82 19.2226 1094.7 20.4092 1095.53 21.6205C1095.75 21.9626 1095.65 22.3621 1095.44 22.5906C1094.43 23.5786 1093.31 24.5252 1092.21 25.3945C1091.35 26.0878 1089.64 25.5174 1088.67 26.6488C1087.35 25.4781 1085.13 25.9461 1084.04 24.3788C1083.15 23.1013 1082.09 22.8957 1080.68 23.6544C1083.68 25.5112 1081.88 29.0477 1083.44 31.3902C1083.71 31.7462 1083.25 31.9302 1083 32.1448C1082.06 32.94 1080.74 33.4672 1081.29 35.1908C1081.49 35.7396 1080.69 35.5399 1080.36 35.5973C1079.62 35.723 1079 35.7607 1078.6 36.6201C1078.18 37.5566 1076.94 37.7229 1076.47 36.9862C1075.57 35.4881 1072.51 35.3925 1073.56 32.5908C1073.83 31.8194 1072.86 31.9916 1072.49 31.6851C1071.32 30.6993 1071.34 30.2721 1072.72 29.5906C1073.08 29.4175 1073.27 29.0071 1073.19 28.7589C1072.8 27.6612 1073.79 26.8414 1073.76 25.8297C1072.51 26.6437 1070.8 27.0325 1069.65 26.9674C1068.03 26.8657 1067 24.2759 1064.74 24.8596C1064.84 23.2417 1063.18 22.6466 1062.59 21.3888C1062 20.0924 1062.46 19.5584 1063.31 18.9946C1064.01 18.505 1064.89 17.8641 1065.47 17.7216C1067.55 17.2507 1068.95 14.7032 1071.83 16.1298C1073.39 16.904 1074.95 17.1599 1075.69 18.9912C1076.14 20.1551 1077.13 19.3352 1078.16 19.1383C1075.79 17.7235 1075.24 15.6112 1075.17 13.2765C1075.15 12.7059 1075.23 11.9948 1074.62 11.6438C1074.08 11.3205 1074.36 10.8993 1074.55 10.6184C1075.21 9.63537 1076.52 8.8876 1075.71 7.37863C1077.34 6.48251 1078.94 5.53398 1080.62 4.74267C1081.04 4.54485 1081.36 5.22617 1081.55 5.68401C1081.83 6.35149 1082.08 7.0051 1083.02 6.91006C1083.3 6.8774 1083.83 7.33024 1083.83 7.33024C1082.99 9.07376 1084.75 9.74897 1085.3 10.9019C1085.77 11.8977 1086.59 13.0181 1084.72 13.4811C1084.24 13.6127 1084.2 14.0785 1084.08 14.4256C1083.65 15.6212 1083.27 16.7921 1082.14 17.6476C1081.64 17.9473 1081.4 18.7325 1082.03 19.395Z" fill="white"/>
</svg>
