<svg width="320" height="53" viewBox="0 0 320 53" fill="none" xmlns="http://www.w3.org/2000/svg">
<rect width="320" height="53" fill="black"/>
<path d="M8.50867 52.4917C7.70012 53.5236 7.1656 54.6712 7.0035 55.7229L7.71396 55.8333C8.02324 53.8265 9.801 51.6396 12.0371 50.515C13.2099 49.9253 14.4556 49.6316 15.7397 49.6422C17.195 49.6541 18.6652 50.0619 20.1091 50.8537L20.4529 50.2132C18.9049 49.3641 17.3218 48.927 15.7476 48.914C14.3493 48.9025 12.9938 49.2218 11.7187 49.863C10.4765 50.4877 9.36651 51.3967 8.50867 52.4917Z" fill="#F37423"/>
<path d="M209.458 56.0442C208.267 53.237 207.069 50.4325 205.866 47.6302C205.196 46.07 204.378 45.5744 202.8 46.2165C200.151 47.2946 197.558 48.5244 194.994 49.7992C193.843 50.3711 193.621 51.2324 194.04 52.4615C194.379 53.455 194.713 54.4582 195.158 55.4042C195.942 57.0705 196.734 58.7346 197.566 60.3767C198.619 60.0091 199.672 59.6389 200.722 59.2639C203.645 58.2207 206.557 57.1476 209.458 56.0442Z" fill="#F37423"/>
<path d="M124.791 55.302L125.226 55.524C125.452 55.3409 125.649 55.1171 125.899 54.8709C126.181 54.936 126.448 54.8225 126.607 54.4696C126.688 54.2892 126.853 54.3182 127.004 54.3272C127.239 54.3411 127.474 54.3557 127.701 54.3696C127.774 53.9569 127.695 53.5262 127.472 53.0209C127.506 52.9953 127.539 52.966 127.575 52.9425C127.938 52.7084 127.951 52.6675 127.765 52.2764C127.693 52.1243 127.612 51.9764 127.537 51.8303C127.723 51.6867 127.93 51.5756 128.071 51.4054C128.255 51.1824 128.08 50.9386 128.034 50.8125C128.252 50.52 128.447 50.3049 128.588 50.0572C128.702 49.8558 128.635 49.7534 128.411 49.6855C128.047 49.575 127.681 49.5483 127.337 49.7143C127.218 49.4546 127.112 49.2248 127.005 48.9912C126.824 49.0478 126.699 49.0867 126.596 49.119C126.4 48.8859 126.226 48.6784 126.033 48.4493C126 48.0391 126.247 47.6152 126.172 47.1227C125.661 47.2183 125.132 47.1069 124.81 47.695C124.594 47.5506 124.409 47.426 124.189 47.2783C124.202 47.4179 124.209 47.4888 124.216 47.5587C123.881 47.6165 123.881 47.6165 123.632 47.1547C123.502 47.4065 123.317 47.3698 123.179 47.3084C122.962 47.0098 122.797 46.7502 122.598 46.5218C122.508 46.4181 122.349 46.3166 122.224 46.321C122.048 46.3272 121.941 46.4971 121.936 46.6868C121.927 46.9984 121.736 47.2304 121.537 47.3863C121.23 47.6268 121.045 47.8846 121.099 48.3126C120.97 48.3507 120.846 48.4333 120.747 48.4086C120.331 48.3038 120.086 48.521 119.894 48.8554C119.587 48.8812 119.291 48.9062 119.006 48.9302C118.88 49.4413 118.885 49.6258 119.161 50.0661C119.31 50.3037 119.287 50.4897 119.099 50.638C118.815 50.863 118.846 51.0993 119.001 51.3691C119.039 51.434 119.07 51.503 119.112 51.5861C118.842 51.8614 118.68 52.1623 118.899 52.5377C118.799 52.6087 118.723 52.6604 118.65 52.7146C118.564 52.7783 118.471 52.8356 118.395 52.911C118.208 53.0968 118.244 53.2907 118.495 53.3646C118.696 53.4239 118.91 53.4391 119.12 53.4658C119.246 53.4818 119.373 53.4825 119.5 53.4901C119.51 53.5223 119.519 53.5545 119.529 53.5866C119.413 53.677 119.298 53.7673 119.118 53.9084C119.398 54.0571 119.637 54.1843 119.896 54.322C119.818 54.5023 119.758 54.6408 119.664 54.8577C119.827 54.9431 119.964 55.0296 120.111 55.0895C120.456 55.2293 120.502 55.3016 120.396 55.6778C120.352 55.8326 120.281 55.9834 120.422 56.1089C120.495 56.1738 120.573 56.2065 120.654 56.2128C121.135 55.6562 121.786 55.2416 122.529 55.0494C123.077 54.9079 123.717 54.9719 124.288 55.1699C124.457 55.201 124.624 55.244 124.791 55.302Z" fill="white"/>
<path d="M10.7277 3.92962C11.038 4.08555 11.2063 4.32423 11.2046 4.65311C11.1894 5.88129 11.2791 7.11128 11.1678 8.34276C11.1063 8.9787 10.8263 9.29981 10.2002 9.30289C8.95296 9.30022 7.70339 9.26086 6.45755 9.23543C6.24759 9.23181 6.12633 9.19703 6.15686 8.92017C6.28164 7.54329 6.39248 6.17013 6.49449 4.79187C6.57161 3.82332 6.55396 3.81312 7.5257 3.7625C8.45192 3.70911 9.38281 3.72911 10.3147 3.80857C10.474 3.81826 10.6092 3.84931 10.7277 3.92962Z" fill="#F27524"/>
<path d="M21.9654 8.55553C24.0242 9.64014 25.5675 11.0864 26.6976 12.9416C27.6246 14.4555 28.1321 16.1038 28.0317 17.9071C28.0285 18.0348 28.1499 18.2935 27.8071 18.2955C27.4731 18.3026 27.5297 18.1233 27.5333 17.9133C27.5233 16.4232 27.1789 15.0224 26.4875 13.6919C25.8576 12.4793 24.9773 11.4755 23.9916 10.552C23.0148 9.63365 21.8444 8.96855 20.6545 8.39821C18.927 7.5759 17.0725 7.11597 15.1582 6.96311C15.0444 6.9562 14.9292 6.97205 14.8116 6.9512C14.6309 6.91737 14.4692 6.87099 14.5086 6.59923C14.5442 6.31354 14.712 6.41055 14.8676 6.4063C15.8352 6.42396 16.8047 6.56054 17.7306 6.81326C19.2488 7.24362 20.7657 7.69675 21.9654 8.55553Z" fill="white"/>
<path d="M5.16829 7.59448C5.02386 6.66274 4.57799 5.80406 4.56779 4.84391C4.55779 4.33156 4.92284 4.18925 5.25395 4.00376C5.35798 3.94611 5.50943 4.01014 5.49092 4.16436C5.37998 5.31362 5.27413 6.45405 5.16829 7.59448Z" fill="white"/>
<path d="M165.219 16.7595C163.616 18.9156 162.529 21.4551 160.36 23.1494C159.756 23.6272 159.228 23.4448 158.637 22.9436C157.876 22.304 157.023 21.7797 156.216 21.1978C153.182 19.0478 153.182 19.0478 155.011 15.8573C155.872 14.3521 156.829 12.8677 157.57 11.3025C157.937 10.536 158.354 10.4576 158.878 10.8086C160.853 12.1527 162.913 13.4136 164.644 15.1109C165.09 15.5127 165.484 16.0045 165.219 16.7595Z" fill="white"/>
<path d="M101.39 9.63362C92.3775 5.92498 83.5888 1.4781 75.9119 -4.7522C71.0609 -8.67137 66.8779 -13.087 64.4189 -18.563C62.5697 -22.6799 62.3081 -26.7973 63.7054 -30.8227C63.8833 -31.3565 64.0392 -31.8354 64.9296 -31.4465C65.7579 -31.0826 65.4155 -30.6785 65.2706 -30.2271C64.0985 -26.4934 64.4409 -22.7577 66.1606 -18.9475C69.3518 -11.9679 75.131 -6.94414 81.5893 -2.44429C85.9674 0.584683 90.6788 3.14225 95.5203 5.46533C99.2447 7.24504 103.035 8.86012 106.904 10.1884C114.134 12.673 121.519 14.7735 129.033 16.0983C134.622 17.097 140.246 17.9185 145.879 18.2663C146.412 18.2886 147.218 18.1662 147.159 19.0341C147.115 19.685 146.723 19.942 145.847 19.8773C138.057 19.2384 130.297 18.1654 122.648 16.277C117.814 15.1036 113.016 13.7531 108.274 12.1707C105.972 11.3433 103.787 10.4036 101.39 9.63362Z" fill="#F27524"/>
<path d="M214.968 4.56939C216.108 3.11432 216.861 1.49623 217.09 0.0134185L216.088 -0.142244C215.652 2.68726 213.146 5.7707 209.993 7.35639C208.339 8.18794 206.583 8.60194 204.772 8.58702C202.72 8.57032 200.647 7.99528 198.612 6.87886L198.127 7.78195C200.309 8.97911 202.542 9.59542 204.761 9.61373C206.733 9.62999 208.644 9.17981 210.442 8.27572C212.193 7.39488 213.758 6.11327 214.968 4.56939Z" fill="#F37423"/>
<path d="M240.899 0.302472C240.401 -0.367859 240.059 -0.953422 239.88 -1.78553C239.718 -2.53607 239.796 -3.27429 239.999 -4.0072C240.061 -4.23097 240.141 -4.44591 240.236 -4.65289C240.095 -4.66057 239.955 -4.70738 239.808 -4.81765C239.386 -5.13295 238.907 -5.37211 238.362 -5.69759C238.34 -6.21559 238.024 -6.62527 237.354 -6.73364C237.011 -6.78896 236.983 -7.08817 236.928 -7.35395C236.842 -7.76732 236.757 -8.18087 236.675 -8.58084C235.943 -8.51444 235.252 -8.17526 234.503 -7.55122C234.444 -7.5971 234.379 -7.64065 234.322 -7.69274C233.758 -8.2101 233.682 -8.2138 233.108 -7.70816C232.885 -7.51136 232.673 -7.3017 232.461 -7.10286C232.331 -7.2035 232.208 -7.31203 232.084 -7.41668C231.86 -7.31966 231.626 -7.23453 231.383 -7.16154C230.42 -6.87265 229.348 -7.03636 228.428 -7.46666C228.432 -6.8371 228.569 -6.24413 228.979 -5.76272C228.596 -5.43399 228.257 -5.14319 227.912 -4.84747C228.092 -4.56056 228.216 -4.3629 228.319 -4.19903C228.016 -3.75052 227.747 -3.35111 227.45 -2.91006C226.772 -2.66016 225.941 -2.88758 225.143 -2.52748C225.543 -1.68676 225.602 -0.718837 226.746 -0.436605C226.602 0.00413779 226.478 0.384134 226.331 0.834693C226.561 0.745447 226.677 0.700123 226.792 0.655385C227.046 1.20894 227.046 1.20894 226.382 1.85649C226.868 1.96286 226.893 2.30175 226.853 2.56888C226.449 3.08415 226.088 3.49226 225.795 3.94398C225.662 4.14924 225.564 4.4718 225.63 4.68599C225.723 4.9891 226.059 5.09319 226.382 5.01353C226.913 4.88277 227.394 5.10343 227.75 5.37458C228.299 5.79317 228.821 5.99221 229.519 5.69822C229.644 5.90377 229.842 6.08047 229.846 6.26256C229.862 7.03153 230.344 7.35359 230.998 7.53056C231.185 8.04923 231.366 8.55072 231.539 9.03253C232.461 9.01083 232.771 8.91468 233.386 8.22935C233.717 7.8595 234.043 7.8133 234.381 8.06807C234.893 8.45431 235.278 8.29041 235.662 7.89409C235.754 7.79863 235.856 7.7125 235.977 7.6006C236.568 7.93823 237.152 8.07738 237.684 7.52155C237.851 7.66173 237.973 7.7678 238.099 7.86945C238.175 7.93095 238.249 7.9961 238.325 8.05798C238.279 7.07405 238.535 6.11386 239.067 5.25777C239.81 4.06017 241.199 3.21369 242.579 2.97355C242.75 2.94382 242.919 2.922 243.087 2.906C243.088 2.89023 243.087 2.8747 243.086 2.85916C242.653 2.60897 242.255 2.28911 241.907 1.87794C241.512 1.41155 241.151 0.870028 240.899 0.302472Z" fill="white"/>
</svg>
