<svg width="169" height="6" viewBox="0 0 169 6" fill="none" xmlns="http://www.w3.org/2000/svg">
<path d="M0.950243 3.0574H2.37564C3.5924 3.0574 3.58536 1.27154 2.37564 1.27154H0.950243V3.0574ZM2.37564 3.92853H0.950243V5.41174H0V0.371295C0.791768 0.371295 1.58387 0.364252 2.37564 0.364252C4.83786 0.364252 4.84524 3.92853 2.37564 3.92853Z" fill="white"/>
<path d="M6.44333 2.92948C6.46473 3.72461 6.91111 4.57489 8.0991 4.57489C9.28675 4.57489 9.73313 3.71784 9.74748 2.92244C9.76223 2.10671 9.28675 1.19412 8.0991 1.19412C6.91111 1.19412 6.42161 2.11348 6.44333 2.92948ZM10.6837 2.90855C10.669 4.16035 9.87021 5.41174 8.0991 5.41174C6.32798 5.41174 5.50745 4.18798 5.50745 2.91566C5.50745 1.64334 6.35675 0.364307 8.0991 0.364307C9.83413 0.364307 10.6981 1.64334 10.6837 2.90855Z" fill="white"/>
<path d="M13.2033 1.25715V2.8701H14.6501C15.2549 2.8701 15.5141 2.46676 15.5141 2.06343C15.5141 1.66009 15.2479 1.25715 14.6501 1.25715H13.2033ZM16.7164 5.41174H15.5863L14.1174 3.72689H13.2033V5.41174H12.2531V0.364215C13.0521 0.364215 13.8509 0.371259 14.6501 0.371259C15.8381 0.37857 16.4643 1.17049 16.4643 2.04203C16.4643 2.73333 16.1477 3.43161 15.1901 3.62587L16.7164 5.34681V5.41174Z" fill="white"/>
<path d="M19.4954 1.23542H17.8971V0.371253H22.0439V1.23542H20.4456V5.41174H19.4954V1.23542Z" fill="white"/>
<path d="M28.0549 0.371253V3.158C28.0549 4.6486 27.1407 5.41174 25.8735 5.41174C24.6641 5.41174 23.6346 4.67731 23.6346 3.158V0.371253H24.5778V3.158C24.5778 4.06529 25.0961 4.54758 25.8808 4.54758C26.6656 4.54758 27.1119 4.02216 27.1119 3.158V0.371253H28.0549Z" fill="white"/>
<path d="M40.5288 0.371253V3.158C40.5288 4.6486 39.6146 5.41174 38.3474 5.41174C37.138 5.41174 36.1085 4.67731 36.1085 3.158V0.371253H37.0517V3.158C37.0517 4.06529 37.57 4.54758 38.3547 4.54758C39.1395 4.54758 39.5859 4.02216 39.5859 3.158V0.371253H40.5288Z" fill="white"/>
<path d="M33.5572 1.67915C33.2189 1.37093 32.7149 1.19981 32.2759 1.19981C31.1959 1.19981 30.5409 1.98073 30.5409 2.9667C30.5409 3.75426 31.0231 4.56912 32.2759 4.56912C32.6718 4.56912 33.0172 4.48708 33.4134 4.1859V3.33663H32.1248V2.52842H34.2845V4.54879C33.7876 5.08984 33.1613 5.41174 32.2759 5.41174C30.3824 5.41174 29.6121 4.22689 29.6121 2.9667C29.6121 1.61744 30.4974 0.371272 32.2759 0.371272C32.9527 0.371272 33.6294 0.617781 34.1477 1.10409L33.5572 1.67915Z" fill="white"/>
<path d="M46.1258 5.41168H42.3535V0.371211H46.1258V1.29292H43.2968V2.45236H46.0252V3.33791H43.2968V4.47562H46.1258V5.41168Z" fill="white"/>
<path d="M51.0448 1.68215C50.8719 1.41049 50.3968 1.15244 49.8495 1.15244C49.1439 1.15244 48.8056 1.43068 48.8056 1.78404C48.8056 2.19865 49.3242 2.31409 49.9287 2.38198C50.98 2.50399 51.959 2.76244 51.959 3.89666C51.959 4.95642 50.9655 5.41174 49.8425 5.41174C48.813 5.41174 48.0209 5.11264 47.6467 4.24311L48.4385 3.85594C48.6618 4.37908 49.2449 4.61003 49.8568 4.61003C50.4543 4.61003 51.0157 4.41316 51.0157 3.89666C51.0157 3.44838 50.5192 3.26505 49.8495 3.19717C48.82 3.08173 47.8697 2.82335 47.8697 1.75695C47.8697 0.778549 48.8922 0.377894 49.8207 0.371253C50.6055 0.371253 51.419 0.581676 51.8005 1.31524L51.0448 1.68215Z" fill="white"/>
<path d="M57.2553 5.41174H53.483V0.371272H57.2553V1.29298H54.4263V2.45242H57.1547V3.33798H54.4263V4.47568H57.2553V5.41174Z" fill="white"/>
<path d="M61.9067 5.41174V0.37868H65.5279V1.29301H62.857V2.66849H65.3841V3.547H62.857V5.41174H61.9067Z" fill="white"/>
<path d="M67.9969 0.371253V4.53316H70.5885V5.41174H67.0466V0.371253H67.9969Z" fill="white"/>
<path d="M75.0278 0.371253H73.9913L71.7307 5.41174H72.7602L74.5095 1.42967L76.2516 5.41174H77.2884L75.0278 0.371253Z" fill="white"/>
<path d="M89.2344 5.41168H85.4622V0.371211H89.2344V1.29292H86.4054V2.45236H89.1338V3.33791H86.4054V4.47562H89.2344V5.41168Z" fill="white"/>
<path d="M97.6309 1.674C97.2926 1.36531 96.7887 1.194 96.3497 1.194C95.2697 1.194 94.6147 1.97592 94.6147 2.96336C94.6147 3.75199 95.0968 4.56798 96.3497 4.56798C96.7456 4.56798 97.0909 4.48581 97.4872 4.18416V3.33376H96.1986V2.52441H98.3582V4.54759C97.8613 5.08937 97.2351 5.41174 96.3497 5.41174C94.4562 5.41174 93.6858 4.22528 93.6858 2.96336C93.6858 1.61222 94.5712 0.364252 96.3497 0.364252C97.0264 0.364252 97.7032 0.611096 98.2215 1.09814L97.6309 1.674Z" fill="white"/>
<path d="M100.885 1.25715V2.8701H102.332C102.937 2.8701 103.196 2.46676 103.196 2.06343C103.196 1.66009 102.93 1.25715 102.332 1.25715H100.885ZM104.398 5.41174H103.268L101.799 3.72689H100.885V5.41174H99.9351V0.364215C100.734 0.364215 101.533 0.371259 102.332 0.371259C103.52 0.37857 104.146 1.17049 104.146 2.04203C104.146 2.73333 103.83 3.43161 102.872 3.62587L104.398 5.34681V5.41174Z" fill="white"/>
<path d="M105.658 0.371253H106.601V5.41174H105.658V0.371253Z" fill="white"/>
<path d="M109.308 0.371253V4.53316H111.9V5.41174H108.358V0.371253H109.308Z" fill="white"/>
<path d="M114.384 0.371253V4.53316H116.975V5.41174H113.433V0.371253H114.384Z" fill="white"/>
<path d="M122.266 5.41174H118.494V0.371272H122.266V1.29298H119.437V2.45242H122.166V3.33798H119.437V4.47568H122.266V5.41174Z" fill="white"/>
<path d="M124.743 4.49742H125.78C126.924 4.49742 127.378 3.66198 127.356 2.84136C127.335 2.05643 126.874 1.27156 125.78 1.27156H124.743V4.49742ZM128.299 2.84841C128.321 4.12287 127.543 5.41168 125.78 5.41168H123.8V0.371322H125.78C127.508 0.371322 128.278 1.60265 128.299 2.84841Z" fill="white"/>
<path d="M137.305 4.69341C136.787 5.18375 136.117 5.41174 135.39 5.41174C133.518 5.41174 132.726 4.17584 132.719 2.91908C132.712 1.6556 133.569 0.371272 135.39 0.371272C136.074 0.371272 136.722 0.619861 137.24 1.11013L136.607 1.69699C136.276 1.38622 135.829 1.24133 135.39 1.24133C134.174 1.24133 133.648 2.11126 133.655 2.91908C133.662 3.72018 134.145 4.5555 135.39 4.5555C135.829 4.5555 136.326 4.38304 136.657 4.06523L137.305 4.69341Z" fill="white"/>
<path d="M144.843 0.371253H145.786V5.41174H144.843V0.371253Z" fill="white"/>
<path d="M151.984 4.69341C151.466 5.18375 150.796 5.41174 150.069 5.41174C148.197 5.41174 147.405 4.17584 147.398 2.91908C147.391 1.6556 148.248 0.371272 150.069 0.371272C150.753 0.371272 151.401 0.619861 151.919 1.11013L151.286 1.69699C150.955 1.38622 150.508 1.24133 150.069 1.24133C148.853 1.24133 148.327 2.11126 148.334 2.91908C148.341 3.72018 148.824 4.5555 150.069 4.5555C150.508 4.5555 151.005 4.38304 151.336 4.06523L151.984 4.69341Z" fill="white"/>
<path d="M157.435 0.399969L155.195 2.81215L157.621 5.35413V5.41168H156.448L154.339 3.17974V5.41168H153.388V0.371192H154.339V2.50286L156.254 0.371192H157.435V0.399969Z" fill="white"/>
<path d="M162.725 5.41174H158.953V0.371272H162.725V1.29298H159.896V2.45242H162.625V3.33798H159.896V4.47568H162.725V5.41174Z" fill="white"/>
<path d="M167.786 0.364364H168.737V5.41188H168.146V5.41919L165.497 2.01306V5.41188H164.546V0.371408H165.317L167.786 3.49661V0.364364Z" fill="white"/>
<path d="M82.7006 0.37868L81.1241 2.54614L79.5472 0.37868H78.4531V5.41174H79.4034V1.75383L81.1011 4.07644L82.8373 1.76121V5.41174H83.7875V0.37868H82.7006Z" fill="white"/>
<path d="M142.136 5.41174V3.38112H139.659V5.41174H138.709V0.37868H139.659V2.50294H142.136V0.37868H143.079V5.41174H142.136Z" fill="white"/>
</svg>
