<svg width="68" height="50" viewBox="0 0 68 50" fill="none" xmlns="http://www.w3.org/2000/svg">
<path d="M32.0617 14.8383C32.1049 14.5068 32.3572 14.3698 32.487 14.1463C33.1285 13.0507 33.1285 11.9479 32.6383 10.8018C32.3356 10.0954 31.8743 9.55479 31.1535 9.27367C30.757 9.1223 30.2308 9.20159 30.1516 9.61966C30.1155 9.79987 30.1227 9.88636 30.2885 9.95124C30.4543 10.0161 30.6129 10.081 30.7715 10.1603C31.2976 10.4126 31.4923 10.8378 31.2328 11.3568C30.9012 12.0128 30.8147 12.7047 30.8291 13.4183C30.8507 14.3049 30.7787 15.1843 30.7354 16.0709C30.6922 16.8854 30.6633 17.6999 30.6994 18.5072C30.757 19.6605 30.7787 20.821 31.0382 21.9599C31.103 22.2555 31.1751 22.1618 31.3193 22.032C31.831 21.5707 32.0185 20.958 32.1338 20.3093C32.2852 19.4371 32.2347 18.5433 32.487 17.6855C32.7609 16.7701 33.1934 15.9556 33.8061 15.2131C34.6422 14.1968 35.6946 13.5265 36.9632 13.1805C37.8426 12.9354 38.7364 12.921 39.6374 13.0291C40.7258 13.1588 41.7133 13.5337 42.6216 14.1175C43.6307 14.759 44.4092 15.6312 45.0002 16.662C45.8796 18.1973 46.2328 19.8624 46.0959 21.6067C45.9589 23.3439 45.3534 24.8936 44.1136 26.1767C42.809 27.5246 41.2016 28.3607 39.486 29.0311C39.0896 29.1824 38.6787 29.3122 38.2174 29.4708C38.6499 28.6635 39.068 27.9282 39.4356 27.1642C39.7744 26.4722 39.9257 25.737 39.6302 24.9801C39.313 24.18 38.4625 23.4664 37.5254 23.5673C36.7326 23.6466 35.9108 24.2521 35.6658 25.1747C35.4928 25.8235 35.7667 26.3713 35.9901 26.9407C36.4442 28.1084 37.0137 29.2329 37.4101 30.4294C37.5326 30.7971 37.511 31.1503 37.3597 31.5035C37.165 31.9576 36.6244 32.1306 36.0406 31.972C34.8945 31.6692 33.7556 31.3521 32.6023 31.0854C31.6508 30.8619 31.3914 31.5827 31.5283 32.2819C31.6076 32.6928 31.7734 33.0892 31.7878 33.5217C31.8166 34.2714 31.2328 34.7471 30.6201 34.8048C29.4668 34.9057 28.3856 34.6606 27.4341 33.9686C26.8214 33.5217 26.7421 32.8802 27.0809 32.145C27.189 31.9071 27.3548 31.6981 27.4485 31.4602C27.845 30.4439 27.5062 30.1267 26.8358 29.5717C26.4466 29.2473 25.9276 29.1392 25.4519 28.9806C24.5364 28.6779 23.9958 28.0508 23.794 27.1281C23.5561 26.0109 23.7796 24.9513 24.2625 23.9277C24.7671 22.8609 25.4807 21.9167 25.9781 20.8499C26.5331 19.6533 26.9295 18.4063 27.1169 17.0945C27.2395 16.2367 27.2611 15.3861 27.2395 14.5284C27.2323 14.1031 27.1818 13.6778 27.0881 13.267C26.98 12.8056 26.6484 12.5101 26.1871 12.4308C25.387 12.3011 24.5797 12.265 23.7796 12.4524C23.5489 12.5101 23.3183 12.5101 23.0804 12.4236C22.6551 12.265 22.5542 11.8253 22.8714 11.4938C23.102 11.2559 23.4264 11.191 23.6931 11.018C24.0895 10.773 24.486 10.5135 24.8464 10.1891C24.1688 9.58362 23.621 8.8556 23.2462 8.01226C22.6263 6.60668 22.5903 5.18668 23.1381 3.74506C23.4264 2.981 23.8661 2.30344 24.4283 1.734C25.3077 0.8402 26.3745 0.263552 27.6359 0.083349C29.1713 -0.140102 30.6345 0.0833488 32.004 0.782534C34.2746 1.93583 35.7306 3.7811 36.228 6.27511C36.6965 8.63215 36.1775 10.8162 34.671 12.7336C33.9574 13.5985 33.0997 14.2905 32.0617 14.8383Z" fill="#F27524"/>
<path d="M29.8991 44.1517C29.8991 44.959 29.8991 45.687 29.8991 46.4078C29.8991 47.5035 29.8919 48.5919 29.9063 49.6875C29.9063 49.9038 29.8559 49.9758 29.6324 49.9686C29.1278 49.947 28.6233 49.9542 28.1187 49.9686C27.9313 49.9758 27.8808 49.9182 27.8808 49.7308C27.8881 46.6673 27.8881 43.6039 27.8808 40.5476C27.8808 40.3602 27.9313 40.3026 28.1187 40.3098C28.6089 40.3242 29.1062 40.317 29.5964 40.3098C29.755 40.3098 29.8342 40.353 29.9279 40.4972C31.0596 42.2632 32.2129 44.0219 33.359 45.7879C33.4167 45.8744 33.4743 45.9537 33.5752 46.1051C33.5752 45.9465 33.5752 45.8528 33.5752 45.7519C33.5752 44.0436 33.5825 42.3425 33.568 40.6341C33.568 40.3674 33.6257 40.2809 33.8996 40.3026C34.3321 40.3314 34.7646 40.3314 35.1971 40.3026C35.471 40.2881 35.5286 40.3674 35.5286 40.6341C35.5142 43.4525 35.5214 46.2781 35.5214 49.0964C35.5214 49.3704 35.6151 49.738 35.4782 49.8965C35.3124 50.0912 34.9376 49.9182 34.6565 49.9614C33.9356 50.0767 33.5104 49.8245 33.1211 49.1613C32.1264 47.4746 31.0092 45.8672 29.8991 44.1517Z" fill="white"/>
<path d="M43.7748 46.6457C43.0901 46.6457 42.4053 46.6385 41.7205 46.6529C41.5043 46.6601 41.4034 46.6241 41.4178 46.3718C41.4394 45.9321 41.4322 45.4852 41.4178 45.0383C41.4106 44.8509 41.4466 44.7716 41.6629 44.7716C43.0901 44.7788 44.5173 44.7788 45.9445 44.7716C46.1031 44.7716 46.1679 44.7932 46.1751 44.9807C46.2472 46.3358 45.8291 47.5323 44.9065 48.5054C44.2001 49.2478 43.3279 49.7452 42.2683 49.8966C40.9853 50.0768 39.796 49.9038 38.7364 49.1181C37.6768 48.3324 36.9992 47.3089 36.7974 45.9754C36.6316 44.8869 36.7325 43.8418 37.2515 42.8687C37.9795 41.5063 39.1328 40.6198 40.6609 40.3891C42.3693 40.1296 43.8757 40.6198 45.0507 41.9532C45.3967 42.3497 45.6561 42.7966 45.8652 43.3228C45.1516 43.3228 44.4452 43.3228 43.746 43.3228C43.5009 43.3228 43.4144 43.1138 43.2775 42.9768C42.8017 42.5155 42.2323 42.2632 41.5836 42.2488C40.3582 42.2127 39.4932 42.811 38.967 43.9066C38.4048 45.0672 38.7147 46.4511 39.5581 47.2584C40.8483 48.491 42.7297 48.2675 43.6883 46.8548C43.7316 46.8115 43.8181 46.7827 43.7748 46.6457Z" fill="white"/>
<path d="M56.5836 43.3301C55.8267 43.3301 55.1348 43.3229 54.4356 43.3301C54.1761 43.3301 54.0824 43.1139 53.9382 42.9697C53.4553 42.5012 52.8714 42.2489 52.2083 42.2489C50.918 42.2489 49.9882 42.9769 49.5845 44.1302C49.1953 45.2331 49.3611 46.3215 50.1756 47.172C51.1271 48.174 52.5687 48.419 53.8085 47.4964C54.1184 47.2657 54.313 46.963 54.5581 46.6386C53.8229 46.6386 53.1453 46.6314 52.4678 46.6459C52.2515 46.6531 52.1506 46.617 52.165 46.3647C52.1866 45.9322 52.1794 45.4998 52.165 45.0673C52.1578 44.851 52.1939 44.7573 52.4461 44.7645C53.8517 44.779 55.2573 44.7717 56.6557 44.7645C56.8431 44.7645 56.9296 44.7934 56.9224 45.0096C56.8935 46.4801 56.4538 47.7775 55.3222 48.765C54.1833 49.767 52.857 50.0985 51.3433 49.8967C49.3827 49.6372 47.7969 47.9433 47.4798 46.0404C47.1698 44.1518 47.7609 42.5517 49.2313 41.3263C49.9521 40.728 50.8027 40.4108 51.7614 40.3604C52.6912 40.3099 53.5634 40.4253 54.3779 40.8794C55.387 41.4344 56.1079 42.2345 56.5836 43.3301Z" fill="white"/>
<path d="M26.5764 49.9615C25.9204 49.9615 25.3005 49.9543 24.6734 49.9687C24.486 49.9759 24.4139 49.8966 24.3491 49.738C23.5922 47.763 22.8282 45.7952 22.0713 43.8202C21.9992 43.6328 21.9848 43.4165 21.819 43.2219C21.3577 44.4113 20.9108 45.5718 20.4639 46.7251C20.0819 47.7198 19.6998 48.7073 19.325 49.702C19.2529 49.8894 19.1664 49.9759 18.9502 49.9687C18.4384 49.9471 17.9194 49.9615 17.4005 49.9615C17.1986 49.9615 17.0905 49.9759 17.2058 49.6948C17.6527 48.592 18.0492 47.4747 18.4745 46.3646C19.1664 44.5626 19.9017 42.7822 20.536 40.9586C20.745 40.3675 21.0333 40.2378 21.5812 40.2954C21.9488 40.3387 22.3236 40.3026 22.6984 40.3026C22.7993 40.3026 22.8642 40.2882 22.9219 40.4396C23.8805 42.9624 24.8536 45.4853 25.8267 48.0081C26.079 48.6568 26.3241 49.2983 26.5764 49.9615Z" fill="white"/>
<path d="M0.00720854 45.1626C0.00720854 43.6489 0.0144162 42.1352 0 40.6215C0 40.3909 0.0576652 40.326 0.295532 40.326C2.33542 40.3332 4.37532 40.3332 6.41521 40.326C6.64587 40.326 6.72516 40.3765 6.71074 40.6215C6.68912 41.0756 6.68912 41.537 6.71074 41.9911C6.71795 42.2289 6.65308 42.2866 6.41521 42.2866C5.03846 42.2722 3.65451 42.2866 2.27776 42.2722C2.01106 42.2722 1.93177 42.3299 1.94619 42.6038C1.96781 43.0939 1.96781 43.5913 1.94619 44.0814C1.93898 44.3193 2.00385 44.377 2.24172 44.377C3.61847 44.3625 5.00242 44.377 6.37917 44.3625C6.64587 44.3625 6.72516 44.4202 6.71074 44.6941C6.68191 45.1338 6.68912 45.5807 6.71074 46.0276C6.71795 46.2655 6.65308 46.3231 6.41521 46.3231C5.03846 46.3087 3.65451 46.3231 2.27776 46.3087C2.01106 46.3087 1.93898 46.3736 1.94619 46.6403C1.9606 47.6639 1.94619 48.6802 1.9606 49.7037C1.9606 49.9416 1.90294 50.0065 1.66507 49.9993C1.21096 49.9776 0.749643 49.9776 0.295532 49.9993C0.0576652 50.0065 0 49.9344 0 49.7037C0.0072081 48.19 0.00720854 46.6763 0.00720854 45.1626Z" fill="white"/>
<path fill-rule="evenodd" clip-rule="evenodd" d="M15.3071 49.9913C15.4824 49.9918 15.6586 49.9922 15.8363 49.9922C15.8253 49.9646 15.8147 49.9379 15.8043 49.9118C15.7742 49.8358 15.746 49.7646 15.7138 49.6895C15.5807 49.4488 15.448 49.208 15.3154 48.9674C14.8443 48.1127 14.3738 47.2591 13.8901 46.4098C13.7676 46.1936 13.7604 46.0854 14.0054 45.9629C14.8488 45.5304 15.3966 44.8745 15.584 43.9086C15.8075 42.7409 15.3606 41.5587 14.3803 40.8956C14.0054 40.6433 13.6162 40.4127 13.1693 40.4127C12.3404 40.4172 11.5114 40.3935 10.6825 40.3699C10.1851 40.3557 9.68778 40.3415 9.19043 40.3334C9.09205 40.3314 8.98455 40.3208 8.87612 40.3102C8.58732 40.2818 8.29199 40.2528 8.14525 40.3838C7.98107 40.5326 8.0141 40.8239 8.04677 41.1119C8.06 41.2286 8.07317 41.3447 8.07317 41.4506C8.07317 42.1333 8.07362 42.8165 8.07407 43.5C8.07542 45.5515 8.07678 47.6061 8.06597 49.6607C8.06597 49.9346 8.13084 50.0066 8.39754 49.9922C8.84444 49.9706 9.29134 49.9706 9.73103 49.9922C9.97611 50.0066 10.0266 49.9274 10.0266 49.6967C10.0194 49.1813 10.0194 48.6641 10.0194 48.1469C10.0194 47.6298 10.0194 47.1126 10.0122 46.5972C10.0049 46.3593 10.077 46.2945 10.3077 46.3089C10.6681 46.3305 11.0285 46.3305 11.3889 46.3089C11.6196 46.2945 11.7277 46.3882 11.8214 46.5828C12.0318 47.0094 12.2434 47.4338 12.4548 47.8576C12.7719 48.4936 13.0885 49.1286 13.4 49.7688C13.4792 49.9418 13.5657 50.0066 13.7604 49.9994C14.2729 49.9886 14.7855 49.99 15.3071 49.9913ZM11.8451 42.2527C11.7406 42.2508 11.6364 42.2488 11.5329 42.2488C11.4135 42.2488 11.2936 42.25 11.1736 42.2512C10.8732 42.2541 10.5723 42.2571 10.2787 42.2416C10.0769 42.2344 10.012 42.2849 10.0192 42.4939C10.0336 43.0057 10.0336 43.5247 10.0192 44.0364C10.012 44.2671 10.0624 44.3464 10.3075 44.3392C11.0572 44.3248 11.814 44.3176 12.5709 44.3392C13.3061 44.3608 13.6737 43.7625 13.6809 43.294C13.6881 42.8111 13.2773 42.184 12.5781 42.2416C12.3356 42.2618 12.0896 42.2573 11.8451 42.2527Z" fill="white"/>
<path fill-rule="evenodd" clip-rule="evenodd" d="M62.8761 40.3243C60.3821 40.2883 58.0827 42.3066 58.1404 45.1249C58.0539 47.8856 60.2524 49.8246 62.4941 49.9688C65.4783 50.1634 67.4605 47.7775 67.5902 45.5502C67.7704 42.4723 65.5936 40.3676 62.8761 40.3243ZM62.8402 48.0733C64.4404 48.1093 65.6441 46.7326 65.6297 45.1324C65.673 43.6115 64.3106 42.2491 62.8762 42.2491C61.2977 42.2491 60.0795 43.6475 60.0867 45.0963C60.0939 46.92 61.3625 48.0445 62.8402 48.0733Z" fill="white"/>
</svg>
