<svg width="937" height="200" viewBox="0 0 937 200" fill="none" xmlns="http://www.w3.org/2000/svg">
<path d="M899.613 95.3413C892.023 103.357 882.835 107.253 871.524 107.253C870.437 107.253 869.351 107.193 868.266 107.091C864.372 106.727 860.506 105.72 856.734 104.064C851.887 101.938 847.544 98.8989 843.828 95.0341C840.345 91.4045 837.627 87.0223 835.751 82.009C833.852 76.9375 832.889 71.4616 832.889 65.7343C832.889 60.4912 833.947 55.2643 836.032 50.1985C838.121 45.1231 841.069 40.6102 844.795 36.7834C848.336 33.1441 852.443 30.3288 857.002 28.4167C860.453 26.9692 864.087 26.0629 867.844 25.7055C869.059 25.5901 870.286 25.5302 871.524 25.5302C877.211 25.5302 882.439 26.5843 887.06 28.6629C891.704 30.7523 896.163 34.0651 900.313 38.5088C903.79 42.3419 906.469 46.5785 908.274 51.1017C910.071 55.6081 910.981 60.4206 910.981 65.4055C910.981 77.4697 907.263 87.2617 899.613 95.3413ZM937 65.5698C937 56.5223 935.347 47.9477 932.085 40.0843C928.819 32.2117 923.895 25.01 917.449 18.678C911.179 12.5244 904.144 7.82223 896.537 4.70373C888.925 1.58268 880.565 0.000455511 871.689 0.000455511C863.027 0.000455511 854.802 1.5841 847.241 4.7077C839.692 7.82677 832.743 12.4719 826.585 18.5149C820.09 24.8951 815.087 32.1711 811.714 40.1399C808.337 48.1193 806.625 56.6752 806.625 65.5698C806.625 74.2315 808.035 82.4875 810.817 90.109C813.615 97.7779 817.785 104.713 823.186 110.695C829.567 117.889 836.897 123.4 844.973 127.074C853.06 130.753 861.993 132.619 871.524 132.619C880.987 132.619 889.91 130.786 898.044 127.17C906.159 123.563 913.591 118.153 920.138 111.084C925.738 105.015 930 98.0721 932.804 90.4474C935.588 82.877 937 74.5069 937 65.5698Z" fill="white"/>
<path d="M575.206 86.6764H609.215C607.532 89.7666 605.431 92.6511 602.884 95.341C595.294 103.357 586.105 107.253 574.795 107.253C569.802 107.253 564.827 106.18 560.005 104.064C555.158 101.938 550.815 98.8986 547.099 95.0338C543.616 91.4041 540.898 87.0222 539.022 82.0086C537.123 76.9371 536.16 71.4612 536.16 65.7339C536.16 60.4911 537.218 55.2639 539.303 50.1981C541.392 45.1229 544.34 40.61 548.066 36.7829C551.607 33.1436 555.714 30.3286 560.273 28.4165C564.84 26.5007 569.726 25.5297 574.795 25.5297C580.482 25.5297 585.71 26.5838 590.331 28.6627C594.975 30.7518 599.434 34.0646 603.584 38.5084C604.29 39.2876 604.955 40.0872 605.595 40.8984H635.682C635.574 40.6267 635.468 40.3538 635.356 40.0838C632.09 32.2112 627.165 25.0095 620.72 18.6775C614.45 12.5239 607.414 7.82198 599.808 4.70319C592.196 1.58242 583.836 -9.48908e-05 574.96 -9.48908e-05C566.298 -9.48908e-05 558.072 1.58384 550.512 4.70716C542.963 7.82624 536.014 12.4714 529.856 18.5146C523.361 24.8949 518.358 32.171 514.985 40.1394C511.608 48.1189 509.896 56.6748 509.896 65.5696C509.896 74.2311 511.306 82.4871 514.088 90.1087C516.886 97.7779 521.056 104.713 526.457 110.695C532.838 117.889 540.168 123.4 548.244 127.073C556.331 130.753 565.264 132.619 574.795 132.619C584.258 132.619 593.181 130.786 601.315 127.17C609.43 123.563 616.862 118.153 623.408 111.084C629.009 105.015 633.271 98.072 636.074 90.4471C636.529 89.212 636.943 87.9532 637.324 86.6764C639.278 80.128 640.271 73.0485 640.271 65.5696C640.271 64.2489 640.231 62.9396 640.161 61.6396H575.206V86.6764Z" fill="white"/>
<path d="M26.3071 80.9862H92.103V55.8363H26.3071V25.0441H92.103V0.0116295H0V132.632H26.3071V80.9862Z" fill="white"/>
<path d="M138.225 25.0438H174.649C183.15 25.0438 190.042 31.9369 190.042 40.4397C190.042 48.9428 183.15 55.8359 174.649 55.8359H138.225V25.0438ZM111.918 132.632H138.225V80.9859H161.846L187.994 132.632H218.75L189.322 78.7062C191.439 77.9633 193.478 77.0542 195.418 75.9859C203.542 71.5124 209.958 64.3291 213.463 55.6541C215.355 50.9715 216.406 45.8589 216.406 40.4984C216.406 34.8971 215.268 29.5618 213.212 24.7102C209.508 15.9696 202.815 8.80991 194.423 4.48843C188.931 1.66067 182.713 0.0449756 176.118 0.0140572L111.918 0.0112178V132.632Z" fill="white"/>
<path d="M316.753 0.0114746H288.796L237.856 132.632H265.987L302.775 36.8574L339.563 132.632H367.694L316.753 0.0114746Z" fill="white"/>
<path d="M465.708 81.0291L413.152 0.0110629H387.159V132.632H413.689V49.462L467.245 132.632H491.968V0.0110629H465.708V81.0291Z" fill="white"/>
<path d="M674.76 110.695C681.141 117.889 688.471 123.4 696.547 127.073C704.634 130.753 713.567 132.619 723.098 132.619C732.561 132.619 741.484 130.786 749.618 127.17C757.733 123.563 765.165 118.153 771.711 111.084C777.312 105.015 781.574 98.0721 784.377 90.4474C784.832 89.2121 785.246 87.9535 785.627 86.6765C787.581 80.1281 788.573 73.0486 788.573 65.5698C788.573 64.2491 788.534 62.9397 788.464 61.64H723.509V86.6765H757.518C755.835 89.7667 753.734 92.6514 751.187 95.3413C743.597 103.357 734.408 107.253 723.098 107.253C718.105 107.253 713.13 106.18 708.308 104.064C703.461 101.938 699.118 98.8989 695.402 95.0338C691.919 91.4042 689.201 87.0223 687.325 82.009C685.426 76.9372 684.463 71.4616 684.463 65.7343C684.463 60.4912 685.521 55.264 687.606 50.1982C689.695 45.1231 692.643 40.6101 696.369 36.7833C699.91 33.1441 704.017 30.3288 708.576 28.4167C713.143 26.5011 718.029 25.5299 723.098 25.5299C728.786 25.5299 734.013 26.5843 738.634 28.6629C743.278 30.752 747.737 34.0648 751.887 38.5088C752.593 39.2877 753.258 40.0876 753.898 40.8986H783.985C783.877 40.6269 783.771 40.3543 783.659 40.084C780.393 32.2114 775.468 25.0097 769.023 18.678C762.753 12.5241 755.717 7.8222 748.111 4.70342C740.499 1.58265 732.139 0.000141981 723.263 0.000141981C714.601 0.000141981 706.375 1.58407 698.815 4.70768C691.266 7.82675 684.317 12.4716 678.159 18.5149C671.664 24.8951 666.661 32.1711 663.288 40.1396C659.911 48.1193 658.199 56.6749 658.199 65.5698C658.199 74.2314 659.609 82.4872 662.391 90.1087C665.189 97.7779 669.359 104.713 674.76 110.695Z" fill="white"/>
<path d="M115.745 189.021H121.773C126.918 189.021 126.888 181.469 121.773 181.469H115.745V189.021ZM121.773 192.705H115.745V198.977H111.727V177.662C115.075 177.662 118.424 177.632 121.773 177.632C132.185 177.632 132.216 192.705 121.773 192.705Z" fill="white"/>
<path d="M138.975 188.48C139.065 191.842 140.953 195.438 145.977 195.438C150.999 195.438 152.887 191.813 152.947 188.45C153.01 185 150.999 181.141 145.977 181.141C140.953 181.141 138.883 185.029 138.975 188.48ZM156.906 188.391C156.844 193.685 153.466 198.977 145.977 198.977C138.487 198.977 135.017 193.802 135.017 188.421C135.017 183.041 138.609 177.632 145.977 177.632C153.314 177.632 156.967 183.041 156.906 188.391Z" fill="white"/>
<path d="M167.56 181.408V188.229H173.678C176.236 188.229 177.332 186.523 177.332 184.818C177.332 183.112 176.206 181.408 173.678 181.408H167.56ZM182.416 198.977H177.638L171.426 191.852H167.56V198.977H163.542V177.632C166.921 177.632 170.299 177.662 173.678 177.662C178.702 177.693 181.35 181.042 181.35 184.727C181.35 187.651 180.012 190.604 175.962 191.425L182.416 198.702V198.977Z" fill="white"/>
<path d="M194.167 181.316H187.409V177.662H204.945V181.316H198.186V198.977H194.167V181.316Z" fill="white"/>
<path d="M230.364 177.662V189.446C230.364 195.75 226.499 198.977 221.14 198.977C216.026 198.977 211.672 195.871 211.672 189.446V177.662H215.661V189.446C215.661 193.283 217.853 195.323 221.171 195.323C224.49 195.323 226.377 193.101 226.377 189.446V177.662H230.364Z" fill="white"/>
<path d="M283.114 177.662V189.446C283.114 195.75 279.248 198.977 273.89 198.977C268.775 198.977 264.422 195.871 264.422 189.446V177.662H268.41V189.446C268.41 193.283 270.602 195.323 273.921 195.323C277.239 195.323 279.127 193.101 279.127 189.446V177.662H283.114Z" fill="white"/>
<path d="M253.632 183.193C252.202 181.889 250.071 181.166 248.214 181.166C243.647 181.166 240.877 184.468 240.877 188.638C240.877 191.968 242.916 195.414 248.214 195.414C249.888 195.414 251.349 195.067 253.024 193.793V190.202H247.575V186.784H256.708V195.328C254.606 197.616 251.958 198.977 248.214 198.977C240.207 198.977 236.949 193.967 236.949 188.638C236.949 182.932 240.693 177.662 248.214 177.662C251.076 177.662 253.938 178.705 256.129 180.761L253.632 183.193Z" fill="white"/>
<path d="M306.78 198.977H290.828V177.662H306.78V181.56H294.817V186.463H306.355V190.208H294.817V195.019H306.78V198.977Z" fill="white"/>
<path d="M327.584 183.205C326.852 182.057 324.843 180.965 322.529 180.965C319.545 180.965 318.114 182.142 318.114 183.636C318.114 185.39 320.308 185.878 322.864 186.165C327.309 186.681 331.449 187.774 331.449 192.57C331.449 197.052 327.248 198.977 322.499 198.977C318.146 198.977 314.796 197.712 313.214 194.035L316.562 192.398C317.506 194.61 319.972 195.587 322.56 195.587C325.086 195.587 327.46 194.754 327.46 192.57C327.46 190.674 325.361 189.899 322.529 189.612C318.175 189.124 314.157 188.031 314.157 183.522C314.157 179.384 318.481 177.69 322.407 177.662C325.726 177.662 329.166 178.552 330.779 181.654L327.584 183.205Z" fill="white"/>
<path d="M353.846 198.977H337.894V177.662H353.846V181.56H341.882V186.463H353.42V190.208H341.882V195.019H353.846V198.977Z" fill="white"/>
<path d="M373.516 198.977V177.693H388.829V181.56H377.534V187.376H388.221V191.091H377.534V198.977H373.516Z" fill="white"/>
<path d="M399.27 177.662V195.262H410.23V198.977H395.252V177.662H399.27Z" fill="white"/>
<path d="M429.003 177.662H424.62L415.061 198.977H419.414L426.812 182.138L434.178 198.977H438.563L429.003 177.662Z" fill="white"/>
<path d="M489.078 198.977H473.126V177.662H489.078V181.56H477.115V186.463H488.653V190.208H477.115V195.019H489.078V198.977Z" fill="white"/>
<path d="M524.585 183.171C523.155 181.866 521.024 181.141 519.167 181.141C514.6 181.141 511.831 184.448 511.831 188.623C511.831 191.958 513.869 195.409 519.167 195.409C520.841 195.409 522.302 195.061 523.977 193.786V190.19H518.528V186.767H527.661V195.323C525.56 197.614 522.911 198.977 519.167 198.977C511.16 198.977 507.902 193.96 507.902 188.623C507.902 182.91 511.646 177.632 519.167 177.632C522.029 177.632 524.891 178.676 527.083 180.736L524.585 183.171Z" fill="white"/>
<path d="M538.347 181.408V188.229H544.465C547.023 188.229 548.119 186.523 548.119 184.818C548.119 183.112 546.993 181.408 544.465 181.408H538.347ZM553.203 198.977H548.424L542.213 191.852H538.347V198.977H534.329V177.632C537.708 177.632 541.086 177.662 544.465 177.662C549.489 177.693 552.137 181.042 552.137 184.727C552.137 187.651 550.798 190.604 546.749 191.425L553.203 198.702V198.977Z" fill="white"/>
<path d="M558.531 177.662H562.518V198.977H558.531V177.662Z" fill="white"/>
<path d="M573.966 177.662V195.262H584.925V198.977H569.947V177.662H573.966Z" fill="white"/>
<path d="M595.428 177.662V195.262H606.387V198.977H591.41V177.662H595.428Z" fill="white"/>
<path d="M628.763 198.977H612.811V177.662H628.763V181.56H616.799V186.463H628.337V190.208H616.799V195.019H628.763V198.977Z" fill="white"/>
<path d="M639.236 195.11H643.619C648.46 195.11 650.378 191.577 650.287 188.107C650.195 184.788 648.247 181.469 643.619 181.469H639.236V195.11ZM654.275 188.137C654.367 193.526 651.078 198.977 643.619 198.977H635.247V177.662H643.619C650.926 177.662 654.184 182.869 654.275 188.137Z" fill="white"/>
<path d="M692.358 195.939C690.167 198.013 687.335 198.977 684.261 198.977C676.344 198.977 672.996 193.751 672.965 188.436C672.935 183.093 676.557 177.662 684.261 177.662C687.152 177.662 689.892 178.713 692.084 180.787L689.405 183.268C688.005 181.954 686.117 181.341 684.261 181.341C679.115 181.341 676.893 185.02 676.922 188.436C676.953 191.824 678.994 195.356 684.261 195.356C686.117 195.356 688.218 194.627 689.618 193.283L692.358 195.939Z" fill="white"/>
<path d="M724.233 177.662H728.22V198.977H724.233V177.662Z" fill="white"/>
<path d="M754.433 195.939C752.241 198.013 749.409 198.977 746.334 198.977C738.419 198.977 735.07 193.751 735.039 188.436C735.01 183.093 738.632 177.662 746.334 177.662C749.227 177.662 751.967 178.713 754.159 180.787L751.479 183.268C750.079 181.954 748.192 181.341 746.334 181.341C741.19 181.341 738.967 185.02 738.997 188.436C739.028 191.824 741.069 195.356 746.334 195.356C748.192 195.356 750.293 194.627 751.693 193.283L754.433 195.939Z" fill="white"/>
<path d="M777.479 177.784L768.01 187.984L778.269 198.734V198.977H773.308L764.387 189.539V198.977H760.369V177.662H764.387V186.676L772.485 177.662H777.479V177.784Z" fill="white"/>
<path d="M799.852 198.977H783.9V177.662H799.852V181.56H787.889V186.463H799.427V190.208H787.889V195.019H799.852V198.977Z" fill="white"/>
<path d="M821.254 177.632H825.274V198.977H822.777V199.008L811.573 184.604V198.977H807.555V177.662H810.812L821.254 190.878V177.632Z" fill="white"/>
<path d="M461.447 177.693L454.781 186.859L448.112 177.693H443.486V198.977H447.504V183.508L454.684 193.33L462.025 183.539V198.977H466.044V177.693H461.447Z" fill="white"/>
<path d="M712.785 198.977V190.39H702.314V198.977H698.295V177.693H702.314V186.676H712.785V177.693H716.774V198.977H712.785Z" fill="white"/>
</svg>
