<svg width="110" height="26" viewBox="0 0 110 26" fill="none" xmlns="http://www.w3.org/2000/svg">
<path d="M6.79631 10.7555C6.82766 10.5151 7.01053 10.4159 7.10457 10.2539C7.56958 9.45973 7.56958 8.66034 7.21429 7.82961C6.99485 7.31758 6.66047 6.92573 6.138 6.72196C5.85064 6.61224 5.46923 6.66972 5.41176 6.97275C5.38563 7.10337 5.39086 7.16607 5.51103 7.21309C5.6312 7.26011 5.74614 7.30714 5.86109 7.36461C6.24249 7.54747 6.38356 7.85573 6.19547 8.23192C5.95513 8.70737 5.89243 9.20894 5.90288 9.72619C5.91856 10.3688 5.86631 11.0063 5.83496 11.6489C5.80361 12.2393 5.78271 12.8297 5.80884 13.4149C5.85064 14.2508 5.86631 15.092 6.0544 15.9175C6.10143 16.1317 6.15367 16.0638 6.25817 15.9698C6.62912 15.6354 6.76496 15.1913 6.84856 14.721C6.95828 14.0889 6.92171 13.441 7.10457 12.8192C7.30311 12.1557 7.6166 11.5653 8.0607 11.0272C8.66677 10.2905 9.42958 9.80456 10.3491 9.55377C10.9866 9.37613 11.6344 9.36568 12.2875 9.44406C13.0765 9.5381 13.7922 9.80979 14.4506 10.233C15.182 10.698 15.7463 11.3302 16.1747 12.0773C16.8122 13.1902 17.0682 14.3971 16.9689 15.6615C16.8696 16.9207 16.4307 18.044 15.5321 18.974C14.5864 19.951 13.4213 20.5571 12.1778 21.043C11.8904 21.1527 11.5926 21.2468 11.2582 21.3617C11.5717 20.7765 11.8748 20.2436 12.1412 19.6898C12.3868 19.1882 12.4965 18.6553 12.2823 18.1067C12.0524 17.5267 11.4359 17.0095 10.7567 17.0826C10.182 17.1401 9.58633 17.579 9.40869 18.2478C9.28329 18.718 9.48183 19.1151 9.6438 19.5278C9.97296 20.3742 10.3857 21.1893 10.6731 22.0566C10.7619 22.323 10.7462 22.5791 10.6365 22.8351C10.4954 23.1642 10.1036 23.2896 9.68037 23.1747C8.84964 22.9552 8.02413 22.7254 7.18817 22.532C6.4985 22.3701 6.31041 22.8925 6.40968 23.3993C6.46716 23.6972 6.58732 23.9845 6.59777 24.298C6.61867 24.8414 6.19547 25.1862 5.75136 25.228C4.91541 25.3012 4.1317 25.1235 3.44203 24.6219C2.99793 24.298 2.94045 23.833 3.18602 23.3001C3.26439 23.1277 3.38456 22.9761 3.45248 22.8037C3.73984 22.067 3.49427 21.8372 3.00837 21.4348C2.72624 21.1997 2.35006 21.1214 2.00523 21.0064C1.34168 20.787 0.949827 20.3324 0.803534 19.6637C0.631117 18.8538 0.793084 18.0858 1.14314 17.3439C1.50887 16.5706 2.02612 15.8862 2.38663 15.1129C2.78894 14.2456 3.0763 13.3417 3.21214 12.3908C3.30096 11.7691 3.31664 11.1525 3.30096 10.5308C3.29574 10.2225 3.25916 9.91428 3.19124 9.61647C3.11287 9.28209 2.87253 9.06787 2.53815 9.0104C1.9582 8.91636 1.37303 8.89023 0.793084 9.02608C0.625892 9.06787 0.458699 9.06787 0.286283 9.00518C-0.0219773 8.89023 -0.095125 8.57152 0.134764 8.33119C0.301956 8.15877 0.53707 8.11175 0.730386 7.98635C1.01775 7.80871 1.30511 7.62062 1.56635 7.38551C1.07522 6.94663 0.678138 6.41893 0.406451 5.80763C-0.0428769 4.78881 -0.0690006 3.75953 0.32808 2.71459C0.53707 2.16076 0.85578 1.66964 1.26331 1.25688C1.90073 0.609014 2.67399 0.191034 3.58832 0.060415C4.70119 -0.101552 5.76181 0.0604148 6.75452 0.567215C8.40031 1.40317 9.45571 2.74071 9.81622 4.54847C10.1558 6.25696 9.77964 7.84006 8.68767 9.22984C8.17042 9.85681 7.54868 10.3584 6.79631 10.7555Z" fill="#F27524"/>
<path d="M62.6127 11.7955C62.6127 12.7961 62.6127 13.6984 62.6127 14.5917C62.6127 15.9496 62.6038 17.2986 62.6217 18.6565C62.6217 18.9245 62.5591 19.0139 62.2822 19.0049C61.6569 18.9781 61.0315 18.9871 60.4061 19.0049C60.1739 19.0139 60.1113 18.9424 60.1113 18.7101C60.1203 14.9133 60.1203 11.1165 60.1113 7.32867C60.1113 7.0964 60.1739 7.02493 60.4061 7.03386C61.0136 7.05173 61.6301 7.0428 62.2375 7.03386C62.4341 7.03386 62.5323 7.08747 62.6485 7.26614C64.0511 9.45488 65.4804 11.6347 66.9009 13.8234C66.9724 13.9306 67.0438 14.0289 67.1689 14.2165C67.1689 14.02 67.1689 13.9038 67.1689 13.7788C67.1689 11.6615 67.1778 9.55315 67.16 7.43588C67.16 7.10533 67.2314 6.99813 67.5709 7.02493C68.1069 7.06067 68.6429 7.06067 69.179 7.02493C69.5184 7.00706 69.5899 7.10533 69.5899 7.43588C69.5721 10.9289 69.581 14.4309 69.581 17.924C69.581 18.2634 69.6971 18.7191 69.5274 18.9156C69.3219 19.1568 68.8574 18.9424 68.5089 18.996C67.6156 19.1389 67.0885 18.8263 66.6061 18.0044C65.3732 15.9139 63.9885 13.9217 62.6127 11.7955Z" fill="white"/>
<path d="M79.8108 14.8856C78.9621 14.8856 78.1134 14.8767 77.2647 14.8946C76.9967 14.9035 76.8717 14.8588 76.8895 14.5462C76.9163 14.0012 76.9074 13.4473 76.8895 12.8934C76.8806 12.6612 76.9253 12.5629 77.1933 12.5629C78.9621 12.5718 80.731 12.5718 82.4998 12.5629C82.6964 12.5629 82.7768 12.5897 82.7857 12.822C82.8751 14.5015 82.3569 15.9845 81.2134 17.1905C80.3379 18.1107 79.2569 18.7271 77.9437 18.9147C76.3535 19.138 74.8795 18.9236 73.5662 17.9499C72.253 16.9761 71.4132 15.7075 71.1631 14.0548C70.9576 12.7058 71.0827 11.4105 71.7259 10.2044C72.6282 8.51595 74.0576 7.41712 75.9515 7.13124C78.0688 6.80963 79.9359 7.41711 81.3921 9.06984C81.8209 9.56119 82.1425 10.1151 82.4016 10.7672C81.5171 10.7672 80.6417 10.7672 79.7751 10.7672C79.4713 10.7672 79.3641 10.5082 79.1944 10.3384C78.6048 9.76666 77.899 9.45399 77.095 9.43612C75.5763 9.39145 74.5042 10.1329 73.8521 11.4909C73.1553 12.9292 73.5394 14.6444 74.5846 15.645C76.1838 17.1726 78.5154 16.8957 79.7036 15.1447C79.7572 15.0911 79.8644 15.0554 79.8108 14.8856Z" fill="white"/>
<path d="M95.6861 10.7768C94.7481 10.7768 93.8905 10.7678 93.0239 10.7768C92.7023 10.7768 92.5862 10.5088 92.4075 10.3301C91.8089 9.74941 91.0853 9.43673 90.2634 9.43673C88.6643 9.43673 87.5119 10.339 87.0116 11.7684C86.5292 13.1353 86.7346 14.4842 87.7441 15.5384C88.9234 16.7802 90.7101 17.0839 92.2467 15.9404C92.6308 15.6545 92.872 15.2793 93.1758 14.8773C92.2646 14.8773 91.4248 14.8684 90.585 14.8862C90.317 14.8952 90.192 14.8505 90.2098 14.5378C90.2366 14.0018 90.2277 13.4658 90.2098 12.9298C90.2009 12.6618 90.2456 12.5456 90.5582 12.5546C92.3003 12.5724 94.0424 12.5635 95.7755 12.5546C96.0078 12.5546 96.115 12.5903 96.106 12.8583C96.0703 14.6808 95.5253 16.2888 94.1228 17.5127C92.7112 18.7545 91.0674 19.1655 89.1914 18.9153C86.7614 18.5937 84.796 16.4943 84.403 14.1358C84.0188 11.7952 84.7514 9.81194 86.5738 8.29323C87.4672 7.55173 88.5214 7.15865 89.7095 7.09612C90.862 7.03358 91.9429 7.17652 92.9524 7.73934C94.2031 8.42723 95.0965 9.41886 95.6861 10.7768Z" fill="white"/>
<path d="M58.4954 18.9954C57.6825 18.9954 56.9142 18.9865 56.1369 19.0044C55.9047 19.0133 55.8153 18.915 55.7349 18.7185C54.7969 16.2707 53.8499 13.8318 52.9119 11.384C52.8226 11.1517 52.8047 10.8837 52.5992 10.6425C52.0275 12.1165 51.4736 13.5548 50.9197 14.9842C50.4462 16.2171 49.9727 17.441 49.5082 18.6738C49.4189 18.9061 49.3117 19.0133 49.0436 19.0044C48.4094 18.9776 47.7661 18.9954 47.1229 18.9954C46.8728 18.9954 46.7388 19.0133 46.8817 18.6649C47.4356 17.298 47.9269 15.9133 48.454 14.5375C49.3117 12.3041 50.2229 10.0975 51.009 7.83732C51.2681 7.10477 51.6255 6.94396 52.3044 7.01543C52.76 7.06903 53.2246 7.02436 53.6891 7.02436C53.8142 7.02436 53.8946 7.00649 53.9661 7.1941C55.1542 10.3209 56.3603 13.4476 57.5663 16.5744C57.879 17.3784 58.1828 18.1735 58.4954 18.9954Z" fill="white"/>
<path d="M25.5656 13.0477C25.5656 11.1716 25.5745 9.29557 25.5566 7.4195C25.5566 7.13363 25.6281 7.05322 25.9229 7.05322C28.4511 7.06216 30.9794 7.06216 33.5076 7.05322C33.7935 7.05322 33.8917 7.11576 33.8739 7.4195C33.8471 7.98232 33.8471 8.55408 33.8739 9.1169C33.8828 9.41171 33.8024 9.48317 33.5076 9.48317C31.8013 9.46531 30.086 9.48317 28.3797 9.4653C28.0491 9.4653 27.9509 9.53678 27.9687 9.87625C27.9955 10.4837 27.9955 11.1002 27.9687 11.7076C27.9598 12.0025 28.0402 12.0739 28.335 12.0739C30.0413 12.0561 31.7566 12.0739 33.4629 12.0561C33.7935 12.0561 33.8917 12.1275 33.8739 12.467C33.8381 13.012 33.8471 13.5658 33.8739 14.1197C33.8828 14.4145 33.8024 14.486 33.5076 14.486C31.8013 14.4681 30.086 14.486 28.3797 14.4681C28.0491 14.4681 27.9598 14.5485 27.9687 14.8791C27.9866 16.1477 27.9687 17.4073 27.9866 18.6759C27.9866 18.9707 27.9151 19.0511 27.6203 19.0422C27.0575 19.0154 26.4857 19.0154 25.9229 19.0422C25.6281 19.0511 25.5566 18.9618 25.5566 18.6759C25.5656 16.7998 25.5656 14.9238 25.5656 13.0477Z" fill="white"/>
<path fill-rule="evenodd" clip-rule="evenodd" d="M44.5286 19.0326C44.7458 19.0331 44.9643 19.0337 45.1845 19.0337C45.1708 18.9995 45.1577 18.9664 45.1449 18.9341C45.1075 18.8398 45.0725 18.7516 45.0326 18.6585C44.8677 18.3601 44.7032 18.0617 44.5388 17.7634C43.955 16.7042 43.3719 15.6462 42.7724 14.5937C42.6205 14.3257 42.6116 14.1916 42.9153 14.0398C43.9606 13.5038 44.6395 12.6908 44.8718 11.4937C45.1487 10.0464 44.5949 8.58132 43.3799 7.75943C42.9153 7.44675 42.4329 7.16087 41.879 7.16087C40.8517 7.16646 39.8243 7.13715 38.7969 7.10783C38.1805 7.09024 37.5641 7.07266 36.9477 7.06261C36.8257 7.06017 36.6925 7.04708 36.5581 7.03388C36.2002 6.99872 35.8341 6.96276 35.6523 7.12514C35.4488 7.30956 35.4897 7.6705 35.5302 8.02755C35.5466 8.1721 35.5629 8.31602 35.5629 8.44732C35.5629 9.29347 35.5635 10.1402 35.5641 10.9873C35.5657 13.5299 35.5674 16.0763 35.554 18.6227C35.554 18.9622 35.6344 19.0515 35.965 19.0337C36.5188 19.0069 37.0727 19.0069 37.6177 19.0337C37.9214 19.0515 37.984 18.9533 37.984 18.6674C37.975 18.0286 37.975 17.3877 37.975 16.7467C37.975 16.1057 37.975 15.4647 37.9661 14.8259C37.9572 14.5311 38.0465 14.4507 38.3324 14.4686C38.7791 14.4954 39.2257 14.4954 39.6724 14.4686C39.9583 14.4507 40.0923 14.5669 40.2084 14.8081C40.4692 15.3368 40.7315 15.8627 40.9934 16.388C41.3865 17.1763 41.7789 17.9633 42.1649 18.7567C42.2632 18.9711 42.3704 19.0515 42.6116 19.0426C43.2468 19.0292 43.8821 19.0309 44.5286 19.0326ZM40.2371 9.44177C40.1077 9.43937 39.9786 9.43697 39.8502 9.43697C39.7023 9.43697 39.5537 9.43843 39.4049 9.43988C39.0326 9.44353 38.6596 9.44718 38.2958 9.42803C38.0456 9.4191 37.9652 9.48163 37.9742 9.74071C37.992 10.375 37.992 11.0182 37.9742 11.6525C37.9652 11.9384 38.0278 12.0367 38.3315 12.0277C39.2606 12.0099 40.1987 12.0009 41.1367 12.0277C42.0479 12.0545 42.5035 11.313 42.5125 10.7323C42.5214 10.1338 42.0122 9.35656 41.1456 9.42803C40.8451 9.45307 40.5402 9.44741 40.2371 9.44177Z" fill="white"/>
<path fill-rule="evenodd" clip-rule="evenodd" d="M103.485 7.05186C100.394 7.00719 97.5439 9.50861 97.6154 13.0017C97.5082 16.4232 100.233 18.8264 103.011 19.0051C106.71 19.2463 109.167 16.2892 109.327 13.5287C109.551 9.71408 106.853 7.10546 103.485 7.05186ZM103.44 16.6558C105.423 16.7005 106.915 14.9941 106.897 13.0109C106.95 11.1259 105.262 9.43741 103.484 9.43741C101.528 9.43741 100.018 11.1705 100.027 12.9662C100.036 15.2264 101.608 16.62 103.44 16.6558Z" fill="white"/>
</svg>
