<svg width="739" height="81" viewBox="0 0 739 81" fill="none" xmlns="http://www.w3.org/2000/svg">
<path d="M0.97908 17.5106L0.881292 17.5315L0.902213 17.6293L10.0646 60.4568L10.0855 60.5546L10.1833 60.5337L40.3427 54.0814L40.4405 54.0605L40.4196 53.9627L38.7723 46.2631L38.7514 46.1653L38.6536 46.1862L17.5411 50.703L10.0468 15.6729L10.0259 15.5752L9.92811 15.5961L0.97908 17.5106Z" fill="white" stroke="white" stroke-width="0.2"/>
<path d="M105.556 55.0073L105.556 55.0076C103.456 57.6935 100.612 59.0365 97.0149 59.0365C93.4174 59.0365 90.5537 57.6934 88.4137 55.0069C86.2729 52.3194 85.1955 48.4884 85.1955 43.5C85.1955 38.5116 86.2729 34.6806 88.4137 31.9931C90.5537 29.3066 93.4174 27.9635 97.0149 27.9635C100.612 27.9635 103.456 29.3163 105.556 32.0222L105.556 32.0229C107.678 34.7104 108.745 38.5316 108.745 43.5C108.745 48.4886 107.677 52.3198 105.556 55.0073ZM97.0149 67.1C103.294 67.1 108.109 65.3676 111.442 61.8886C115.885 57.6266 118.1 51.4916 118.1 43.5C118.1 35.3491 115.886 29.2129 111.442 25.1107C108.108 21.6322 103.294 19.9 97.0149 19.9C90.736 19.9 85.9216 21.6321 82.5882 25.1106C78.1239 29.2128 75.9 35.349 75.9 43.5C75.9 51.4917 78.1246 57.6267 82.5875 61.8887C85.9209 65.3676 90.7355 67.1 97.0149 67.1Z" fill="white" stroke="white" stroke-width="0.2"/>
<path d="M189.998 7.77325L189.999 7.77366C192.793 9.5616 194.788 11.6995 195.978 14.1889L196.023 14.2838L195.926 14.3243L187.48 17.848L187.411 17.8771L187.364 17.8178C186.011 16.1149 184.708 14.9585 183.456 14.3388L189.998 7.77325ZM189.998 7.77325C184.958 4.60284 179.019 4.45195 172.197 7.29824C167.093 9.42784 163.579 12.8565 161.666 17.5835C159.463 23.0144 159.846 29.2708 162.797 36.3438C165.526 42.8858 169.347 47.3513 174.266 49.7243L174.266 49.7245C179.179 52.0801 184.558 52.0348 190.393 49.6004C195.11 47.6323 198.404 44.6305 200.262 40.5931C202.137 36.552 202.517 32.164 201.406 27.4334L201.379 27.3186L201.27 27.364L192.906 30.8533L192.836 30.8828L192.846 30.9586C193.147 33.2725 193.085 35.1169 192.666 36.4981L192.666 36.4994C191.931 39.0507 190.103 40.941 187.163 42.1674C184.302 43.3608 181.479 43.2336 178.684 41.7841C175.902 40.3105 173.564 37.3234 171.677 32.8002C169.789 28.2767 169.223 24.4285 169.96 21.2489L169.96 21.2486M189.998 7.77325L169.96 21.2486M169.96 21.2486C170.689 18.0542 172.57 15.8265 175.612 14.5575C178.61 13.3067 181.221 13.2407 183.456 14.3387L169.96 21.2486Z" fill="white" stroke="white" stroke-width="0.2"/>
<path d="M258.448 16.9H258.378L258.354 16.9669L242.906 60.9669L242.859 61.1H243H252.457H252.529L252.552 61.0314L255.525 52.0552H271.327L274.095 61.0295L274.117 61.1H274.191H284H284.141L284.094 60.9671L268.763 16.9671L268.74 16.9H268.669H258.448ZM258.028 44.2731L263.469 27.3904L268.739 44.2731H258.028Z" fill="white" stroke="white" stroke-width="0.2"/>
<path d="M369.6 39.1769L369.641 39.086L369.55 39.0443L337.305 24.2498L337.214 24.2081L337.173 24.299L333.939 31.3475L333.897 31.4384L333.988 31.4801L345.861 36.9275L330.872 69.5948L330.831 69.6857L330.922 69.7274L339.293 73.5685L339.384 73.6102L339.426 73.5193L354.414 40.852L366.233 46.2747L366.324 46.3164L366.366 46.2255L369.6 39.1769Z" fill="white" stroke="white" stroke-width="0.2"/>
<path d="M415 60.1H415.1V60V16V15.9H415H406H405.9V16V60V60.1H406H415Z" fill="white" stroke="white" stroke-width="0.2"/>
<path d="M484.048 33.8526L484.144 33.8257L484.117 33.7294L482.027 26.2614L482 26.1651L481.904 26.192L450.973 34.8496L450.877 34.8766L450.904 34.9729L462.709 77.1485L462.736 77.2448L462.832 77.2178L494.793 68.2719L494.889 68.245L494.862 68.1487L492.74 60.5662L492.713 60.4699L492.617 60.4969L469.365 67.0052L466.383 56.3534L486.774 50.646L486.87 50.6191L486.843 50.5228L484.793 43.1978L484.766 43.1015L484.67 43.1285L464.279 48.8359L461.826 40.0726L484.048 33.8526Z" fill="white" stroke="white" stroke-width="0.2"/>
<path d="M539.853 42.4023L539.841 42.3161H539.754H531H530.9V42.4161C530.9 46.9795 532.549 50.5791 535.851 53.203L535.851 53.2033C539.15 55.805 543.671 57.1 549.402 57.1C555.015 57.1 559.369 55.7851 562.45 53.1415L562.45 53.1415C565.548 50.4802 567.1 47.1395 567.1 43.126C567.1 39.216 565.78 36.2164 563.131 34.1431C561.428 32.8092 558.911 31.7497 555.589 30.9593L548.026 29.1548L548.025 29.1548C545.105 28.464 543.214 27.8652 542.335 27.3608L542.334 27.3601C541.652 26.9826 541.145 26.511 540.808 25.9468C540.471 25.3827 540.301 24.7206 540.301 23.9569C540.301 22.2942 540.989 21.004 542.371 20.0759C543.759 19.1439 545.623 18.673 547.973 18.673C550.086 18.673 551.846 19.036 553.257 19.7565C555.366 20.843 556.5 22.6731 556.657 25.2646L556.663 25.3585H556.757H565.571H565.674L565.671 25.2551C565.511 20.595 563.782 17.0345 560.479 14.588C557.204 12.128 553.242 10.9 548.598 10.9C543.046 10.9 538.819 12.1949 535.935 14.8011C533.056 17.4038 531.615 20.6751 531.615 24.6077C531.615 28.9128 533.104 32.0929 536.095 34.1269C537.859 35.3416 541.032 36.459 545.598 37.4847L545.599 37.4847L550.244 38.5201L550.244 38.5202C552.96 39.1111 554.942 39.7886 556.198 40.5489C557.441 41.3204 558.056 42.4031 558.056 43.8064C558.056 45.0209 557.741 46.0365 557.116 46.8595C556.491 47.6831 555.549 48.3217 554.282 48.7706C552.947 49.2388 551.202 49.4749 549.045 49.4749C545.445 49.4749 542.93 48.5807 541.469 46.8191C540.672 45.8533 540.13 44.3853 539.853 42.4023Z" fill="white" stroke="white" stroke-width="0.2"/>
<path d="M675.854 58.8084C699.857 48.527 714.199 35.9951 723.426 22.369C726.306 18.061 727.943 13.9852 728.237 10.2497C728.331 9.44879 729.24 7.78261 726.168 8.94895C724.245 9.6713 722.081 10.1842 721.781 12.2141C720.303 20.7113 713.808 30.0316 701.984 39.8066C687.658 51.6986 670.36 59.9051 650.911 64.2539C642.901 66.0822 635.072 67.6412 627.939 68.0703C625.759 68.2103 624.735 68.5991 623.303 70.4332C621.668 72.4836 622.504 72.6841 624.887 72.3278C637.693 70.5326 650.656 68.4152 664.825 63.6143C668.342 62.4412 672.102 60.4648 675.854 58.8084Z" fill="black"/>
</svg>
