<svg width="739" height="81" viewBox="0 0 739 81" fill="none" xmlns="http://www.w3.org/2000/svg">
<path d="M0.97908 17.5106L0.881292 17.5315L0.902213 17.6293L10.0646 60.4568L10.0855 60.5546L10.1833 60.5337L40.3427 54.0814L40.4405 54.0605L40.4196 53.9627L38.7723 46.2631L38.7514 46.1653L38.6536 46.1862L17.5411 50.703L10.0468 15.6729L10.0259 15.5752L9.92811 15.5961L0.97908 17.5106Z" fill="white" stroke="white" stroke-width="0.2"/>
<path d="M481.556 61.0073L481.556 61.0076C479.456 63.6935 476.612 65.0365 473.015 65.0365C469.417 65.0365 466.554 63.6934 464.414 61.0069C462.273 58.3194 461.196 54.4884 461.196 49.5C461.196 44.5116 462.273 40.6806 464.414 37.9931C466.554 35.3066 469.417 33.9635 473.015 33.9635C476.612 33.9635 479.456 35.3163 481.556 38.0222L481.556 38.0229C483.678 40.7104 484.745 44.5316 484.745 49.5C484.745 54.4886 483.677 58.3198 481.556 61.0073ZM473.015 73.1C479.294 73.1 484.109 71.3676 487.442 67.8887C491.885 63.6266 494.1 57.4916 494.1 49.5C494.1 41.3491 491.886 35.2129 487.442 31.1106C484.108 27.6322 479.294 25.9 473.015 25.9C466.736 25.9 461.922 27.6321 458.588 31.1106C454.124 35.2128 451.9 41.349 451.9 49.5C451.9 57.4917 454.125 63.6267 458.588 67.8888C461.921 71.3676 466.736 73.1 473.015 73.1Z" fill="white" stroke="white" stroke-width="0.2"/>
<path d="M106.556 55.0073L106.556 55.0076C104.456 57.6935 101.612 59.0365 98.0149 59.0365C94.4174 59.0365 91.5537 57.6934 89.4137 55.0069C87.2729 52.3194 86.1955 48.4884 86.1955 43.5C86.1955 38.5116 87.2729 34.6806 89.4137 31.9931C91.5537 29.3066 94.4174 27.9635 98.0149 27.9635C101.612 27.9635 104.456 29.3163 106.556 32.0222L106.556 32.0229C108.678 34.7104 109.745 38.5316 109.745 43.5C109.745 48.4886 108.677 52.3198 106.556 55.0073ZM98.0149 67.1C104.294 67.1 109.109 65.3676 112.442 61.8887C116.885 57.6266 119.1 51.4916 119.1 43.5C119.1 35.3491 116.886 29.2129 112.442 25.1106C109.108 21.6322 104.294 19.9 98.0149 19.9C91.7359 19.9 86.9216 21.6321 83.5882 25.1106C79.1239 29.2128 76.9 35.349 76.9 43.5C76.9 51.4917 79.1246 57.6267 83.5875 61.8888C86.9209 65.3676 91.7355 67.1 98.0149 67.1Z" fill="white" stroke="white" stroke-width="0.2"/>
<path d="M189.999 7.77366L189.998 7.77325C184.958 4.60284 179.019 4.45195 172.197 7.29824C167.093 9.42784 163.579 12.8565 161.666 17.5835C159.463 23.0144 159.846 29.2708 162.797 36.3438C165.526 42.8858 169.347 47.3513 174.266 49.7243L174.266 49.7245C179.179 52.0801 184.558 52.0348 190.393 49.6004C195.11 47.6323 198.404 44.6305 200.262 40.5931C202.137 36.552 202.517 32.164 201.406 27.4334L201.379 27.3186L201.27 27.364L192.906 30.8533L192.836 30.8828L192.846 30.9586C193.147 33.2725 193.085 35.1169 192.666 36.4981L192.666 36.4994C191.931 39.0507 190.103 40.941 187.163 42.1674C184.303 43.3608 181.479 43.2336 178.684 41.7842C175.902 40.3105 173.564 37.3234 171.677 32.8002C169.789 28.2767 169.223 24.4285 169.96 21.2489L169.96 21.2486C170.689 18.0542 172.57 15.8265 175.612 14.5575C178.61 13.3067 181.221 13.2407 183.456 14.3387C184.708 14.9583 186.011 16.1148 187.364 17.8178L187.411 17.8771L187.48 17.848L195.926 14.3243L196.023 14.2838L195.978 14.1889C194.788 11.6995 192.793 9.5616 189.999 7.77366Z" fill="white" stroke="white" stroke-width="0.2"/>
<path d="M258.448 16.9H258.378L258.354 16.9669L242.906 60.9669L242.859 61.1H243H252.457H252.529L252.552 61.0314L255.525 52.0552H271.327L274.095 61.0295L274.117 61.1H274.191H284H284.141L284.094 60.9671L268.763 16.9671L268.74 16.9H268.669H258.448ZM258.028 44.2731L263.469 27.3904L268.739 44.2731H258.028Z" fill="white" stroke="white" stroke-width="0.2"/>
<path d="M369.6 39.1769L369.641 39.086L369.55 39.0443L337.305 24.2498L337.214 24.2081L337.173 24.299L333.939 31.3475L333.897 31.4384L333.988 31.4801L345.861 36.9275L330.872 69.5948L330.831 69.6857L330.922 69.7274L339.293 73.5685L339.384 73.6102L339.426 73.5193L354.414 40.852L366.233 46.2747L366.324 46.3164L366.366 46.2255L369.6 39.1769Z" fill="white" stroke="white" stroke-width="0.2"/>
<path d="M415 60.1H415.1V60V16V15.9H415H406H405.9V16V60V60.1H406H415Z" fill="white" stroke="white" stroke-width="0.2"/>
<path d="M612.853 53.5962L612.841 53.51H612.754H604H603.9V53.61C603.9 58.1735 605.549 61.7731 608.851 64.397L608.851 64.3972C612.15 66.999 616.671 68.294 622.402 68.294C628.015 68.294 632.369 66.9791 635.45 64.3355L635.45 64.3354C638.548 61.6742 640.1 58.3335 640.1 54.32C640.1 50.41 638.78 47.4104 636.131 45.3371C634.428 44.0032 631.911 42.9437 628.589 42.1533L621.026 40.3488L621.025 40.3487C618.105 39.658 616.214 39.0592 615.335 38.5548L615.334 38.5541C614.652 38.1766 614.145 37.705 613.808 37.1408C613.471 36.5767 613.301 35.9146 613.301 35.1509C613.301 33.4882 613.989 32.198 615.371 31.2699C616.759 30.3379 618.623 29.867 620.973 29.867C623.086 29.867 624.846 30.23 626.257 30.9504C628.366 32.037 629.5 33.867 629.657 36.4585L629.663 36.5525H629.757H638.571H638.674L638.671 36.4491C638.511 31.789 636.782 28.2285 633.479 25.782C630.204 23.3219 626.242 22.094 621.598 22.094C616.046 22.094 611.819 23.3889 608.935 25.995C606.056 28.5978 604.615 31.869 604.615 35.8017C604.615 40.1068 606.104 43.2869 609.095 45.3209C610.859 46.5356 614.032 47.653 618.598 48.6787L618.599 48.6787L623.244 49.7141L623.244 49.7142C625.96 50.3051 627.942 50.9826 629.198 51.7429C630.441 52.5143 631.056 53.5971 631.056 55.0004C631.056 56.2149 630.741 57.2305 630.116 58.0534C629.491 58.8771 628.549 59.5157 627.282 59.9646C625.947 60.4328 624.202 60.6689 622.045 60.6689C618.445 60.6689 615.93 59.7746 614.469 58.0131C613.672 57.0472 613.13 55.5792 612.853 53.5962Z" fill="white" stroke="white" stroke-width="0.2"/>
<path d="M534.152 17.9856L543.915 18.7641L559.178 51.283L561.659 20.179L570.334 20.8708L566.781 65.4259L557.471 64.6835L541.798 31.5844L539.274 63.2324L530.599 62.5407L534.152 17.9856Z" fill="white"/>
<path fill-rule="evenodd" clip-rule="evenodd" d="M533.262 16.9412L544.554 17.8417L558.502 47.5581L560.769 19.1346L571.378 19.9807L567.671 66.4703L556.834 65.6062L542.476 35.2844L540.164 64.2769L529.555 63.4308L533.262 16.9412ZM541.798 31.5844L557.471 64.6835L566.781 65.4259L570.334 20.8708L561.659 20.179L559.178 51.283L543.915 18.7641L534.152 17.9856L530.599 62.5407L539.274 63.2324L541.798 31.5844Z" fill="white"/>
<path d="M675.854 58.8084C699.857 48.527 714.199 35.9951 723.426 22.369C726.306 18.061 727.943 13.9852 728.237 10.2497C728.331 9.44879 729.24 7.78261 726.168 8.94895C724.245 9.6713 722.081 10.1842 721.781 12.2141C720.303 20.7113 713.808 30.0316 701.984 39.8066C687.658 51.6986 670.36 59.9051 650.911 64.2539C642.901 66.0822 635.072 67.6412 627.939 68.0703C625.759 68.2103 624.735 68.5991 623.303 70.4332C621.668 72.4836 622.504 72.6841 624.887 72.3278C637.693 70.5326 650.656 68.4152 664.825 63.6143C668.342 62.4412 672.102 60.4648 675.854 58.8084Z" fill="black"/>
</svg>
