<svg width="68" height="10" viewBox="0 0 68 10" fill="none" xmlns="http://www.w3.org/2000/svg">
<path d="M29.8991 3.8687C29.8991 4.67601 29.8991 5.40403 29.8991 6.12484C29.8991 7.22047 29.8919 8.3089 29.9063 9.40453C29.9063 9.62077 29.8559 9.69285 29.6324 9.68564C29.1278 9.66402 28.6233 9.67123 28.1187 9.68564C27.9313 9.69285 27.8808 9.63519 27.8808 9.44778C27.8881 6.38433 27.8881 3.32089 27.8808 0.264655C27.8808 0.0772442 27.9313 0.0195802 28.1187 0.0267883C28.6089 0.0412045 29.1062 0.0339964 29.5964 0.0267883C29.755 0.0267883 29.8342 0.0700396 29.9279 0.214202C31.0596 1.98019 32.2129 3.73896 33.359 5.50494C33.4167 5.59144 33.4743 5.67073 33.5752 5.8221C33.5752 5.66352 33.5752 5.56982 33.5752 5.4689C33.5752 3.76058 33.5825 2.05947 33.568 0.351153C33.568 0.0844531 33.6257 -0.00204229 33.8996 0.019582C34.3321 0.0484144 34.7646 0.0484144 35.1971 0.019582C35.471 0.00516581 35.5286 0.0844531 35.5286 0.351153C35.5142 3.16952 35.5214 5.9951 35.5214 8.81346C35.5214 9.08737 35.6151 9.45498 35.4782 9.61356C35.3124 9.80818 34.9376 9.63519 34.6565 9.67844C33.9356 9.79376 33.5104 9.54148 33.1211 8.87833C32.1264 7.19164 31.0092 5.58423 29.8991 3.8687Z" fill="white"/>
<path d="M43.7748 6.36274C43.0901 6.36274 42.4053 6.35553 41.7205 6.36995C41.5043 6.37716 41.4034 6.34112 41.4178 6.08884C41.4394 5.64914 41.4322 5.20224 41.4178 4.75534C41.4106 4.56793 41.4466 4.48864 41.6629 4.48864C43.0901 4.49584 44.5173 4.49584 45.9445 4.48864C46.1031 4.48864 46.1679 4.51026 46.1751 4.69767C46.2472 6.05279 45.8291 7.24934 44.9065 8.22243C44.2001 8.96487 43.3279 9.46222 42.2683 9.61359C40.9853 9.7938 39.796 9.6208 38.7364 8.83512C37.6768 8.04944 36.9992 7.02589 36.7974 5.69239C36.6316 4.60397 36.7325 3.55879 37.2515 2.5857C37.9795 1.22337 39.1328 0.336772 40.6609 0.106113C42.3693 -0.153379 43.8757 0.336769 45.0507 1.67027C45.3967 2.06671 45.6561 2.51361 45.8652 3.03981C45.1516 3.03981 44.4452 3.03981 43.746 3.03981C43.5009 3.03981 43.4144 2.83077 43.2775 2.69382C42.8017 2.2325 42.2323 1.98022 41.5836 1.9658C40.3582 1.92976 39.4932 2.52803 38.967 3.62366C38.4048 4.78417 38.7148 6.16812 39.5581 6.97543C40.8483 8.20802 42.7297 7.98456 43.6883 6.57177C43.7316 6.52853 43.8181 6.4997 43.7748 6.36274Z" fill="white"/>
<path d="M56.5836 3.04714C55.8267 3.04714 55.1348 3.03994 54.4356 3.04714C54.1761 3.04714 54.0824 2.8309 53.9382 2.68674C53.4553 2.21821 52.8714 1.96593 52.2083 1.96593C50.918 1.96593 49.9882 2.69395 49.5845 3.84724C49.1953 4.95008 49.3611 6.03851 50.1756 6.88906C51.127 7.89099 52.5687 8.13606 53.8085 7.21343C54.1184 6.98277 54.313 6.68002 54.5581 6.35566C53.8229 6.35566 53.1453 6.34845 52.4678 6.36287C52.2515 6.37008 52.1506 6.33404 52.165 6.08175C52.1866 5.64927 52.1794 5.21678 52.165 4.7843C52.1578 4.56805 52.1938 4.47435 52.4461 4.48155C53.8517 4.49597 55.2573 4.48876 56.6557 4.48155C56.8431 4.48155 56.9296 4.51039 56.9224 4.72663C56.8935 6.19708 56.4538 7.49454 55.3222 8.48205C54.1833 9.48398 52.857 9.81555 51.3433 9.61372C49.3827 9.35423 47.7969 7.66033 47.4798 5.75739C47.1698 3.86887 47.7609 2.26867 49.2313 1.04329C49.9521 0.445022 50.8027 0.127864 51.7614 0.0774072C52.6912 0.0269506 53.5634 0.142281 54.3779 0.596391C55.387 1.15141 56.1078 1.95151 56.5836 3.04714Z" fill="white"/>
<path d="M26.5764 9.67851C25.9204 9.67851 25.3005 9.6713 24.6734 9.68572C24.486 9.69293 24.4139 9.61364 24.3491 9.45506C23.5922 7.48004 22.8282 5.51223 22.0713 3.53721C21.9992 3.3498 21.9848 3.13356 21.819 2.93894C21.3577 4.12827 20.9108 5.28878 20.4639 6.44207C20.0819 7.43679 19.6998 8.4243 19.325 9.41902C19.2529 9.60643 19.1664 9.69293 18.9502 9.68572C18.4384 9.66409 17.9194 9.67851 17.4005 9.67851C17.1986 9.67851 17.0905 9.69293 17.2058 9.41181C17.6527 8.30897 18.0492 7.19171 18.4745 6.08167C19.1664 4.27964 19.9017 2.49924 20.536 0.675594C20.745 0.0845298 21.0333 -0.0452169 21.5812 0.0124479C21.9488 0.0556965 22.3236 0.0196587 22.6984 0.0196587C22.7993 0.0196587 22.8642 0.00523984 22.9219 0.15661C23.8805 2.67944 24.8536 5.20228 25.8267 7.72511C26.079 8.37384 26.3241 9.01537 26.5764 9.67851Z" fill="white"/>
<path d="M0.00720854 4.87966C0.00720854 3.36596 0.0144162 1.85226 0 0.338557C0 0.107898 0.0576652 0.0430222 0.295533 0.0430222C2.33542 0.0502303 4.37532 0.0502303 6.41521 0.0430222C6.64587 0.0430222 6.72516 0.0934815 6.71074 0.338557C6.68912 0.792667 6.68912 1.25399 6.71074 1.7081C6.71795 1.94596 6.65308 2.00363 6.41521 2.00363C5.03846 1.98921 3.65451 2.00362 2.27776 1.98921C2.01106 1.98921 1.93177 2.04688 1.94619 2.32078C1.96781 2.81093 1.96781 3.30829 1.94619 3.79844C1.93898 4.03631 2.00385 4.09397 2.24172 4.09397C3.61847 4.07956 5.00242 4.09397 6.37917 4.07956C6.64587 4.07956 6.72516 4.13722 6.71074 4.41113C6.68191 4.85083 6.68912 5.29773 6.71074 5.74463C6.71795 5.9825 6.65308 6.04016 6.41521 6.04016C5.03846 6.02574 3.65451 6.04016 2.27776 6.02574C2.01106 6.02574 1.93898 6.09062 1.94619 6.35732C1.9606 7.38087 1.94619 8.39721 1.9606 9.42076C1.9606 9.65863 1.90294 9.7235 1.66507 9.71629C1.21096 9.69467 0.749643 9.69467 0.295533 9.71629C0.0576652 9.7235 0 9.65142 0 9.42076C0.0072081 7.90706 0.00720854 6.39336 0.00720854 4.87966Z" fill="white"/>
<path fill-rule="evenodd" clip-rule="evenodd" d="M15.3071 9.70833C15.4824 9.70879 15.6586 9.70924 15.8363 9.70924C15.8253 9.68163 15.8147 9.65496 15.8043 9.62887C15.7742 9.55279 15.746 9.48164 15.7138 9.4065C15.5807 9.16577 15.448 8.92504 15.3154 8.68438C14.8443 7.82975 14.3738 6.97609 13.8901 6.12682C13.7676 5.91057 13.7604 5.80245 14.0054 5.67991C14.8488 5.24743 15.3966 4.59149 15.584 3.62561C15.8075 2.45789 15.3606 1.27577 14.3803 0.612622C14.0054 0.360339 13.6162 0.129679 13.1693 0.129679C12.3404 0.134184 11.5114 0.110533 10.6825 0.0868813C10.1851 0.0726908 9.68778 0.0585004 9.19043 0.0503913C9.09205 0.0484238 8.98455 0.0378637 8.87612 0.027213C8.58732 -0.00115562 8.29199 -0.0301659 8.14525 0.100849C7.98107 0.249642 8.0141 0.54087 8.04677 0.828952C8.06 0.945586 8.07317 1.0617 8.07317 1.16765C8.07317 1.85036 8.07362 2.53352 8.07407 3.21702C8.07542 5.26854 8.07678 7.32311 8.06597 9.37767C8.06597 9.65158 8.13084 9.72366 8.39754 9.70924C8.84444 9.68762 9.29134 9.68762 9.73103 9.70924C9.97611 9.72366 10.0266 9.64437 10.0266 9.41371C10.0194 8.89833 10.0194 8.38115 10.0194 7.86397C10.0194 7.34679 10.0194 6.82961 10.0122 6.31423C10.0049 6.07636 10.077 6.01149 10.3077 6.0259C10.6681 6.04753 11.0285 6.04753 11.3889 6.0259C11.6196 6.01149 11.7277 6.1052 11.8214 6.29981C12.0318 6.72644 12.2434 7.15077 12.4548 7.57463C12.7719 8.21065 13.0885 8.84562 13.4 9.48579C13.4792 9.65878 13.5657 9.72366 13.7604 9.71645C14.2729 9.70566 14.7855 9.70698 15.3071 9.70833ZM11.8451 1.96973C11.7406 1.96779 11.6364 1.96585 11.5329 1.96585C11.4135 1.96585 11.2936 1.96703 11.1736 1.9682C10.8732 1.97114 10.5723 1.97409 10.2787 1.95864C10.0769 1.95143 10.012 2.00189 10.0192 2.21092C10.0336 2.7227 10.0336 3.24168 10.0192 3.75346C10.012 3.98412 10.0624 4.06341 10.3075 4.0562C11.0572 4.04178 11.814 4.03457 12.5709 4.0562C13.3061 4.07782 13.6737 3.47955 13.6809 3.01102C13.6881 2.52808 13.2773 1.90097 12.5781 1.95864C12.3356 1.97884 12.0896 1.97427 11.8451 1.96973Z" fill="white"/>
<path fill-rule="evenodd" clip-rule="evenodd" d="M62.8761 0.0413457C60.3821 0.00530524 58.0827 2.02357 58.1404 4.84194C58.0539 7.60264 60.2524 9.54162 62.4941 9.68578C65.4783 9.8804 67.4605 7.49452 67.5902 5.26722C67.7704 2.18936 65.5936 0.0845943 62.8761 0.0413457ZM62.8402 7.79031C64.4404 7.82635 65.6441 6.4496 65.6297 4.8494C65.673 3.32849 64.3106 1.96616 62.8762 1.96616C61.2977 1.96616 60.0795 3.36453 60.0867 4.81336C60.0939 6.63701 61.3625 7.76147 62.8402 7.79031Z" fill="white"/>
</svg>
