<svg width="386" height="74" viewBox="0 0 386 74" fill="none" xmlns="http://www.w3.org/2000/svg">
<path fill-rule="evenodd" clip-rule="evenodd" d="M50.3879 1.16576L33.8507 0.971937L25.4937 35.5221L17.889 0.784857L1.18799 0.589111L0.59236 51.4081L12.1902 51.544L12.5661 19.4691L19.3727 51.6282L30.9445 51.7638L38.5712 19.7049L38.1944 51.8488L49.7923 51.9848L50.3879 1.16576Z" fill="black"/>
<path d="M135.404 18.0583L160.977 21.2764L162.318 10.621L124.778 5.89697L118.433 56.3218L157.153 61.1943L158.51 50.4077L131.757 47.0411L133.057 36.7135L156.531 39.6676L157.852 29.1761L134.377 26.222L135.404 18.0583Z" fill="black"/>
<path d="M232.953 14.0042L243.626 13.9672L263.141 47.9026L263.023 13.9L272.507 13.8671L272.676 62.5745L262.498 62.6097L242.485 28.0813L242.605 62.6787L233.121 62.7115L232.953 14.0042Z" fill="black"/>
<path fill-rule="evenodd" clip-rule="evenodd" d="M231.892 12.9504L244.236 12.9077L262.07 43.9186L261.962 12.8462L273.561 12.806L273.737 63.6282L261.89 63.6693L243.556 32.038L243.666 63.7324L232.068 63.7726L231.892 12.9504ZM242.485 28.0813L262.498 62.6097L272.676 62.5745L272.507 13.8671L263.023 13.9L263.141 47.9026L243.626 13.9672L232.953 14.0042L233.121 62.7115L242.605 62.6787L242.485 28.0813Z" fill="black"/>
<path d="M345.318 18.4837L355.591 19.6802L352.128 49.4176C351.74 52.7436 351.851 55.2183 352.461 56.8418C353.37 59.6979 355.881 61.3655 359.995 61.8446C364.087 62.3212 366.904 61.2742 368.445 58.7036C369.411 57.2636 370.088 54.8806 370.475 51.5545L373.939 21.8172L384.212 23.0138L380.749 52.7511C380.15 57.8933 378.885 61.8047 376.954 64.4851C373.366 69.3901 367.382 71.3546 359.001 70.3785C350.621 69.4024 345.237 66.114 342.851 60.5132C341.588 57.4606 341.255 53.3632 341.854 48.221L345.318 18.4837Z" fill="black"/>
<path fill-rule="evenodd" clip-rule="evenodd" d="M344.39 17.311L356.764 18.7523L353.178 49.5399C352.795 52.8268 352.933 55.0919 353.451 56.4702L353.46 56.4954L353.468 56.521C354.203 58.8296 356.231 60.3416 360.118 60.7943C363.979 61.244 366.291 60.2396 367.538 58.1598L367.552 58.1367L367.567 58.1144C368.387 56.8918 369.042 54.7191 369.425 51.4322L373.011 20.6446L385.385 22.0858L381.799 52.8734C381.19 58.1026 379.892 62.2164 377.812 65.1033L377.807 65.1094C373.911 70.436 367.473 72.4297 358.879 71.4288C350.285 70.4279 344.468 67.0066 341.878 60.9276L341.874 60.9176C340.513 57.63 340.195 53.3278 340.804 48.0987L344.39 17.311ZM345.318 18.4837L341.854 48.221C341.255 53.3632 341.588 57.4606 342.851 60.5132C345.237 66.114 350.621 69.4024 359.001 70.3785C367.382 71.3546 373.366 69.3901 376.954 64.4851C378.885 61.8047 380.15 57.8933 380.749 52.7511L384.212 23.0138L373.939 21.8172L370.475 51.5545C370.088 54.8806 369.411 57.2636 368.445 58.7036C366.904 61.2742 364.087 62.3212 359.995 61.8446C355.881 61.3655 353.37 59.6979 352.461 56.8418C351.851 55.2183 351.74 52.7436 352.128 49.4176L355.591 19.6802L345.318 18.4837Z" fill="black"/>
<path d="M89.5352 19.4703C89.5721 19.2623 89.6299 19.0543 89.7011 18.8477C88.5733 19.3876 87.2319 19.5721 86.0194 19.3409C85.4695 19.4561 85.0056 19.744 84.6243 20.341C84.3072 20.1961 83.9265 20.1455 83.772 19.9303C83.6591 19.7731 83.5404 19.645 83.4169 19.5395C83.0474 19.9671 82.6199 20.3406 82.1303 20.6559C81.6767 20.8699 81.2231 21.084 80.7696 21.298C79.7597 21.6197 78.7375 21.6664 77.7033 21.4384C77.6883 21.5726 77.67 21.707 77.646 21.8414C77.3883 23.292 76.2731 24.7654 75.0561 25.5431C74.1227 26.1395 72.9669 26.4575 71.8376 26.4555C72.0022 26.6371 72.1719 26.8149 72.3363 26.9955C72.5593 27.2402 72.8112 27.4582 73.0501 27.6883C73.0166 27.7668 72.9832 27.8454 72.9497 27.9239C72.5746 27.9039 72.1997 27.8839 71.6139 27.8525C71.926 28.6159 72.1931 29.2689 72.4821 29.9757C72.0347 30.1935 71.6909 30.3608 71.1525 30.6228C71.336 31.0649 71.4669 31.4658 71.6615 31.8322C72.1156 32.6874 72.0902 32.9066 71.2682 33.4571C70.9302 33.6837 70.5456 33.8567 70.6205 34.3397C70.7026 34.8676 71.0605 35.1659 71.5751 35.2568C72.0788 35.3459 72.5896 35.3966 73.0914 35.4939C73.8125 35.6336 73.9438 35.8604 73.487 36.396C73.0045 36.9619 73.3035 37.3224 73.6302 37.737C73.9811 38.182 74.352 38.1202 74.7485 37.7949C75.202 37.4229 75.6729 37.2469 76.2142 37.6505C76.2912 37.7079 76.4712 37.6255 76.6822 37.5973C76.549 38.0877 76.4469 38.4635 76.337 38.868C75.989 38.7754 75.6916 38.6964 75.2193 38.5708C75.6312 39.5846 76.433 39.7379 77.1236 39.9991C77.1185 40.388 77.1144 40.7241 77.1079 41.2333C77.5222 40.8103 77.808 40.5184 78.094 40.2264L78.2773 40.4072C78.026 41.0494 77.959 41.8 76.9624 41.886C76.4636 41.9291 76.3514 42.3745 76.676 42.7516C77.0137 43.1437 77.4336 43.2861 77.9486 43.1274C78.7144 42.8913 79.4248 42.5763 79.9413 41.9204C80.2146 41.5735 80.5048 41.3266 81.0273 41.35C81.7885 41.3841 82.556 41.2794 83.4723 41.2249C83.9239 41.8289 84.6372 42.0619 85.5241 41.6449C85.9772 41.4319 86.2565 41.7678 86.541 42.0415C86.9832 42.4671 87.4245 42.8937 87.8516 43.306C88.6677 42.6295 89.2111 41.6589 89.5901 40.2984C89.698 40.3053 89.811 40.3047 89.9216 40.3208C90.049 40.3394 90.1616 40.3545 90.2637 40.3657C90.2692 40.3317 90.2735 40.2976 90.2795 40.2635C90.5372 38.8129 91.6525 37.3395 92.8695 36.5618C93.423 36.2081 94.055 35.9521 94.713 35.8026C95.4156 35.5638 96.1705 35.4513 96.9077 35.4777C96.8942 35.4555 96.8809 35.4332 96.866 35.4104C96.3252 34.5784 95.6441 33.9059 94.694 33.6451C94.8796 32.938 95.044 32.3125 95.211 31.6768C94.7607 31.4794 94.4507 31.3437 94.1936 31.231C94.1847 30.4461 94.1767 29.7472 94.1681 28.9756C94.7689 28.1229 95.9454 27.7171 96.5984 26.6345C96.537 26.5986 96.4765 26.5613 96.4165 26.5234C95.6031 26.6891 94.7556 26.6941 93.9703 26.5183C90.7601 25.7996 88.9747 22.6254 89.5352 19.4703Z" fill="#F37423"/>
<path d="M203.573 25.6637C203.61 25.4557 203.668 25.2477 203.739 25.041C202.611 25.581 201.27 25.7654 200.057 25.5343C199.508 25.6495 199.044 25.9374 198.662 26.5343C198.345 26.3894 197.965 26.3389 197.81 26.1236C197.697 25.9665 197.578 25.8384 197.455 25.7328C197.085 26.1605 196.658 26.534 196.168 26.8493C195.715 27.0633 195.261 27.2774 194.808 27.4914C193.798 27.8131 192.776 27.8598 191.741 27.6317C191.726 27.766 191.708 27.9003 191.684 28.0348C191.426 29.4854 190.311 30.9587 189.094 31.7365C188.161 32.3329 187.005 32.6508 185.876 32.6489C186.04 32.8305 186.21 33.0083 186.374 33.1888C186.597 33.4336 186.849 33.6516 187.088 33.8817C187.055 33.9602 187.021 34.0387 186.988 34.1172C186.613 34.0973 186.238 34.0773 185.652 34.0459C185.964 34.8092 186.231 35.4622 186.52 36.169C186.073 36.3869 185.729 36.5542 185.191 36.8161C185.374 37.2583 185.505 37.6591 185.7 38.0256C186.154 38.8807 186.128 39.0999 185.306 39.6505C184.968 39.877 184.584 40.0501 184.659 40.533C184.741 41.061 185.099 41.3592 185.613 41.4502C186.117 41.5392 186.628 41.59 187.129 41.6872C187.851 41.827 187.982 42.0537 187.525 42.5894C187.043 43.1553 187.342 43.5157 187.668 43.9304C188.019 44.3753 188.39 44.3136 188.787 43.9882C189.24 43.6163 189.711 43.4402 190.252 43.8439C190.329 43.9013 190.509 43.8189 190.72 43.7906C190.587 44.2811 190.485 44.6569 190.375 45.0613C190.027 44.9687 189.73 44.8898 189.257 44.7642C189.669 45.778 190.471 45.9312 191.162 46.1925C191.157 46.5814 191.152 46.9175 191.146 47.4267C191.56 47.0037 191.846 46.7117 192.132 46.4197L192.315 46.6006C192.064 47.2428 191.997 47.9934 191.001 48.0794C190.502 48.1225 190.389 48.5679 190.714 48.9449C191.052 49.3371 191.472 49.4795 191.987 49.3207C192.752 49.0846 193.463 48.7697 193.979 48.1138C194.253 47.7669 194.543 47.5199 195.065 47.5433C195.827 47.5775 196.594 47.4728 197.51 47.4183C197.962 48.0223 198.675 48.2553 199.562 47.8383C200.015 47.6252 200.295 47.9612 200.579 48.2349C201.021 48.6604 201.463 49.0871 201.89 49.4994C202.706 48.8228 203.249 47.8522 203.628 46.4917C203.736 46.4986 203.849 46.498 203.96 46.5142C204.087 46.5327 204.2 46.5478 204.302 46.5591C204.307 46.525 204.312 46.4909 204.318 46.4568C204.575 45.0062 205.691 43.5329 206.908 42.7551C207.461 42.4014 208.093 42.1455 208.751 41.9959C209.454 41.7572 210.209 41.6447 210.946 41.671C210.932 41.6489 210.919 41.6266 210.904 41.6037C210.363 40.7718 209.682 40.0993 208.732 39.8384C208.918 39.1314 209.082 38.5059 209.249 37.8701C208.799 37.6728 208.489 37.537 208.232 37.4243C208.223 36.6395 208.215 35.9406 208.206 35.169C208.807 34.3163 209.984 33.9105 210.637 32.8278C210.575 32.792 210.515 32.7547 210.455 32.7167C209.641 32.8824 208.794 32.8875 208.008 32.7117C204.798 31.9929 203.013 28.8187 203.573 25.6637Z" fill="#F37423"/>
<path d="M306.723 36.4622C306.76 36.2543 306.818 36.0463 306.889 35.8396C305.761 36.3795 304.42 36.564 303.207 36.3328C302.657 36.4481 302.194 36.736 301.812 37.3329C301.495 37.188 301.114 37.1374 300.96 36.9222C300.847 36.7651 300.728 36.637 300.605 36.5314C300.235 36.9591 299.808 37.3325 299.318 37.6478C298.865 37.8619 298.411 38.0759 297.958 38.29C296.948 38.6116 295.926 38.6583 294.891 38.4303C294.876 38.5646 294.858 38.6989 294.834 38.8334C294.576 40.284 293.461 41.7573 292.244 42.535C291.311 43.1315 290.155 43.4494 289.026 43.4475C289.19 43.6291 289.36 43.8069 289.524 43.9874C289.747 44.2322 289.999 44.4502 290.238 44.6803C290.205 44.7588 290.171 44.8373 290.138 44.9158C289.763 44.8959 289.388 44.8758 288.802 44.8445C289.114 45.6078 289.381 46.2608 289.67 46.9676C289.223 47.1855 288.879 47.3528 288.341 47.6147C288.524 48.0569 288.655 48.4577 288.849 48.8242C289.304 49.6793 289.278 49.8985 288.456 50.4491C288.118 50.6756 287.734 50.8486 287.809 51.3316C287.891 51.8596 288.248 52.1578 288.763 52.2488C289.267 52.3378 289.778 52.3885 290.279 52.4858C291 52.6255 291.132 52.8523 290.675 53.388C290.192 53.9539 290.491 54.3143 290.818 54.7289C291.169 55.1739 291.54 55.1122 291.937 54.7868C292.39 54.4149 292.861 54.2388 293.402 54.6424C293.479 54.6999 293.659 54.6175 293.87 54.5892C293.737 55.0796 293.635 55.4554 293.525 55.8599C293.177 55.7673 292.88 55.6884 292.407 55.5628C292.819 56.5766 293.621 56.7298 294.312 56.9911C294.307 57.38 294.302 57.7161 294.296 58.2253C294.71 57.8022 294.996 57.5103 295.282 57.2183L295.465 57.3991C295.214 58.0414 295.147 58.792 294.15 58.878C293.652 58.921 293.539 59.3664 293.864 59.7435C294.202 60.1357 294.622 60.2781 295.137 60.1193C295.902 59.8832 296.613 59.5683 297.129 58.9124C297.403 58.5655 297.693 58.3185 298.215 58.3419C298.976 58.376 299.744 58.2714 300.66 58.2169C301.112 58.8208 301.825 59.0539 302.712 58.6369C303.165 58.4238 303.444 58.7597 303.729 59.0335C304.171 59.459 304.612 59.8857 305.04 60.298C305.856 59.6214 306.399 58.6508 306.778 57.2903C306.886 57.2972 306.999 57.2966 307.11 57.3128C307.237 57.3313 307.35 57.3464 307.452 57.3577C307.457 57.3236 307.461 57.2895 307.468 57.2554C307.725 55.8048 308.84 54.3314 310.057 53.5537C310.611 53.2 311.243 52.9441 311.901 52.7945C312.604 52.5558 313.358 52.4433 314.096 52.4696C314.082 52.4474 314.069 52.4252 314.054 52.4023C313.513 51.5703 312.832 50.8979 311.882 50.637C312.068 49.93 312.232 49.3044 312.399 48.6687C311.949 48.4714 311.639 48.3356 311.382 48.2229C311.373 47.4381 311.365 46.7392 311.356 45.9676C311.957 45.1149 313.133 44.709 313.786 43.6264C313.725 43.5905 313.664 43.5533 313.604 43.5153C312.791 43.681 311.944 43.6861 311.158 43.5102C307.948 42.7915 306.163 39.6173 306.723 36.4622Z" fill="#F37423"/>
</svg>
