<svg width="108" height="33" viewBox="0 0 108 33" fill="none" xmlns="http://www.w3.org/2000/svg">
<path d="M36.8533 27.8381L32.7977 6.84642C32.4009 4.78166 34.5169 4.22246 34.5169 3.01802V2.84595C34.5169 2.32977 34.1202 2.02865 33.503 2.02865H27.5077C26.3616 2.02865 25.6122 2.58786 25.2154 3.66325L19.0438 21.8159L12.6518 3.57722C12.255 2.54484 11.4616 2.02865 10.2713 2.02865H4.45237C3.83521 2.02865 3.43847 2.32977 3.43847 2.84595V3.01802C3.43847 4.26547 5.46628 4.78166 5.1577 6.76039L1.8074 27.8381C1.49882 29.8598 0 30.376 0 31.5805V31.7525C0 32.2687 0.396746 32.5698 1.05799 32.5698H6.52427C7.14143 32.5698 7.58226 32.2687 7.58226 31.7525V31.5805C7.58226 30.376 5.68669 29.8598 5.99527 27.8381L8.37575 12.1374L16.0903 31.3224C16.487 32.1827 17.016 32.5268 17.9417 32.5268C18.8234 32.5268 19.2201 32.1397 19.5287 31.2794L26.2734 12.8256L28.9184 27.8381C29.271 29.8168 27.3755 30.376 27.3755 31.5805V31.7525C27.3755 32.2687 27.7722 32.5698 28.4335 32.5698H37.6027C38.2199 32.5698 38.6607 32.2687 38.6607 31.7525V31.5805C38.6607 30.376 37.25 29.8598 36.8533 27.8381Z" fill="black"/>
<path d="M46.1269 9.38435C49.1245 9.38435 51.1523 7.49166 51.1523 5.08277C51.1523 2.63088 49.1245 0.781199 46.1269 0.781199C43.0852 0.781199 41.0574 2.63088 41.0574 5.08277C41.0574 7.49166 43.0852 9.38435 46.1269 9.38435ZM41.41 32.5698H50.8879C51.5491 32.5698 51.9899 32.2687 51.9899 31.7525V31.5805C51.9899 30.333 50.0062 29.8168 50.0062 27.8381V12.6105C50.0062 11.7932 49.2568 11.105 48.0225 11.7072L41.3659 14.8904C40.7488 15.1915 40.352 15.4066 40.352 15.8797V16.0518C40.352 17.0842 42.1154 17.6864 42.1154 19.6651V27.8381C42.1154 29.8168 40.352 30.333 40.352 31.5805V31.7525C40.352 32.2687 40.7488 32.5698 41.41 32.5698Z" fill="black"/>
<path d="M54.7041 32.5698H64.226C64.8432 32.5698 65.284 32.2687 65.284 31.7525V31.5805C65.284 30.333 63.3444 29.8598 63.3444 27.8811V1.12533C63.3444 0.351042 62.5509 -0.380227 61.3166 0.221994L54.66 3.40516C54.087 3.70627 53.6902 3.92135 53.6902 4.39452V4.56659C53.6902 5.64198 55.4094 6.20118 55.4094 8.22292V27.8811C55.4094 29.8598 53.6902 30.333 53.6902 31.5805V31.7525C53.6902 32.2687 54.087 32.5698 54.7041 32.5698Z" fill="black"/>
<path d="M85.2859 25.7734C84.4925 26.8057 82.7732 27.666 80.8777 27.666C78.7176 27.666 76.9984 26.6337 75.8522 24.87L84.6247 20.0523C85.6386 19.5361 86.3439 18.6758 86.3439 17.3853C86.3439 14.6753 83.699 11.4921 77.9241 11.4921C72.1492 11.4921 67.0797 15.7507 67.0797 22.117C67.0797 28.6554 71.5762 33 77.9682 33C83.743 33 86.8288 28.7414 86.917 26.3756C86.9611 25.4292 85.9031 25.1711 85.2859 25.7734ZM77.1306 13.5999C79.3788 13.5999 80.0842 16.654 80.0842 18.0305C80.0842 18.9338 79.6433 19.7511 78.938 20.2243L74.8383 22.6332C74.3975 21.3427 74.1771 19.7942 74.1771 18.1165C74.1771 15.6216 75.3232 13.5999 77.1306 13.5999Z" fill="black"/>
<path d="M98.3899 32.957C104.517 32.957 108 30.204 108 26.6337C108 18.7188 96.7148 21.8159 96.7148 15.9227C96.7148 14.6753 97.4201 13.4708 98.7867 13.4708C101.828 13.4708 100.418 19.278 104.694 19.278C106.325 19.278 107.647 18.1596 107.647 16.654C107.647 13.858 103.988 11.4921 98.3899 11.4921C92.8796 11.4921 89.0884 14.2021 89.0884 18.0305C89.0884 26.3756 100.77 23.0634 100.77 28.6984C100.77 30.4191 99.7124 31.0643 98.3899 31.0643C94.731 31.0643 96.2299 25.1711 91.8216 25.1711C90.0583 25.1711 88.6917 25.9884 88.6917 27.9241C88.6917 30.9352 92.8355 32.957 98.3899 32.957Z" fill="black"/>
</svg>
