<svg width="200" height="200" viewBox="0 0 200 200" fill="none" xmlns="http://www.w3.org/2000/svg">
<g clip-path="url(#clip0_453_212780)">
<path d="M184.1 146.4C182.6 148.9 181.1 151.3 179.5 153.7C175.4 159.8 170.7 165.4 165.3 170.4C159.7 175.5 153.7 180 147.1 183.7C143.5 185.7 139.8 187.6 136 189.1C132.8 190.4 129.6 191.5 126.3 192.5C123 193.5 119.7 194.2 116.4 194.9C114.1 195.4 111.8 195.7 109.5 195.8C106.6 195.9 103.8 196.3 100.9 196.3C95.8002 196.3 90.8002 195.9 85.7002 195.3C84.6002 195.2 83.5002 195.1 82.6002 195.7C82.2002 195.6 82.8002 195.1 82.2002 194.9C81.4002 194.6 80.6002 194.3 79.7002 194.1C77.9002 193.7 76.0002 193.3 74.2002 192.9C72.2002 192.4 70.3002 191.7 68.4002 191C65.0002 189.9 61.8002 188.4 58.5002 187.1C57.5002 186.7 56.6002 186.1 55.7002 185.6C52.7002 184 49.8002 182.3 46.9002 180.4C42.2002 177.4 37.8002 174 33.8002 170.2C30.0002 166.6 26.5002 162.8 23.3002 158.6C22.3002 157.2 21.1002 155.9 20.1002 154.5C19.2002 153.2 18.4002 151.8 17.6002 150.5C15.7002 147.4 13.9002 144.2 12.4002 140.8C10.5002 137 8.90016 133 7.60016 129C5.90016 123.7 4.70017 118.2 3.90017 112.7C3.10017 107.1 2.80016 101.4 3.10016 95.7998C3.20016 93.5998 3.20016 91.2998 3.50016 89.0998C3.90016 85.7998 4.40016 82.5998 5.10016 79.3998C6.00016 74.9998 7.30016 70.7998 8.70016 66.5998C9.40016 64.4998 10.4002 62.4998 11.2002 60.4998C13.0002 56.0998 15.3002 51.9998 17.8002 48.0998C20.6002 43.4998 23.9002 39.2998 27.5002 35.2998C30.7002 31.6998 34.2002 28.2998 38.0002 25.1998C40.5002 23.1998 43.1002 21.2998 45.7002 19.4998C50.4002 16.1998 55.4002 13.6998 60.5002 11.3998C64.2002 9.69977 68.1002 8.39977 72.0002 7.19977C75.5002 6.09977 79.0002 5.39977 82.5002 4.59977C84.7002 3.99977 87.0002 3.99977 89.3002 3.69977C92.0002 2.99977 94.9002 2.79977 97.7002 2.89977C101.9 2.89977 106 2.99977 110.1 3.49977C114.1 3.89977 118.1 4.79977 122 5.59977C125.2 6.29977 128.2 7.39977 131.3 8.39977C134.3 9.39977 137.1 10.6998 140 11.8998C143.8 13.4998 147.3 15.5998 150.7 17.6998C155.2 20.4998 159.4 23.5998 163.3 27.0998C167.5 30.8998 171.5 34.8998 175 39.2998C177.6 42.5998 180 46.0998 182.3 49.6998C183.9 52.1998 185.1 54.9998 186.5 57.5998C187.9 60.3998 189.1 63.2998 190.1 66.1998C192.8 73.4998 194.6 80.8998 195.4 88.5998C196.2 95.5998 196.3 102.5 195.5 109.5C195 114.4 194.1 119.2 192.8 124C192.6 124.8 192.3 125.5 192.4 126.3C192.5 126.8 192.1 127.1 191.9 127.6C191.1 129.8 190.3 132 189.5 134.2C188.7 136.4 187.6 138.5 186.9 140.8C186.8 141.1 186.7 141.4 186.4 141.6C186.1 141.9 186 142.2 185.8 142.5C185.3 143.4 185 144.3 186.3 145.3C184.8 145.1 184.8 145.2 184.1 146.4ZM188.3 144.5C188.3 144.3 188.4 144 188.5 143.8C188.7 143.4 188.8 143 189 142.7C190 141.2 190.5 139.6 191.1 137.9C191.9 135.5 193.1 133.2 193.8 130.8C194.2 129.4 194.7 128 195.2 126.7C196.1 124.3 196.5 121.8 197 119.3C198.7 111.1 199.4 102.8 198.9 94.4998C198.7 89.9998 198.1 85.4998 197.3 80.9998C196.3 75.5998 194.8 70.3998 193 65.2998C191 59.7998 188.5 54.5998 185.5 49.5998C184.7 48.1998 183.8 46.7998 182.9 45.4998C180.3 41.3998 177.3 37.4998 174.1 33.8998C172.4 31.9998 170.6 30.0998 168.7 28.2998C165 24.6998 161 21.2998 156.8 18.2998C156 17.7998 155.3 17.1998 154.4 17.0998C154.2 17.0998 154 16.9998 153.9 16.7998C153.2 15.7998 152.2 15.2998 151.2 14.5998C147.8 12.3998 144.1 10.6998 140.4 8.79977C138.5 7.79977 136.4 7.39977 134.4 6.39977C131.8 5.29977 128.9 4.49977 126.1 3.69977C120.8 2.19977 115.4 1.19977 109.9 0.699772C104.7 0.199772 99.5002 -0.100228 94.3002 0.199772C90.6002 0.399772 87.0002 0.899772 83.4002 1.39977C80.6002 1.79977 77.8002 2.49977 75.0002 3.09977C70.7002 4.09977 66.5002 5.49977 62.4002 7.19977C57.7002 8.99977 53.1002 11.2998 48.6002 13.9998C45.6002 15.7998 42.6002 17.7998 39.8002 19.8998C34.9002 23.4998 30.4002 27.6998 26.2002 32.1998C22.9002 35.6998 20.0002 39.5998 17.2002 43.4998C13.9002 48.2998 11.3002 53.3998 8.70016 58.5998C7.70016 60.4998 7.30017 62.6998 6.40017 64.6998C5.40017 66.7998 4.80016 68.9998 4.10016 71.1998C2.10016 77.8998 0.700165 84.7998 0.200165 91.7998C-0.199835 97.1998 -0.199835 102.7 0.300165 108.1C0.800165 113.8 1.80017 119.5 3.20017 125.1C4.20017 129 5.50016 132.8 7.00016 136.6C7.80016 138.7 8.80017 140.8 9.80017 142.9C11.3002 145.9 12.8002 148.8 14.6002 151.6C15.7002 153.4 16.9002 155.1 18.1002 156.9C20.2002 160.1 22.6002 163 25.1002 165.8C28.9002 170.1 33.1002 174 37.6002 177.6C43.2002 182.2 49.4002 186 55.9002 189.1C57.7002 190 59.6002 190.9 61.5002 191.6C64.1002 192.6 66.8002 193.7 69.5002 194.5C74.5002 196.1 79.7002 197.4 84.9002 198C85.8002 198.1 86.7002 198.2 87.6002 198.4C90.3002 198.9 93.1002 199 95.8002 199.1C96.3002 199.1 96.7002 198.9 97.2002 199C98.4002 199.4 99.6002 199.3 100.8 199.2C102.5 199 104.3 199 106 199C109.2 198.9 112.4 198.4 115.5 197.9C118.2 197.5 120.9 196.8 123.5 196.2C127 195.4 130.3 194.4 133.7 193.2C139.1 191.3 144.3 188.8 149.3 185.9C157.1 181.4 164.2 176 170.5 169.5C175.5 164.4 180 158.8 183.7 152.7C184.1 152 184.5 151.3 184.9 150.7C185.3 150 185.7 149.3 186 148.6C186.4 147.9 187 147.3 186.9 146.5C186.9 145.2 188.2 145.3 188.3 144.5Z" fill="#F27524"/>
<path d="M190.2 123.2C191.8 116.9 192.8 110.4 193.1 103.9C193.4 97.5002 193.1 91.2002 192.1 84.9002C191 78.1002 189.3 71.6002 186.7 65.2002C185.4 62.1002 184.1 59.1002 182.6 56.1002C179.3 49.6002 175.1 43.7002 170.4 38.2002C168.2 35.6002 165.7 33.1002 163.2 30.7002C160.3 27.9002 157.1 25.4002 153.8 23.1002C152.9 22.4002 151.9 21.9002 151 21.2002C150.1 20.5002 149 20.1002 148.1 19.4002C145 17.2002 141.4 15.8002 138 14.0002C136.1 13.1002 134.2 12.4002 132.2 11.6002C127.8 9.90023 123.2 8.70023 118.6 7.70023C110.8 6.00023 102.9 5.50023 94.8998 5.90023C91.8998 6.00023 88.8998 6.40023 85.9998 6.80023C79.9998 7.60023 74.1998 9.20023 68.5998 11.1002C62.4998 13.2002 56.6998 16.1002 51.0998 19.3002C45.6998 22.5002 40.6998 26.3002 36.0998 30.6002C34.1998 32.4002 32.0998 34.0002 30.7998 36.3002C29.1998 37.1002 28.3998 38.7002 27.2998 39.9002C22.5998 45.4002 18.7998 51.5002 15.5998 58.0002C13.8998 61.4002 12.4998 65.0002 11.1998 68.6002C10.3998 70.8002 9.69981 73.1002 9.09981 75.4002C8.09981 78.9002 7.5998 82.5002 6.8998 86.0002C6.5998 87.7002 6.4998 89.4002 6.2998 91.1002C5.7998 95.8002 5.6998 100.4 5.9998 105.1C6.3998 111 7.2998 116.9 8.7998 122.7C10.2998 128.3 12.1998 133.7 14.5998 139C16.3998 142.9 18.5998 146.7 20.8998 150.3C23.5998 154.6 26.7998 158.7 30.1998 162.5C33.1998 165.8 36.3998 168.8 39.7998 171.6C46.2998 177.1 53.5998 181.4 61.1998 184.9C63.3998 185.9 65.6998 186.7 67.8998 187.5C69.2998 188 70.6998 188.6 72.0998 189C76.9998 190.4 81.8998 191.6 86.8998 192.3C92.3998 193.1 97.7998 193.3 103.3 193C106.7 192.8 110.1 192.6 113.5 192C115.8 191.6 118 191.3 120.2 190.8C122.4 190.2 124.6 189.6 126.8 188.9C128.6 188.4 130.4 187.9 132.1 187.2C135.6 185.8 139 184.4 142.3 182.6C147.9 179.8 153 176.4 157.9 172.5C164.3 167.4 169.9 161.6 174.7 155C178.2 150.1 181.5 145.1 183.8 139.2C183 139.3 182.5 139.6 182.2 140.3C181.9 141 181.2 141.3 180.8 142C179.5 144.6 177.9 147.2 176.4 149.6C174.8 152.1 173.1 154.4 171.3 156.7C169.9 158.6 168.2 160.3 166.6 162C163.4 165.5 159.8 168.8 156 171.7C148.6 177.4 140.5 182 131.7 185.3C128.9 186.3 126.1 187.3 123.2 188.1C116.2 190 109 191 101.8 191.2C94.6998 191.4 87.5998 190.8 80.5998 189.3C79.9998 189.2 79.4998 189 78.8998 189C77.6998 189 76.5998 188.8 75.4998 188.2C75.0998 188 74.5998 187.8 74.0998 187.6C71.5998 186.8 69.1998 186 66.7998 185.1C64.3998 184.2 62.0998 183.1 59.7998 182.1C58.2998 181.4 56.7998 180.8 55.3998 179.9C52.0998 178 48.7998 176 45.6998 173.8C43.3998 172.1 41.0998 170.4 38.8998 168.5C34.8998 165 31.2998 161.2 27.8998 157.1C26.3998 155.2 24.7998 153.3 23.3998 151.3C21.6998 148.8 20.1998 146.1 18.6998 143.5C15.0998 137.2 12.4998 130.4 10.5998 123.4C8.4998 115.9 7.4998 108.2 7.2998 100.4C7.2998 97.9002 7.2998 95.3002 7.4998 92.8002C7.8998 88.8002 8.19981 84.8002 9.09981 80.8002C9.49981 79.1002 9.6998 77.4002 10.2998 75.8002C10.9998 73.5002 11.5998 71.1002 12.3998 68.9002C12.7998 67.8002 12.9998 66.7002 13.4998 65.6002C14.2998 63.9002 15.0998 62.2002 15.7998 60.5002C17.3998 56.9002 19.2998 53.4002 21.3998 50.1002C23.7998 46.3002 26.3998 42.5002 29.3998 39.1002C33.5998 34.3002 38.0998 29.8002 43.2998 26.1002C45.8998 24.2002 48.2998 22.1002 51.1998 20.6002C53.3998 19.4002 55.4998 17.9002 57.7998 16.8002C60.5998 15.5002 63.2998 14.3002 66.1998 13.2002C71.2998 11.3002 76.4998 9.80023 81.8998 8.70023C85.0998 8.10023 88.2998 7.70023 91.4998 7.30023C92.5998 7.20023 93.6998 7.30023 94.6998 7.10023C97.6998 6.80023 100.7 6.90023 103.7 7.10023C108.4 7.40023 113.1 7.90023 117.8 8.90023C122.7 9.90023 127.5 11.3002 132.1 13.2002C136.5 15.0002 140.9 16.7002 144.9 19.3002C146.9 20.6002 149.1 21.7002 151.1 23.1002C154.8 25.8002 158.5 28.6002 161.9 31.8002C164.6 34.3002 167.2 37.0002 169.6 39.8002C173.1 44.0002 176.2 48.4002 178.9 53.2002C181.2 57.2002 183.2 61.3002 184.9 65.6002C186.7 70.2002 188.1 74.9002 189.1 79.7002C190.5 86.0002 191.1 92.3002 191.2 98.8002C191.2 102.3 191.1 105.7 190.7 109.1C190.2 113.8 189.3 118.6 188 123.2C187.1 126.2 186.4 129.3 185.1 132.2C184.6 133.2 184.2 134.3 183.8 135.3C183.6 135.7 183.6 136.1 184.1 136.3C184.6 136.5 185 136.5 185.3 136C185.5 135.7 185.6 135.4 185.7 135.1C186.5 133.2 187.1 131.2 187.8 129.2C188.9 127.5 189.6 125.4 190.2 123.2Z" fill="#F27524"/>
<path d="M135.1 149.4C138.1 147.2 140.9 144.8 143.5 142.2C143.8 141.9 144.2 141.6 143.8 141C143.4 140.6 142.8 140.5 142.3 140.9C142.1 141.1 141.9 141.3 141.7 141.5C141 142.2 140.3 142.9 139.5 143.6C133.2 149.3 126 153.5 117.9 156.1C112.3 157.9 106.5 158.9 100.6 159.1C93.3001 159.3 86.2001 158.1 79.4001 155.6C74.4001 153.8 69.8001 151.4 65.5001 148.4C57.8001 143.1 51.8001 136.3 47.2001 128.1C46.0001 125.9 44.9001 123.6 44.0001 121.3C42.7001 117.7 41.5001 114.1 40.9001 110.3C40.7001 109 40.4001 107.7 40.3001 106.4C40.2001 105.1 39.6001 103.8 40.0001 102.4C40.0001 102.3 40.0001 102.2 40.0001 102.1C39.9001 100.6 39.9001 99.1001 40.0001 97.6001C40.0001 97.3001 40.0001 97.1001 40.0001 96.8001C39.9001 96.3001 39.4001 95.8001 38.8001 95.9001C38.2001 95.9001 38.3001 96.5001 38.3001 96.8001C38.3001 97.0001 38.3001 97.1001 38.3001 97.3001C38.1001 100.3 38.4001 103.4 38.7001 106.4C39.2001 111.5 40.5001 116.4 42.3001 121.1C43.3001 123.7 44.5001 126.3 45.9001 128.8C48.0001 132.7 50.6001 136.3 53.5001 139.7C59.5001 146.7 66.9001 151.9 75.8001 155.9C78.6001 157 81.8001 158.1 85.2001 158.9C91.3001 160.4 97.6001 160.9 103.9 160.5C110 160.1 115.9 158.7 121.6 156.6C126.4 154.8 130.9 152.3 135.1 149.4Z" fill="#F27524"/>
<path d="M105.5 38.4999C108.5 38.7999 111.4 39.4999 114.4 40.1999C118.2 41.1999 121.9 42.2999 125.6 44.0999C130.5 46.4999 135.1 49.2999 139.3 52.8999C142.8 55.8999 145.9 59.0999 148.6 62.8999C149.1 63.4999 149.5 64.0999 149.3 64.8999C149.2 65.3999 149.5 65.7999 150 65.7999C150.8 65.8999 151.1 66.2999 151.4 66.7999C152.7 68.5999 153.8 70.5999 154.8 72.5999C157.8 78.8999 159.8 85.4999 160.6 92.3999C161 95.5999 161.1 98.7999 161 102C161 102.3 160.9 102.6 160.9 102.8C160.8 103.1 160.6 103.2 160.3 103.2C159.8 103.1 159.4 102.9 159.3 102.4C159.2 101.9 159.2 101.5 159.2 101C159.3 97.6999 159.1 94.4999 158.6 91.1999C157.7 85.2999 156 79.6999 153.5 74.2999C152 70.8999 150.1 67.6999 148 64.6999C146.5 62.5999 144.7 60.5999 142.9 58.6999C138.9 54.4999 134.3 50.8999 129.2 47.9999C125.8 46.0999 122.1 44.4999 118.4 43.1999C116.9 42.5999 115.2 42.2999 113.7 41.5999C113.1 41.2999 112.2 41.4999 111.4 41.2999C108.8 40.6999 106.3 40.4999 103.7 40.2999L103.1 38.3999C103.9 38.3999 104.7 38.3999 105.5 38.4999Z" fill="#F27524"/>
<path d="M172.6 125.4H172.8L172.9 125.3L174.1 121.6C174.1 121.5 174.1 121.4 174 121.3L172.9 121C172.8 121 172.7 121 172.7 121.1L171.5 124.8C171.5 124.9 171.5 124.9 171.5 124.9L171.6 125" fill="#F27524"/>
<path d="M58.5153 158.879L58.5819 158.69L58.5208 158.562L55.4308 156.2C55.3365 156.167 55.2421 156.133 55.1146 156.194L54.4657 157.132C54.4325 157.226 54.3992 157.32 54.4935 157.354L57.5836 159.716C57.6779 159.75 57.6779 159.75 57.6779 159.75L57.8054 159.688" fill="#F27524"/>
<path d="M64.7002 163.7V163.9L64.8002 164L68.3002 165.8C68.4002 165.9 68.5002 165.8 68.6002 165.7L69.1002 164.7C69.2002 164.6 69.1002 164.5 69.0002 164.4L65.5002 162.6H65.4002L65.3002 162.7" fill="#F27524"/>
<path d="M112.4 25.5C112.4 25.8 112.4 26.1 112.5 26.3C112.7 26.7 113.1 26.9 113.7 27C114.1 27.1 114.4 27.1 114.6 27.1C115.1 27 115.3 26.8 115.4 26.4C115.4 26.2 115.4 25.9 115.2 25.8C115 25.6 114.7 25.4 114.2 25.3L113.4 25C112.6 24.7 112.1 24.4 111.9 24.1C111.5 23.7 111.3 23.1 111.5 22.4C111.6 21.7 112 21.2 112.5 20.9C113.1 20.6 113.8 20.5 114.8 20.6C115.6 20.7 116.2 21.1 116.7 21.6C117.2 22.1 117.4 22.8 117.2 23.6L115.7 23.3C115.8 22.8 115.6 22.5 115.3 22.2C115.1 22 114.8 21.9 114.4 21.8C114 21.7 113.6 21.7 113.4 21.9C113.1 22 113 22.2 112.9 22.5C112.9 22.8 112.9 23 113.2 23.2C113.3 23.3 113.6 23.5 114.1 23.7L115.3 24.3C115.8 24.5 116.2 24.8 116.5 25.1C116.9 25.5 117 26.1 116.9 26.7C116.8 27.4 116.4 27.9 115.8 28.2C115.2 28.5 114.4 28.6 113.5 28.5C112.5 28.3 111.8 28 111.3 27.4C110.8 26.9 110.7 26.2 110.8 25.4L112.4 25.5Z" fill="#F27524" stroke="#F27524" stroke-width="0.2" stroke-miterlimit="10"/>
<path d="M124.2 23.8002C125 23.4002 125.8 23.4002 126.7 23.7002C127.9 24.1002 128.6 24.8002 128.9 25.8002C129 26.3002 129.1 26.8002 128.9 27.3002L127.4 26.8002C127.4 26.4002 127.4 26.1002 127.3 25.9002C127.1 25.5002 126.8 25.2002 126.3 25.0002C125.8 24.8002 125.3 24.9002 124.8 25.2002C124.3 25.5002 124 26.1002 123.7 26.9002C123.4 27.7002 123.4 28.4002 123.5 28.9002C123.7 29.4002 124 29.8002 124.5 29.9002C125 30.1002 125.5 30.0002 125.8 29.8002C126 29.7002 126.2 29.4002 126.5 29.1002L128 29.6002C127.6 30.3002 127 30.8002 126.4 31.1002C125.8 31.4002 124.9 31.4002 124.1 31.1002C123.1 30.7002 122.4 30.1002 122.1 29.3002C121.8 28.4002 121.8 27.4002 122.2 26.3002C122.6 25.1002 123.3 24.3002 124.2 23.8002Z" fill="#F27524" stroke="#F27524" stroke-width="0.2" stroke-miterlimit="10"/>
<path d="M139.6 30.0001C139.8 30.2001 139.9 30.5001 140 30.8001C140 31.0001 140.1 31.3001 140 31.5001C140 31.7001 139.9 32.0001 139.7 32.3001C139.5 32.6001 139.3 32.9001 139 33.1001C138.7 33.3001 138.3 33.4001 137.9 33.3001C138.1 33.6001 138.3 33.9001 138.3 34.2001C138.3 34.5001 138.2 34.9001 137.9 35.3001L137.7 35.7001C137.5 36.0001 137.4 36.2001 137.4 36.3001C137.3 36.5001 137.4 36.7001 137.4 36.8001L137.3 37.0001L135.8 36.2001C135.8 36.0001 135.9 35.9001 135.9 35.8001C136 35.6001 136.1 35.4001 136.2 35.2001L136.5 34.6001C136.7 34.2001 136.8 33.9001 136.7 33.6001C136.6 33.4001 136.4 33.2001 136 33.0001L134.6 32.3001L133.2 34.9001L131.8 34.2001L135.4 27.6001L138.6 29.3001C139.1 29.5001 139.4 29.8001 139.6 30.0001ZM136.2 29.4001L135.2 31.2001L136.7 32.0001C137 32.2001 137.2 32.2001 137.4 32.3001C137.7 32.3001 138 32.1001 138.2 31.8001C138.4 31.4001 138.4 31.1001 138.3 30.8001C138.2 30.6001 138 30.5001 137.7 30.3001L136.2 29.4001Z" fill="#F27524" stroke="#F27524" stroke-width="0.2" stroke-miterlimit="10"/>
<path d="M146.4 43C145.6 43.1 144.8 42.8 143.9 42.2C143.1 41.5 142.6 40.8 142.5 40C142.3 39 142.7 37.9 143.5 36.8C144.4 35.7 145.3 35.1 146.3 35.1C147.1 35 147.9 35.3 148.8 35.9C149.6 36.6 150.1 37.3 150.2 38.1C150.4 39.1 150 40.2 149.2 41.3C148.4 42.3 147.5 42.9 146.4 43ZM146.4 41.5C147 41.4 147.5 41 148 40.3C148.5 39.6 148.8 39 148.8 38.4C148.8 37.8 148.5 37.3 148.1 36.9C147.6 36.5 147.1 36.4 146.5 36.5C145.9 36.6 145.4 37 144.8 37.7C144.3 38.4 144 39 144 39.6C144 40.2 144.3 40.7 144.8 41.1C145.3 41.5 145.8 41.6 146.4 41.5Z" fill="#F27524" stroke="#F27524" stroke-width="0.2" stroke-miterlimit="10"/>
<path d="M156 42.3999L157.1 43.5999L152.6 47.7999L155.2 50.5999L154.2 51.4999L150.5 47.5999L156 42.3999Z" fill="#F27524" stroke="#F27524" stroke-width="0.2" stroke-miterlimit="10"/>
<path d="M163.3 50.8999L164.2 52.1999L159.1 55.7999L161.3 58.8999L160.2 59.6999L157.1 55.2999L163.3 50.8999Z" fill="#F27524" stroke="#F27524" stroke-width="0.2" stroke-miterlimit="10"/>
<path d="M174 71.2C174 71.8 173.9 72.3 173.6 72.7C173.3 73.1 173 73.4 172.7 73.6C172.3 73.8 172 74 171.6 74.2C170.7 74.6 169.8 74.7 169 74.6C167.9 74.4 167.2 73.8 166.8 72.7L165.6 69.7L172.7 67L173.9 70C173.9 70.4 174 70.8 174 71.2ZM171.9 68.9L167.3 70.7L167.8 72.1C168.1 72.8 168.6 73.2 169.4 73.2C169.8 73.2 170.3 73.1 170.8 72.9C171.5 72.6 172 72.3 172.3 71.9C172.6 71.5 172.6 71 172.4 70.3L171.9 68.9Z" fill="#F27524" stroke="#F27524" stroke-width="0.2" stroke-miterlimit="10"/>
<path d="M171 85.8999C170.3 85.4999 169.9 84.6999 169.6 83.6999C169.4 82.5999 169.5 81.7999 170 81.0999C170.6 80.1999 171.5 79.5999 172.8 79.2999C174.2 78.9999 175.3 79.1999 176.1 79.7999C176.8 80.1999 177.2 80.9999 177.5 81.9999C177.7 83.0999 177.6 83.8999 177.1 84.5999C176.6 85.4999 175.6 86.0999 174.3 86.3999C173 86.6999 171.9 86.4999 171 85.8999ZM172 84.6999C172.5 84.9999 173.2 84.9999 174 84.7999C174.8 84.5999 175.4 84.2999 175.8 83.8999C176.2 83.3999 176.3 82.8999 176.2 82.2999C176.1 81.6999 175.7 81.1999 175.2 80.9999C174.7 80.6999 174 80.6999 173.2 80.8999C172.4 81.0999 171.8 81.3999 171.4 81.7999C171 82.2999 170.9 82.7999 171 83.3999C171.1 83.9999 171.4 84.4999 172 84.6999Z" fill="#F27524" stroke="#F27524" stroke-width="0.2" stroke-miterlimit="10"/>
<path d="M178.8 92.8999L174.5 93.9999L173.3 94.1999L174.5 94.3999L178.9 95.1999V96.8999L174.6 97.8999L173.4 98.1999L174.6 98.3999L179 99.2999V100.9L171.4 98.9999V97.4999L175.8 96.4999L177.3 96.1999L175.8 95.9999L171.4 95.1999V93.6999L178.9 91.3999L178.8 92.8999Z" fill="#F27524" stroke="#F27524" stroke-width="0.2" stroke-miterlimit="10"/>
<path d="M178.5 106.7L178.2 108.3L172.5 110.5L177.7 111.3L177.5 112.8L170 111.6L170.2 110L176 107.8L170.7 107L170.9 105.5L178.5 106.7Z" fill="#F27524" stroke="#F27524" stroke-width="0.2" stroke-miterlimit="10"/>
<path d="M165.6 131.4C165.3 131.3 165 131.2 164.8 131.3C164.4 131.4 164.1 131.7 163.8 132.3C163.6 132.6 163.5 132.9 163.5 133.2C163.4 133.7 163.6 134 164 134.2C164.2 134.3 164.4 134.3 164.7 134.2C164.9 134.1 165.2 133.8 165.5 133.4L166 132.8C166.5 132.2 167 131.8 167.3 131.6C167.8 131.3 168.4 131.4 169.1 131.7C169.7 132 170.1 132.5 170.2 133.2C170.4 133.9 170.2 134.6 169.7 135.5C169.3 136.2 168.8 136.7 168.2 137C167.6 137.3 166.9 137.3 166.2 136.9L166.9 135.6C167.3 135.8 167.7 135.8 168 135.5C168.2 135.3 168.4 135.1 168.6 134.8C168.8 134.4 168.9 134.1 168.9 133.8C168.9 133.5 168.7 133.3 168.5 133.1C168.3 133 168 133 167.8 133.1C167.6 133.2 167.4 133.4 167 133.8L166.1 134.8C165.7 135.2 165.3 135.5 165 135.7C164.5 135.9 163.9 135.9 163.3 135.6C162.7 135.3 162.3 134.8 162.2 134.1C162.1 133.4 162.2 132.6 162.7 131.8C163.2 130.9 163.7 130.3 164.4 130.1C165.1 129.8 165.7 129.9 166.4 130.2L165.6 131.4Z" fill="#F27524" stroke="#F27524" stroke-width="0.2" stroke-miterlimit="10"/>
<path d="M163.6 143.2C163.7 144.1 163.5 144.9 162.9 145.6C162.1 146.6 161.2 147.1 160.2 147C159.6 147 159.2 146.8 158.8 146.6L159.8 145.3C160.1 145.4 160.4 145.5 160.7 145.5C161.1 145.5 161.5 145.2 161.9 144.8C162.2 144.4 162.3 143.9 162.2 143.3C162 142.8 161.6 142.2 160.9 141.7C160.2 141.2 159.6 140.9 159.1 141C158.6 141 158.1 141.2 157.8 141.7C157.5 142.1 157.4 142.6 157.5 143C157.6 143.2 157.7 143.5 158 143.8L157 145C156.4 144.4 156.1 143.7 156 143C155.9 142.2 156.2 141.5 156.7 140.8C157.4 139.9 158.1 139.5 159.1 139.4C160 139.3 161 139.7 162 140.4C162.9 141.3 163.5 142.2 163.6 143.2Z" fill="#F27524" stroke="#F27524" stroke-width="0.2" stroke-miterlimit="10"/>
<path d="M153.1 155.9C152.8 156 152.5 156 152.2 156C152 156 151.7 155.9 151.5 155.8C151.3 155.7 151.1 155.5 150.8 155.3C150.6 155 150.4 154.7 150.3 154.3C150.2 153.9 150.2 153.5 150.4 153.1C150.1 153.2 149.7 153.3 149.5 153.2C149.2 153.1 148.9 152.9 148.5 152.5L148.1 152.1C147.9 151.8 147.7 151.7 147.6 151.6C147.4 151.5 147.3 151.5 147.1 151.5L147 151.4L148.3 150.2C148.5 150.3 148.6 150.4 148.7 150.4C148.9 150.5 149 150.7 149.2 150.8L149.7 151.3C150 151.6 150.3 151.8 150.5 151.8C150.7 151.8 151 151.7 151.3 151.4L152.4 150.3L150.4 148.2L151.5 147.1L156.7 152.6L154.1 155.1C153.7 155.6 153.4 155.8 153.1 155.9ZM154.7 152.8L153.3 151.3L152.1 152.5C151.9 152.7 151.7 152.9 151.6 153.1C151.5 153.4 151.6 153.7 151.9 154C152.2 154.3 152.5 154.5 152.9 154.4C153.1 154.4 153.3 154.2 153.5 154L154.7 152.8Z" fill="#F27524" stroke="#F27524" stroke-width="0.2" stroke-miterlimit="10"/>
<path d="M138.7 158.6C138.8 157.8 139.4 157.1 140.2 156.5C141.1 155.9 141.9 155.7 142.7 155.8C143.7 156 144.6 156.6 145.4 157.7C146.2 158.8 146.5 159.9 146.2 160.9C146.1 161.7 145.5 162.4 144.7 163C143.8 163.6 143 163.8 142.2 163.7C141.2 163.6 140.3 162.9 139.5 161.8C138.7 160.7 138.4 159.6 138.7 158.6ZM140.1 159C140.1 159.6 140.3 160.2 140.8 160.9C141.3 161.6 141.8 162 142.4 162.2C143 162.4 143.5 162.3 144 161.9C144.5 161.5 144.8 161.1 144.8 160.5C144.8 159.9 144.6 159.3 144.1 158.6C143.6 157.9 143.1 157.5 142.5 157.3C141.9 157.1 141.4 157.2 140.9 157.6C140.4 157.9 140.2 158.4 140.1 159Z" fill="#F27524" stroke="#F27524" stroke-width="0.2" stroke-miterlimit="10"/>
<path d="M136.3 167.9L134.9 168.6L132.2 163L128.8 164.6L128.2 163.4L133 161.1L136.3 167.9Z" fill="#F27524" stroke="#F27524" stroke-width="0.2" stroke-miterlimit="10"/>
<path d="M126 172.3L124.5 172.8L122.7 166.9L119 168L118.6 166.7L123.7 165.1L126 172.3Z" fill="#F27524" stroke="#F27524" stroke-width="0.2" stroke-miterlimit="10"/>
<path d="M103.5 176.3C103 176.2 102.5 175.9 102.2 175.4C101.9 175 101.7 174.6 101.6 174.2C101.5 173.8 101.4 173.4 101.4 173C101.3 172 101.5 171.1 101.9 170.4C102.4 169.4 103.2 168.9 104.3 168.8L107.6 168.6L108 176.1L104.7 176.3C104.2 176.5 103.8 176.4 103.5 176.3ZM106.3 175L106 170.1L104.5 170.2C103.8 170.2 103.3 170.6 103 171.4C102.9 171.8 102.8 172.3 102.8 172.9C102.8 173.7 103 174.2 103.3 174.6C103.6 175 104.1 175.2 104.8 175.1L106.3 175Z" fill="#F27524" stroke="#F27524" stroke-width="0.2" stroke-miterlimit="10"/>
<path d="M90.3001 169C90.9001 168.5 91.8001 168.3 92.9001 168.4C94.0001 168.5 94.8001 168.9 95.3001 169.5C96.0001 170.3 96.3001 171.4 96.1001 172.7C96.0001 174.1 95.5001 175.1 94.6001 175.7C94.0001 176.2 93.1001 176.4 92.0001 176.3C90.9001 176.2 90.1001 175.8 89.6001 175.2C88.9001 174.4 88.6001 173.4 88.8001 172C89.0001 170.6 89.5001 169.6 90.3001 169ZM91.2001 170.3C90.8001 170.7 90.5001 171.4 90.4001 172.2C90.3001 173 90.4001 173.7 90.7001 174.2C91.0001 174.7 91.5001 175 92.1001 175C92.7001 175.1 93.2001 174.9 93.7001 174.5C94.1001 174.1 94.4001 173.4 94.5001 172.6C94.6001 171.8 94.5001 171.1 94.1001 170.6C93.7001 170.1 93.3001 169.8 92.7001 169.8C92.1001 169.7 91.6001 169.8 91.2001 170.3Z" fill="#F27524" stroke="#F27524" stroke-width="0.2" stroke-miterlimit="10"/>
<path d="M81.3002 174.3L81.5002 169.9L81.6002 168.7L81.1002 169.8L79.1002 173.7L77.5002 173.2L77.8002 168.8L77.9002 167.6L77.4002 168.6L75.2002 172.5L73.7002 172.1L77.8002 165.4L79.3002 165.8L78.9002 170.3L78.7002 171.8L79.4002 170.5L81.5002 166.5L82.9002 166.9V174.8L81.3002 174.3Z" fill="#F27524" stroke="#F27524" stroke-width="0.2" stroke-miterlimit="10"/>
<path d="M68.3003 169.8L66.8003 169.1L66.4003 163L64.1003 167.7L62.8003 167.1L66.1003 160.3L67.5003 161L67.9003 167.2L70.3003 162.4L71.6003 163L68.3003 169.8Z" fill="#F27524" stroke="#F27524" stroke-width="0.2" stroke-miterlimit="10"/>
<path d="M48.6003 150.1C48.8003 149.8 48.9003 149.6 49.0003 149.4C49.0003 149 48.8003 148.6 48.4003 148.1C48.1003 147.8 47.9003 147.6 47.7003 147.5C47.3003 147.3 46.9003 147.3 46.6003 147.6C46.4003 147.8 46.4003 148 46.4003 148.2C46.5003 148.5 46.6003 148.8 46.9003 149.2L47.3003 149.9C47.7003 150.6 48.0003 151.1 48.0003 151.5C48.1003 152.1 47.9003 152.7 47.4003 153.2C46.9003 153.7 46.3003 153.9 45.7003 153.8C45.0003 153.8 44.4003 153.4 43.7003 152.7C43.1003 152.1 42.8003 151.5 42.7003 150.8C42.6003 150.1 42.8003 149.5 43.4003 148.9L44.5003 150C44.2003 150.3 44.1003 150.7 44.2003 151.1C44.3003 151.4 44.5003 151.6 44.7003 151.9C45.0003 152.2 45.3003 152.4 45.6003 152.4C45.9003 152.5 46.1003 152.4 46.4003 152.2C46.6003 152 46.7003 151.8 46.6003 151.5C46.6003 151.3 46.4003 151 46.1003 150.6L45.4003 149.4C45.1003 148.9 44.9003 148.4 44.9003 148.1C44.8003 147.5 45.1003 147 45.5003 146.5C46.0003 146 46.6003 145.8 47.3003 145.9C48.0003 146 48.7003 146.4 49.4003 147.1C50.1003 147.8 50.5003 148.5 50.5003 149.3C50.6003 150 50.3003 150.7 49.8003 151.2L48.6003 150.1Z" fill="#F27524" stroke="#F27524" stroke-width="0.2" stroke-miterlimit="10"/>
<path d="M38 144.6C37.1 144.5 36.4 144 35.9 143.2C35.2 142.2 35 141.2 35.3 140.2C35.5 139.7 35.8 139.3 36.2 139L37.1 140.3C36.9 140.6 36.7 140.9 36.7 141.1C36.6 141.5 36.7 142 37 142.4C37.3 142.9 37.8 143.1 38.3 143.1C38.9 143.1 39.5 142.9 40.2 142.4C40.9 141.9 41.3 141.4 41.5 140.9C41.6 140.4 41.6 139.9 41.3 139.5C41 139.1 40.6 138.8 40.1 138.8C39.8 138.8 39.5 138.8 39.2 139L38.3 137.7C39.1 137.3 39.8 137.2 40.5 137.4C41.2 137.6 41.9 138 42.4 138.7C43 139.6 43.2 140.5 43 141.4C42.8 142.3 42.2 143.1 41.2 143.8C40 144.5 39 144.8 38 144.6Z" fill="#F27524" stroke="#F27524" stroke-width="0.2" stroke-miterlimit="10"/>
<path d="M29 130.7C29 130.4 29 130.1 29.2 129.8C29.3 129.6 29.4 129.4 29.6 129.2C29.8 129 30 128.9 30.3 128.7C30.6 128.5 31 128.5 31.4 128.5C31.8 128.5 32.1 128.7 32.5 129C32.5 128.6 32.5 128.3 32.7 128.1C32.9 127.9 33.2 127.6 33.7 127.4L34.2 127.2C34.5 127 34.7 126.9 34.8 126.9C35 126.8 35 126.6 35.1 126.4L35.3 126.3L36.1 127.9C36 128 35.9 128.1 35.8 128.2C35.6 128.3 35.4 128.4 35.2 128.5L34.6 128.8C34.2 129 33.9 129.2 33.8 129.4C33.7 129.6 33.8 129.9 34 130.3L34.7 131.7L37.4 130.4L38.1 131.8L31.3 135.1L29.7 131.9C29.2 131.4 29 131.1 29 130.7ZM31.5 133.2L33.3 132.3L32.6 130.8C32.5 130.5 32.3 130.3 32.2 130.2C31.9 130 31.6 130 31.2 130.2C30.8 130.4 30.6 130.7 30.6 131C30.6 131.2 30.7 131.4 30.8 131.7L31.5 133.2Z" fill="#F27524" stroke="#F27524" stroke-width="0.2" stroke-miterlimit="10"/>
<path d="M30.8002 116.2C31.5002 116.6 32.0002 117.3 32.4002 118.3C32.7002 119.3 32.7002 120.2 32.3002 120.9C31.8002 121.8 30.9002 122.5 29.6002 122.9C28.3002 123.3 27.2002 123.2 26.3002 122.7C25.6002 122.3 25.1002 121.6 24.7002 120.6C24.4002 119.6 24.4002 118.7 24.8002 118C25.2002 117.1 26.1002 116.4 27.5002 116C28.8002 115.6 29.9002 115.7 30.8002 116.2ZM30.0002 117.5C29.5002 117.3 28.8002 117.3 28.0002 117.5C27.2002 117.7 26.6002 118.1 26.3002 118.6C26.0002 119.1 25.9002 119.6 26.1002 120.2C26.3002 120.8 26.6002 121.2 27.2002 121.4C27.7002 121.6 28.4002 121.6 29.2002 121.4C30.0002 121.2 30.6002 120.8 30.9002 120.3C31.2002 119.8 31.3002 119.3 31.1002 118.7C30.9002 118.1 30.6002 117.7 30.0002 117.5Z" fill="#F27524" stroke="#F27524" stroke-width="0.2" stroke-miterlimit="10"/>
<path d="M22.7 111.1L22.5 109.5L28.6 108.7L28.1 105L29.4 104.8L30.1 110.1L22.7 111.1Z" fill="#F27524" stroke="#F27524" stroke-width="0.2" stroke-miterlimit="10"/>
<path d="M21.6001 99.9V98.3H27.8001V94.5H29.2001V99.9H21.6001Z" fill="#F27524" stroke="#F27524" stroke-width="0.2" stroke-miterlimit="10"/>
<path d="M24.6002 77.3001C24.9002 76.8001 25.3002 76.5001 25.8002 76.3001C26.2002 76.1001 26.7002 76.1001 27.1002 76.1001C27.5002 76.1001 28.0002 76.2001 28.3002 76.3001C29.3002 76.5001 30.1002 76.9001 30.6002 77.5001C31.4002 78.3001 31.6002 79.2001 31.3002 80.3001L30.5002 83.5001L23.2002 81.7001L24.0002 78.5001C24.3002 77.9001 24.4002 77.5001 24.6002 77.3001ZM25.0002 80.3001L29.8002 81.5001L30.2002 80.1001C30.4002 79.4001 30.2002 78.8001 29.5002 78.3001C29.1002 78.0001 28.7002 77.8001 28.2002 77.7001C27.5002 77.5001 26.9002 77.5001 26.4002 77.6001C25.9002 77.7001 25.6002 78.1001 25.4002 78.8001L25.0002 80.3001Z" fill="#F27524" stroke="#F27524" stroke-width="0.2" stroke-miterlimit="10"/>
<path d="M35.5 66.9C35.8 67.7 35.8 68.5 35.3 69.5C34.9 70.5 34.3 71.1 33.5 71.4C32.5 71.8 31.4 71.7 30.2 71.2C29 70.7 28.2 70 27.8 69C27.5 68.2 27.5 67.4 28 66.4C28.4 65.4 29 64.8 29.8 64.5C30.7 64.1 31.8 64.1 33.1 64.7C34.4 65.2 35.2 66 35.5 66.9ZM34.1 67.4C33.8 66.9 33.3 66.4 32.5 66.1C31.7 65.8 31 65.7 30.5 65.8C29.9 66 29.5 66.3 29.3 66.9C29.1 67.5 29.1 68 29.3 68.5C29.6 69 30.1 69.5 30.9 69.8C31.7 70.1 32.4 70.2 32.9 70.1C33.4 70 33.9 69.6 34.1 69C34.4 68.5 34.4 67.9 34.1 67.4Z" fill="#F27524" stroke="#F27524" stroke-width="0.2" stroke-miterlimit="10"/>
<path d="M33.2003 56.7998L37.4003 58.3998L38.5003 58.8998L37.6003 57.9998L34.5003 54.8998L35.4003 53.4998L39.5003 55.1998L40.6003 55.6998L39.8003 54.8998L36.7003 51.5998L37.6003 50.2998L42.7003 56.2998L41.9003 57.5998L37.7003 55.8998L36.3003 55.2998L37.4003 56.2998L40.6003 59.4998L39.8003 60.6998L32.3003 58.2998L33.2003 56.7998Z" fill="#F27524" stroke="#F27524" stroke-width="0.2" stroke-miterlimit="10"/>
<path d="M41.5 45.7002L42.6 44.5002L48.5 46.0002L44.7 42.3002L45.7 41.2002L51.1 46.4002L50 47.5002L44 46.0002L47.9 49.7002L46.9 50.8002L41.5 45.7002Z" fill="#F27524" stroke="#F27524" stroke-width="0.2" stroke-miterlimit="10"/>
</g>
<defs>
<clipPath id="clip0_453_212780">
<rect width="200" height="200" fill="white"/>
</clipPath>
</defs>
</svg>
