<svg width="320" height="84" viewBox="0 0 320 84" fill="none" xmlns="http://www.w3.org/2000/svg">
<path d="M65.8779 47.0255C70.3401 50.2228 72.9184 54.3475 74.2956 57.2451C76.1788 61.2078 76.6443 64.5504 76.4519 66.3572L78.575 66.5829C78.8641 63.8678 77.9853 60.0343 76.2241 56.3285C75.5429 54.8952 74.5885 53.1833 73.2883 51.4152C71.7539 49.3287 69.7377 47.1642 67.1216 45.29C55.8307 37.2006 42.254 40.6876 32.8529 45.0375L33.7494 46.975C42.6353 42.8635 55.4226 39.5349 65.8779 47.0255Z" fill="#F37423"/>
<path d="M1.96199 68.396L1.96231 68.3955C2.0605 68.23 2.16137 68.042 2.24807 67.8804C2.28468 67.8121 2.31877 67.7486 2.34906 67.6935C2.46553 67.4814 2.56296 67.3215 2.6635 67.1939C2.83191 66.9802 2.99083 66.8701 3.29453 66.8486C3.43279 66.8389 3.5445 66.8038 3.62097 66.773C3.69644 66.7427 3.75426 66.7097 3.78597 66.6906C3.8029 66.6805 3.81695 66.6715 3.82602 66.6657L3.83103 66.6624C4.19336 66.4559 4.77834 66.0987 4.9422 65.4252C5.02682 65.0774 4.97095 64.7615 4.89561 64.52C4.82263 64.2862 4.70919 64.054 4.59811 63.8432M1.96199 68.396L3.71342 64.3094M1.96199 68.396C1.9346 68.4421 1.90813 68.4929 1.864 68.5778L1.8631 68.5795C1.82394 68.6549 1.76876 68.761 1.70305 68.8686L1.70295 68.8688C1.45994 69.2665 1.09143 69.7252 0.499883 69.9043C-0.112534 70.0898 -0.679697 69.8934 -1.11666 69.6532L-1.11673 69.6532C-1.57683 69.4003 -2.06926 69.0493 -2.45591 68.5924L-2.45626 68.592C-2.83471 68.1443 -3.1615 67.971 -3.58198 67.9627C-3.99381 67.9547 -4.4004 67.8412 -4.75067 67.5777C-5.09341 67.3199 -5.30628 66.9756 -5.43888 66.6335C-5.55511 66.3335 -5.66721 66.0733 -5.78642 65.7966C-5.87744 65.5853 -5.97261 65.3644 -6.07694 65.1088L-6.07707 65.1085C-6.11358 65.019 -6.14584 64.9592 -6.17049 64.9212C-6.18775 64.925 -6.2093 64.9306 -6.23549 64.9389C-6.43268 65.0013 -6.60722 64.9969 -6.72362 64.9833C-6.83185 64.9706 -6.92385 64.9452 -6.96778 64.9328C-7.01175 64.9204 -7.04165 64.9114 -7.0659 64.9041C-7.10703 64.8918 -7.13191 64.8843 -7.18164 64.8733L-8.11536 64.667M1.96199 68.396L-8.11536 64.667M4.59811 63.8432L3.71342 64.3094M4.59811 63.8432C4.59812 63.8432 4.59813 63.8433 4.59815 63.8433L3.71342 64.3094M4.59811 63.8432C4.38934 63.4469 4.25244 63.0059 4.08421 62.464C4.06737 62.4098 4.05022 62.3545 4.03264 62.2982M3.71342 64.3094C3.45864 63.8258 3.2934 63.2917 3.12993 62.7634C3.10924 62.6965 3.08857 62.6297 3.06775 62.5631C2.91699 62.0813 3.05335 61.7291 3.53769 61.4274C3.90189 61.2005 4.16817 60.9078 4.32912 60.571L4.33765 60.5724L4.34284 60.5416C4.46363 60.2769 4.52019 59.9858 4.50901 59.6788L4.52498 59.683C4.53394 59.6491 4.54188 59.6157 4.54885 59.5827C4.58525 59.4101 4.59508 59.2489 4.58561 59.0993C4.57307 58.9009 4.52662 58.7228 4.46325 58.5654M4.03264 62.2982C4.01656 62.3091 4.00358 62.3187 3.99327 62.3269C3.97658 62.3401 3.968 62.3486 3.96499 62.3518C3.96349 62.3534 3.96354 62.3535 3.96471 62.352C3.9658 62.3506 3.96784 62.348 3.97052 62.3439C3.97627 62.3352 3.98368 62.3222 3.99062 62.3051C3.9952 62.2939 3.99896 62.2824 4.00189 62.2711C4.00192 62.271 4.00195 62.2709 4.00198 62.2707C4.00349 62.2649 4.00477 62.2591 4.00583 62.2534C4.00892 62.2366 4.00949 62.2239 4.00943 62.2168C4.00941 62.2136 4.00926 62.2119 4.00927 62.2119C4.00928 62.2119 4.01078 62.2282 4.02211 62.2644L4.0222 62.2647C4.0257 62.2759 4.02918 62.2871 4.03264 62.2982ZM4.03264 62.2982C4.04267 62.2913 4.0539 62.284 4.06644 62.2762C5.05316 61.6615 5.59167 60.6501 5.50047 59.5068L5.43847 58.7296L4.66962 58.6002L4.46325 58.5654M4.46325 58.5654C4.36409 58.3191 4.22349 58.1236 4.10644 57.9804C4.05276 57.9147 3.99693 57.8512 3.9547 57.8033L3.94169 57.7885C3.8932 57.7333 3.86084 57.6959 3.83373 57.6617C3.81039 57.6322 3.79862 57.6144 3.79363 57.6064C3.42539 56.4138 2.50427 55.635 1.84506 55.0776C1.81862 55.0552 1.79261 55.0332 1.76706 55.0116C2.47478 55.1821 3.21753 55.1671 3.92424 54.9888L3.92429 54.9888C4.41254 54.8655 4.72479 55.0476 5.48893 55.5917C5.49476 55.5977 5.51476 55.6185 5.55465 55.6677C5.57727 55.6955 5.59668 55.7202 5.62083 55.7509C5.63689 55.7713 5.65505 55.7943 5.67765 55.8228C5.72789 55.886 5.7881 55.9605 5.85798 56.0406L6.42339 56.689L7.14898 56.2268C8.41895 55.4178 9.79246 54.3489 10.0556 52.4756L1.17806 55.8239C1.86857 56.4127 2.56699 57.0082 2.84173 57.9132C2.90602 58.1252 3.05501 58.2945 3.20311 58.4629C3.40687 58.6945 3.60894 58.9242 3.58639 59.2604L3.72455 58.4409L4.46325 58.5654ZM-7.76352 62.7328C-7.47397 61.8069 -7.37118 61.0757 -7.60469 60.3778L-7.60472 60.3777C-7.86405 59.6025 -7.73955 58.8745 -7.31117 58.2203L-7.31113 58.2202C-7.201 58.0521 -7.1051 57.8733 -6.98461 57.6487C-6.96924 57.6201 -6.95347 57.5907 -6.93722 57.5605C-6.80336 57.3116 -6.63809 57.0101 -6.42684 56.7226L-6.42679 56.7225C-6.26809 56.5065 -6.25557 56.3628 -6.271 56.2356C-6.29223 56.0604 -6.38194 55.8323 -6.57886 55.4956C-6.82382 56.1575 -7.20182 56.6982 -7.70205 57.1271C-8.28746 57.629 -8.99063 57.9352 -9.71984 58.1413C-9.71985 58.1413 -9.71986 58.1413 -9.71987 58.1413L-9.99182 57.179C-11.2185 57.5257 -12.3069 58.1953 -13.2476 59.0771M-7.76352 62.7328L-12.5638 59.8067L-13.2476 59.0771M-7.76352 62.7328C-7.8295 62.9436 -7.86481 63.1458 -7.88925 63.3071M-7.76352 62.7328L-7.88925 63.3071M-13.2476 59.0771L-12.5638 59.8067M-13.2476 59.0771C-13.4212 59.2398 -13.6002 59.3968 -13.7801 59.5547L-12.5638 59.8067M-12.5638 59.8067C-12.7496 59.9809 -12.9499 60.1567 -13.1357 60.3197C-13.2152 60.3895 -13.2921 60.457 -13.3641 60.521L-13.8081 60.9161M-12.5638 59.8067L-13.8081 60.9161M-21.7631 52.4751L-21.7694 52.4677C-21.7694 52.4677 -21.7694 52.4677 -21.7694 52.4677C-21.7667 52.4654 -21.7643 52.4633 -21.7622 52.4613C-21.7619 52.4544 -21.7618 52.4457 -21.762 52.4349C-21.7627 52.3946 -21.7678 52.3371 -21.7813 52.2527L-21.7813 52.2526C-21.8419 51.8738 -21.8419 51.4297 -21.842 51.0862C-21.842 50.9669 -21.842 50.8597 -21.8446 50.7716L-21.8704 49.8772L-20.9844 49.7525L-18.8181 49.4473C-18.8206 49.2821 -18.8192 49.0999 -18.8045 48.917C-18.7578 48.336 -18.5691 47.6591 -17.9237 47.112L-17.9236 47.1119C-17.9057 47.0968 -17.8832 47.0762 -17.8562 47.0514C-17.5872 46.805 -16.8711 46.1492 -15.8144 46.3871L-14.9826 46.5743L-15.0359 47.4252L-15.0432 47.5414C-15.0437 47.5497 -15.0443 47.558 -15.0448 47.5663C-14.9715 47.5534 -14.8883 47.5309 -14.7908 47.4939C-14.1925 47.267 -13.5683 47.2416 -13.0382 47.2616C-13.0181 47.2624 -12.9977 47.2632 -12.977 47.2642L-21.7631 52.4751C-21.7631 52.4751 -21.7631 52.4751 -21.7631 52.4751ZM-21.7631 52.4751L-21.7622 52.4762C-21.7629 52.4786 -21.7635 52.4806 -21.7639 52.4823C-21.7644 52.4842 -21.7637 52.4822 -21.7631 52.4751ZM0.532816 54.4909C0.471846 54.4996 0.408027 54.514 0.34227 54.536L0.532816 54.4909ZM0.532816 54.4909C0.518357 54.4818 0.503943 54.4725 0.489564 54.4632L0.532816 54.4909ZM13.0927 48.8418C12.8066 49.1537 12.4529 49.4552 12.1337 49.7208L10.4044 45.7272C10.1713 45.6604 9.93572 45.593 9.6982 45.5206M13.0927 48.8418L12.3558 48.1658L13.0926 48.842C13.0926 48.8419 13.0927 48.8419 13.0927 48.8418ZM13.0927 48.8418C13.5862 48.304 13.9057 47.5824 13.7298 46.8131C13.5531 46.04 12.948 45.5314 12.2646 45.2701L12.2645 45.2701C11.7368 45.0684 11.1637 44.9042 10.63 44.7512C10.6229 44.7492 10.6158 44.7471 10.6087 44.7451M10.6087 44.7451C10.6453 44.9635 10.6666 45.167 10.6843 45.3364C10.6871 45.3633 10.6899 45.3893 10.6925 45.4144L9.6982 45.5206M10.6087 44.7451C10.5486 44.3865 10.4472 43.9874 10.2524 43.6319C10.0692 43.2975 9.80051 42.9877 9.41557 42.7601C9.03747 42.5366 8.60156 42.4243 8.12684 42.3961L7.52472 42.3603L7.21221 42.8762C7.14125 42.9934 7.05432 43.0978 6.94496 43.1933M10.6087 44.7451C10.3939 44.6835 10.1856 44.6237 9.98959 44.564L9.6982 45.5206M9.6982 45.5206L6.94496 43.1933M6.94496 43.1933C6.91152 43.1319 6.87284 43.0703 6.82806 43.0093C6.63806 42.7505 6.38557 42.5668 6.10284 42.441L6.10279 42.441C5.57245 42.2052 4.96263 42.0819 4.34802 42.2264C3.71042 42.3763 3.20151 42.7831 2.84863 43.3542L2.84859 43.3542C2.66279 43.6549 2.43224 43.8358 2.0666 43.9723C0.685782 44.4876 -0.511785 45.2666 -1.60908 46.0796C-1.15811 45.4449 -0.818377 44.5674 -1.16999 43.6217L-1.17007 43.6214C-1.40837 42.981 -1.51424 42.3524 -1.53242 41.6554C-1.54468 41.1821 -1.57967 40.696 -1.61851 40.1561C-1.63663 39.9043 -1.65559 39.6408 -1.67347 39.3615L-1.71167 38.7649L-2.25525 38.5161C-2.29909 38.496 -2.36048 38.4638 -2.46601 38.407L-2.49101 38.3935C-2.58292 38.344 -2.69758 38.2822 -2.81996 38.2211C-3.08478 38.0888 -3.44026 37.9313 -3.8433 37.8502C-4.00307 37.818 -4.05393 37.7822 -4.06473 37.7741L-4.06517 37.7738C-4.07175 37.7689 -4.10279 37.7457 -4.14969 37.6439L-4.14987 37.6435C-4.22129 37.4887 -4.29839 37.3389 -4.36434 37.2108L-4.37821 37.1839C-4.45081 37.0428 -4.51045 36.9255 -4.56206 36.8104C-4.56761 36.798 -4.5732 36.7856 -4.5788 36.773C-4.66771 36.5743 -4.76227 36.3629 -4.86048 36.1918C-4.97128 35.9988 -5.14735 35.7441 -5.45146 35.5642C-5.75407 35.3852 -6.06148 35.3525 -6.2836 35.3471C-6.32375 35.3461 -6.36529 35.3461 -6.40785 35.3467C-7.19519 34.2788 -7.96121 33.6044 -8.99972 33.2268M6.94496 43.1933L-11.9058 35.0872C-11.6861 34.9666 -11.5612 34.8168 -11.4907 34.5155L-11.4906 34.5152C-11.3881 34.0777 -11.1578 33.4817 -10.5385 33.1955C-9.96456 32.9302 -9.37558 33.0901 -8.99972 33.2268M-8.99972 33.2268L-9.34138 34.1665L-8.99955 33.2269C-8.99961 33.2269 -8.99967 33.2269 -8.99972 33.2268ZM-14.8311 37.6112L-14.4835 38.7546C-14.4494 38.8666 -14.4327 38.9433 -14.4108 39.043C-14.3945 39.1178 -14.3753 39.2055 -14.3439 39.3308C-14.2889 39.55 -14.1907 39.8951 -13.9518 40.2052L-13.9517 40.2053C-13.7997 40.4027 -13.778 40.5755 -13.7098 41.1177C-13.7036 41.1672 -13.697 41.2198 -13.6899 41.2757L-13.6899 41.2758C-13.6897 41.2775 -13.6895 41.2791 -13.6892 41.2808C-13.7069 41.2884 -13.7269 41.2965 -13.7495 41.3053L-13.7497 41.3053C-14.1529 41.4607 -14.5935 41.7083 -14.93 42.1226C-15.283 42.5573 -15.4589 43.0989 -15.4412 43.7123L-15.4245 44.2928L-14.912 44.5659C-14.2881 44.8985 -13.8916 45.3977 -13.6536 46.1224L-14.8311 37.6112ZM-14.8311 37.6112L-13.6443 37.4707M-14.8311 37.6112L-13.6443 37.4707M-13.6443 37.4707C-13.3829 37.4397 -13.3261 37.3691 -13.3162 37.3567C-13.3159 37.3563 -13.3156 37.356 -13.3153 37.3557C-13.2842 37.3184 -13.2192 37.2074 -13.1803 36.9085M-13.6443 37.4707L-13.1803 36.9085M-13.8081 60.9161L-14.3674 60.7148M-13.8081 60.9161L-14.3674 60.7148M-14.3674 60.7148C-14.4258 60.6938 -14.488 60.6722 -14.5533 60.6496C-15.1857 60.4302 -16.1122 60.1089 -16.7047 59.2119L-14.3674 60.7148ZM-8.11536 64.667L-7.95097 63.725M-8.11536 64.667L-7.95097 63.725M-7.95097 63.725C-7.93687 63.6442 -7.92814 63.5809 -7.91752 63.5041M-7.95097 63.725L-7.91752 63.5041M-13.1803 36.9085C-13.0746 36.0964 -12.6033 35.4698 -11.9059 35.0872L-13.1803 36.9085ZM-7.91752 63.5041C-7.90994 63.4492 -7.9014 63.3873 -7.88925 63.3071M-7.91752 63.5041L-7.88925 63.3071M-6.83892 63.0321L-6.83883 63.0321L-6.83892 63.0321ZM-3.01084 48.1366C-2.9359 47.7801 -2.81299 47.4625 -2.64818 47.1784C-2.90143 47.4119 -3.15802 47.6366 -3.41328 47.854L-3.41332 47.8541C-3.41954 47.8594 -3.42518 47.8643 -3.43028 47.869C-3.32624 48.1259 -3.23076 48.36 -3.13077 48.5782C-3.08339 48.4322 -3.0432 48.2907 -3.01086 48.1367L-3.01084 48.1366ZM3.84362 66.6541C3.84657 66.6523 3.84694 66.652 3.84374 66.6541L3.84362 66.6541ZM-0.550372 54.1301C-0.551738 54.1301 -0.553092 54.1301 -0.554459 54.1301L0.489459 54.4631C0.104596 54.2131 -0.229375 54.1281 -0.550372 54.1301ZM-20.1975 57.9679C-20.2325 57.9279 -20.3461 57.8369 -20.692 57.7159L-20.1652 58.2429C-20.1542 58.1088 -20.1676 58.0389 -20.1757 58.0104C-20.1822 57.9875 -20.1884 57.9784 -20.1975 57.9679ZM-18.1492 59.7492C-18.495 59.8622 -19.0164 59.9305 -19.4953 59.6454C-20.0512 59.3145 -20.2052 58.7271 -20.1652 58.243L-18.1492 59.7492Z" fill="#F37524" stroke="#F37524" stroke-width="2"/>
<path d="M106.995 64.4765C104.743 66.1467 104.587 66.1537 101.908 63.6278C99.4544 61.2611 97.001 58.8942 94.5735 56.5625C93.2905 55.3394 93.506 53.168 95.2555 51.5443C98.001 49.0188 100.53 46.2735 103.085 43.5632C103.665 42.9698 104.046 42.9045 104.818 43.5828C107.99 46.3403 111.016 49.2614 113.539 52.6637C114.268 53.6458 116.235 53.9811 115.672 55.5399C115.309 56.5706 114.122 57.2876 113.369 58.2269C111.62 60.2854 109.862 62.4046 106.995 64.4765Z" fill="black"/>
<path d="M267.403 50.1611C270.694 45.683 274.901 43.1231 277.851 41.7642C281.885 39.906 285.275 39.4754 287.101 39.6921L287.355 37.5457C284.611 37.22 280.719 38.063 276.946 39.8008C275.487 40.473 273.743 41.4183 271.937 42.713C269.806 44.241 267.591 46.2556 265.662 48.8811C257.336 60.2126 260.701 73.9984 264.99 83.568L266.962 82.6841C262.908 73.6389 259.694 60.654 267.403 50.1611Z" fill="#F37423"/>
<path d="M310.847 32.3036C311.034 33.0958 311.069 33.8942 310.951 34.6773C310.838 35.4218 310.587 36.116 310.203 36.7403C309.912 37.2129 309.552 37.636 309.13 38.0037C308.994 38.1226 308.851 38.2359 308.702 38.3429C308.017 38.8344 307.296 39.1589 306.559 39.3077C305.819 39.4573 304.996 39.4435 304.111 39.2665C303.361 39.1051 302.672 38.826 302.064 38.437C301.458 38.0491 300.933 37.5479 300.502 36.9473C299.46 35.4936 299.062 33.9923 299.285 32.3578C299.507 30.736 300.278 29.4726 301.641 28.4953C301.772 28.4013 301.908 28.3148 302.047 28.2333C302.548 27.9407 303.101 27.728 303.698 27.6017C304.466 27.439 305.252 27.4299 306.034 27.5746C306.767 27.711 307.473 28.0043 308.133 28.4462C308.8 28.8933 309.389 29.4698 309.884 30.16C310.337 30.7917 310.661 31.513 310.847 32.3036ZM307.168 23.9039C305.778 23.5883 304.418 23.5577 303.128 23.8128C301.835 24.0681 300.598 24.6153 299.449 25.4388C298.309 26.2565 297.392 27.2483 296.724 28.3868C296.058 29.5226 295.63 30.8168 295.452 32.2343C295.301 33.4494 295.388 34.6543 295.709 35.8153C296.027 36.968 296.58 38.0987 297.353 39.1756C298.134 40.2658 299.074 41.1562 300.147 41.822C301.221 42.4883 302.436 42.9307 303.76 43.1368C305.047 43.3365 306.301 43.2952 307.487 43.0137C308.674 42.7322 309.819 42.2003 310.888 41.4334C311.932 40.685 312.786 39.7834 313.427 38.7539C314.067 37.7257 314.503 36.5655 314.723 35.3051C314.955 33.9752 314.929 32.6661 314.647 31.4145C314.364 30.1612 313.831 28.9821 313.063 27.9103C312.314 26.8666 311.431 25.9937 310.437 25.3156C309.438 24.6334 308.336 24.158 307.168 23.9039Z" fill="#F37423"/>
<path d="M166.329 65.469L166.329 65.4687C166.54 65.352 166.763 65.2152 166.962 65.0934C167.049 65.0403 167.131 64.99 167.206 64.9456C167.476 64.7839 167.704 64.6597 167.921 64.5746C168.306 64.4237 168.639 64.3951 169.076 64.6107C169.202 64.6733 169.319 64.7001 169.403 64.7125C169.486 64.7248 169.555 64.7256 169.595 64.7252C169.621 64.7249 169.648 64.7236 169.661 64.7229C170.205 64.7292 170.969 64.7054 171.497 64.1587C171.768 63.8783 171.893 63.5463 171.96 63.2582C172.025 62.978 172.049 62.6683 172.062 62.3657M166.329 65.469L171.063 62.3213M166.329 65.469C166.26 65.507 166.19 65.5508 166.089 65.6148L166.088 65.6154C165.995 65.6741 165.871 65.7517 165.737 65.8238L165.737 65.8238C165.23 66.0964 164.601 66.3263 163.932 66.1658C163.241 66.0002 162.792 65.4912 162.48 64.9689L162.479 64.9688C162.145 64.4092 161.843 63.7332 161.718 63.0197L161.718 63.0192C161.58 62.2238 161.298 61.7335 160.746 61.3958C160.336 61.1454 160.004 60.7986 159.813 60.343C159.626 59.8963 159.612 59.4328 159.681 59.0042C159.747 58.5949 159.793 58.222 159.841 57.8306C159.877 57.5364 159.915 57.2317 159.963 56.8932L159.963 56.8929C160.012 56.5495 159.964 56.4239 159.952 56.4007L159.952 56.4C159.95 56.3965 159.946 56.3891 159.925 56.3746C159.896 56.3552 159.825 56.3162 159.678 56.2828C159.47 56.2357 159.316 56.1408 159.216 56.0657C159.123 55.9956 159.051 55.9213 159.012 55.8812C158.978 55.8458 158.952 55.8184 158.93 55.7945C158.887 55.7488 158.857 55.7161 158.802 55.6648L158.1 55.0152L158.717 54.2851C158.788 54.202 158.843 54.1313 158.908 54.049C158.952 53.9929 159.001 53.9313 159.061 53.8566C159.19 53.6971 159.35 53.5091 159.544 53.3327C160.479 52.4819 161.123 51.6862 161.336 50.67L161.336 50.6699C161.532 49.7329 162.082 49.0754 162.91 48.6636L162.91 48.6636C163.153 48.5425 163.387 48.3995 163.665 48.2296C163.701 48.2076 163.737 48.1852 163.775 48.1623C164.085 47.9731 164.449 47.7554 164.85 47.5823L164.85 47.5822C165.231 47.4175 165.392 47.2141 165.487 46.9944C165.602 46.729 165.65 46.3656 165.65 45.8459L165.65 45.8456C165.649 45.6893 165.628 45.5138 165.59 45.2915C165.589 45.2859 165.588 45.2802 165.587 45.2744C165.583 45.2784 165.579 45.2824 165.574 45.2864L165.574 45.2866M166.329 65.469L165.574 45.2866M172.062 62.3657L171.063 62.3213M172.062 62.3657C172.062 62.3657 172.062 62.3657 172.062 62.3658L171.063 62.3213M172.062 62.3657C172.089 61.7624 172.23 61.1573 172.394 60.4515C172.414 60.3655 172.434 60.278 172.455 60.1889L172.455 60.1886C172.474 60.1047 172.494 60.0639 172.502 60.0493M171.063 62.3213C171.094 61.6193 171.258 60.9194 171.419 60.227C171.44 60.1393 171.46 60.0518 171.48 59.9644C171.626 59.332 172.006 59.0297 172.739 59.0093M172.502 60.0493C172.499 60.0508 172.496 60.0521 172.495 60.0528M172.502 60.0493C172.505 60.0447 172.506 60.0429 172.506 60.0429C172.506 60.0429 172.503 60.0464 172.498 60.0507C172.497 60.0516 172.496 60.0523 172.495 60.0528M172.502 60.0493C172.526 60.0388 172.6 60.0136 172.767 60.0089L172.739 59.0093M172.495 60.0528C172.494 60.0535 172.494 60.0537 172.493 60.0537C172.493 60.0537 172.494 60.0534 172.495 60.0528ZM172.739 59.0093C173.779 58.9804 174.585 58.4648 175.006 57.5934L174.829 57.4459C175.102 57.1519 175.245 56.8416 175.313 56.5464L174.702 56.0358L174.2 56.6364M172.739 59.0093L174.2 56.6364M164.021 33.2002C163.807 33.0492 163.591 32.8999 163.388 32.771C162.825 32.4123 162.154 32.059 161.399 31.9318C161.098 31.8811 160.893 31.7998 160.701 31.6728C160.767 31.5747 160.833 31.4773 160.899 31.379L160.982 31.2555L161.458 30.548L160.834 29.9663C159.934 29.1265 158.87 29.3491 158.397 29.4481C158.347 29.4585 158.303 29.4676 158.267 29.4739L158.267 29.4739C157.295 29.6446 156.705 30.2111 156.303 30.7872C156.121 31.0482 155.966 31.3265 155.836 31.5639C155.745 31.5266 155.654 31.4893 155.563 31.4519C154.737 31.113 153.906 30.772 152.999 30.3999L152.171 30.0601L151.742 30.8452C151.68 30.9583 151.605 31.087 151.523 31.2264C151.303 31.604 151.036 32.0598 150.866 32.4961L150.866 32.4961C150.777 32.7253 150.715 32.8161 150.678 32.8554C150.663 32.8704 150.652 32.8786 150.638 32.8857C150.624 32.8934 150.59 32.9084 150.524 32.9201C150.524 32.9201 150.524 32.9201 150.524 32.9201L164.021 33.2002ZM164.021 33.2002C163.987 33.0597 163.957 32.9165 163.931 32.7705L164.021 33.2002ZM188.031 41.3096C188.067 41.1384 188.084 40.9465 188.062 40.7378C188.026 40.385 187.887 40.0634 187.679 39.7734L187.679 39.7734C187.268 39.2014 186.718 38.7175 186.019 38.5024C185.297 38.2804 184.546 38.3852 183.841 38.7598L183.841 38.7598C183.376 39.0062 182.938 39.0624 182.389 38.9671L188.031 41.3096ZM188.031 41.3096C188.394 41.2974 188.705 41.218 188.995 41.0609L189.525 40.7734L190.027 41.1083C190.507 41.4288 190.882 41.8051 191.13 42.2501C191.381 42.7022 191.469 43.1684 191.456 43.6139C191.441 44.1608 191.268 44.6973 191.082 45.1536C191.134 45.2078 191.186 45.2623 191.238 45.3171C191.727 45.8295 192.242 46.3683 192.688 46.9247L192.688 46.9247C193.238 47.6099 193.531 48.4696 193.263 49.3236C192.996 50.1741 192.266 50.7154 191.427 50.974C190.863 51.1479 190.229 51.2522 189.663 51.3452C189.658 51.3461 189.652 51.3469 189.647 51.3478C189.595 51.5526 189.538 51.7639 189.474 51.9621M188.031 41.3096L174.133 49.1748C174.805 50.5147 176.028 51.4359 177.427 51.8415L177.427 51.8415C178.196 52.0643 178.469 52.6062 178.959 53.6964C178.958 53.6958 178.963 53.7062 178.971 53.7368C178.979 53.7691 178.987 53.814 178.998 53.8841C179.003 53.914 179.008 53.9544 179.015 54.002C179.033 54.1317 179.059 54.3149 179.091 54.4849L179.252 55.3302L180.111 55.2976C182.072 55.2232 184.216 54.9208 185.642 53.0219C186.252 53.0033 186.863 53.2137 187.624 53.6089L188.59 54.1112L189.008 53.1051C189.05 53.0044 189.096 52.8982 189.144 52.7892C189.261 52.5188 189.386 52.2304 189.474 51.9621M189.474 51.9621C189.474 51.9619 189.474 51.9617 189.474 51.9615L188.523 51.652L189.474 51.9621ZM174.2 56.6364C174.162 56.6926 174.115 56.7482 174.06 56.803L174.2 56.6364ZM176.939 39.9372L176.826 38.9436C175.858 39.0533 175.012 39.4298 174.312 40.2023L174.312 40.2024C174.051 40.4897 173.78 40.7183 173.454 40.9926C173.451 40.9952 173.448 40.9977 173.445 41.0003C173.409 40.9777 173.381 40.9589 173.359 40.9421C173.375 40.4425 173.449 39.9322 173.532 39.3582L173.532 39.3581C173.542 39.292 173.556 39.2571 173.562 39.2429C173.566 39.2358 173.568 39.2323 173.569 39.2312C173.57 39.2301 173.57 39.2295 173.571 39.2288C173.572 39.2282 173.582 39.2183 173.613 39.2042C173.645 39.1893 173.7 39.17 173.787 39.1545L173.787 39.1545C174.56 39.0169 175.348 38.8563 176.13 38.644C177.167 38.3623 178.532 37.6365 178.793 36.1463L178.793 36.1461C178.95 35.2451 179.253 34.4493 179.698 33.6409C179.698 33.6409 179.698 33.6408 179.698 33.6408L178.822 33.1585L176.939 39.9372ZM176.939 39.9372L176.826 38.9436M176.939 39.9372L176.826 38.9436M168.016 21.0562L167.738 22.2186C167.702 22.3726 167.666 22.4834 167.622 22.6187C167.591 22.7135 167.557 22.8202 167.516 22.9622C167.436 23.2342 167.336 23.6332 167.392 24.071L167.392 24.0711C167.443 24.4692 167.322 24.7497 167.058 25.364C167.03 25.4308 166.999 25.5016 166.967 25.5769L166.967 25.5769C166.923 25.6809 166.889 25.7368 166.868 25.7643C166.865 25.7646 166.861 25.7648 166.857 25.7651C166.806 25.7679 166.717 25.7644 166.573 25.7409L166.573 25.7409C166.054 25.6563 165.459 25.6492 164.879 25.8671C164.275 26.0941 163.779 26.5314 163.43 27.1689L163.151 27.6783L163.456 28.1728C163.975 29.017 164.098 29.9051 163.878 30.9267C163.731 31.6066 163.851 32.3111 163.931 32.77L168.016 21.0562ZM168.016 21.0562L169.111 21.5341M168.016 21.0562L169.111 21.5341M169.111 21.5341C169.482 21.6962 169.665 21.6621 169.762 21.627C169.894 21.5793 170.079 21.4501 170.331 21.1247L169.111 21.5341ZM151.996 43.2047C151.97 43.1937 151.937 43.1808 151.895 43.1668C151.8 43.1348 151.689 43.1067 151.548 43.0735C151.316 43.019 151.069 42.9837 150.773 42.9436C150.756 42.9413 150.739 42.9389 150.722 42.9366C150.452 42.9001 150.138 42.8576 149.825 42.7897M151.996 43.2047L149.825 42.7897M151.996 43.2047C151.995 44.5841 152.798 45.5254 153.388 46.2181C153.445 46.285 153.501 46.3497 153.553 46.4122L153.934 46.8683L154.517 46.7515C154.642 46.7264 154.773 46.701 154.908 46.675C155.218 46.615 155.547 46.5516 155.861 46.48L151.996 43.2047ZM149.825 42.7897C149.825 42.7897 149.825 42.7897 149.825 42.7897L150.037 41.8124L149.825 42.7897ZM149.825 42.7897C149.408 42.6994 148.878 42.4675 148.588 41.9417C148.254 41.3375 148.422 40.7046 148.739 40.2527C148.956 39.9427 148.944 39.791 148.928 39.7092C148.901 39.5673 148.794 39.346 148.48 38.9769L149.825 42.7897ZM165.574 45.2866C164.805 46.045 163.947 46.4898 163.008 46.6602M165.574 45.2866L163.008 46.6602M176.826 38.9436C178.621 38.7402 180.492 38.6372 182.389 38.9671L176.826 38.9436ZM163.008 46.6602C162.087 46.8271 161.152 46.7188 160.233 46.4802L163.008 46.6602ZM166.926 37.6042C166.929 37.6637 166.931 37.7234 166.933 37.7832L166.933 37.7834C166.937 37.9883 166.985 38.2229 167.068 38.4671C167.206 38.1156 167.2 38.0244 167.193 37.9893L167.193 37.9891C167.191 37.9808 167.179 37.9204 167.062 37.7675C167.024 37.7177 166.979 37.6638 166.926 37.6042ZM169.64 64.7227C169.641 64.7227 169.641 64.7227 169.642 64.7227C169.642 64.7227 169.641 64.7227 169.641 64.7227L169.64 64.7227ZM176.914 19.7609C177.798 20.8259 178.196 22.0496 178.365 23.7916L172.694 20.0417C173.1 20.0528 173.413 19.933 173.74 19.5879L173.741 19.5877C174.12 19.188 174.681 18.7576 175.419 18.829C176.108 18.8956 176.594 19.3748 176.914 19.7609ZM166.848 25.7874C166.849 25.7876 166.85 25.7861 166.854 25.7822C166.85 25.7852 166.848 25.7871 166.848 25.7874ZM174.612 50.6685C174.612 50.6687 174.612 50.6689 174.612 50.6691L173.608 49.5677C173.954 49.6399 174.162 49.8548 174.248 49.9569C174.347 50.0735 174.412 50.1924 174.452 50.2707C174.527 50.4218 174.582 50.5835 174.609 50.6607L174.612 50.6685ZM172.278 47.8547C172.513 48.1061 172.682 48.3802 172.808 48.6004C172.866 48.7012 172.912 48.7833 172.952 48.8564C173.015 48.9701 173.065 49.0621 173.133 49.1687C173.306 49.4434 173.42 49.5281 173.608 49.5675L172.278 47.8547ZM173.083 48.0108C172.815 47.8568 172.501 47.7399 172.127 47.6574L174.133 49.1747C173.845 48.6013 173.492 48.247 173.083 48.0108ZM170.331 21.1247C170.915 20.3707 171.754 20.0157 172.694 20.0417L170.331 21.1247ZM160.233 46.4802C158.827 46.1153 157.349 46.1415 155.861 46.48L160.233 46.4802Z" stroke="#F37524" stroke-width="2"/>
<path d="M226.184 34.1545C226.237 34.408 226.238 34.6317 226.03 34.8591C225.726 35.1904 225.483 35.5766 225.161 36.011C224.718 35.9891 224.343 36.2243 224.195 36.7813C224.12 37.066 223.863 37.0663 223.632 37.0924C223.273 37.133 222.913 37.1725 222.566 37.2112C222.562 37.8336 222.793 38.4427 223.263 39.1236C223.219 39.1697 223.177 39.221 223.127 39.265C222.64 39.7011 222.631 39.7643 223.014 40.2878C223.163 40.4915 223.324 40.6866 223.476 40.8809C223.232 41.139 222.947 41.3553 222.778 41.6405C222.557 42.0142 222.887 42.3251 222.989 42.4976C222.734 42.982 222.496 43.347 222.347 43.7456C222.227 44.0697 222.355 44.2017 222.712 44.2431C223.291 44.3103 223.852 44.2543 224.329 43.9226C224.577 44.2712 224.797 44.5798 225.02 44.8934C225.279 44.7638 225.458 44.6746 225.606 44.6005C225.963 44.8905 226.281 45.1486 226.632 45.4338C226.788 46.0247 226.526 46.7084 226.766 47.4091C227.515 47.1367 228.345 47.1624 228.68 46.2191C229.043 46.3743 229.356 46.5082 229.728 46.667C229.671 46.4666 229.642 46.3648 229.613 46.2644C230.106 46.0928 230.106 46.0928 230.602 46.7036C230.733 46.3018 231.023 46.3071 231.248 46.3613C231.653 46.7418 231.971 47.0784 232.331 47.3605C232.495 47.4889 232.762 47.5961 232.949 47.5573C233.215 47.5023 233.332 47.2265 233.29 46.9476C233.223 46.4898 233.451 46.1011 233.711 45.8218C234.113 45.3906 234.326 44.9657 234.133 44.3538C234.318 44.2646 234.485 44.1115 234.641 44.1223C235.297 44.1676 235.611 43.7865 235.816 43.2477C236.273 43.1304 236.715 43.0169 237.14 42.9081C237.197 42.128 237.141 41.8597 236.609 41.2878C236.321 40.9791 236.309 40.701 236.553 40.4355C236.925 40.0331 236.817 39.6955 236.511 39.3414C236.438 39.2561 236.373 39.1634 236.288 39.0528C236.624 38.5804 236.791 38.0985 236.361 37.6063C236.495 37.4766 236.595 37.3817 236.692 37.2834C236.806 37.1677 236.932 37.06 237.027 36.9301C237.261 36.6101 237.156 36.3359 236.757 36.293C236.437 36.2584 236.109 36.2918 235.786 36.307C235.591 36.3162 235.397 36.3483 235.203 36.3702C235.181 36.3256 235.158 36.281 235.135 36.2364C235.286 36.0744 235.437 35.9125 235.673 35.6594C235.211 35.5146 234.816 35.3907 234.388 35.2567C234.459 34.9727 234.514 34.7547 234.599 34.4133C234.331 34.3306 234.101 34.2397 233.862 34.1904C233.528 34.1215 233.363 34.0595 233.298 33.8973C232.303 34.4472 231.167 34.7779 229.97 34.8314C228.696 34.8885 227.288 34.4082 226.156 33.6692C226.143 33.8272 226.149 33.9883 226.184 34.1545Z" fill="black"/>
</svg>
