<svg width="32" height="33" viewBox="0 0 32 33" fill="none" xmlns="http://www.w3.org/2000/svg">
<path d="M21.3335 4.00623H1.3335V21.3396H21.3335V4.00623Z" stroke="black" stroke-width="2" stroke-linecap="round" stroke-linejoin="round"/>
<path d="M21.3335 10.6729H26.6668L30.6668 14.6729V21.3396H21.3335V10.6729Z" stroke="black" stroke-width="2" stroke-linecap="round" stroke-linejoin="round"/>
<path d="M7.33333 28.0062C9.17428 28.0062 10.6667 26.5138 10.6667 24.6729C10.6667 22.8319 9.17428 21.3396 7.33333 21.3396C5.49238 21.3396 4 22.8319 4 24.6729C4 26.5138 5.49238 28.0062 7.33333 28.0062Z" stroke="black" stroke-width="2" stroke-linecap="round" stroke-linejoin="round"/>
<path d="M24.6668 28.0062C26.5078 28.0062 28.0002 26.5138 28.0002 24.6729C28.0002 22.8319 26.5078 21.3395 24.6668 21.3395C22.8259 21.3395 21.3335 22.8319 21.3335 24.6729C21.3335 26.5138 22.8259 28.0062 24.6668 28.0062Z" stroke="black" stroke-width="2" stroke-linecap="round" stroke-linejoin="round"/>
</svg>
