<svg width="118" height="131" viewBox="0 0 118 131" fill="none"
    xmlns="http://www.w3.org/2000/svg">
    <path d="M-8.62001 68.5075L-9.41224 69.1958L-8.62001 68.5075C-10.3348 66.5337 -10.3348 63.5986 -8.62001 61.6248L-6.91637 59.6638C-5.07535 57.5447 -4.60289 54.5617 -5.69897 51.9775L-6.71326 49.586C-7.73421 47.1789 -6.82721 44.3875 -4.58638 43.0402L-2.36015 41.7016C0.0455999 40.2552 1.41673 37.5642 1.17288 34.7677L0.947226 32.1798C0.720093 29.5751 2.44531 27.2005 4.99281 26.6116L7.52369 26.0265C10.2587 25.3943 12.3943 23.2587 13.0265 20.5237L13.6116 17.9928C14.2005 15.4453 16.5751 13.7201 19.1799 13.9472L21.7677 14.1729C24.5642 14.4167 27.2552 13.0456 28.7016 10.6398L30.0402 8.41363C31.3875 6.17279 34.1789 5.2658 36.586 6.28674L38.9775 7.30103C41.5617 8.39711 44.5447 7.92465 46.6638 6.08363L48.6248 4.37999C50.5986 2.66517 53.5337 2.66517 55.5075 4.37999L57.4685 6.08363C59.5876 7.92465 62.5706 8.39711 65.1548 7.30103L67.5463 6.28674C69.9534 5.26579 72.7448 6.17279 74.0921 8.41362L75.4307 10.6398C76.8771 13.0456 79.5681 14.4167 82.3646 14.1729L84.9524 13.9472C87.5572 13.7201 89.9318 15.4453 90.5207 17.9928L91.1058 20.5237C91.738 23.2587 93.8736 25.3943 96.6086 26.0265L99.1395 26.6116C101.687 27.2005 103.412 29.5751 103.185 32.1798L102.959 34.7677C102.716 37.5642 104.087 40.2552 106.492 41.7016L108.719 43.0401C110.959 44.3875 111.867 47.1789 110.846 49.586L109.831 51.9775C108.735 54.5617 109.208 57.5447 111.049 59.6638L112.752 61.6248C114.467 63.5986 114.467 66.5337 112.752 68.5075L111.049 70.4685C109.208 72.5876 108.735 75.5706 109.831 78.1548L110.846 80.5463C111.867 82.9534 110.959 85.7448 108.719 87.0921L106.492 88.4307C104.087 89.8771 102.716 92.5681 102.959 95.3646L103.185 97.9524C103.412 100.557 101.687 102.932 99.1395 103.521L96.6086 104.106C93.8736 104.738 91.738 106.874 91.1058 109.609L90.5207 112.139C89.9318 114.687 87.5572 116.412 84.9524 116.185L82.3646 115.959C79.5681 115.716 76.8771 117.087 75.4307 119.492L74.0921 121.719C72.7448 123.96 69.9534 124.867 67.5463 123.846L65.1548 122.831C62.5706 121.735 59.5876 122.208 57.4685 124.049L55.5075 125.752C53.5337 127.467 50.5986 127.467 48.6248 125.752L46.6638 124.049C44.5447 122.208 41.5617 121.735 38.9775 122.831L36.586 123.846C34.1789 124.867 31.3875 123.96 30.0402 121.719L28.7016 119.492C27.2552 117.087 24.5642 115.716 21.7677 115.959L19.1798 116.185C16.5751 116.412 14.2005 114.687 13.6116 112.139L13.0265 109.609C12.3943 106.874 10.2587 104.738 7.5237 104.106L4.9928 103.521C2.44531 102.932 0.720093 100.557 0.947227 97.9524L1.17288 95.3646C1.41673 92.5681 0.045599 89.8771 -2.36015 88.4307L-4.58637 87.0921C-6.82721 85.7448 -7.7342 82.9534 -6.71326 80.5463L-5.69897 78.1548C-4.60289 75.5706 -5.07535 72.5876 -6.91637 70.4685L-8.62001 68.5075Z" fill="#FFCE4E" stroke="#DB9C30" stroke-width="2.09891"/>
    <g clip-path="url(#clip0_68_3994)">
        <path d="M105.392 78.9764C105.392 78.9764 105.436 78.689 105.464 78.2148C105.493 77.7406 105.522 77.0796 105.522 76.318C105.507 75.5564 105.421 74.7086 105.292 73.8608C105.163 73.0274 104.904 72.1796 104.602 71.4468C104.214 70.5415 103.726 69.9236 103.251 69.5212C102.777 69.1045 102.303 68.9033 101.872 68.7884C101.024 68.5872 100.406 68.7884 100.406 68.7884C100.406 68.7884 100.449 69.0614 100.536 69.4781C100.622 69.9092 100.708 70.484 100.823 71.1019C100.924 71.7341 101.067 72.4095 101.168 73.013C101.283 73.6166 101.398 74.1626 101.541 74.5218C101.843 75.2403 102.792 76.3037 103.683 77.2377C104.128 77.7119 104.559 78.1286 104.875 78.4447C105.191 78.7609 105.392 78.9477 105.392 78.9477V78.9764Z" fill="#DB9C30"/>
        <path d="M95.9946 77.8125C96.2676 77.5826 96.6125 77.1947 96.9717 76.7061C97.3022 76.2319 97.6471 75.6715 97.9632 75.1542C98.2794 74.6369 98.5237 74.1196 98.7105 73.746C98.8973 73.3724 98.9978 73.1281 98.9978 73.1281C98.9978 73.1281 98.4518 72.7832 97.5753 72.7832C96.6987 72.7832 95.5491 73.1137 94.2703 74.2633C93.753 74.7231 93.2931 75.2691 92.8621 75.8008C92.4166 76.3325 92.0286 76.8785 91.7125 77.3671C91.0371 78.3298 90.6348 79.0771 90.6348 79.0771C90.6348 79.0771 91.6837 79.0196 92.8908 78.8328C93.4943 78.7322 94.1409 78.5885 94.7014 78.4304C95.2474 78.258 95.7216 78.0425 95.9946 77.8125Z" fill="#DB9C30"/>
        <path d="M99.184 77.6257C99.184 77.6257 99.184 77.8988 99.184 78.3155C99.184 78.7466 99.184 79.3357 99.184 79.9823C99.1552 80.6146 99.1552 81.3043 99.1696 81.9366C99.184 82.5689 99.1696 83.1149 99.2558 83.5029C99.3277 83.8765 99.5432 84.365 99.845 84.8824L102.819 86.1181C102.934 85.3565 103.049 84.48 103.078 83.6035C103.078 82.7126 103.021 81.8216 102.848 81.0169C102.374 79.0627 101.44 78.2436 100.65 77.8844C99.8593 77.5251 99.2127 77.6114 99.2127 77.6114L99.184 77.6257Z" fill="#DB9C30"/>
        <path d="M92.3159 81.7784L95.779 83.2154C96.4544 82.3676 96.986 81.6347 96.986 81.6347C96.986 81.6347 96.5262 81.218 95.7071 81.0456C94.8881 80.8731 93.7098 80.945 92.3159 81.7784Z" fill="#DB9C30"/>
        <path d="M106.959 65.0954H103.74C104.444 65.6702 105.349 66.2881 106.082 66.7623C106.815 67.2509 107.361 67.5814 107.361 67.5814C107.361 67.5814 107.26 66.5036 106.973 65.0811L106.959 65.0954Z" fill="#DB9C30"/>
        <path d="M92.9194 70.7714C92.9194 70.7714 93.9397 70.4984 95.0892 70.053C96.2532 69.6075 97.4602 68.9752 97.92 68.4005C98.4373 67.7826 98.969 66.3312 99.3857 65.0955H95.6353L95.5059 65.2679C95.0892 65.8283 94.73 66.4606 94.4426 67.0785C94.1408 67.6963 93.8535 68.3142 93.6379 68.8747C93.4367 69.4351 93.2356 69.8949 93.1206 70.2398C92.9913 70.5846 92.9338 70.7858 92.9338 70.7858L92.9194 70.7714Z" fill="#DB9C30"/>
        <path d="M96.0236 98.3467C96.0236 98.3467 96.1817 98.1024 96.3828 97.6713C96.584 97.2402 96.8714 96.6367 97.1588 95.947C97.7048 94.5387 98.2221 92.6994 98.1647 91.1044C98.1647 90.1273 97.9491 89.3657 97.6617 88.8053C97.3743 88.2449 97.0151 87.8569 96.6702 87.5983C95.9805 87.0809 95.3195 87.0378 95.3195 87.0378C95.3195 87.0378 95.262 87.2965 95.1758 87.7132C95.1327 87.9288 95.0752 88.173 95.0177 88.4604C94.9603 88.7335 94.8884 89.0208 94.8166 89.337C94.6585 89.9549 94.5435 90.6446 94.3998 91.2338C94.2561 91.8373 94.1699 92.3833 94.1699 92.7713C94.1699 93.5472 94.6297 94.898 95.1039 96.105C95.3339 96.7085 95.5638 97.269 95.7506 97.6857C95.923 98.088 96.0236 98.3467 96.0236 98.3467Z" fill="#DB9C30"/>
        <path d="M87.7898 93.6621C88.1347 93.5472 88.5945 93.3172 89.0974 93.0155C89.6004 92.7137 90.1177 92.3257 90.6062 91.9521C91.1092 91.5785 91.5259 91.2049 91.842 90.9319C92.1582 90.6445 92.345 90.4721 92.345 90.4721C92.345 90.4721 91.9713 89.9548 91.1667 89.6099C90.7643 89.4375 90.2614 89.3225 89.6722 89.3225C89.0687 89.3225 88.379 89.4375 87.5599 89.7105C86.8989 89.926 86.281 90.2565 85.6631 90.587C85.0452 90.9032 84.4848 91.2768 84.0106 91.6073C83.5077 91.9234 83.091 92.2108 82.8036 92.4263C82.5162 92.6419 82.3438 92.7712 82.3438 92.7712C82.3438 92.7712 82.6024 92.8718 82.9904 92.9867C83.3784 93.1017 83.9244 93.2741 84.5279 93.4035C85.7206 93.6909 87.1144 93.8777 87.7898 93.6621Z" fill="#DB9C30"/>
        <path d="M90.7931 94.7253C90.7931 94.7253 90.3764 95.7025 89.8735 96.8951C89.6148 97.4699 89.3418 98.1166 89.1119 98.7057C88.8676 99.2805 88.6664 99.7978 88.5946 100.171C88.5228 100.545 88.5371 101.077 88.609 101.68L90.8937 103.951C91.2961 103.29 91.7128 102.528 92.0864 101.723C92.4313 100.904 92.7043 100.056 92.8624 99.2517C93.1785 97.2687 92.6181 96.1623 92.0289 95.53C91.4398 94.8978 90.8075 94.7253 90.8075 94.7253H90.7931Z" fill="#DB9C30"/>
        <path d="M82.8608 95.9469L85.5192 98.5909C86.4676 98.0592 87.2292 97.585 87.2292 97.585C87.2292 97.585 86.9705 97.0246 86.2664 96.5504C85.5767 96.0762 84.4559 95.7026 82.8608 95.9469Z" fill="#DB9C30"/>
        <path d="M102.791 86.1181L99.8169 84.8823C100.277 85.7014 100.852 86.6067 101.34 87.3251C101.829 88.058 102.188 88.5753 102.188 88.5753C102.188 88.5753 102.274 88.3166 102.389 87.8856C102.504 87.4545 102.676 86.8366 102.791 86.1181Z" fill="#DB9C30"/>
        <path d="M87.646 85.9888C87.646 85.9888 88.695 86.1325 89.9164 86.1613C91.1665 86.2044 92.5173 86.0607 93.1639 85.7158C93.5088 85.529 93.9686 85.1698 94.4141 84.6956C94.8595 84.2358 95.3768 83.7185 95.7792 83.2155L92.3161 81.7786L92.1293 81.8935C91.5401 82.2528 90.9654 82.6982 90.4481 83.158C89.9451 83.6179 89.4278 84.0777 89.0255 84.5088C88.6088 84.9399 88.2639 85.2991 88.0196 85.5578C87.7753 85.8308 87.646 85.9888 87.646 85.9888Z" fill="#DB9C30"/>
        <path d="M79.9584 112.659C79.9584 112.659 80.1883 112.486 80.5476 112.184C80.9068 111.868 81.3954 111.409 81.9127 110.877C82.4444 110.345 82.9904 109.67 83.479 108.98C83.7232 108.635 83.9675 108.276 84.1687 107.917C84.3699 107.543 84.5423 107.17 84.686 106.796C85.4189 104.957 85.074 103.721 84.6429 102.988C84.1974 102.255 83.6083 101.953 83.6083 101.953C83.6083 101.953 83.0048 102.844 82.2576 103.879C82.0851 104.138 81.8983 104.411 81.6971 104.684C81.5103 104.957 81.3235 105.215 81.1367 105.474C80.7919 105.991 80.4901 106.465 80.3464 106.825C80.0303 107.529 79.9728 108.951 79.9441 110.259C79.9441 110.906 79.9441 111.509 79.9297 111.955C79.9297 112.386 79.9297 112.673 79.9297 112.673L79.9584 112.659Z" fill="#DB9C30"/>
        <path d="M74.1384 105.201C74.8425 105.244 76.222 105.043 77.4003 104.698C77.9894 104.54 78.5498 104.382 78.9378 104.238C79.3401 104.094 79.5844 103.994 79.5844 103.994C79.5844 103.994 79.4264 103.362 78.8228 102.758C78.5211 102.442 78.1044 102.14 77.544 101.91C77.2709 101.795 76.9548 101.695 76.6099 101.623C76.2651 101.551 75.8627 101.494 75.4316 101.465C74.7419 101.422 74.0378 101.494 73.348 101.551C72.6583 101.623 72.0117 101.767 71.4369 101.867C70.8621 101.968 70.3735 102.083 70.0287 102.183C69.6694 102.269 69.4683 102.313 69.4683 102.313C69.4683 102.313 70.2586 103.045 71.2357 103.735C72.2128 104.439 73.4486 105.158 74.1527 105.215L74.1384 105.201Z" fill="#DB9C30"/>
        <path d="M76.5238 107.313C76.5238 107.313 76.337 107.5 76.0209 107.802C75.8628 107.96 75.6904 108.147 75.4892 108.348C75.288 108.535 75.0581 108.75 74.8282 108.98C74.3684 109.411 73.8798 109.928 73.4344 110.36C72.9889 110.791 72.6153 111.207 72.3998 111.523C72.1842 111.84 72.0118 112.343 71.8394 112.917L73.0751 115.892C74.3397 114.987 75.8197 113.693 76.6819 112.285C77.2136 111.452 77.4435 110.704 77.5153 110.072C77.5872 109.454 77.4866 108.937 77.3429 108.535C77.0411 107.73 76.5095 107.328 76.5095 107.328L76.5238 107.313Z" fill="#DB9C30"/>
        <path d="M68.7212 105.416L70.1581 108.879C70.7042 108.836 71.1928 108.75 71.552 108.693C71.9112 108.635 72.1268 108.606 72.1268 108.606C72.1268 108.606 72.098 107.988 71.6382 107.299C71.1784 106.595 70.3018 105.833 68.7212 105.431V105.416Z" fill="#DB9C30"/>
        <path d="M90.8936 103.951L88.6089 101.68C88.7095 102.585 88.9106 103.663 89.0831 104.525C89.2555 105.373 89.3992 106.005 89.3992 106.005C89.3992 106.005 90.089 105.158 90.8936 103.951Z" fill="#DB9C30"/>
        <path d="M76.9404 98.0447C76.9404 98.0447 77.8457 98.5764 78.9665 99.065C79.5269 99.3092 80.1448 99.5392 80.7053 99.6972C81.2657 99.8553 81.783 99.9415 82.1278 99.8984C82.5158 99.8409 83.0906 99.6972 83.6797 99.4386C84.2689 99.1943 84.9299 98.8782 85.5047 98.5908L82.8463 95.9468L82.6308 95.9755C81.941 96.0761 81.2369 96.2629 80.6047 96.4928C79.9437 96.7084 79.3114 96.9526 78.7797 97.1969C78.2337 97.4268 77.7739 97.628 77.4434 97.7861C77.1129 97.9441 76.9404 98.0447 76.9404 98.0447Z" fill="#DB9C30"/>
        <path d="M59.6255 119.728C59.6255 119.728 59.8985 119.656 60.3583 119.513C60.8038 119.369 61.436 119.125 62.1258 118.823C62.8299 118.536 63.5771 118.133 64.31 117.673C64.6692 117.443 65.0284 117.214 65.3589 116.955C65.6894 116.696 65.9912 116.409 66.2786 116.121C67.6581 114.699 67.8161 113.449 67.7012 112.587C67.5718 111.724 67.1408 111.236 67.1408 111.236C67.1408 111.236 66.9108 111.38 66.566 111.624C66.2067 111.839 65.7038 112.155 65.1578 112.486C64.8991 112.658 64.6117 112.845 64.3387 113.018C64.0513 113.19 63.7783 113.363 63.5196 113.535C63.0023 113.88 62.5425 114.21 62.2695 114.483C61.7091 115.001 61.1056 116.308 60.5739 117.487C60.3152 118.076 60.0853 118.636 59.9129 119.039C59.7404 119.441 59.6399 119.7 59.6399 119.7L59.6255 119.728Z" fill="#DB9C30"/>
        <path d="M57.1248 110.604C57.7571 110.92 59.1078 111.265 60.3292 111.394C61.5363 111.566 62.5996 111.581 62.5996 111.581C62.5996 111.581 62.7002 110.949 62.3697 110.144C62.2116 109.742 61.9386 109.296 61.5219 108.879C61.1052 108.463 60.5304 108.032 59.7401 107.658C59.1222 107.356 58.4468 107.155 57.7858 106.939C57.1248 106.738 56.4782 106.623 55.9034 106.48C55.3286 106.35 54.8257 106.264 54.4808 106.221C54.1216 106.178 53.9204 106.135 53.9204 106.135C53.9204 106.135 54.0354 106.379 54.2222 106.753C54.409 107.126 54.682 107.615 55.0125 108.132C55.6448 109.152 56.5069 110.302 57.1392 110.618L57.1248 110.604Z" fill="#DB9C30"/>
        <path d="M58.5042 113.463C58.5042 113.463 58.2599 113.564 57.8575 113.736C57.6564 113.823 57.4265 113.909 57.1678 114.024C56.9092 114.124 56.6218 114.225 56.32 114.34C55.7309 114.57 55.0842 114.828 54.5094 115.087C53.9347 115.317 53.4174 115.547 53.1012 115.763C52.7851 115.978 52.4259 116.366 52.0522 116.84V120.059C52.7995 119.872 53.6473 119.628 54.4663 119.326C55.2854 119.01 56.0901 118.579 56.7655 118.119C57.5845 117.559 58.0875 116.941 58.3892 116.395C58.691 115.849 58.8059 115.331 58.8203 114.9C58.849 114.038 58.5185 113.463 58.5185 113.463H58.5042Z" fill="#DB9C30"/>
        <path d="M52.0381 108.736V112.486C53.0871 112.788 53.9636 112.989 53.9636 112.989C53.9636 112.989 54.1791 112.414 54.0211 111.581C53.863 110.762 53.3457 109.698 52.0381 108.736Z" fill="#DB9C30"/>
        <path d="M73.0749 115.877L71.8391 112.903C71.5804 113.779 71.3649 114.857 71.1925 115.719C71.0344 116.567 70.9194 117.214 70.9194 117.214C70.9194 117.214 70.9769 117.185 71.0919 117.127C71.1925 117.07 71.3505 116.969 71.5517 116.869C71.9397 116.639 72.4857 116.308 73.0892 115.892L73.0749 115.877Z" fill="#DB9C30"/>
        <path d="M62.4561 105.1C62.4561 105.1 63.0883 105.934 63.9361 106.81C64.3528 107.256 64.8414 107.701 65.3012 108.075C65.7611 108.434 66.2065 108.693 66.5514 108.793C66.925 108.894 67.5141 108.951 68.1608 108.966C68.8074 108.966 69.5115 108.923 70.1725 108.865L68.7355 105.402L68.52 105.345C67.8446 105.172 67.1405 105.115 66.4364 105.057C65.7467 105 65.0713 105 64.4822 105.014C63.3039 105.014 62.4561 105.1 62.4561 105.1Z" fill="#DB9C30"/>
        <path d="M38.1567 118.493C38.1567 118.493 38.4441 118.536 38.9183 118.55C39.3925 118.579 40.0535 118.608 40.8151 118.608C42.3383 118.564 44.2207 118.349 45.672 117.688C46.5773 117.314 47.1952 116.811 47.6119 116.337C48.0286 115.863 48.2298 115.374 48.3447 114.972C48.5459 114.124 48.3447 113.506 48.3447 113.506C48.3447 113.506 48.0861 113.549 47.655 113.636C47.2239 113.736 46.6491 113.822 46.0313 113.923C45.399 114.024 44.7236 114.167 44.1201 114.282C43.5166 114.383 42.9705 114.512 42.6113 114.656C41.8928 114.958 40.8295 115.906 39.8955 116.797C39.4356 117.242 39.0045 117.674 38.6884 117.99C38.3867 118.306 38.1855 118.507 38.1855 118.507L38.1567 118.493Z" fill="#DB9C30"/>
        <path d="M39.3351 109.081C39.565 109.354 39.953 109.698 40.4272 110.058C40.9014 110.388 41.4618 110.733 41.9935 111.049C42.5108 111.38 43.0281 111.61 43.4017 111.796C43.7753 111.983 44.0196 112.084 44.0196 112.084C44.0196 112.084 44.3501 111.538 44.3645 110.661C44.3645 109.785 44.0483 108.635 42.8844 107.356C42.4246 106.839 41.8785 106.379 41.3468 105.948C40.8008 105.503 40.2691 105.115 39.7806 104.798C38.8178 104.123 38.085 103.721 38.085 103.721C38.085 103.721 38.1424 104.77 38.3292 105.977C38.4298 106.58 38.5592 107.227 38.7316 107.787C38.904 108.333 39.1196 108.808 39.3495 109.081H39.3351Z" fill="#DB9C30"/>
        <path d="M39.5078 112.285C39.5078 112.285 39.2347 112.285 38.8036 112.285C38.3726 112.285 37.7834 112.285 37.1368 112.285C36.5045 112.256 35.8148 112.256 35.1825 112.285C34.5503 112.285 34.0042 112.285 33.6162 112.371C33.2426 112.429 32.7684 112.659 32.2368 112.946L31.001 115.92C31.7626 116.035 32.6391 116.15 33.5156 116.165C34.4066 116.165 35.2975 116.107 36.1022 115.935C38.0564 115.446 38.8755 114.527 39.2347 113.736C39.594 112.946 39.5078 112.299 39.5078 112.299V112.285Z" fill="#DB9C30"/>
        <path d="M35.3549 105.416L33.918 108.879C34.7658 109.569 35.4986 110.086 35.4986 110.086C35.4986 110.086 35.9153 109.627 36.0878 108.807C36.2602 108.003 36.1884 106.81 35.3549 105.416Z" fill="#DB9C30"/>
        <path d="M52.0377 120.059V116.84C51.4629 117.544 50.845 118.449 50.3708 119.182C49.8823 119.901 49.5518 120.461 49.5518 120.461C49.5518 120.461 50.6295 120.361 52.0521 120.073L52.0377 120.059Z" fill="#DB9C30"/>
        <path d="M46.3618 106.02C46.3618 106.02 46.6348 107.04 47.0803 108.19C47.5258 109.354 48.158 110.561 48.7328 111.02C49.3363 111.538 50.802 112.084 52.0378 112.486V108.736L51.8654 108.606C51.3049 108.19 50.6727 107.83 50.0548 107.543C49.4369 107.227 48.819 106.939 48.273 106.738C47.7269 106.537 47.2527 106.336 46.9079 106.221C46.563 106.106 46.3618 106.034 46.3618 106.034V106.02Z" fill="#DB9C30"/>
        <path d="M18.7861 109.081C18.7861 109.081 19.0304 109.239 19.4615 109.44C19.8926 109.655 20.4961 109.928 21.1858 110.216C22.5941 110.762 24.4334 111.279 26.0284 111.236C27.0199 111.236 27.7671 111.02 28.3275 110.733C28.8879 110.446 29.2759 110.086 29.5346 109.756C30.0519 109.052 30.095 108.405 30.095 108.405C30.095 108.405 29.8363 108.348 29.4196 108.261C29.2041 108.218 28.9598 108.161 28.6868 108.103C28.4137 108.032 28.1263 107.96 27.8102 107.888C27.1923 107.744 26.5026 107.615 25.9134 107.471C25.3099 107.342 24.7495 107.241 24.3759 107.241C23.5999 107.241 22.2636 107.715 21.0422 108.175C20.4386 108.405 19.8782 108.635 19.4615 108.807C19.0592 108.98 18.8005 109.081 18.8005 109.081H18.7861Z" fill="#DB9C30"/>
        <path d="M23.4857 100.861C23.6006 101.192 23.8305 101.666 24.1323 102.169C24.4341 102.672 24.822 103.189 25.1956 103.678C25.5549 104.18 25.9285 104.597 26.2159 104.913C26.5033 105.229 26.6757 105.431 26.6757 105.431C26.6757 105.431 27.193 105.043 27.5379 104.252C27.7103 103.85 27.8253 103.347 27.8396 102.744C27.8396 102.14 27.7247 101.45 27.4517 100.631C27.2361 99.9702 26.9056 99.3523 26.5751 98.7344C26.2446 98.1165 25.8854 97.5705 25.5693 97.0819C25.2531 96.579 24.9657 96.1767 24.7502 95.8893C24.5346 95.6019 24.4053 95.4294 24.4053 95.4294C24.4053 95.4294 24.3191 95.6881 24.1898 96.0761C24.0604 96.4784 23.9024 97.0101 23.7731 97.6136C23.4857 98.7919 23.2989 100.2 23.5144 100.876L23.4857 100.861Z" fill="#DB9C30"/>
        <path d="M22.4222 103.879C22.4222 103.879 21.4451 103.462 20.2524 102.945C19.6633 102.686 19.031 102.413 18.4419 102.183C17.8671 101.939 17.3498 101.738 16.9762 101.666C16.6026 101.58 16.0709 101.608 15.4674 101.666L13.1826 103.936C13.8436 104.338 14.6196 104.755 15.4099 105.129C16.2146 105.474 17.0768 105.747 17.8815 105.905C19.8501 106.221 20.9709 105.66 21.6032 105.086C22.2354 104.497 22.4079 103.864 22.4079 103.864L22.4222 103.879Z" fill="#DB9C30"/>
        <path d="M21.215 95.9465L18.5566 98.5905C19.0883 99.5389 19.5625 100.315 19.5625 100.315C19.5625 100.315 20.1229 100.056 20.5971 99.3665C21.0713 98.6767 21.4593 97.5559 21.215 95.9609V95.9465Z" fill="#DB9C30"/>
        <path d="M31.0153 115.877L32.2511 112.903C31.432 113.363 30.5267 113.937 29.8083 114.426C29.0898 114.915 28.5581 115.288 28.5581 115.288C28.5581 115.288 28.8168 115.374 29.2478 115.489C29.6933 115.604 30.2968 115.777 31.0153 115.892V115.877Z" fill="#DB9C30"/>
        <path d="M31.1589 100.732C31.1589 100.732 31.0153 101.781 30.9865 103.002C30.9434 104.252 31.0727 105.603 31.4176 106.25C31.6044 106.594 31.978 107.054 32.4378 107.5C32.8977 107.96 33.415 108.463 33.9179 108.865L35.3549 105.402L35.2399 105.215C34.8807 104.626 34.4352 104.037 33.9754 103.534C33.5156 103.031 33.0557 102.514 32.639 102.111C32.2079 101.694 31.8343 101.35 31.5757 101.105C31.3026 100.861 31.1446 100.732 31.1446 100.732H31.1589Z" fill="#DB9C30"/>
        <path d="M4.50342 93.0156C4.50342 93.0156 4.67585 93.2455 4.97761 93.6047C5.29374 93.9639 5.7392 94.4381 6.28524 94.9842C6.81692 95.5159 7.49228 96.0475 8.18202 96.5505C8.52689 96.7947 8.88613 97.039 9.24537 97.2402C9.61898 97.4414 9.99259 97.6138 10.3662 97.7575C12.2055 98.4904 13.4413 98.1599 14.1741 97.7144C14.9213 97.2689 15.2087 96.6798 15.2087 96.6798C15.2087 96.6798 14.9932 96.5217 14.634 96.2918C14.2747 96.0475 13.8149 95.6883 13.2832 95.3291C13.0246 95.1566 12.7515 94.9698 12.4785 94.7686C12.2199 94.5818 11.9468 94.395 11.6882 94.2082C11.1709 93.8634 10.6967 93.5616 10.3375 93.4035C9.63335 93.0874 8.21076 93.0299 6.90313 93.0012C6.27087 93.0012 5.65298 93.0012 5.2219 92.9868H4.50342V93.0156Z" fill="#DB9C30"/>
        <path d="M11.9756 87.1959C11.9181 87.9 12.1336 89.2795 12.4785 90.4578C12.6366 91.047 12.7946 91.6074 12.9383 91.981C13.082 92.3833 13.1682 92.6276 13.1682 92.6276C13.1682 92.6276 13.8005 92.4695 14.4184 91.866C14.7345 91.5643 15.0363 91.1475 15.2662 90.5871C15.3811 90.3141 15.4817 90.0123 15.5536 89.6531C15.6398 89.3082 15.6973 88.9059 15.7116 88.4748C15.7548 87.7851 15.6829 87.081 15.6254 86.3912C15.5536 85.6871 15.4099 85.0548 15.3237 84.4657C15.2231 83.8909 15.1081 83.4024 15.0219 83.0575C14.9357 82.6982 14.8782 82.4971 14.8782 82.4971C14.8782 82.4971 14.1454 83.2874 13.4556 84.2789C12.7515 85.256 12.0187 86.4918 11.9756 87.1959Z" fill="#DB9C30"/>
        <path d="M9.84899 89.5812C9.84899 89.5812 9.66219 89.3944 9.36043 89.0782C9.20236 88.9202 9.02993 88.7477 8.82875 88.5466C8.64195 88.3454 8.4264 88.1155 8.21086 87.8856C7.76541 87.4257 7.26247 86.9372 6.83139 86.4917C6.4003 86.0463 5.98358 85.6726 5.66745 85.4427C5.35132 85.2272 4.84839 85.0548 4.28797 84.8823L1.31348 86.1181C2.20439 87.3826 3.49765 88.8627 4.90586 89.7249C5.7393 90.2565 6.50089 90.4864 7.11878 90.5583C7.75104 90.6158 8.25397 90.5296 8.67069 90.3859C9.48975 90.0841 9.87773 89.5668 9.87773 89.5668L9.84899 89.5812Z" fill="#DB9C30"/>
        <path d="M11.7604 81.7786L8.29736 83.2155C8.3261 83.7616 8.42669 84.2501 8.4698 84.6094C8.52728 84.9686 8.57038 85.1841 8.57038 85.1841C8.57038 85.1841 9.18827 85.1554 9.89238 84.6956C10.5965 84.2358 11.3581 83.3592 11.7604 81.7786Z" fill="#DB9C30"/>
        <path d="M13.1972 103.951L15.482 101.68C14.5767 101.767 13.499 101.982 12.6368 102.14C11.789 102.313 11.1567 102.456 11.1567 102.456C11.1567 102.456 11.9902 103.146 13.1972 103.951Z" fill="#DB9C30"/>
        <path d="M19.1033 90.0122C19.1033 90.0122 18.5716 90.9175 18.0831 92.0527C17.8388 92.6131 17.5945 93.231 17.4364 93.7914C17.2784 94.3518 17.2065 94.8691 17.2496 95.2284C17.3071 95.602 17.4508 96.1767 17.6951 96.7803C17.9394 97.3694 18.2555 98.016 18.5429 98.6052L21.2013 95.9612L21.1725 95.7457C21.0719 95.0559 20.8708 94.3518 20.6408 93.7052C20.4253 93.0442 20.181 92.4119 19.9511 91.8659C19.7212 91.3342 19.52 90.86 19.3619 90.5295C19.2039 90.199 19.1033 90.0122 19.1033 90.0122Z" fill="#DB9C30"/>
        <path d="M-2.55176 72.6826C-2.55176 72.6826 -2.47991 72.9556 -2.33621 73.4154C-2.17815 73.8609 -1.94824 74.4931 -1.64648 75.1829C-1.35909 75.887 -0.956738 76.6342 -0.496912 77.3527C-0.267 77.7119 -0.0370867 78.0712 0.221565 78.4017C0.480217 78.7322 0.767608 79.0483 1.055 79.3213C2.47758 80.7008 3.72773 80.8732 4.58991 80.7439C5.45208 80.6146 5.94065 80.1835 5.94065 80.1835C5.94065 80.1835 5.79695 79.9679 5.55267 79.5943C5.32275 79.2351 5.02099 78.7322 4.67613 78.1861C4.50369 77.9131 4.31689 77.6401 4.14445 77.3671C3.97202 77.094 3.79958 76.8066 3.62715 76.548C3.28228 76.0307 2.96615 75.5709 2.69313 75.2978C2.17582 74.7374 0.868195 74.1195 -0.324478 73.6022C-0.913629 73.358 -1.45967 73.1137 -1.87639 72.9412C-2.27874 72.7688 -2.53739 72.6682 -2.53739 72.6682L-2.55176 72.6826Z" fill="#DB9C30"/>
        <path d="M6.57283 70.1821C6.2567 70.8143 5.91183 72.1651 5.78251 73.3865C5.61007 74.5935 5.5957 75.6569 5.5957 75.6569C5.5957 75.6569 6.24233 75.7575 7.03266 75.427C7.85172 75.0965 8.757 74.3636 9.53296 72.7973C9.83472 72.1651 10.0359 71.5041 10.2514 70.8287C10.467 70.1677 10.5676 69.5211 10.7113 68.9319C10.8406 68.3572 10.9268 67.8542 10.9699 67.495C11.013 67.1501 11.0561 66.9346 11.0561 66.9346C11.0561 66.9346 10.8118 67.0495 10.4382 67.2363C10.079 67.4231 9.57607 67.7105 9.05876 68.0267C8.03853 68.6589 6.87459 69.5211 6.57283 70.1533V70.1821Z" fill="#DB9C30"/>
        <path d="M3.7133 71.5615C3.7133 71.5615 3.61271 71.3029 3.45465 70.9149C3.36843 70.7137 3.26784 70.4838 3.16726 70.2108C3.06667 69.9521 2.95171 69.6647 2.83676 69.363C2.60684 68.7595 2.34819 68.1272 2.10391 67.5524C1.874 66.9776 1.64408 66.4603 1.42854 66.1442C1.22737 65.8281 0.825019 65.4688 0.350824 65.0952H-2.88232C-2.69552 65.8424 -2.45124 66.6902 -2.14948 67.5093C-1.83335 68.3284 -1.41663 69.1331 -0.942435 69.7941C-0.382023 70.6131 0.235868 71.1161 0.781911 71.4178C1.34232 71.7339 1.84526 71.8345 2.27634 71.8489C3.13852 71.892 3.7133 71.5615 3.7133 71.5615Z" fill="#DB9C30"/>
        <path d="M8.45533 65.0954H4.70487C4.41748 66.1444 4.21631 67.0209 4.21631 67.0209C4.21631 67.0209 4.79109 67.2221 5.62452 67.0641C6.44359 66.906 7.50694 66.4031 8.4697 65.0811L8.45533 65.0954Z" fill="#DB9C30"/>
        <path d="M1.29926 86.118L4.27376 84.8823C3.39721 84.6236 2.3195 84.4081 1.45732 84.2213C0.60952 84.0632 -0.0371094 83.9482 -0.0371094 83.9482C-0.0371094 83.9482 -0.00837036 84.0057 0.0491078 84.1207C0.106586 84.2213 0.207173 84.3793 0.30776 84.5805C0.537673 84.9685 0.868172 85.5145 1.28489 86.118H1.29926Z" fill="#DB9C30"/>
        <path d="M12.0907 75.5132C12.0907 75.5132 11.2573 76.1454 10.3664 76.9933C9.92091 77.4243 9.47546 77.8842 9.10185 78.3584C8.74261 78.8182 8.46959 79.2493 8.38337 79.6085C8.28279 79.9821 8.22531 80.5713 8.21094 81.2179C8.21094 81.8645 8.25405 82.583 8.31153 83.2296L11.7746 81.7927L11.8321 81.5771C12.0045 80.8874 12.062 80.1977 12.1195 79.4935C12.1769 78.7894 12.1913 78.1284 12.1769 77.5393C12.2057 76.3466 12.1051 75.5132 12.1051 75.5132H12.0907Z" fill="#DB9C30"/>
        <path d="M-1.31599 51.2144C-1.31599 51.2144 -1.3591 51.4874 -1.38783 51.9759C-1.41657 52.4501 -1.44531 53.1111 -1.44531 53.8727C-1.43094 54.6343 -1.34473 55.4821 -1.2154 56.3155C-1.10044 57.1633 -0.827422 57.9968 -0.525661 58.7153C-0.137683 59.6205 0.336512 60.2384 0.825076 60.6551C1.29927 61.0719 1.77347 61.273 2.20455 61.388C3.03799 61.5892 3.67025 61.388 3.67025 61.388C3.67025 61.388 3.62714 61.115 3.54092 60.6983C3.4547 60.2815 3.35412 59.7068 3.25353 59.0745C3.15294 58.4422 3.00925 57.7669 2.90866 57.1633C2.80807 56.5455 2.67875 56.0138 2.53505 55.6545C2.23329 54.9361 1.2849 53.8727 0.39399 52.9387C-0.0514661 52.4789 -0.482553 52.0478 -0.798683 51.7317C-1.11481 51.4155 -1.31599 51.2287 -1.31599 51.2287V51.2144Z" fill="#DB9C30"/>
        <path d="M8.0958 52.3785C7.82278 52.6084 7.47791 52.9964 7.11867 53.4706C6.78817 53.9591 6.4433 54.5052 6.14154 55.0369C5.81104 55.5685 5.58113 56.0715 5.39432 56.4451C5.20752 56.8331 5.10693 57.063 5.10693 57.063C5.10693 57.063 5.65298 57.4078 6.52952 57.4078C7.40606 57.4078 8.55563 57.0773 9.83452 55.9278C10.3662 55.468 10.8116 54.9219 11.2427 54.3759C11.6882 53.8442 12.0762 53.2981 12.3923 52.8096C13.0677 51.8468 13.47 51.0996 13.47 51.0996C13.47 51.0996 12.421 51.1571 11.214 51.3583C10.6105 51.4588 9.96384 51.5882 9.40343 51.7606C8.85739 51.933 8.38319 52.1342 8.11017 52.3785H8.0958Z" fill="#DB9C30"/>
        <path d="M4.90587 52.5651C4.90587 52.5651 4.90587 52.2921 4.90587 51.861C4.90587 51.4299 4.90587 50.8408 4.90587 50.1941C4.93461 49.5619 4.93461 48.8721 4.92024 48.2399C4.90587 47.6076 4.92024 47.0616 4.83402 46.688C4.76217 46.3144 4.54663 45.8258 4.24487 45.2941L1.27037 44.0583C1.15541 44.8199 1.04046 45.6965 1.01172 46.573C1.01172 47.4639 1.0692 48.3548 1.24163 49.1452C1.7302 51.0994 2.64985 51.9041 3.44017 52.2777C4.2305 52.637 4.87713 52.5508 4.87713 52.5508L4.90587 52.5651Z" fill="#DB9C30"/>
        <path d="M11.7604 48.3981L8.29737 46.9612C7.62201 47.809 7.09033 48.5418 7.09033 48.5418C7.09033 48.5418 7.55016 48.9585 8.36922 49.1166C9.17392 49.289 10.3666 49.2172 11.7604 48.3838V48.3981Z" fill="#DB9C30"/>
        <path d="M-2.88232 65.0953H0.336458C-0.367649 64.5205 -1.27293 63.9026 -2.00578 63.4284C-2.73863 62.9399 -3.28467 62.6094 -3.28467 62.6094C-3.28467 62.6094 -3.18408 63.6871 -2.89669 65.1097L-2.88232 65.0953Z" fill="#DB9C30"/>
        <path d="M11.1567 59.405C11.1567 59.405 10.1365 59.6781 8.98692 60.1235C7.82299 60.5546 6.61595 61.2012 6.15612 61.776C5.63882 62.3939 5.10715 63.8452 4.69043 65.0954H8.44088L8.57021 64.9229C8.98692 64.3625 9.34616 63.7303 9.63355 63.1124C9.93531 62.4945 10.2227 61.8766 10.4382 61.3162C10.6394 60.7701 10.8406 60.2959 10.9556 59.9511C11.0705 59.6062 11.1424 59.405 11.1424 59.405H11.1567Z" fill="#DB9C30"/>
        <path d="M8.06725 31.83C8.06725 31.83 7.90919 32.0743 7.70801 32.5054C7.50684 32.9221 7.21945 33.5256 6.93206 34.2298C6.38601 35.638 5.88308 37.4773 5.91182 39.0579C5.91182 40.0494 6.14173 40.7966 6.41475 41.3571C6.70214 41.9318 7.06138 42.3054 7.40625 42.5641C8.11036 43.0814 8.75699 43.1245 8.75699 43.1245C8.75699 43.1245 8.81447 42.8515 8.90069 42.4348C8.94379 42.2192 8.9869 41.9749 9.05875 41.7019C9.11623 41.4289 9.18808 41.1271 9.27429 40.8254C9.43236 40.2075 9.54732 39.5321 9.69101 38.9286C9.82034 38.3251 9.92092 37.779 9.92092 37.3911C9.92092 36.6151 9.44673 35.2644 8.9869 34.0573C8.75699 33.4538 8.51271 32.8934 8.35464 32.4767C8.18221 32.0743 8.08162 31.8157 8.08162 31.8157L8.06725 31.83Z" fill="#DB9C30"/>
        <path d="M16.3008 36.5288C15.9559 36.6438 15.4961 36.8737 14.9931 37.1754C14.4902 37.4772 13.9729 37.8652 13.4843 38.2388C12.9958 38.598 12.5647 38.9716 12.2485 39.259C11.9324 39.5464 11.7456 39.7189 11.7456 39.7189C11.7456 39.7189 12.1192 40.2362 12.9239 40.5667C13.3263 40.7391 13.8292 40.8684 14.4327 40.8684C15.0362 40.8684 15.726 40.7535 16.545 40.4804C17.206 40.2649 17.8239 39.92 18.4418 39.6039C19.0597 39.2734 19.6201 38.9142 20.0943 38.5837C20.5972 38.2675 20.9996 37.9801 21.287 37.7646C21.5744 37.549 21.7468 37.4197 21.7468 37.4197C21.7468 37.4197 21.4882 37.3335 21.1002 37.2042C20.6978 37.0892 20.1662 36.9312 19.5626 36.7875C18.37 36.5001 16.9761 36.3133 16.3008 36.5288Z" fill="#DB9C30"/>
        <path d="M13.283 35.4655C13.283 35.4655 13.6997 34.4883 14.2026 33.2956C14.4613 32.7065 14.7343 32.0742 14.9642 31.4851C15.2085 30.9103 15.4096 30.393 15.4815 30.005C15.5533 29.6314 15.539 29.0997 15.4671 28.4962L13.1824 26.2258C12.78 26.8868 12.3633 27.6628 11.9897 28.4531C11.6448 29.2722 11.3718 30.12 11.2281 30.9247C10.912 32.9077 11.4724 34.0141 12.0472 34.6608C12.6363 35.293 13.2686 35.4655 13.2686 35.4655H13.283Z" fill="#DB9C30"/>
        <path d="M21.215 34.2441L18.5567 31.6001C17.6083 32.1318 16.8467 32.606 16.8467 32.606C16.8467 32.606 17.1053 33.1664 17.8094 33.6406C18.4992 34.1148 19.62 34.4884 21.2294 34.2441H21.215Z" fill="#DB9C30"/>
        <path d="M1.29883 44.0585L4.27332 45.2943C3.8135 44.4752 3.23872 43.5843 2.75015 42.8515C2.26159 42.133 1.88798 41.6013 1.88798 41.6013C1.88798 41.6013 1.80176 41.86 1.68681 42.3054C1.57185 42.7365 1.39941 43.3544 1.29883 44.0729V44.0585Z" fill="#DB9C30"/>
        <path d="M16.4305 44.1879C16.4305 44.1879 15.3815 44.0442 14.1601 44.0155C12.91 43.9724 11.5593 44.1161 10.9126 44.461C10.5678 44.6478 10.1079 45.007 9.66247 45.4668C9.21701 45.9266 8.69971 46.4439 8.29736 46.9469L11.7604 48.3838L11.9472 48.2689C12.5364 47.9096 13.1255 47.4642 13.6285 47.0044C14.1314 46.5445 14.6487 46.0991 15.0511 45.668C15.4678 45.2369 15.8126 44.8633 16.0569 44.6046C16.3012 44.3316 16.4305 44.1736 16.4305 44.1736V44.1879Z" fill="#DB9C30"/>
        <path d="M24.118 17.5322C24.118 17.5322 23.8881 17.7046 23.5288 18.0064C23.1696 18.3225 22.681 18.7823 22.1637 19.314C21.632 19.8457 21.086 20.5211 20.5974 21.2108C20.3532 21.5557 20.1089 21.9149 19.9077 22.2741C19.7065 22.6478 19.5341 23.0214 19.3904 23.395C18.6575 25.2343 19.0024 26.4701 19.4335 27.2029C19.879 27.9501 20.4681 28.2375 20.4681 28.2375C20.4681 28.2375 21.0716 27.3322 21.8188 26.312C21.9913 26.0533 22.1925 25.7803 22.3793 25.5073C22.5661 25.2486 22.7529 24.9756 22.9253 24.717C23.2702 24.214 23.5719 23.7255 23.73 23.3662C24.0318 22.6621 24.1036 21.2395 24.1323 19.9319C24.1323 19.2853 24.1323 18.6818 24.1467 18.2363C24.1467 17.8052 24.1467 17.5178 24.1467 17.5178L24.118 17.5322Z" fill="#DB9C30"/>
        <path d="M29.9378 24.99C29.2337 24.9325 27.8542 25.148 26.6759 25.4929C26.0867 25.6653 25.5263 25.809 25.1383 25.9527C24.736 26.0964 24.4917 26.197 24.4917 26.197C24.4917 26.197 24.6498 26.8293 25.2533 27.4472C25.555 27.7489 25.9718 28.065 26.5322 28.295C26.8052 28.4099 27.1213 28.5105 27.4662 28.5824C27.8111 28.6542 28.2134 28.7117 28.6445 28.7404C29.3342 28.7835 30.0383 28.7117 30.7281 28.6542C31.4178 28.5824 32.0501 28.4387 32.6392 28.3524C33.214 28.2519 33.7026 28.1225 34.0475 28.0363C34.3923 27.9501 34.6079 27.907 34.6079 27.907C34.6079 27.907 33.8175 27.1741 32.8404 26.4844C31.8633 25.7803 30.6275 25.0618 29.9234 25.0043L29.9378 24.99Z" fill="#DB9C30"/>
        <path d="M27.5668 22.8777C27.5668 22.8777 27.7536 22.6909 28.0698 22.3748C28.2278 22.2167 28.4003 22.0443 28.6014 21.8431C28.8026 21.6563 29.0325 21.4408 29.2624 21.2252C29.7223 20.7941 30.2108 20.2768 30.6563 19.8458C31.1017 19.4147 31.4753 18.998 31.7053 18.6818C31.9208 18.3657 32.0932 17.8628 32.2657 17.288L31.0299 14.3135C29.7654 15.2188 28.2853 16.512 27.4231 17.9202C26.8771 18.7537 26.6616 19.5153 26.5897 20.1331C26.5179 20.7654 26.6184 21.2683 26.7621 21.6707C27.0639 22.4754 27.5812 22.8777 27.5812 22.8777H27.5668Z" fill="#DB9C30"/>
        <path d="M35.3548 24.7746L33.9178 21.3115C33.3718 21.3403 32.8832 21.4408 32.524 21.4983C32.1648 21.5558 31.9492 21.5989 31.9492 21.5989C31.9492 21.5989 31.978 22.2168 32.4378 22.9065C32.8976 23.6107 33.7741 24.3722 35.3548 24.7746Z" fill="#DB9C30"/>
        <path d="M13.1973 26.2401L15.482 28.5105C15.3814 27.6053 15.1803 26.5275 15.0078 25.6654C14.8354 24.8176 14.6917 24.1853 14.6917 24.1853C14.6917 24.1853 14.002 25.0187 13.1973 26.2401Z" fill="#DB9C30"/>
        <path d="M27.1355 32.1317C27.1355 32.1317 26.2302 31.6 25.095 31.1114C24.5346 30.8671 23.9167 30.6229 23.3563 30.4648C22.7959 30.3211 22.2786 30.2349 21.9193 30.278C21.5313 30.3355 20.9566 30.4792 20.3674 30.7378C19.7783 30.9821 19.1173 31.2982 18.5425 31.5856L21.2008 34.2296L21.4164 34.2009C22.1061 34.1003 22.7959 33.9135 23.4569 33.6692C24.1179 33.4537 24.7501 33.2094 25.2818 32.9651C25.8135 32.7208 26.2877 32.534 26.6182 32.3759C26.9487 32.2179 27.1355 32.1173 27.1355 32.1173V32.1317Z" fill="#DB9C30"/>
        <path d="M44.4507 10.4624C44.4507 10.4624 44.1776 10.5343 43.7178 10.6636C43.2724 10.8216 42.6401 11.0516 41.9504 11.3533C41.2463 11.6407 40.499 12.0431 39.7662 12.4885C39.407 12.7184 39.0477 12.9627 38.7172 13.2214C38.3867 13.4944 38.085 13.7674 37.8119 14.0548C36.4325 15.4774 36.26 16.7275 36.3894 17.5897C36.5187 18.4519 36.9498 18.9404 36.9498 18.9404C36.9498 18.9404 37.1797 18.7967 37.5245 18.5525C37.8838 18.3369 38.3867 18.0208 38.9328 17.6759C39.2058 17.5035 39.4788 17.331 39.7518 17.1442C40.0248 16.9718 40.3122 16.7994 40.5709 16.6269C41.0882 16.2964 41.548 15.9659 41.821 15.6929C42.3815 15.1756 42.985 13.868 43.5166 12.6753C43.7609 12.0862 44.0052 11.5401 44.1776 11.1234C44.3501 10.7211 44.4507 10.4624 44.4507 10.4624Z" fill="#DB9C30"/>
        <path d="M46.9516 19.587C46.3193 19.2709 44.9686 18.926 43.7472 18.7967C42.5258 18.6099 41.4768 18.6099 41.4768 18.6099C41.4768 18.6099 41.3762 19.2565 41.7067 20.0468C41.8648 20.4492 42.1378 20.8946 42.5545 21.3113C42.9712 21.7281 43.5604 22.1591 44.3363 22.5328C44.9542 22.8345 45.6296 23.0501 46.305 23.2656C46.966 23.4668 47.6126 23.5817 48.1874 23.7254C48.7622 23.8547 49.2651 23.9266 49.61 23.9841C49.9692 24.0272 50.1704 24.0703 50.1704 24.0703C50.1704 24.0703 50.0554 23.826 49.8686 23.4524C49.6818 23.0932 49.4088 22.5902 49.0783 22.0729C48.446 21.0527 47.5839 19.9031 46.9516 19.587Z" fill="#DB9C30"/>
        <path d="M45.5718 16.7131C45.5718 16.7131 45.8161 16.6125 46.2184 16.4544C46.4196 16.3682 46.6495 16.2676 46.9082 16.167C47.1668 16.0664 47.4542 15.9515 47.756 15.8365C48.3451 15.6066 48.9918 15.3479 49.5665 15.0893C50.1413 14.8594 50.6586 14.6295 50.9748 14.4139C51.2909 14.2128 51.6501 13.8248 52.0237 13.3362V10.1174C51.2765 10.3042 50.4287 10.5485 49.6096 10.8503C48.7906 11.1664 47.9859 11.5831 47.3105 12.043C46.5058 12.6034 45.9885 13.2213 45.6868 13.7673C45.385 14.3277 45.27 14.8306 45.2557 15.2617C45.2269 16.1239 45.5574 16.6987 45.5574 16.6987L45.5718 16.7131Z" fill="#DB9C30"/>
        <path d="M52.0385 21.4548V17.7044C50.9895 17.4026 50.113 17.2014 50.113 17.2014C50.113 17.2014 49.8974 17.7762 50.0555 18.6096C50.2135 19.4287 50.7309 20.492 52.0385 21.4548Z" fill="#DB9C30"/>
        <path d="M31.0156 14.3132L32.2514 17.2877C32.5101 16.4111 32.7256 15.3334 32.898 14.4712C33.0561 13.6234 33.1711 12.9768 33.1711 12.9768C33.1711 12.9768 33.1136 13.0055 32.9986 13.063C32.898 13.1205 32.74 13.2211 32.5388 13.336C32.1508 13.566 31.6048 13.8965 31.0156 14.3132Z" fill="#DB9C30"/>
        <path d="M41.6203 25.0905C41.6203 25.0905 40.988 24.2571 40.1402 23.3805C39.7235 22.9351 39.2349 22.4896 38.7751 22.116C38.3153 21.7568 37.8842 21.4981 37.5249 21.3975C37.1513 21.2969 36.5622 21.2395 35.9155 21.2251C35.2689 21.2251 34.5648 21.2826 33.9038 21.3257L35.3408 24.7887L35.5563 24.8462C36.2317 25.0187 36.9358 25.0905 37.6399 25.1336C38.344 25.1911 39.005 25.2055 39.5942 25.1767C40.7868 25.1911 41.6203 25.0905 41.6203 25.0905Z" fill="#DB9C30"/>
        <path d="M65.9332 11.6838C65.9332 11.6838 65.6458 11.6551 65.1716 11.6263C64.6974 11.5976 64.0364 11.5688 63.2748 11.5688C61.7516 11.612 59.8692 11.8419 58.4179 12.4885C57.5126 12.8765 56.8947 13.365 56.478 13.8392C56.0613 14.3134 55.8601 14.802 55.7452 15.2187C55.544 16.0521 55.7452 16.6844 55.7452 16.6844C55.7452 16.6844 56.0038 16.6269 56.4349 16.5551C56.866 16.4545 57.4408 16.3683 58.0587 16.2677C58.6909 16.1671 59.3663 16.0234 59.9698 15.9228C60.5877 15.8079 61.1194 15.6929 61.493 15.5492C62.2115 15.2475 63.2748 14.2991 64.2088 13.4082C64.6687 12.9627 65.0997 12.5316 65.4159 12.2155C65.7176 11.8993 65.9188 11.6982 65.9188 11.6982L65.9332 11.6838Z" fill="#DB9C30"/>
        <path d="M64.7408 21.0958C64.5109 20.8228 64.1229 20.4779 63.6487 20.1187C63.1745 19.7882 62.6141 19.4433 62.0824 19.1415C61.5651 18.811 61.0478 18.5811 60.6742 18.3943C60.2862 18.2075 60.0563 18.1069 60.0563 18.1069C60.0563 18.1069 59.7114 18.6673 59.7114 19.5295C59.7114 20.4061 60.0419 21.5556 61.1915 22.8345C61.6513 23.3662 62.183 23.8116 62.729 24.2427C63.2607 24.6882 63.8067 25.0618 64.2953 25.3923C65.2581 26.0677 65.9909 26.47 65.9909 26.47C65.9909 26.47 65.9478 25.421 65.7466 24.214C65.646 23.6105 65.5167 22.9638 65.3443 22.4034C65.1719 21.843 64.9563 21.3832 64.7264 21.1102L64.7408 21.0958Z" fill="#DB9C30"/>
        <path d="M64.5677 17.9057C64.5677 17.9057 64.8407 17.9057 65.2718 17.9057C65.7029 17.9057 66.292 17.9057 66.9386 17.9057C67.5709 17.9344 68.2606 17.9344 68.8929 17.92C69.5252 17.9057 70.0712 17.92 70.4592 17.8338C70.8328 17.762 71.3214 17.5464 71.8387 17.259L73.0744 14.2845C72.3129 14.1696 71.4363 14.0546 70.5598 14.0259C69.6689 14.0259 68.7779 14.0834 67.9732 14.2558C66.019 14.73 65.1999 15.664 64.8407 16.4543C64.4814 17.2447 64.5677 17.8913 64.5677 17.8913V17.9057Z" fill="#DB9C30"/>
        <path d="M68.721 24.7744L70.158 21.3113C69.3102 20.6359 68.5773 20.1042 68.5773 20.1042C68.5773 20.1042 68.1606 20.5641 67.9882 21.3831C67.8158 22.2022 67.8876 23.3805 68.721 24.7744Z" fill="#DB9C30"/>
        <path d="M52.0378 10.1174V13.3362C52.6126 12.6321 53.2305 11.7268 53.7047 10.994C54.1789 10.2755 54.5237 9.71509 54.5237 9.71509C54.5237 9.71509 53.446 9.83004 52.0234 10.1031L52.0378 10.1174Z" fill="#DB9C30"/>
        <path d="M57.7282 24.1565C57.7282 24.1565 57.4552 23.1362 57.0097 21.9867C56.5643 20.8227 55.932 19.6157 55.3572 19.1559C54.7537 18.6386 53.288 18.1069 52.0522 17.6902V21.4406L52.2247 21.57C52.7851 21.9867 53.4174 22.3459 54.0352 22.6333C54.6531 22.9351 55.271 23.2225 55.8171 23.438C56.3631 23.6392 56.8373 23.8404 57.1822 23.9553C57.527 24.0846 57.7282 24.1421 57.7282 24.1421V24.1565Z" fill="#DB9C30"/>
        <path d="M85.2893 21.0959C85.2893 21.0959 85.045 20.9379 84.6139 20.7367C84.1829 20.5355 83.5793 20.2481 82.8896 19.9607C81.4814 19.4147 79.6421 18.8974 78.0471 18.9405C77.0699 18.9405 76.3083 19.1704 75.7479 19.4434C75.1875 19.7308 74.7995 20.0901 74.5409 20.4349C74.0236 21.1247 73.9805 21.7857 73.9805 21.7857C73.9805 21.7857 74.2391 21.8432 74.6702 21.9294C74.8858 21.9725 75.13 22.03 75.4031 22.0874C75.6761 22.1449 75.9635 22.2311 76.2796 22.303C76.8975 22.4467 77.5872 22.576 78.1907 22.7197C78.7943 22.849 79.3403 22.9496 79.7283 22.9496C80.5042 22.9496 81.8406 22.4754 83.062 22.0156C83.6656 21.7857 84.226 21.5414 84.6427 21.369C85.045 21.1965 85.3037 21.0959 85.3037 21.0959H85.2893Z" fill="#DB9C30"/>
        <path d="M80.5903 29.3154C80.4897 28.9849 80.2454 28.5107 79.9437 28.0078C79.6419 27.5048 79.2539 26.9875 78.8803 26.499C78.5211 25.996 78.1475 25.5649 77.8601 25.2632C77.5727 24.9471 77.4003 24.7603 77.4003 24.7603C77.4003 24.7603 76.883 25.1339 76.5381 25.9386C76.3657 26.3409 76.2507 26.8438 76.2363 27.4474C76.2363 28.0509 76.3513 28.7262 76.6243 29.5597C76.8398 30.2207 77.1703 30.8386 77.5008 31.4565C77.8313 32.0744 78.1906 32.6348 78.5211 33.1233C78.8372 33.6263 79.1246 34.043 79.3402 34.316C79.5557 34.6034 79.685 34.7758 79.685 34.7758C79.685 34.7758 79.7712 34.5172 79.9006 34.1292C80.0299 33.7412 80.1736 33.1952 80.3173 32.606C80.6047 31.4277 80.8058 30.0195 80.5759 29.3441L80.5903 29.3154Z" fill="#DB9C30"/>
        <path d="M81.6543 26.3121C81.6543 26.3121 82.6314 26.7288 83.8241 27.2461C84.4133 27.5047 85.0455 27.7778 85.6347 28.0077C86.2094 28.252 86.7267 28.4531 87.1004 28.5394C87.474 28.6112 88.0056 28.5968 88.6092 28.525L90.8939 26.2546C90.2329 25.8523 89.457 25.4212 88.6666 25.0619C87.8619 24.7027 86.9998 24.4297 86.1951 24.286C84.2121 23.9698 83.0913 24.5303 82.4734 25.105C81.8411 25.6942 81.6687 26.3264 81.6687 26.3264L81.6543 26.3121Z" fill="#DB9C30"/>
        <path d="M82.861 34.2441L85.5193 31.6001C84.9877 30.6517 84.5135 29.8901 84.5135 29.8901C84.5135 29.8901 83.953 30.1488 83.4789 30.8385C83.0047 31.5426 82.6167 32.6491 82.861 34.2585V34.2441Z" fill="#DB9C30"/>
        <path d="M73.0751 14.3135L71.8394 17.288C72.6584 16.8281 73.5637 16.2534 74.2822 15.7648C75.0007 15.2906 75.5323 14.917 75.5323 14.917C75.5323 14.917 75.2737 14.8308 74.8426 14.7158C74.3971 14.6009 73.7936 14.4284 73.0751 14.3135Z" fill="#DB9C30"/>
        <path d="M72.9317 29.4447C72.9317 29.4447 73.0754 28.3957 73.1042 27.1743C73.1473 25.9241 73.018 24.5734 72.6587 23.9268C72.4719 23.5819 72.0983 23.1221 71.6529 22.6623C71.193 22.2168 70.6757 21.6995 70.1728 21.3115L68.7358 24.7746L68.8508 24.9614C69.21 25.5505 69.6555 26.1253 70.1153 26.6426C70.5751 27.1456 71.035 27.6629 71.4517 28.0652C71.8828 28.4819 72.2564 28.8268 72.5007 29.0711C72.7737 29.3154 72.9317 29.4447 72.9317 29.4447Z" fill="#DB9C30"/>
        <path d="M99.5725 37.1754C99.5725 37.1754 99.4001 36.9455 99.0983 36.5862C98.7822 36.227 98.3224 35.7384 97.7907 35.2211C97.259 34.6894 96.5836 34.1434 95.8939 33.6405C95.549 33.3962 95.1898 33.1519 94.8305 32.9507C94.4569 32.7496 94.0833 32.5771 93.7097 32.4334C91.8704 31.7006 90.6346 32.0311 89.9018 32.4765C89.1546 32.922 88.8672 33.5111 88.8672 33.5111C88.8672 33.5111 89.0971 33.6548 89.442 33.8991C89.8012 34.1434 90.261 34.4883 90.7927 34.8619C91.0514 35.0487 91.3244 35.2355 91.5974 35.4223C91.856 35.6091 92.1291 35.7959 92.3877 35.9827C92.905 36.3276 93.3792 36.6293 93.7385 36.773C94.4426 37.0892 95.8652 37.161 97.1728 37.1754C97.805 37.1754 98.4229 37.1897 98.854 37.1897H99.5725V37.1754Z" fill="#DB9C30"/>
        <path d="M92.1145 42.9807C92.1576 42.2766 91.9564 40.8971 91.6115 39.7188C91.4535 39.1297 91.2954 38.5693 91.1517 38.1813C91.008 37.7933 90.9218 37.5347 90.9218 37.5347C90.9218 37.5347 90.2895 37.6927 89.6716 38.2963C89.3555 38.598 89.0537 39.0147 88.8238 39.5751C88.7089 39.8482 88.6083 40.1499 88.5364 40.5092C88.4646 40.854 88.4071 41.2564 88.3784 41.6875C88.3353 42.3772 88.4071 43.0813 88.4646 43.7711C88.5365 44.4608 88.6802 45.0931 88.7664 45.6822C88.867 46.257 88.9819 46.7455 89.0681 47.0904C89.1543 47.4497 89.1974 47.6508 89.1974 47.6508C89.1974 47.6508 89.9303 46.8605 90.62 45.8834C91.3241 44.9062 92.0426 43.6705 92.1001 42.9664L92.1145 42.9807Z" fill="#DB9C30"/>
        <path d="M94.227 40.6097C94.227 40.6097 94.4138 40.7965 94.7155 41.1127C94.8736 41.2707 95.046 41.4432 95.2472 41.6443C95.434 41.8455 95.6496 42.0754 95.8651 42.3053C96.2962 42.7652 96.8135 43.2537 97.2446 43.6992C97.6757 44.1446 98.0924 44.5182 98.4085 44.7338C98.7247 44.9493 99.2276 45.1361 99.788 45.2942L102.762 44.0584C101.872 42.7939 100.578 41.3138 99.1701 40.4373C98.3367 39.9056 97.5751 39.6757 96.9572 39.6039C96.3249 39.532 95.822 39.6326 95.4053 39.7763C94.6006 40.0781 94.1982 40.6097 94.1982 40.6097H94.227Z" fill="#DB9C30"/>
        <path d="M92.3159 48.398L95.779 46.9611C95.7359 46.4006 95.6497 45.9265 95.5922 45.5672C95.5347 45.208 95.506 44.9924 95.506 44.9924C95.506 44.9924 94.8881 45.0212 94.184 45.481C93.4799 45.9408 92.7183 46.8174 92.3159 48.398Z" fill="#DB9C30"/>
        <path d="M90.8932 26.2402L88.6084 28.5106C89.5137 28.41 90.5914 28.2088 91.4392 28.0364C92.3014 27.864 92.9193 27.7203 92.9193 27.7203C92.9193 27.7203 92.0858 27.0305 90.8788 26.2258L90.8932 26.2402Z" fill="#DB9C30"/>
        <path d="M84.973 40.1787C84.973 40.1787 85.5046 39.2734 85.9932 38.1382C86.2375 37.5778 86.4818 36.9599 86.6398 36.3995C86.7979 35.8391 86.8697 35.3362 86.8266 34.9769C86.7691 34.589 86.6255 34.0142 86.3812 33.425C86.1369 32.8359 85.8208 32.1892 85.5334 31.6001L82.875 34.2441L82.9037 34.4596C83.0043 35.1494 83.2055 35.8535 83.4354 36.4857C83.651 37.1611 83.8952 37.779 84.1251 38.325C84.3551 38.8567 84.5562 39.3309 84.7143 39.6614C84.8724 39.9919 84.973 40.1787 84.973 40.1787Z" fill="#DB9C30"/>
        <path d="M106.628 57.5083C106.628 57.5083 106.557 57.2353 106.413 56.7755C106.269 56.33 106.025 55.6978 105.723 55.008C105.436 54.3039 105.033 53.5423 104.588 52.8238C104.358 52.4646 104.114 52.1054 103.869 51.7749C103.611 51.4444 103.323 51.1426 103.036 50.8696C101.613 49.4757 100.363 49.3177 99.5011 49.4326C98.6389 49.562 98.1504 49.993 98.1504 49.993C98.1504 49.993 98.2941 50.2086 98.5384 50.5822C98.7683 50.9414 99.07 51.4444 99.4149 51.976C99.5873 52.2347 99.7598 52.5221 99.9466 52.7951C100.119 53.0681 100.291 53.3555 100.464 53.6142C100.809 54.1315 101.139 54.5913 101.398 54.8643C101.915 55.4247 103.223 56.0426 104.416 56.5599C105.005 56.8042 105.551 57.0485 105.967 57.2209C106.37 57.3934 106.628 57.4939 106.628 57.4939V57.5083Z" fill="#DB9C30"/>
        <path d="M97.5038 60.0085C97.8199 59.3762 98.1648 58.0111 98.2941 56.804C98.4666 55.5826 98.4809 54.5193 98.4809 54.5193C98.4809 54.5193 97.8343 54.4187 97.044 54.7492C96.2249 55.0797 95.3196 55.8125 94.5437 57.3788C94.2419 57.9967 94.0407 58.6721 93.8252 59.3331C93.6097 59.9941 93.5091 60.6407 93.3654 61.2299C93.236 61.8046 93.1498 62.3076 93.1067 62.6525C93.0636 63.0117 93.0205 63.2272 93.0205 63.2272C93.0205 63.2272 93.2648 63.1123 93.6384 62.9255C93.9976 62.7387 94.5006 62.4656 95.0179 62.1351C96.0381 61.5029 97.202 60.6407 97.5038 60.0085Z" fill="#DB9C30"/>
        <path d="M100.377 58.629C100.377 58.629 100.478 58.8733 100.636 59.2757C100.722 59.4769 100.822 59.7068 100.923 59.9654C101.024 60.2241 101.124 60.5115 101.239 60.8132C101.469 61.4167 101.728 62.049 101.986 62.6238C102.216 63.1986 102.446 63.7015 102.662 64.032C102.863 64.3481 103.265 64.7217 103.739 65.081H106.958C106.771 64.3338 106.527 63.486 106.225 62.6669C105.909 61.8478 105.478 61.0431 105.018 60.3821C104.472 59.5631 103.84 59.0745 103.294 58.7584C102.748 58.4566 102.231 58.3417 101.8 58.3273C100.937 58.2985 100.377 58.6147 100.377 58.6147V58.629Z" fill="#DB9C30"/>
        <path d="M95.6211 65.0953H99.3715C99.6733 64.0463 99.8745 63.1698 99.8745 63.1698C99.8745 63.1698 99.2853 62.9686 98.4663 63.1123C97.6472 63.2704 96.5839 63.7877 95.6211 65.0953Z" fill="#DB9C30"/>
        <path d="M102.791 44.0583L99.8169 45.2941C100.693 45.5528 101.771 45.7827 102.633 45.9551C103.481 46.1132 104.128 46.2282 104.128 46.2282C104.128 46.2282 104.099 46.1707 104.042 46.0557C103.984 45.9551 103.898 45.7971 103.783 45.5959C103.553 45.2079 103.222 44.6619 102.806 44.0727L102.791 44.0583Z" fill="#DB9C30"/>
        <path d="M91.9998 54.6774C91.9998 54.6774 92.8332 54.0452 93.7241 53.1974C94.1696 52.7663 94.615 52.3064 94.9887 51.8322C95.3479 51.3724 95.6209 50.9413 95.7071 50.5965C95.8077 50.2229 95.8652 49.6337 95.8796 48.9871C95.8796 48.3404 95.8365 47.6363 95.779 46.9753L92.3159 48.4123L92.2584 48.6278C92.086 49.3032 92.0142 50.0217 91.9711 50.7114C91.9136 51.4155 91.8992 52.0765 91.9279 52.6657C91.8992 53.8584 91.9998 54.6918 91.9998 54.6918V54.6774Z" fill="#DB9C30"/>
        <path d="M32.7061 42.1204V50.7796C32.7061 54.0433 35.0133 56.2029 38.0492 56.2029C38.7405 56.2135 39.4267 56.0846 40.0669 55.8237C40.7072 55.5629 41.2882 55.1756 41.7752 54.6849V55.9715H43.8741V42.1204H41.7566V50.67C41.7566 52.8606 40.2497 54.3432 38.2989 54.347C36.3259 54.343 34.8385 52.9018 34.8385 50.67V42.1204H32.7061ZM45.464 42.1204V55.9715H47.4793V54.7035C47.9611 55.1852 48.5333 55.5673 49.163 55.8278C49.7926 56.0882 50.4675 56.222 51.1489 56.2214C54.1189 56.3046 56.5718 53.9197 56.5718 50.9486C56.5718 47.9775 54.1189 45.5924 51.1489 45.6758C50.4702 45.6753 49.7982 45.8093 49.1716 46.0698C48.545 46.3303 47.9761 46.7123 47.4978 47.1937V42.1204H45.464ZM62.5942 45.6832C59.6914 45.6704 57.3318 48.0212 57.334 50.9242C57.334 53.9334 59.7136 56.1873 62.7989 56.1873C63.6555 56.2046 64.504 56.0182 65.2746 55.6435C66.0451 55.2688 66.7157 54.7165 67.2311 54.032L65.759 52.9616C65.4237 53.4315 64.9788 53.8125 64.463 54.0717C63.9472 54.3309 63.376 54.4605 62.7989 54.4493C61.1071 54.4711 59.6543 53.251 59.3834 51.5809H67.7322V50.9242C67.7322 47.9194 65.5592 45.6844 62.5965 45.6832H62.5942ZM73.274 45.7988C72.7957 45.7946 72.3245 45.9147 71.9065 46.1473C71.4886 46.3799 71.1382 46.717 70.8896 47.1256V45.8804H68.8743V55.9715H70.9088V50.2335C70.9088 48.6699 71.8759 47.6607 73.2079 47.6607H74.0655V45.8011C73.7924 45.8033 73.5134 45.7995 73.274 45.7988ZM62.5245 47.4346C63.2717 47.4246 63.9987 47.6767 64.5792 48.1471C65.1597 48.6176 65.557 49.2766 65.702 50.0096H59.4332C59.5753 49.2911 59.96 48.6432 60.5227 48.1745C61.0855 47.7057 61.7922 47.4445 62.5245 47.4346ZM50.9858 47.4443C52.9306 47.4297 54.5147 49.0025 54.5146 50.9472C54.51 52.8885 52.9307 54.4576 50.9895 54.4493C50.0667 54.4412 49.1846 54.0682 48.536 53.4118C47.8857 52.757 47.521 51.8714 47.5217 50.9486C47.5201 50.0258 47.8838 49.14 48.5334 48.4845C49.1813 47.8273 50.063 47.4533 50.9858 47.4443ZM32.7061 59.6599V73.4733H42.6216V71.1052H35.3847V67.6898H42.4281V65.4129H35.3847V62.0241H42.6216V59.6599H32.7061ZM57.9374 60.3698V63.2915H55.9414V65.61H57.9419V71.0563C57.9419 72.4299 58.9317 73.5185 60.7153 73.5185H63.5615L63.5504 71.1998H61.5729C60.9695 71.1998 60.5827 70.9383 60.5827 70.3958V65.5988H63.5504V63.2914H60.5938V60.3698H57.9374ZM48.7579 63.0167C45.7518 62.9988 43.3151 65.4487 43.3491 68.4547C43.383 71.4604 45.8747 73.8547 48.8794 73.7689C50.0842 73.7812 51.2558 73.3735 52.1926 72.6157V73.5376H54.8221V63.2915H52.2073V64.2025C51.2699 63.4319 50.0928 63.013 48.8794 63.0181C48.8371 63.0169 48.7941 63.017 48.7579 63.0167ZM69.155 63.03C66.4076 63.03 64.4761 64.1455 64.4761 66.2971C64.4761 67.7886 65.5386 68.76 67.8308 69.2343L70.3396 69.8037C71.3263 69.9934 71.5914 70.2516 71.5914 70.6538C71.5914 71.2951 70.8324 71.6973 69.6369 71.6973C68.119 71.6973 67.2501 71.3668 66.9124 70.2284H64.256C64.6355 72.361 66.2597 73.7807 69.5383 73.7807H69.5421C72.5781 73.7807 74.2939 72.3615 74.2939 70.3958C74.2939 68.9993 73.2807 67.9553 71.1594 67.5075L68.9166 67.0561C67.6151 66.8208 67.2046 66.5816 67.2046 66.111C67.2046 65.4924 67.8312 65.1134 68.9885 65.1134C70.2408 65.1134 71.1592 65.447 71.4249 66.5816H74.0544C73.9064 64.4527 72.3389 63.03 69.155 63.03ZM49.1107 65.1964C50.8595 65.2131 52.2624 66.6466 52.2414 68.3954C52.2439 70.1362 50.8209 71.5422 49.0802 71.5188C47.3344 71.5105 45.926 70.0882 45.9343 68.3425C45.9426 66.5965 47.3649 65.1881 49.1107 65.1964Z" fill="#372301"/>
        <path d="M28.5687 85.7808L32.612 74.8139H33.6608V76.5847H33.2276L30.0051 85.7808H28.5687ZM30.4003 82.6419L30.8259 81.4791H35.7812L36.2068 82.6419H30.4003ZM36.5716 85.7808L33.3492 76.5847V74.8139H33.9648L38.008 85.7808H36.5716ZM39.8135 85.7808L37.5183 77.5879H38.8407L40.4519 84.1391H40.5735L42.4051 77.5879H43.6591L45.4907 84.1391H45.6123L47.2236 77.5879H48.5384L46.2431 85.7808H44.9131L43.0815 79.4423H42.9599L41.1359 85.7808H39.8135ZM51.8411 85.9252C51.3243 85.9252 50.8581 85.8264 50.4426 85.6288C50.0322 85.4312 49.7054 85.15 49.4622 84.7852C49.2241 84.4203 49.105 83.9897 49.105 83.4931V83.4779C49.105 82.9915 49.2216 82.5761 49.4546 82.2315C49.6877 81.8819 50.0272 81.6083 50.473 81.4107C50.9189 81.2131 51.4585 81.0966 52.0919 81.0611L55.1015 80.8787V81.9351L52.2515 82.1175C51.6283 82.153 51.1722 82.2822 50.8834 82.5051C50.5997 82.7281 50.4578 83.0422 50.4578 83.4475V83.4627C50.4578 83.8782 50.6149 84.2025 50.929 84.4355C51.2432 84.6636 51.6384 84.7776 52.1147 84.7776C52.5656 84.7776 52.9659 84.6889 53.3155 84.5115C53.6651 84.3291 53.9387 84.0834 54.1363 83.7743C54.3389 83.4653 54.4403 83.1157 54.4403 82.7255V80.1719C54.4403 79.6652 54.2857 79.2802 53.9767 79.0167C53.6727 78.7482 53.2141 78.6139 52.6011 78.6139C52.1096 78.6139 51.7068 78.7026 51.3927 78.8799C51.0785 79.0522 50.8682 79.2979 50.7618 79.6171L50.7542 79.6399H49.4318L49.4394 79.5943C49.5104 79.1636 49.6877 78.7887 49.9714 78.4695C50.2602 78.1452 50.6326 77.8944 51.0886 77.7171C51.5447 77.5347 52.064 77.4435 52.6467 77.4435C53.3155 77.4435 53.8804 77.5524 54.3415 77.7703C54.8076 77.9882 55.1598 78.3023 55.3979 78.7127C55.6411 79.118 55.7627 79.6044 55.7627 80.1719V85.7808H54.4403V84.5723H54.3187C54.1464 84.8612 53.9361 85.1069 53.6879 85.3096C53.4447 85.5122 53.1685 85.6668 52.8595 85.7732C52.5504 85.8745 52.2109 85.9252 51.8411 85.9252ZM57.7126 85.7808V77.5879H59.035V78.8039H59.1566C59.3137 78.3732 59.5797 78.0388 59.9546 77.8007C60.3295 77.5625 60.7931 77.4435 61.3454 77.4435C61.4721 77.4435 61.5962 77.4511 61.7178 77.4663C61.8445 77.4764 61.9407 77.4865 62.0066 77.4967V78.7811C61.8698 78.7558 61.7355 78.738 61.6038 78.7279C61.4771 78.7127 61.3403 78.7051 61.1934 78.7051C60.7729 78.7051 60.4005 78.7887 60.0762 78.9559C59.7519 79.1231 59.4961 79.3562 59.3086 79.6551C59.1262 79.954 59.035 80.3036 59.035 80.7039V85.7808H57.7126ZM65.9705 85.9252C65.2814 85.9252 64.6785 85.7504 64.1617 85.4008C63.6449 85.0512 63.2446 84.5597 62.9609 83.9263C62.6771 83.2879 62.5353 82.5431 62.5353 81.6919V81.6767C62.5353 80.8204 62.6771 80.0756 62.9609 79.4423C63.2446 78.809 63.6424 78.3175 64.1541 77.9679C64.6709 77.6183 65.2764 77.4435 65.9705 77.4435C66.3454 77.4435 66.6976 77.5043 67.0269 77.6259C67.3613 77.7424 67.6577 77.9071 67.9161 78.1199C68.1745 78.3327 68.3772 78.586 68.5241 78.8799H68.6457V74.335H69.9681V85.7808H68.6457V84.4735H68.5241C68.3569 84.7776 68.1467 85.0385 67.8933 85.2564C67.64 85.4692 67.3512 85.6338 67.0269 85.7504C66.7026 85.8669 66.3505 85.9252 65.9705 85.9252ZM66.2745 84.7548C66.771 84.7548 67.1992 84.6306 67.5589 84.3823C67.9187 84.1341 68.1948 83.7819 68.3873 83.3259C68.5799 82.8649 68.6761 82.3202 68.6761 81.6919V81.6767C68.6761 81.0434 68.5799 80.4987 68.3873 80.0427C68.1948 79.5867 67.9187 79.2346 67.5589 78.9863C67.1992 78.738 66.771 78.6139 66.2745 78.6139C65.778 78.6139 65.3498 78.738 64.9901 78.9863C64.6354 79.2295 64.3618 79.5791 64.1693 80.0351C63.9818 80.4911 63.8881 81.0383 63.8881 81.6767V81.6919C63.8881 82.3253 63.9818 82.8725 64.1693 83.3335C64.3618 83.7895 64.6354 84.1417 64.9901 84.3899C65.3498 84.6332 65.778 84.7548 66.2745 84.7548ZM74.8517 85.9252C74.2436 85.9252 73.7066 85.834 73.2404 85.6516C72.7743 85.4641 72.3994 85.2032 72.1156 84.8688C71.837 84.5343 71.6723 84.1417 71.6216 83.6907H72.9744C73.0859 84.0302 73.3038 84.3038 73.628 84.5115C73.9523 84.7193 74.3754 84.8232 74.8973 84.8232C75.2671 84.8232 75.5914 84.77 75.8701 84.6636C76.1538 84.5521 76.3767 84.4026 76.5389 84.2151C76.701 84.0226 76.7821 83.8022 76.7821 83.5539V83.5387C76.7821 83.2601 76.6706 83.0245 76.4477 82.8319C76.2247 82.6343 75.8599 82.4747 75.3533 82.3531L74.084 82.0491C73.5723 81.9275 73.1518 81.7705 72.8224 81.5779C72.4931 81.3803 72.2499 81.1396 72.0928 80.8559C71.9358 80.5671 71.8572 80.2276 71.8572 79.8375V79.8299C71.8572 79.3739 71.989 78.966 72.2524 78.6063C72.521 78.2466 72.8858 77.9628 73.3468 77.7551C73.8079 77.5473 74.3272 77.4435 74.9049 77.4435C75.4774 77.4435 75.9841 77.5347 76.4249 77.7171C76.8707 77.8944 77.2279 78.1478 77.4965 78.4771C77.7701 78.8064 77.9373 79.194 77.9981 79.6399H76.6985C76.6123 79.3156 76.4147 79.0522 76.1057 78.8495C75.7966 78.6468 75.3938 78.5455 74.8973 78.5455C74.573 78.5455 74.2842 78.5987 74.0308 78.7051C73.7775 78.8064 73.5774 78.9483 73.4304 79.1307C73.2835 79.3131 73.21 79.5259 73.21 79.7691V79.7843C73.21 79.9667 73.2582 80.1288 73.3544 80.2707C73.4507 80.4126 73.6002 80.5367 73.8028 80.6431C74.0055 80.7495 74.2664 80.8432 74.5856 80.9243L75.8473 81.2283C76.6174 81.4158 77.1899 81.6843 77.5649 82.0339C77.9449 82.3835 78.1349 82.8522 78.1349 83.4399V83.4551C78.1349 83.9415 77.9905 84.3722 77.7017 84.7472C77.4129 85.117 77.0202 85.4058 76.5237 85.6136C76.0322 85.8213 75.4749 85.9252 74.8517 85.9252Z" fill="#372301"/>
    </g>
    <defs>
        <clipPath id="clip0_68_3994">
            <rect width="110.617" height="110.717" fill="white" transform="translate(-3.27051 9.72949)"/>
        </clipPath>
    </defs>
</svg>
