<svg width="11" height="11" viewBox="0 0 11 11" fill="none" xmlns="http://www.w3.org/2000/svg">
<path d="M6 1.06714C6 0.668701 6.32812 0.317139 6.75 0.317139H9.72656C9.84375 0.317139 9.9375 0.340576 10.0312 0.387451C10.1016 0.410889 10.1953 0.481201 10.2656 0.551514C10.4062 0.692139 10.4766 0.879639 10.5 1.06714V4.06714C10.5 4.48901 10.1484 4.81714 9.75 4.81714C9.32812 4.81714 9 4.48901 9 4.06714V2.89526L5.01562 6.8562C4.73438 7.16089 4.24219 7.16089 3.96094 6.8562C3.65625 6.57495 3.65625 6.08276 3.96094 5.80151L7.92188 1.81714H6.75C6.32812 1.81714 6 1.48901 6 1.06714ZM0 2.56714C0 1.74683 0.65625 1.06714 1.5 1.06714H3.75C4.14844 1.06714 4.5 1.4187 4.5 1.81714C4.5 2.23901 4.14844 2.56714 3.75 2.56714H1.5V9.31714H8.25V7.06714C8.25 6.6687 8.57812 6.31714 9 6.31714C9.39844 6.31714 9.75 6.6687 9.75 7.06714V9.31714C9.75 10.1609 9.07031 10.8171 8.25 10.8171H1.5C0.65625 10.8171 0 10.1609 0 9.31714V2.56714Z" fill="black"/>
</svg>
