<svg width="17" height="15" viewBox="0 0 17 15" fill="none" xmlns="http://www.w3.org/2000/svg">
<path d="M13.7592 9.75768C13.6951 10.135 13.6266 10.5114 13.5613 10.8884C13.4961 11.2655 13.4338 11.6432 13.3687 12.0203C13.3003 12.4161 13.234 12.8125 13.1589 13.2068C13.1283 13.3667 13.0153 13.466 12.8811 13.5146C12.7526 13.5611 12.6145 13.5764 12.4744 13.6068C12.3459 13.5767 12.2151 13.5619 12.0953 13.5142C11.946 13.4548 11.8921 13.3152 11.9137 13.1459C11.9614 12.771 12.0038 12.3954 12.0493 12.0201C12.0946 11.6476 12.1412 11.2753 12.1866 10.9028C12.2214 10.6167 12.2538 10.3301 12.2899 10.0442C12.3107 9.8799 12.3143 9.70753 12.3655 9.55447C12.4535 9.29104 12.6607 9.16898 12.907 9.13984C13.0558 9.12225 13.2081 9.13015 13.3582 9.13813C13.5756 9.14975 13.749 9.30907 13.7757 9.52332C13.7852 9.5994 13.7723 9.68078 13.7592 9.75768ZM10.6507 10.9794C10.6137 11.5694 10.5757 12.1594 10.5381 12.7494C10.5283 12.9016 10.5249 13.0548 10.5061 13.2058C10.4831 13.3905 10.3597 13.495 10.2096 13.5387C9.96701 13.6095 9.71844 13.6197 9.47789 13.5179C9.32368 13.4526 9.24853 13.3232 9.25114 13.1425C9.25931 12.5701 9.26871 11.9977 9.27763 11.4253C9.27564 11.4253 9.27365 11.4252 9.27166 11.4252C9.27942 10.8609 9.28642 10.2967 9.29506 9.7325C9.30049 9.38352 9.51536 9.14677 9.8384 9.13589C9.97634 9.13127 10.1153 9.12576 10.2524 9.1385C10.451 9.15698 10.6147 9.25073 10.6989 9.45916C10.7222 9.51676 10.7333 9.58651 10.73 9.64948C10.7065 10.0929 10.6784 10.5362 10.6507 10.9794ZM7.57914 13.5428C7.34086 13.6099 7.09626 13.6186 6.86176 13.5184C6.70192 13.4501 6.60612 13.3277 6.58971 13.1266C6.55183 12.6628 6.49981 12.2002 6.45458 11.737C6.41965 11.3795 6.3865 11.0216 6.3524 10.664C6.32186 10.3442 6.29619 10.0239 6.25885 9.70507C6.22028 9.37607 6.42205 9.17889 6.66061 9.14938C6.86437 9.12427 7.07794 9.13343 7.28033 9.17099C7.52931 9.21712 7.67776 9.42846 7.69155 9.70135C7.72099 10.2864 7.74549 10.8718 7.77198 11.457C7.7715 11.4571 7.77102 11.4571 7.77054 11.4571C7.79642 12.0097 7.8157 12.5628 7.85098 13.1146C7.86669 13.3595 7.74289 13.4968 7.57914 13.5428ZM4.94784 13.5504C4.91146 13.5606 4.87482 13.5743 4.83783 13.5766C4.77029 13.5808 4.70242 13.5778 4.63468 13.5778C4.4743 13.592 4.31885 13.5714 4.17549 13.4865C4.05127 13.413 3.96528 13.3106 3.93419 13.1524C3.84909 12.7187 3.75761 12.2866 3.66784 11.854C3.58192 11.44 3.49448 11.0264 3.40883 10.6124C3.3446 10.3018 3.28537 9.98996 3.21812 9.68026C3.15717 9.39924 3.31248 9.1812 3.56538 9.14916C3.76893 9.12337 3.98285 9.13291 4.18503 9.17129C4.41274 9.21451 4.63297 9.41616 4.66879 9.7632C4.69926 10.0576 4.75726 10.3486 4.80248 10.6412C4.8473 10.9311 4.89115 11.2212 4.93583 11.5111C4.98133 11.8064 5.02731 12.1016 5.07295 12.3969C5.11529 12.6707 5.16024 12.9441 5.19854 13.2185C5.21803 13.3583 5.10033 13.5074 4.94784 13.5504ZM4.95765 6.50117C5.90693 5.46952 6.85668 4.43832 7.80506 3.40569C7.85159 3.3551 7.88749 3.34138 7.95433 3.37134C8.30804 3.5294 8.66272 3.52642 9.01183 3.35115C9.07044 3.32171 9.10819 3.3273 9.15554 3.37894C10.1055 4.41402 11.0574 5.44701 12.0087 6.48053C12.0325 6.50639 12.0554 6.53329 12.0923 6.57517H4.89767C4.92389 6.54268 4.93967 6.5207 4.95765 6.50117ZM16.5 7.46747C16.5 7.24793 16.4268 7.04703 16.3057 6.89158C16.2741 6.85104 16.2394 6.81348 16.2017 6.77965C16.0595 6.65192 15.8771 6.57517 15.6782 6.57517C15.6404 6.57517 15.6031 6.57822 15.5665 6.58359C15.0318 6.5818 14.497 6.58217 13.9622 6.58366C13.9032 6.58381 13.8596 6.56764 13.8164 6.5207C12.5067 5.09588 11.1953 3.67285 9.88589 2.24781C9.85755 2.21703 9.82934 2.1642 9.8325 2.12463C9.87059 1.65046 9.72983 1.24664 9.41716 0.921432C8.66814 0.142327 7.45149 0.492048 7.14506 1.57117C7.09297 1.75471 7.0752 1.94511 7.101 2.137C7.11054 2.20787 7.09359 2.25846 7.04555 2.31048C5.75107 3.71316 4.45803 5.11741 3.16596 6.52271C3.12492 6.56734 3.08347 6.58374 3.02698 6.58359C2.49333 6.58202 1.95967 6.58255 1.42601 6.58262C1.39183 6.57793 1.35704 6.57517 1.32169 6.57517C1.11629 6.57517 0.928656 6.65722 0.784604 6.79247C0.610355 6.95611 0.5 7.19771 0.5 7.46747C0.5 7.75705 0.6271 8.01429 0.823996 8.17727C0.962146 8.29166 1.13454 8.35969 1.32169 8.35969H1.61007C1.62599 8.38503 1.63361 8.4278 1.64645 8.50106C1.74651 9.07329 1.84753 9.64531 1.94718 10.2176C2.0519 10.8194 2.15444 11.4216 2.25992 12.0231C2.3654 12.6247 2.47363 13.2257 2.58 13.8271C2.6008 13.9445 2.61171 14.0646 2.63999 14.1797C2.68507 14.3629 2.82755 14.4828 3.00111 14.4974C3.03858 14.5006 3.0764 14.4999 3.11407 14.4999C6.69938 14.5 10.2847 14.5003 13.87 14.4982C13.9559 14.4981 14.0474 14.486 14.1265 14.4524C14.2621 14.3947 14.3346 14.2702 14.3612 14.116C14.4518 13.5917 14.5419 13.0674 14.6323 12.5431C14.7163 12.0562 14.7993 11.5691 14.8847 11.0825C14.97 10.5959 15.0583 10.1099 15.1443 9.6234C15.2166 9.21443 15.2886 8.8054 15.358 8.39591C15.3604 8.38145 15.3637 8.3696 15.368 8.35969H15.6782C15.8667 8.35969 16.0402 8.29069 16.1788 8.17488C16.3741 8.01176 16.5 7.75564 16.5 7.46747Z" fill="white"/>
</svg>
