<svg width="82" height="753" viewBox="0 0 82 753" fill="none" xmlns="http://www.w3.org/2000/svg">
<path d="M21.6146 322.75C24.1146 321.25 23.4147 318.05 24.7147 315.95C26.8147 312.45 31.1147 308.95 33.7147 308.65C37.7147 308.15 42.3147 311.15 46.9147 309.25C48.5147 312.65 51.5147 314.65 54.4147 316.75C55.2147 317.35 55.3146 318.35 55.0146 319.05C53.5146 322.15 51.7147 325.25 49.9147 328.15C48.5147 330.45 44.1147 330.55 42.8147 333.95C38.8147 332.35 34.1147 335.25 30.3147 332.55C27.2147 330.35 24.6146 330.75 22.0146 333.65C30.4146 335.45 29.2147 345.05 34.7147 349.15C35.6147 349.75 34.7147 350.55 34.3147 351.25C32.8147 353.85 30.2147 356.15 32.9147 359.65C33.8147 360.75 31.8146 360.95 31.1146 361.35C29.5146 362.25 28.1147 362.85 27.9147 365.15C27.7147 367.65 25.0147 369.05 23.3147 367.75C20.0147 365.05 12.9146 367.35 13.0146 360.05C13.0146 358.05 10.9147 359.25 9.81469 358.85C6.31469 357.55 6.01461 356.55 8.61461 353.85C9.31461 353.15 9.41464 352.05 9.01464 351.55C7.21464 349.35 8.81466 346.65 7.91466 344.35C5.71466 347.25 2.11466 349.55 -0.585337 350.35C-4.38534 351.45 -8.88534 346.35 -13.5853 349.55C-14.6853 345.75 -18.9854 345.75 -21.3854 343.35C-23.7854 340.85 -23.1853 339.25 -21.6853 337.25C-20.4853 335.55 -18.9853 333.35 -17.7853 332.55C-13.3853 329.75 -12.2854 322.75 -4.48536 323.65C-0.285362 324.15 3.51471 323.45 6.71471 327.05C8.71471 329.35 10.3146 326.65 12.5146 325.35C5.91464 324.05 2.91469 319.65 0.814688 314.35C0.314688 313.05 -0.0852871 311.35 -1.78529 311.05C-3.28529 310.75 -2.98529 309.55 -2.78529 308.75C-2.08529 305.95 0.314713 303.15 -2.78529 300.35C0.214712 296.95 3.11469 293.45 6.31469 290.25C7.11469 289.45 8.41471 290.75 9.21471 291.65C10.4147 292.95 11.5146 294.25 13.6146 293.25C14.2146 292.95 15.8147 293.55 15.8147 293.55C15.3147 298.25 19.9146 298.35 22.1146 300.55C24.0146 302.45 26.8147 304.35 22.9147 306.95C21.9147 307.65 22.2147 308.75 22.2147 309.65C22.2147 312.75 22.3147 315.75 20.4147 318.65C19.5147 319.75 19.6146 321.75 21.6146 322.75Z" fill="white"/>
<path d="M49.1871 8.8978C46.9258 6.35832 44.6485 3.82867 42.2937 1.3763C40.2387 2.81381 38.1898 4.25984 36.1628 5.73662C34.6969 6.8045 33.2164 7.8636 31.8214 9.02334C30.5835 10.0523 29.3985 11.1429 28.1876 12.203C27.5719 12.7419 26.941 13.2802 26.2952 13.8067C29.5326 17.74 32.7801 21.6651 36.0346 25.5843C37.7691 27.6731 39.26 28.0656 41.422 26.3773C45.0512 23.5431 48.5274 20.5012 51.9383 17.4037C53.4688 16.0137 53.4299 14.5962 52.232 12.902C51.2641 11.5329 50.2991 10.1467 49.1871 8.8978Z" fill="black"/>
<path d="M-7.02346 485.212C-8.91428 491.309 -8.94719 497.423 -7.12208 503.384C-2.70473 517.81 11.2759 527.353 17.5317 528.422L17.0201 531.414C9.92491 530.201 -5.18041 520.093 -10.0249 504.272C-11.4373 499.66 -11.8386 494.969 -11.2299 490.263C-10.9735 488.281 -10.5378 486.295 -9.92311 484.313C-7.53889 476.625 -2.44302 469.006 5.22347 461.669L7.32277 463.862C0.0330692 470.839 -4.79375 478.022 -7.02346 485.212Z" fill="black"/>
<path d="M35.5542 427.947C40.2444 429.509 44.9307 431.097 49.5583 432.833C48.8189 436.403 48.0645 439.97 47.2566 443.525C46.6724 446.096 46.1084 448.682 45.3608 451.211C44.6977 453.455 43.9218 455.664 43.2016 457.89C42.8355 459.022 42.479 460.174 42.1469 461.338C35.0345 459.274 27.9274 457.192 20.8241 455.096C17.0384 453.98 15.6579 452.214 16.6709 448.357C18.3713 441.883 20.4371 435.493 22.6146 429.159C23.5919 426.316 25.5072 425.554 28.4578 426.181C30.8421 426.687 33.2477 427.18 35.5542 427.947Z" fill="black"/>
<path d="M40.5695 537.612L40.2465 536.255C40.8843 535.74 41.6138 535.33 42.4377 534.786C42.4407 533.958 42.9169 533.282 43.9705 533.062C44.5092 532.95 44.5355 532.471 44.6071 532.043C44.7187 531.378 44.8284 530.712 44.935 530.068C46.0962 530.123 47.2093 530.616 48.4322 531.559C48.5227 531.482 48.6228 531.408 48.7095 531.32C49.5718 530.456 49.6906 530.445 50.6288 531.211C50.9938 531.509 51.3417 531.829 51.6887 532.131C52.1947 531.702 52.6264 531.192 53.1752 530.907C53.8945 530.532 54.4414 531.178 54.7528 531.386C55.6816 530.959 56.3863 530.551 57.1446 530.314C57.7609 530.122 57.9948 530.374 58.0362 531.043C58.1036 532.13 57.9433 533.169 57.2767 534.026C57.9025 534.523 58.456 534.964 59.0186 535.411C58.751 535.882 58.5667 536.205 58.4139 536.474C58.9191 537.168 59.3689 537.787 59.8655 538.469C60.9522 538.821 62.2536 538.4 63.5365 538.919C62.9536 540.288 62.9189 541.836 61.1258 542.366C61.3793 543.059 61.5978 543.656 61.8569 544.365C61.4886 544.238 61.3017 544.174 61.117 544.111C60.7482 545.012 60.7482 545.012 61.8376 545.998C61.0751 546.202 61.0563 546.744 61.1349 547.167C61.8039 547.961 62.4002 548.587 62.8906 549.287C63.1133 549.605 63.2869 550.113 63.1955 550.459C63.0666 550.949 62.5405 551.138 62.0246 551.034C61.1772 550.862 60.4298 551.248 59.8826 551.705C59.038 552.412 58.2245 552.766 57.1025 552.346C56.9177 552.682 56.6156 552.978 56.62 553.268C56.6392 554.496 55.8971 555.044 54.8716 555.372C54.6072 556.212 54.3515 557.025 54.106 557.805C52.6454 557.835 52.1506 557.703 51.137 556.653C50.59 556.086 50.0725 556.035 49.5529 556.465C48.7649 557.117 48.1461 556.883 47.5164 556.277C47.3647 556.132 47.1981 556.001 47.0003 555.831C46.0857 556.411 45.1701 556.674 44.2954 555.824C44.0399 556.06 43.8527 556.237 43.6596 556.408C43.4329 556.609 43.2191 556.832 42.9674 556.996C42.3472 557.401 41.8463 557.178 41.8059 556.431C41.7734 555.831 41.8682 555.223 41.9291 554.621C41.9656 554.259 42.0448 553.902 42.1049 553.542C42.0242 553.495 41.9432 553.448 41.8625 553.401C41.5452 553.667 41.228 553.932 40.7325 554.346C40.5086 553.471 40.3171 552.721 40.1096 551.91C39.573 552.015 39.161 552.095 38.5154 552.22C38.3882 551.711 38.2415 551.273 38.1733 550.823C38.0144 549.773 37.8486 549.598 36.7649 549.658C36.3192 549.682 35.8671 549.784 35.6176 549.311C35.4886 549.066 35.4501 548.826 35.4844 548.597C37.2929 547.604 38.8253 546.048 39.8163 544.092C40.546 542.651 40.7796 540.821 40.6077 539.099C40.6304 538.609 40.6207 538.114 40.5695 537.612Z" fill="black"/>
<path d="M8.21018 150.057C7.12391 135.937 8.21858 122.082 11.464 108.876C14.5943 96.1391 19.5831 84.5397 26.2921 74.4007C32.9811 64.292 41.0424 56.1449 50.253 50.1851C59.7552 44.0366 70.0784 40.4947 80.9361 39.6581L80.698 36.5645C69.3192 37.4415 58.5092 41.1479 48.5681 47.5803C38.9965 53.7738 30.6313 62.2215 23.7053 72.6888C16.799 83.1257 11.667 95.0519 8.4515 108.136C5.12753 121.662 4.00553 135.846 5.11695 150.296L8.21018 150.057Z" fill="black"/>
<path d="M34.5085 210.994C33.3776 201.296 32.225 191.601 31.0543 181.908C30.4025 176.511 28.3192 174.232 22.8483 174.727C13.6636 175.558 4.51142 176.904 -4.59141 178.416C-8.67597 179.094 -10.1492 181.521 -9.97204 185.672C-9.82933 189.026 -9.70993 192.407 -9.19395 195.715C-8.28504 201.543 -7.34837 207.372 -6.26866 213.17C-2.67195 213.027 0.924132 212.875 4.51957 212.706C14.5215 212.237 24.5185 211.667 34.5085 210.994Z" fill="black"/>
<path d="M1.71661 227.696C7.41024 227.633 17.6696 222.04 23.2794 221.042C15.7993 221.457 3.80871 222.247 -3.67655 222.552C-2.34145 224.292 -0.754878 227.723 1.71661 227.696Z" fill="black"/>
<path d="M17.8646 616.911C8.32165 610.573 -1.6356 608.598 -8.30897 608.057C-17.4352 607.318 -24.3015 608.885 -27.6842 610.599L-29.697 606.624C-24.6138 604.049 -16.4837 602.924 -7.94899 603.616C-4.64802 603.883 -0.601158 604.477 3.81159 605.704C9.01901 607.153 14.7352 609.483 20.3296 613.199C44.4751 629.237 47.7273 658.308 46.2035 679.872L41.7594 679.558C43.1997 659.176 40.2231 631.762 17.8646 616.911Z" fill="white"/>
<path d="M23.0012 739.137C21.5719 738.259 20.3542 737.149 19.3815 735.838C18.4564 734.592 17.8075 733.215 17.4534 731.746C17.1852 730.634 17.0894 729.493 17.1652 728.342C17.1897 727.97 17.2314 727.597 17.2919 727.223C17.5698 725.507 18.1434 723.981 18.9963 722.689C19.8534 721.389 21.0707 720.206 22.6144 719.171C23.9408 718.309 25.3501 717.707 26.8029 717.384C28.2504 717.062 29.7471 717.022 31.2512 717.266C34.8911 717.855 37.6641 719.455 39.7282 722.158C41.776 724.84 42.5029 727.803 41.9503 731.215C41.8972 731.544 41.8259 731.868 41.7421 732.191C41.4422 733.348 40.9492 734.465 40.2654 735.522C39.3873 736.881 38.258 738.043 36.9102 738.975C35.6451 739.849 34.1899 740.455 32.5857 740.776C30.9625 741.101 29.2634 741.125 27.5354 740.845C25.9534 740.589 24.4279 740.014 23.0012 739.137ZM40.6272 745.969C43.1097 744.395 45.1305 742.452 46.6335 740.195C48.1389 737.935 49.1381 735.331 49.6037 732.455C50.066 729.599 49.9489 726.817 49.2555 724.186C48.5635 721.562 47.2941 719.055 45.4808 716.734C43.9237 714.748 42.0368 713.123 39.8733 711.904C37.7251 710.695 35.2683 709.86 32.5719 709.423C29.8419 708.981 27.1741 709.061 24.642 709.661C22.1071 710.262 19.6936 711.396 17.4681 713.031C15.3049 714.622 13.5423 716.516 12.23 718.658C10.9162 720.803 10.0305 723.248 9.59689 725.926C9.17372 728.54 9.24975 731.099 9.82271 733.533C10.3952 735.963 11.4573 738.287 12.9797 740.44C14.5875 742.712 16.5387 744.576 18.7781 745.984C21.0207 747.392 23.5188 748.327 26.2026 748.762C28.816 749.185 31.3759 749.163 33.8117 748.696C36.2621 748.226 38.5587 747.306 40.6272 745.969Z" fill="black"/>
</svg>
