<svg width="119" height="1310" viewBox="0 0 119 1310" fill="none" xmlns="http://www.w3.org/2000/svg">
<path d="M98.7522 819.765C105.425 810.453 114.033 805.072 120.08 802.198C128.349 798.268 135.325 797.297 139.096 797.698L139.567 793.268C133.9 792.664 125.9 794.498 118.167 798.174C115.176 799.595 111.603 801.587 107.913 804.3C103.559 807.503 99.0417 811.71 95.1303 817.17C78.2485 840.733 85.5257 869.066 94.6034 888.685L98.6468 886.815C90.0665 868.27 83.12 841.585 98.7522 819.765Z" fill="#F37423"/>
<path d="M105.348 932.801C105.347 932.801 105.347 932.801 105.347 932.801L105.56 933.777L105.348 932.801ZM105.348 932.801C105.765 932.71 106.22 932.656 106.682 932.6C106.882 932.576 107.083 932.552 107.282 932.525L108.362 932.378L108.417 933.466C108.495 935.025 108.743 936.257 109.489 937.284C113.191 937.587 115.295 940.177 117.037 942.911L117.5 943.637L116.851 944.202C116.652 944.376 116.443 944.54 116.278 944.67C116.211 944.723 116.151 944.771 116.102 944.81C115.905 944.97 115.813 945.063 115.757 945.142L114.942 944.562L115.757 945.142C114.658 946.684 113.918 947.745 114.317 949.323L114.317 949.323C114.858 951.468 114.583 953.754 113.362 955.632C112.733 956.6 112.486 957.503 112.492 958.402C112.496 959.161 112.682 959.962 113.038 960.843C113.286 960.827 113.461 960.776 113.588 960.706C113.76 960.612 113.982 960.406 114.153 959.831C114.292 959.366 114.509 958.954 114.707 958.609C114.788 958.466 114.862 958.342 114.931 958.226C115.047 958.032 115.148 957.861 115.25 957.665C115.531 957.121 115.631 956.708 115.457 956.188C115.338 955.835 115.421 955.526 115.474 955.376C115.533 955.209 115.616 955.067 115.681 954.968C115.808 954.774 115.965 954.591 116.053 954.489L116.058 954.483C116.162 954.363 116.267 954.239 116.374 954.113C117.569 952.706 118.999 951.022 121.183 950.359L121.183 950.359C121.297 950.324 121.432 950.25 121.624 950.097C121.719 950.022 121.816 949.937 121.931 949.837L121.961 949.81C122.063 949.72 122.181 949.617 122.301 949.518C122.67 949.217 123.159 948.886 123.793 948.787C123.848 948.457 123.909 948.099 123.979 947.682L124.108 946.913L124.886 946.851C126.844 946.695 128.576 947.601 129.656 949.335C129.906 949.736 130.104 949.874 130.229 949.925C130.341 949.97 130.526 950 130.879 949.89L130.879 949.89C131.02 949.846 131.16 949.802 131.298 949.759C132.413 949.414 133.434 949.098 134.356 948.612C134.784 948.386 135.196 948.189 135.585 948.067C135.982 947.943 136.427 947.875 136.893 947.988C137.811 948.212 138.357 949.031 138.804 949.818C138.805 949.819 138.806 949.82 138.806 949.822L138.809 949.825C138.817 949.837 138.839 949.87 138.859 949.905C138.897 949.967 139.017 950.169 139.037 950.448M139.037 950.448C139.037 950.448 139.037 950.448 139.037 950.448L138.039 950.518L139.037 950.448Z" fill="#F37524" stroke="#F37524" stroke-width="2"/>
<path d="M115.935 1091.77C109.263 1082.45 100.655 1077.07 94.6077 1074.2C86.3379 1070.27 79.3622 1069.3 75.5916 1069.7L75.1206 1065.27C80.7868 1064.66 88.7869 1066.5 96.5206 1070.17C99.5117 1071.6 103.084 1073.59 106.774 1076.3C111.129 1079.5 115.646 1083.71 119.557 1089.17C136.439 1112.73 129.162 1141.07 120.084 1160.69L116.04 1158.81C124.621 1140.27 131.567 1113.58 115.935 1091.77Z" fill="#F37423"/>
<path d="M120.68 1208.4C121.737 1207.1 122.518 1205.65 123.002 1204.09C123.462 1202.61 123.618 1201.09 123.465 1199.59C123.35 1198.45 123.063 1197.34 122.61 1196.28C122.463 1195.94 122.3 1195.6 122.119 1195.27C121.289 1193.74 120.242 1192.49 119.009 1191.56C117.77 1190.61 116.229 1189.9 114.43 1189.44C112.893 1189.06 111.364 1188.96 109.886 1189.14C108.414 1189.31 106.988 1189.77 105.65 1190.5C102.411 1192.26 100.324 1194.69 99.2722 1197.92C98.2285 1201.13 98.5241 1204.17 100.176 1207.21C100.335 1207.5 100.51 1207.78 100.696 1208.06C101.362 1209.05 102.197 1209.94 103.193 1210.71C104.471 1211.7 105.922 1212.42 107.502 1212.86C108.985 1213.26 110.559 1213.35 112.179 1213.12C113.818 1212.89 115.429 1212.35 116.967 1211.52C118.375 1210.75 119.624 1209.7 120.68 1208.4ZM106.312 1220.69C103.448 1220.02 100.898 1218.86 98.7321 1217.23C96.563 1215.6 94.7574 1213.47 93.3653 1210.91C91.9833 1208.37 91.1721 1205.71 90.9549 1202.99C90.7383 1200.29 91.1055 1197.5 92.0476 1194.71C92.8587 1192.32 94.1007 1190.16 95.7385 1188.3C97.3646 1186.44 99.4061 1184.84 101.806 1183.54C104.235 1182.22 106.779 1181.41 109.366 1181.13C111.957 1180.86 114.61 1181.13 117.252 1181.94C119.82 1182.72 122.11 1183.92 124.058 1185.51C126.008 1187.1 127.654 1189.11 128.95 1191.5C130.215 1193.82 130.992 1196.26 131.257 1198.75C131.522 1201.23 131.29 1203.78 130.567 1206.31C129.802 1208.99 128.579 1211.39 126.932 1213.46C125.283 1215.54 123.236 1217.24 120.847 1218.54C118.522 1219.81 116.099 1220.64 113.646 1221C111.178 1221.37 108.707 1221.26 106.312 1220.69Z" fill="#F37524"/>
<path d="M40.1986 1048.22C42.4599 1045.68 44.7372 1043.15 47.092 1040.7C49.147 1042.13 51.1959 1043.58 53.223 1045.06C54.6888 1046.12 56.1694 1047.18 57.5643 1048.34C58.8023 1049.37 59.9872 1050.46 61.1982 1051.52C61.8139 1052.06 62.4447 1052.6 63.0906 1053.13C59.8531 1057.06 56.6057 1060.99 53.3511 1064.9C51.6166 1066.99 50.1257 1067.39 47.9638 1065.7C44.3345 1062.86 40.8583 1059.82 37.4475 1056.72C35.917 1055.33 35.9558 1053.92 37.1537 1052.22C38.1216 1050.85 39.0867 1049.47 40.1986 1048.22Z" fill="#F37524"/>
<path d="M85.5443 1294.04L85.5229 1296.22C84.3588 1296.77 83.0954 1297.11 81.6375 1297.63C81.3202 1298.89 80.3414 1299.73 78.6571 1299.67C77.7959 1299.64 77.575 1300.36 77.3047 1300.98C76.8838 1301.95 76.4656 1302.92 76.0605 1303.86C74.3163 1303.33 72.8106 1302.17 71.3081 1300.27C71.1414 1300.35 70.9613 1300.43 70.7966 1300.53C69.1595 1301.52 68.9747 1301.49 67.8384 1299.97C67.3962 1299.38 66.9881 1298.76 66.5749 1298.17C65.6439 1298.63 64.795 1299.24 63.8532 1299.47C62.6185 1299.77 62.031 1298.58 61.6364 1298.15C60.0636 1298.44 58.8383 1298.8 57.5966 1298.87C56.5872 1298.93 56.3269 1298.46 56.5166 1297.43C56.8247 1295.75 57.4608 1294.23 58.7973 1293.18C58.0342 1292.19 57.3592 1291.31 56.673 1290.42C57.2575 1289.8 57.6598 1289.38 57.9935 1289.03C57.488 1287.78 57.0378 1286.67 56.5409 1285.45C55.0218 1284.51 52.8849 1284.65 51.131 1283.38C52.5339 1281.52 53.1713 1279.18 56.0968 1279.05C55.9733 1277.9 55.8668 1276.91 55.7405 1275.74C56.2525 1276.07 56.5124 1276.24 56.7692 1276.4C57.6699 1275.17 57.6699 1275.17 56.3867 1273.26C57.6226 1273.24 57.8558 1272.42 57.8963 1271.75C57.1792 1270.29 56.5093 1269.12 56.0283 1267.87C55.81 1267.3 55.738 1266.46 56.0075 1265.97C56.3886 1265.27 57.2597 1265.18 58.0044 1265.54C59.2274 1266.12 60.509 1265.81 61.5134 1265.33C63.0637 1264.57 64.4338 1264.34 65.9805 1265.4C66.3884 1264.96 66.9593 1264.63 67.0624 1264.18C67.4969 1262.31 68.8315 1261.76 70.514 1261.65C71.2332 1260.47 71.9287 1259.33 72.5968 1258.24C74.8278 1258.74 75.5301 1259.13 76.6741 1261.11C77.2914 1262.18 78.0587 1262.45 79.0108 1261.99C80.4546 1261.3 81.3065 1261.89 82.035 1263.05C82.2105 1263.33 82.4144 1263.59 82.6509 1263.92C84.2599 1263.38 85.7507 1263.33 86.7594 1264.95C87.2365 1264.69 87.5881 1264.49 87.9461 1264.3C88.3667 1264.08 88.7759 1263.83 89.2204 1263.67C90.3159 1263.29 90.993 1263.82 90.7721 1264.97C90.595 1265.89 90.2212 1266.78 89.9014 1267.68C89.7092 1268.21 89.4538 1268.72 89.2266 1269.25C89.3317 1269.35 89.437 1269.45 89.5421 1269.55C90.1244 1269.27 90.7066 1268.99 91.6161 1268.54C91.6259 1269.96 91.6339 1271.17 91.643 1272.48C92.498 1272.53 93.1545 1272.56 94.1831 1272.61C94.1843 1273.43 94.2418 1274.16 94.1755 1274.87C94.0205 1276.52 94.2062 1276.85 95.8758 1277.17C96.5625 1277.3 97.2882 1277.32 97.4887 1278.13C97.5924 1278.55 97.5603 1278.93 97.4214 1279.26C94.2979 1280.09 91.381 1281.88 89.1361 1284.48C87.4832 1286.39 86.4369 1289.08 86.048 1291.77C85.8283 1292.5 85.6561 1293.26 85.5443 1294.04Z" fill="black"/>
<path d="M135.17 733.958C138.656 738.658 138.67 738.984 133.399 744.574C128.46 749.694 123.521 754.814 118.655 759.88C116.102 762.558 111.57 762.108 108.182 758.457C102.912 752.727 97.1823 747.45 91.5263 742.118C90.2878 740.907 90.1516 740.112 91.5671 738.502C97.3218 731.88 103.418 725.566 110.518 720.3C112.568 718.78 113.267 714.675 116.52 715.849C118.671 716.607 120.168 719.084 122.128 720.656C126.424 724.306 130.846 727.975 135.17 733.958Z" fill="black"/>
<path d="M105.296 399.2C95.9503 392.333 90.608 383.554 87.7721 377.397C83.8943 368.978 82.9956 361.905 83.448 358.093L78.9685 357.562C78.2888 363.291 80.0481 371.412 83.6748 379.285C85.0776 382.33 87.0503 385.971 89.7523 389.739C92.941 394.186 97.1453 398.809 102.624 402.835C126.272 420.211 155.042 413.189 175.013 404.238L173.168 400.122C154.292 408.582 127.193 415.29 105.296 399.2Z" fill="#F37423"/>
<path d="M68.029 308.537C69.6821 308.147 71.3484 308.075 72.9826 308.322C74.5363 308.556 75.985 309.081 77.2878 309.883C78.2742 310.49 79.1572 311.24 79.9245 312.121C80.1727 312.405 80.409 312.703 80.6324 313.014C81.658 314.445 82.3353 315.949 82.6458 317.486C82.958 319.031 82.9291 320.749 82.5598 322.594C82.223 324.16 81.6405 325.597 80.8288 326.867C80.0193 328.131 78.9733 329.228 77.7198 330.127C74.6862 332.302 71.5531 333.133 68.1421 332.666C64.7575 332.203 62.1209 330.595 60.0814 327.751C59.8852 327.477 59.7046 327.193 59.5346 326.902C58.9239 325.857 58.4801 324.703 58.2165 323.456C57.8769 321.854 57.858 320.214 58.16 318.582C58.4446 317.052 59.0566 315.578 59.9789 314.202C60.9119 312.81 62.1151 311.581 63.5553 310.548C64.8738 309.603 66.379 308.926 68.029 308.537ZM50.4995 316.215C49.8409 319.117 49.777 321.954 50.3094 324.648C50.8422 327.345 51.9841 329.928 53.7028 332.324C55.4091 334.704 57.4791 336.618 59.855 338.011C62.2253 339.401 64.9261 340.295 67.8843 340.666C70.4201 340.981 72.9346 340.8 75.3575 340.13C77.7632 339.465 80.1228 338.311 82.3701 336.7C84.6453 335.068 86.5035 333.106 87.8929 330.868C89.2834 328.627 90.2066 326.09 90.6367 323.328C91.0536 320.641 90.9674 318.024 90.3798 315.549C89.7924 313.072 88.6824 310.684 87.082 308.452C85.5201 306.274 83.6385 304.491 81.49 303.153C79.3443 301.817 76.923 300.907 74.2928 300.448C71.5173 299.965 68.7854 300.019 66.1734 300.608C63.5578 301.197 61.0973 302.31 58.8606 303.914C56.6824 305.475 54.8608 307.319 53.4457 309.393C52.022 311.479 51.0298 313.779 50.4995 316.215Z" fill="#F37423"/>
<path d="M136.291 610.66L136.29 610.66C136.058 610.241 135.796 609.812 135.548 609.407C135.433 609.219 135.321 609.036 135.217 608.862C134.871 608.284 134.575 607.746 134.364 607.208C133.96 606.18 133.864 605.159 134.476 603.919C134.476 603.919 134.476 603.919 134.477 603.919L133.58 603.476C133.608 603.42 133.604 603.347 133.6 603.276C133.599 603.248 133.597 603.221 133.598 603.195C133.629 600.755 133.101 600.362 130.673 600.254L136.291 610.66ZM136.291 610.66C136.385 610.831 136.491 610.999 136.616 611.197L136.628 611.216C136.752 611.413 136.895 611.641 137.025 611.883L137.025 611.883C137.552 612.863 137.88 613.877 137.639 614.883C137.393 615.91 136.624 616.646 135.64 617.234L135.64 617.234C134.547 617.888 133.263 618.454 131.943 618.685L131.943 618.685C130.08 619.009 128.73 619.721 127.814 621.219C127.39 621.913 126.83 622.434 126.125 622.73C125.428 623.021 124.676 623.056 123.923 622.935C123.065 622.797 122.241 622.695 121.398 622.59C120.783 622.514 120.156 622.436 119.498 622.342L119.498 622.342M136.291 610.66L119.498 622.342M65.9864 638.744C66.7629 636.852 67.4746 635.118 68.1816 633.394C68.4887 632.646 68.7949 631.9 69.1051 631.144M65.9864 638.744L75.7922 648.955C76.2694 648.648 76.7646 648.351 77.2641 648.052C78.41 647.365 79.5782 646.666 80.6028 645.793C82.2945 644.354 83.8138 643.73 85.816 645.134M65.9864 638.744C66.3374 638.936 66.675 639.134 67.0061 639.327M65.9864 638.744L67.0061 639.327M69.1051 631.144L68.5521 631.977C68.3279 631.828 68.0966 631.689 67.8572 631.551M69.1051 631.144L68.18 630.764C68.0719 631.027 67.9644 631.289 67.8572 631.551M69.1051 631.144C68.6242 630.825 68.1179 630.547 67.6195 630.274C66.0328 629.404 64.5268 628.578 64.1789 626.597C64.1585 626.48 64.1363 626.363 64.1139 626.245C63.9665 625.468 63.8124 624.655 64.1318 623.863L64.119 623.854L64.1631 623.788C64.2769 623.531 64.4427 623.275 64.677 623.024L64.9392 623.2C65.6291 623.664 66.2963 624.113 67.0748 624.637M67.8572 631.551C67.6567 632.039 67.4573 632.525 67.2575 633.012C66.5501 634.736 65.8381 636.472 65.0613 638.364L64.7215 639.192L65.5066 639.621C65.7997 639.782 66.1047 639.96 66.4186 640.144C67.1834 640.591 68.0005 641.069 68.8243 641.389L68.8243 641.389C69.3488 641.593 69.6939 641.785 69.9287 642.008C70.139 642.208 70.3051 642.474 70.3855 642.928M67.8572 631.551C67.6215 631.415 67.378 631.282 67.1256 631.143L67.0699 631.113C66.5552 630.83 65.9987 630.523 65.4864 630.166C64.4296 629.428 63.4836 628.419 63.194 626.769L63.194 626.769C63.1767 626.671 63.1554 626.564 63.1326 626.449C62.9285 625.422 62.6026 623.782 63.9458 622.342L64.5274 621.719L65.235 622.194L65.4927 622.368C65.968 622.687 66.4326 623 66.93 623.334M70.3855 642.928C70.3855 642.928 70.3855 642.928 70.3855 642.928L71.3631 642.754L70.3855 642.928ZM70.3855 642.928C70.9163 645.921 72.6473 648.066 75.2387 649.788L75.7835 650.15L76.3336 649.796C76.7544 649.525 77.2155 649.248 77.6956 648.961C78.871 648.256 80.1603 647.483 81.2508 646.555M81.2508 646.555L80.6054 645.796L81.2511 646.555C81.251 646.555 81.2509 646.555 81.2508 646.555ZM81.2508 646.555C82.0605 645.866 82.6999 645.49 83.2801 645.38C83.8002 645.281 84.4104 645.37 85.2418 645.953M85.2418 645.953L85.816 645.134M85.2418 645.953C85.959 646.456 86.8275 646.642 87.617 646.206C88.3282 645.814 88.6953 645.06 88.85 644.346M85.2418 645.953C85.2418 645.953 85.2418 645.953 85.2419 645.953L85.816 645.134M85.816 645.134L88.85 644.346M88.85 644.346L87.8747 644.135L88.85 644.346C88.85 644.346 88.85 644.346 88.85 644.346ZM66.93 623.334C66.7947 623.482 66.6517 623.632 66.5016 623.789C66.4518 623.841 66.4013 623.894 66.35 623.948L67.0748 624.637M66.93 623.334C67.6174 622.585 68.1066 621.897 68.3246 620.603C68.5543 619.239 69.2012 617.984 69.9209 616.854C70.3528 616.176 70.8633 615.467 71.3455 614.799C71.6389 614.392 71.9217 613.999 72.17 613.637C72.4588 613.216 72.7704 612.836 73.1026 612.494M66.93 623.334C67.1562 623.486 67.3892 623.643 67.6331 623.807L67.0748 624.637M67.0748 624.637C67.1301 624.579 67.1852 624.521 67.24 624.464C68.1621 623.499 68.9982 622.624 69.3107 620.769C69.6274 618.888 70.8951 617.132 72.1228 615.431C72.4205 615.019 72.7159 614.609 72.9949 614.203C74.5299 611.963 76.7971 611.022 79.5119 610.96L73.1026 612.494M73.1026 612.494C71.8118 613.238 70.3948 613.792 68.8163 614.067C67.8367 614.238 66.5674 614.442 65.384 614.187C63.0123 613.676 60.8671 613.956 58.8385 615.204L58.344 615.508L57.8345 615.23C56.7127 614.616 55.9883 613.774 55.6138 612.777C55.2484 611.804 55.2475 610.77 55.4057 609.799L55.4057 609.799C55.5217 609.088 55.4703 608.73 55.3672 608.515C55.2768 608.326 55.0643 608.077 54.4166 607.801L54.4166 607.801C54.2529 607.732 54.0959 607.664 53.9443 607.598C52.7181 607.067 51.851 606.691 50.7105 606.837L50.7103 606.837C50.0304 606.924 49.3788 606.771 48.8382 606.614C48.6038 606.545 48.3973 606.479 48.1999 606.416C47.881 606.314 47.5857 606.219 47.2345 606.135L46.0721 605.858L46.55 604.762C46.9729 603.793 46.9578 603.121 46.7701 602.601C46.5698 602.045 46.1161 601.504 45.3647 600.922C44.0901 599.936 43.4802 598.528 43.5257 596.881L73.1026 612.494ZM73.1026 612.494C73.9476 612.007 74.7386 611.438 75.4855 610.813M73.1026 612.494C73.8104 611.766 74.6118 611.214 75.4855 610.813M75.4855 610.813C76.6994 610.257 78.053 609.993 79.489 609.96L79.4892 609.96C80.3822 609.94 81.381 609.63 82.2934 609.185C82.494 609.087 82.709 608.908 83.0269 608.575C83.0724 608.528 83.1217 608.475 83.1742 608.418C82.9522 608.317 82.757 608.228 82.5639 608.137C80.863 607.34 80.1966 607.165 79.6866 607.264C79.4487 607.31 79.1695 607.434 78.7695 607.741C78.3601 608.056 77.8802 608.517 77.2331 609.182L77.233 609.182C76.6763 609.754 76.0956 610.303 75.4855 610.813ZM111.887 582.026L112.228 582.785C112.378 582.718 112.572 582.67 112.9 582.62C112.987 582.606 113.088 582.592 113.2 582.577C113.466 582.54 113.79 582.495 114.116 582.433L114.961 582.272L114.929 581.412C114.77 577.221 114.107 573.072 110.222 570.418C110.009 568.662 110.567 567.038 111.526 565.192L112.029 564.226L111.023 563.808C110.773 563.704 110.528 563.598 110.288 563.493C109.745 563.258 109.226 563.032 108.717 562.866L111.887 582.026ZM111.887 582.026L112.228 582.785C110.027 583.775 108.383 584.516 107.759 586.67C106.986 589.335 105.245 591.624 102.75 592.876L111.887 582.026ZM82.5943 596.177L82.5943 596.177C82.1422 596.111 81.8736 595.957 81.6968 595.773C81.5121 595.58 81.3468 595.27 81.2559 594.759L81.2559 594.759C80.9717 593.164 80.6429 591.553 80.2116 589.965C79.6576 587.925 78.3294 585.626 75.8606 585.193L75.8604 585.193C73.8444 584.841 72.0703 584.163 70.2952 583.186C69.2168 582.592 68.0995 582.042 66.8185 581.411C66.204 581.108 65.5519 580.787 64.8484 580.434L64.3141 580.166L63.8249 580.509C63.6666 580.621 63.4611 580.748 63.1956 580.909L63.1317 580.948C62.8903 581.095 62.6136 581.264 62.3295 581.449C61.713 581.852 61.0095 582.366 60.4206 583.027C60.0169 583.48 59.6679 583.732 59.3355 583.871C59.0093 584.007 58.6272 584.063 58.1076 584.012L58.1072 584.012C57.6897 583.972 57.2728 583.949 56.8806 583.928L56.8057 583.924C56.3838 583.901 55.9891 583.878 55.6018 583.836L55.5313 583.829C54.9122 583.761 54.3737 583.703 53.9322 583.699C53.4611 583.695 52.9709 583.749 52.5097 584.005C52.0499 584.261 51.743 584.649 51.4935 585.052C51.3229 585.328 51.1489 585.664 50.9596 586.046C47.1091 586.355 44.6502 587.134 42.5475 588.88C41.7786 589.517 41.0851 590.288 40.9903 591.268C40.8908 592.297 41.4791 593.155 42.2402 593.878L42.2405 593.878C43.1759 594.766 43.5578 595.713 43.5257 596.881L82.5943 596.177ZM82.5943 596.177L82.6022 596.178M82.5943 596.177L82.6022 596.178M90.6477 638.958L90.6479 638.958C93.1766 639.01 94.8736 637.572 96.3767 636.298C96.5109 636.184 96.6436 636.072 96.7751 635.962L97.2313 635.581L97.1145 634.998C97.059 634.721 97.0043 634.438 96.9489 634.152C96.8255 633.513 96.699 632.859 96.5536 632.22C95.8155 628.976 95.7496 625.713 96.5619 622.582C97.0367 620.753 97.2306 618.971 96.92 617.259C96.606 615.527 95.7883 613.932 94.3487 612.471L94.3486 612.471C93.962 612.079 93.7634 611.737 93.7092 611.46C93.6768 611.294 93.6806 611.084 93.8423 610.806C94.0388 610.772 94.2371 610.735 94.4276 610.7C94.6115 610.666 94.7881 610.633 94.9486 610.605C95.4325 610.522 95.8699 610.465 96.2882 610.464L96.2885 610.464C97.412 610.463 98.3542 610.561 99.1189 610.892C99.8379 611.204 100.461 611.747 100.912 612.79L100.912 612.79C101.24 613.549 101.658 614.251 102.052 614.898C102.099 614.975 102.146 615.051 102.192 615.126C102.543 615.701 102.868 616.231 103.144 616.784L103.144 616.785C103.866 618.235 104.974 619.153 106.58 619.49L106.58 619.49C109.045 620.006 110.899 621.563 112.718 623.562C113.03 623.905 113.372 624.197 113.691 624.455C113.823 624.562 113.945 624.658 114.061 624.75C114.247 624.896 114.42 625.033 114.604 625.188L115.334 625.806L115.984 625.104C116.118 624.96 116.222 624.862 116.332 624.759C116.379 624.715 116.427 624.67 116.479 624.621L116.491 624.609C116.615 624.49 116.914 624.204 117.011 623.773L90.6477 638.958ZM90.6477 638.958C90.2652 638.95 90.0937 639.08 89.9379 639.317C89.7277 639.637 89.5929 640.109 89.4465 640.732L90.6477 638.958ZM119.498 622.342C118.686 622.226 118.151 622.299 117.805 622.483M119.498 622.342L117.805 622.483M105.121 595.165C104.954 595.963 104.504 596.412 103.805 596.854C103.559 597.009 103.324 597.139 103.063 597.283C102.913 597.367 102.754 597.454 102.58 597.554C102.141 597.806 101.656 598.109 101.225 598.513C100.623 599.075 100.174 599.203 99.8263 599.194L105.121 595.165ZM105.121 595.165C105.2 594.788 105.437 594.55 105.572 594.436M105.121 595.165L105.572 594.436M105.572 594.436C105.722 594.309 105.884 594.218 106.01 594.155M105.572 594.436L106.01 594.155M106.01 594.155C106.259 594.03 106.538 593.935 106.702 593.879M106.01 594.155L106.702 593.879M106.702 593.879L106.708 593.876L106.702 593.879ZM82.6022 596.178C83.8102 596.354 84.9567 596.521 86.0934 596.551L82.6022 596.178ZM117.805 622.483C117.507 622.643 117.193 622.97 117.011 623.773L117.805 622.483ZM67.0061 639.327C67.7387 639.756 68.4399 640.167 69.1867 640.457L67.0061 639.327ZM82.9657 588.105C82.5452 584.395 82.3435 580.612 83.0056 576.804L86.0935 596.551C86.3235 596.557 86.4607 596.514 86.5545 596.464C86.6554 596.411 86.765 596.321 86.8949 596.156C87.03 595.984 87.1617 595.764 87.323 595.473C87.3588 595.408 87.3967 595.339 87.4364 595.266C87.456 595.23 87.476 595.193 87.4964 595.156C87.3424 594.976 87.1938 594.8 87.0484 594.627C86.4449 593.912 85.8957 593.261 85.2426 592.669L85.2425 592.668C83.8489 591.405 83.1686 589.895 82.9657 588.105L83.9593 587.992L82.9657 588.105Z" stroke="#F37524" stroke-width="2"/>
<path d="M84.7365 96.1527C89.9283 91.5162 93.3931 85.8204 95.0354 79.2239C99.0098 63.2592 91.3026 46.4876 86.0566 41.9739L88.2152 39.465C94.1651 44.5844 102.606 62.5161 98.2476 80.0239C96.9771 85.128 94.7174 89.7377 91.5049 93.7947C90.152 95.5032 88.6296 97.1143 86.9418 98.6214C80.3947 104.468 71.3527 108.727 60.066 111.278L59.3355 108.05C70.0675 105.624 78.6136 101.621 84.7365 96.1527Z" fill="black"/>
<path d="M13.6163 126.264C10.1096 122.171 6.62171 118.054 3.27173 113.832C5.96809 110.911 8.67655 108.001 11.4286 105.131C13.4187 103.057 15.3982 100.957 17.5174 99.0129C19.3977 97.2878 21.3636 95.6591 23.2871 93.983C24.2651 93.1308 25.2451 92.2546 26.2098 91.3524C31.6979 97.2768 37.1709 103.215 42.6331 109.163C45.5442 112.333 45.8427 114.759 42.7296 117.795C37.5036 122.891 31.9839 127.703 26.3908 132.4C23.8809 134.508 21.6626 134.145 19.2568 131.901C17.3126 130.089 15.341 128.278 13.6163 126.264Z" fill="#F37423"/>
<path d="M74.3123 32.7162L73.8522 34.1657C72.9664 34.2894 72.0546 34.2624 70.9786 34.3087C70.5107 35.0808 69.6862 35.4448 68.578 35.0583C68.0114 34.8608 67.7178 35.2938 67.4105 35.6536C66.9325 36.2126 66.4561 36.7732 65.9949 37.3148C64.9403 36.6115 64.1767 35.5259 63.5634 33.9574C63.4355 33.9788 63.3003 33.9918 63.1703 34.0245C61.8787 34.3485 61.7614 34.2921 61.3152 33.0486C61.1414 32.5648 60.9958 32.0707 60.8413 31.5932C60.1275 31.71 59.4373 31.9443 58.7642 31.9028C57.8815 31.8489 57.7327 30.9386 57.5587 30.5691C56.451 30.4459 55.5629 30.432 54.7214 30.2271C54.0374 30.0606 53.9603 29.6935 54.2973 29.0451C54.8449 27.9914 55.5785 27.1098 56.6825 26.684C56.3771 25.8674 56.1072 25.1449 55.8326 24.4106C56.347 24.1214 56.701 23.9222 56.9947 23.757C56.9127 22.8242 56.8395 21.9937 56.7588 21.0767C55.9404 20.1379 54.4877 19.8002 53.58 18.5948C54.8938 17.6427 55.7957 16.2153 57.7694 16.7269C57.9218 15.9369 58.0532 15.2556 58.2089 14.448C58.4821 14.7729 58.6208 14.9379 58.7579 15.1008C59.6085 14.4661 59.6085 14.4661 59.1443 12.9322C59.9715 13.1701 60.2935 12.6739 60.458 12.2339C60.2784 11.1165 60.0726 10.1967 60.0075 9.26691C59.978 8.84433 60.101 8.27228 60.3808 8.00014C60.7766 7.61455 61.3747 7.73296 61.7983 8.12022C62.4939 8.75665 63.409 8.81605 64.1773 8.6959C65.3634 8.51027 66.3226 8.63626 67.1353 9.65916C67.4971 9.44836 67.9455 9.34177 68.1047 9.06764C68.7764 7.9093 69.7774 7.81449 70.9201 8.08395C71.6393 7.44691 72.3347 6.83114 73.0028 6.23925C74.3845 7.03184 74.773 7.43293 75.1306 8.9838C75.3235 9.82079 75.7785 10.1591 76.5057 10.0491C77.6084 9.88227 78.0549 10.4493 78.3035 11.3687C78.3634 11.5902 78.4458 11.8056 78.5353 12.0755C79.7158 12.0473 80.7192 12.316 81.0596 13.6012C81.4305 13.5248 81.7053 13.4638 81.9817 13.4126C82.3066 13.352 82.6318 13.2636 82.9591 13.2517C83.7662 13.2216 84.1091 13.7115 83.7269 14.4329C83.4206 15.0115 82.9903 15.5266 82.5953 16.0551C82.3579 16.3729 82.0831 16.6624 81.8249 16.9649C81.8741 17.054 81.9234 17.1433 81.9726 17.2324C82.4181 17.1627 82.8634 17.0931 83.5592 16.9843C83.2768 17.9283 83.0348 18.7363 82.7732 19.6109C83.3335 19.8145 83.7636 19.9711 84.4375 20.2162C84.2706 20.7634 84.1616 21.2552 83.9726 21.714C83.5314 22.7847 83.5877 23.0419 84.6341 23.5949C85.0645 23.8223 85.5444 23.9807 85.5118 24.5631C85.495 24.8643 85.3962 25.1102 85.2351 25.3056C82.9873 25.2175 80.6808 25.8114 78.6558 27.0832C77.1648 28.0195 75.9184 29.5988 75.112 31.3048C74.8154 31.7503 74.5464 32.2182 74.3123 32.7162Z" fill="#F37524"/>
<path d="M71.8912 485.222C72.4202 485.112 72.887 485.109 73.3615 485.543C74.0529 486.177 74.8588 486.685 75.7655 487.357C75.7196 488.281 76.2105 489.064 77.3729 489.372C77.9671 489.53 77.9677 490.066 78.0222 490.548C78.1069 491.298 78.1894 492.047 78.2702 492.772C79.569 492.781 80.8401 492.297 82.2611 491.317C82.3573 491.409 82.4645 491.498 82.5562 491.601C83.4664 492.617 83.5983 492.637 84.6907 491.837C85.1158 491.526 85.5229 491.19 85.9285 490.874C86.4672 491.383 86.9186 491.978 87.5137 492.33C88.2936 492.79 88.9424 492.103 89.3023 491.889C90.3133 492.421 91.0749 492.919 91.9068 493.229C92.5832 493.48 92.8587 493.213 92.9451 492.468C93.0853 491.259 92.9685 490.089 92.2761 489.093C93.0038 488.575 93.6477 488.117 94.3022 487.651C94.0317 487.11 93.8456 486.738 93.691 486.428C94.2961 485.683 94.8347 485.02 95.4299 484.288C96.6632 483.961 98.0899 484.509 99.5522 484.006C98.9837 482.443 99.0373 480.713 97.0687 480.014C97.3927 479.255 97.6722 478.602 98.0036 477.826C97.5852 477.945 97.3728 478.006 97.1633 478.065C96.8053 477.038 96.8053 477.038 98.08 476.002C97.2413 475.729 97.2525 475.122 97.3655 474.655C98.1595 473.808 98.8621 473.146 99.4509 472.393C99.7188 472.052 99.9424 471.495 99.8615 471.103C99.7467 470.548 99.1711 470.305 98.5891 470.391C97.6337 470.532 96.8226 470.057 96.2397 469.514C95.3397 468.675 94.453 468.231 93.1761 468.632C92.99 468.246 92.6704 467.898 92.6929 467.574C92.7875 466.204 91.9922 465.548 90.8677 465.121C90.6229 464.167 90.3861 463.245 90.159 462.358C88.5311 462.238 87.9712 462.355 86.7777 463.467C86.1335 464.067 85.5531 464.093 84.999 463.582C84.1591 462.806 83.4546 463.032 82.7157 463.67C82.5376 463.823 82.3442 463.959 82.1135 464.137C81.1276 463.435 80.1218 463.086 79.0948 463.982C78.824 463.704 78.626 463.495 78.4207 463.292C78.1794 463.055 77.9545 462.793 77.6834 462.594C77.0158 462.105 76.4434 462.325 76.3539 463.157C76.2817 463.824 76.3514 464.508 76.3831 465.184C76.4024 465.59 76.4694 465.994 76.515 466.399C76.4219 466.447 76.3289 466.494 76.2359 466.542C75.8977 466.226 75.5599 465.911 75.0318 465.419C74.7296 466.384 74.471 467.208 74.1912 468.101C73.5986 467.953 73.1437 467.838 72.4311 467.66C72.2585 468.22 72.0689 468.7 71.9659 469.198C71.8222 469.895 71.6929 470.239 71.3544 470.376C72.502 472.451 73.1921 474.824 73.3038 477.321C73.4228 479.98 72.4205 482.918 70.8783 485.28C71.2081 485.307 71.5443 485.295 71.8912 485.222Z" fill="black"/>
<path d="M103.188 222.383C102.328 224.014 101.167 225.401 99.8297 226.392C96.1329 229.131 91.0241 229.003 87.5029 228.667L87.2408 228.642L87.4482 228.48C87.9588 228.081 88.4158 227.746 88.8205 227.45C90.0619 226.54 90.8822 225.938 91.5738 224.716C92.0022 223.959 92.0989 223.001 91.8386 222.087C91.5864 221.202 91.0226 220.464 90.2909 220.065C89.5301 219.649 88.5764 219.593 87.6742 219.911C86.7991 220.22 86.1147 220.839 85.7972 221.609C85.5008 222.326 85.4814 223.12 85.4627 223.887L85.3518 228.457C85.3376 229.045 85.3214 229.711 85.0434 230.292C84.7857 230.83 84.1891 231.364 83.4882 231.263C83.0602 231.202 82.7064 230.913 82.4218 230.68L78.4897 227.57C78.0561 227.215 77.5905 226.874 77.0879 226.918C76.3453 226.984 75.9197 227.862 75.7808 228.593C75.7555 228.728 75.7323 228.869 75.7095 229.007C75.5975 229.694 75.5219 230.338 75.0249 230.833C74.5178 231.338 73.6537 231.501 72.8232 231.249C72.4374 231.132 72.075 230.945 71.6277 230.638C71.3713 230.462 71.0888 230.256 70.8769 230.09C69.1933 228.778 68.5432 227.501 68.9969 226.4C69.2353 225.821 69.741 225.433 70.2302 225.058C70.7126 224.688 71.1877 224.295 71.4096 223.779C71.8823 222.68 71.0816 221.501 70.7982 221.161C70.5791 220.898 70.2677 220.605 70.0296 220.36C69.5777 219.896 69.0041 219.441 68.688 218.858C67.6732 216.984 68.5809 214.689 69.8656 213.207C70.8025 212.125 71.9956 211.294 73.1495 210.49C73.6333 210.153 74.1335 209.805 74.6066 209.443C77.1237 207.521 79.1475 205.02 80.5119 202.183C80.9406 201.291 81.2857 200.409 81.5785 199.459C81.755 198.886 81.8855 198.288 81.6456 197.793C81.4886 197.47 81.2068 197.19 80.9034 196.981C80.901 196.98 80.8987 196.978 80.8962 196.977C79.9677 196.345 78.9819 195.838 77.8878 195.583C77.846 195.574 77.8039 195.564 77.7617 195.554C77.3794 195.468 77.0423 195.418 76.7325 195.159C76.5182 194.98 76.3404 194.784 76.3307 194.51C76.3236 194.301 76.4331 194.028 76.5697 193.896C76.8524 193.624 77.3708 193.594 77.7447 193.591C78.8255 193.584 79.7726 193.38 80.6035 193.144C79.3349 190.391 79.367 187.129 80.834 184.712C82.4303 182.082 85.4497 180.378 88.5258 180.371C89.838 180.367 91.1902 180.695 92.4781 181.283C98.2689 184.145 100.797 191.103 98.1236 197.043C96.5491 200.54 93.5145 202.921 90.064 203.791C89.4008 203.958 88.7223 204.07 88.036 204.122C87.9358 204.13 87.8355 204.137 87.7349 204.142L88.2446 203.887C89.654 203.163 90.6915 201.787 90.9841 200.23C91.2769 198.672 91.2343 197.16 90.184 195.973C89.7092 195.437 88.9913 195.063 88.4568 195.438C88.2319 195.596 88.1098 195.826 88.0471 196.088C88.2994 196.354 88.7296 196.81 88.9256 197.039C89.2122 197.374 89.4513 198.216 88.5281 198.894C88.4274 198.968 88.3305 199.049 88.2397 199.132C87.8909 199.45 87.6091 199.834 87.3993 200.256L86.0548 202.966C84.534 205.902 82.2337 210.67 81.6184 213.941L81.5902 214.091L81.7405 214.063C82.8997 213.849 83.7443 212.897 84.1449 212.348C84.5211 211.832 84.8339 211.259 85.1374 210.702C85.3686 210.278 85.6078 209.84 85.8753 209.427C86.8062 207.988 88.1433 206.804 89.7427 206.002C91.3422 205.2 93.0908 204.835 94.7999 204.949C96.6545 205.073 98.4839 205.754 100.09 206.92C101.665 208.063 102.909 209.583 103.69 211.316C104.451 213.004 104.799 214.931 104.697 216.891C104.597 218.8 104.076 220.699 103.188 222.383ZM106.623 216.99C106.741 214.726 106.335 212.49 105.449 210.523C104.53 208.484 103.069 206.699 101.223 205.358C99.56 204.151 97.6861 203.383 95.7587 203.111C97.5161 201.735 98.9353 199.939 99.8825 197.835C101.38 194.508 101.525 190.787 100.29 187.356C99.0587 183.933 96.5881 181.162 93.3332 179.553L93.2796 179.528C91.7159 178.814 90.0693 178.438 88.5218 178.441C84.7876 178.45 81.1228 180.518 79.1851 183.711C77.8026 185.989 77.4209 188.878 78.0641 191.652C77.9555 191.658 77.8445 191.662 77.7316 191.662C77.2847 191.665 76.0974 191.674 75.232 192.506C74.7023 193.017 74.3771 193.829 74.4029 194.577C74.4304 195.363 74.7979 196.057 75.496 196.64C76.1343 197.173 76.7903 197.317 77.2244 197.412L77.4505 197.462C78.2029 197.637 78.9486 197.987 79.7959 198.561L79.8209 198.579C79.8043 198.652 79.7777 198.752 79.7352 198.89C79.4715 199.746 79.1569 200.549 78.7736 201.347C77.5372 203.918 75.6916 206.188 73.4359 207.91C72.9977 208.245 72.5169 208.58 72.0462 208.908C70.8536 209.739 69.5022 210.68 68.4079 211.943C65.8375 214.909 66.0386 218.017 66.9919 219.777C67.373 220.48 67.9084 220.993 68.3389 221.405C68.445 221.506 68.5497 221.606 68.6473 221.706C68.721 221.782 68.8017 221.862 68.8846 221.945C69.0398 222.1 69.2161 222.276 69.3156 222.395C69.4619 222.571 69.6138 222.886 69.6262 223.03C69.5537 223.125 69.3626 223.292 69.0563 223.527C68.4626 223.983 67.6497 224.606 67.2135 225.665C66.7457 226.8 66.4461 229.081 69.6904 231.612C69.935 231.802 70.251 232.033 70.5357 232.228C70.9236 232.495 71.2775 232.699 71.6302 232.858C71.8392 232.952 72.0479 233.03 72.2627 233.095C73.7867 233.558 75.3666 233.215 76.3856 232.2C77.2957 231.294 77.4679 230.224 77.5933 229.442L77.6107 229.334L81.2129 232.184C81.6084 232.507 82.2642 233.037 83.2132 233.173C84.887 233.413 86.2125 232.317 86.7833 231.124C86.874 230.935 86.9473 230.746 87.0074 230.558L87.3196 230.588C91.1572 230.953 96.7483 231.077 100.978 227.942C102.547 226.779 103.901 225.168 104.894 223.283C105.912 221.353 106.509 219.177 106.623 216.99Z" fill="black"/>
</svg>
