<svg width="125" height="932" viewBox="0 0 125 932" fill="none" xmlns="http://www.w3.org/2000/svg">
<path d="M94.614 34.292C96.5356 34.3529 97.29 32.3288 98.7605 31.6286C101.174 30.4378 104.808 30.0325 106.357 30.7944C108.753 31.9452 110.232 35.2507 113.461 35.8396C113.134 38.2959 114.083 40.4758 114.942 42.6754C115.171 43.2937 114.869 43.8838 114.453 44.1648C112.515 45.348 110.41 46.4242 108.377 47.3894C106.779 48.1648 104.304 46.6494 102.37 48.0703C100.723 45.7552 97.0818 45.6851 95.9389 42.8314C95.0056 40.5049 93.4212 39.7985 90.9443 40.4782C94.959 44.475 90.8663 49.3692 92.452 53.606C92.7368 54.26 91.9522 54.3822 91.4805 54.6275C89.7206 55.5335 87.4579 55.8804 87.7053 58.7849C87.8116 59.7161 86.6313 59.1129 86.1004 59.0848C84.892 59.0125 83.9016 58.8454 82.9696 60.0492C81.9662 61.3639 79.9694 61.1762 79.491 59.8485C78.6253 57.1734 73.8677 55.9137 76.5293 51.902C77.2433 50.7932 75.6506 50.7088 75.1835 50.0943C73.7071 48.124 73.8978 47.4625 76.3032 46.8937C76.9413 46.7555 77.3894 46.1813 77.3462 45.7613C77.1336 43.8989 78.9847 42.9732 79.3068 41.3767C77.0517 42.1991 74.2346 42.1891 72.452 41.6687C69.9525 40.9219 69.2783 36.4877 65.53 36.5839C66.2768 34.0844 63.8927 32.5492 63.4189 30.3618C62.9807 28.1188 63.8847 27.446 65.4303 26.8726C66.7026 26.3585 68.3197 25.6743 69.2706 25.6591C72.7098 25.6776 75.8187 22.1893 79.8219 25.473C81.9721 27.2496 84.3289 28.2181 84.8178 31.3566C85.1056 33.3458 86.9566 32.42 88.6404 32.4847C85.4453 29.4076 85.3529 25.8971 86.0807 22.2089C86.2676 21.3096 86.6528 20.2242 85.8174 19.451C85.0928 18.7491 85.6875 18.191 86.084 17.8188C87.4718 16.5163 89.8021 15.8207 89.083 13.1616C91.9601 12.3475 94.8175 11.4423 97.7341 10.8106C98.4633 10.6527 98.7199 11.8376 98.8422 12.6222C99.0434 13.7713 99.1891 14.8848 100.71 15.0801C101.15 15.1279 101.823 16.0318 101.823 16.0318C99.8679 18.4591 102.383 20.1568 102.817 22.162C103.192 23.8938 104.066 25.9469 100.976 25.996C100.171 26.0271 99.9449 26.7442 99.6236 27.2432C98.5168 28.9619 97.5012 30.6609 95.4124 31.5904C94.5207 31.879 93.8621 33.0235 94.614 34.292Z" fill="white"/>
<path d="M28.0421 184.564C19.991 192.714 16.1417 202.107 14.3304 208.552C11.854 217.367 12.0749 224.407 13.1077 228.055L8.82017 229.268C7.26824 223.785 7.72436 215.59 10.0406 207.347C10.9366 204.159 12.296 200.301 14.3472 196.206C16.7678 191.373 20.1517 186.21 24.872 181.433C45.2448 160.813 74.4 163.199 95.2708 168.832L94.11 173.134C74.3828 167.809 46.9071 165.471 28.0421 184.564Z" fill="white"/>
<path d="M27.6143 296.082C26.5567 294.78 25.7754 293.329 25.292 291.77C24.832 290.287 24.6758 288.773 24.8283 287.27C24.9438 286.132 25.2312 285.024 25.6841 283.963C25.8305 283.62 25.9934 283.282 26.1743 282.949C27.005 281.422 28.0517 280.172 29.2846 279.235C30.5238 278.293 32.0645 277.58 33.8639 277.114C35.401 276.741 36.9299 276.64 38.4079 276.816C39.8803 276.992 41.3056 277.45 42.644 278.178C45.8832 279.94 47.9694 282.369 49.0216 285.603C50.0653 288.812 49.7697 291.848 48.1177 294.885C47.9588 295.177 47.784 295.46 47.5982 295.736C46.9319 296.728 46.0965 297.619 45.1012 298.39C43.8226 299.381 42.3721 300.104 40.7915 300.537C39.3085 300.942 37.7346 301.032 36.1146 300.803C34.4754 300.572 32.8646 300.031 31.3268 299.195C29.919 298.429 28.6699 297.382 27.6143 296.082ZM41.9818 308.367C44.8455 307.704 47.3958 306.541 49.5617 304.909C51.7308 303.275 53.5364 301.149 54.9285 298.589C56.3105 296.049 57.1217 293.385 57.3389 290.673C57.5555 287.967 57.1883 285.181 56.2462 282.391C55.4351 280.001 54.1931 277.842 52.5553 275.976C50.9293 274.123 48.8878 272.521 46.4883 271.216C44.0588 269.895 41.5153 269.086 38.9274 268.813C36.3365 268.541 33.6837 268.811 31.0421 269.617C28.4738 270.402 26.1836 271.604 24.2355 273.191C22.2856 274.779 20.6397 276.793 19.3434 279.176C18.0783 281.502 17.3022 283.942 17.0366 286.428C16.7718 288.911 17.0041 291.455 17.727 293.991C18.4916 296.667 19.7148 299.073 21.3616 301.142C23.0109 303.215 25.0582 304.924 27.4465 306.223C29.7722 307.488 32.1949 308.315 34.6479 308.682C37.1156 309.05 39.5871 308.943 41.9818 308.367Z" fill="white"/>
<path d="M108.095 135.898C105.834 133.358 103.556 130.829 101.202 128.376C99.1467 129.814 97.0978 131.26 95.0707 132.737C93.6049 133.805 92.1243 134.864 90.7294 136.023C89.4914 137.052 88.3065 138.143 87.0955 139.203C86.4798 139.742 85.849 140.28 85.2031 140.807C88.4406 144.74 91.6881 148.665 94.9426 152.584C96.6771 154.673 98.168 155.066 100.33 153.377C103.959 150.543 107.435 147.501 110.846 144.404C112.377 143.014 112.338 141.596 111.14 139.902C110.172 138.533 109.207 137.147 108.095 135.898Z" fill="black"/>
<path d="M83.2494 387.719L83.2708 389.903C84.4349 390.446 85.6983 390.793 87.1562 391.309C87.4735 392.567 88.4523 393.414 90.1366 393.35C90.9978 393.317 91.2187 394.035 91.4891 394.659C91.9099 395.627 92.3281 396.598 92.7332 397.536C94.4774 397.014 95.9831 395.845 97.4856 393.95C97.6523 394.033 97.8324 394.108 97.9971 394.207C99.6342 395.196 99.819 395.168 100.955 393.649C101.398 393.057 101.806 392.44 102.219 391.85C103.15 392.311 103.999 392.923 104.941 393.149C106.175 393.447 106.763 392.26 107.157 391.826C108.73 392.123 109.955 392.478 111.197 392.551C112.206 392.61 112.467 392.139 112.277 391.107C111.969 389.429 111.333 387.91 109.996 386.86C110.76 385.868 111.434 384.989 112.121 384.097C111.536 383.483 111.134 383.06 110.8 382.71C111.306 381.464 111.756 380.354 112.253 379.129C113.772 378.185 115.909 378.333 117.663 377.06C116.26 375.199 115.622 372.86 112.697 372.731C112.82 371.582 112.927 370.591 113.053 369.417C112.541 369.748 112.281 369.916 112.024 370.082C111.124 368.852 111.124 368.852 112.407 366.942C111.171 366.92 110.938 366.103 110.897 365.43C111.615 363.971 112.284 362.795 112.765 361.545C112.984 360.978 113.056 360.14 112.786 359.649C112.405 358.953 111.534 358.863 110.789 359.217C109.566 359.798 108.285 359.494 107.28 359.005C105.73 358.251 104.36 358.02 102.813 359.082C102.405 358.641 101.834 358.306 101.731 357.862C101.297 355.989 99.9622 355.437 98.2797 355.326C97.5605 354.148 96.865 353.01 96.1969 351.916C93.9659 352.422 93.2636 352.809 92.1196 354.788C91.5023 355.856 90.735 356.129 89.7829 355.672C88.3391 354.979 87.4872 355.569 86.7587 356.727C86.5832 357.006 86.3793 357.267 86.1428 357.6C84.5338 357.064 83.043 357.01 82.0343 358.632C81.5572 358.371 81.2056 358.171 80.8476 357.984C80.427 357.764 80.0178 357.506 79.5733 357.352C78.4778 356.971 77.8007 357.499 78.0216 358.65C78.1987 359.574 78.5725 360.462 78.8923 361.354C79.0845 361.891 79.3399 362.404 79.5671 362.928C79.462 363.029 79.3567 363.131 79.2516 363.233C78.6693 362.95 78.0871 362.667 77.1776 362.224C77.1678 363.639 77.1598 364.851 77.1507 366.162C76.2957 366.205 75.6392 366.239 74.6106 366.292C74.6094 367.114 74.5519 367.835 74.6182 368.544C74.7732 370.2 74.5875 370.53 72.9179 370.848C72.2312 370.979 71.5055 370.995 71.305 371.808C71.2013 372.229 71.2334 372.608 71.3723 372.944C74.4958 373.77 77.4127 375.556 79.6576 378.155C81.3105 380.069 82.3568 382.762 82.7457 385.444C82.9654 386.181 83.1376 386.937 83.2494 387.719Z" fill="white"/>
<path d="M85.0308 552.004C91.2161 548.069 95.7869 542.739 98.6168 536.163C105.465 520.247 100.31 501.503 95.6262 495.919L98.2968 493.679C103.609 500.012 109.329 520.086 101.819 537.541C99.6297 542.63 96.4964 547.036 92.4668 550.706C90.7699 552.251 88.9133 553.666 86.9025 554.945C79.1026 559.908 68.9799 562.794 56.815 563.525L56.6053 560.045C68.1725 559.35 77.7362 556.645 85.0308 552.004Z" fill="black"/>
<path d="M12.766 565.335C10.5307 561.656 8.31316 557.961 6.21794 554.201C8.7202 552.247 11.2305 550.303 13.7699 548.397C15.6063 547.018 17.4374 545.619 19.3586 544.36C21.0633 543.244 22.8229 542.214 24.5553 541.141C25.4361 540.596 26.3216 540.032 27.1984 539.445C30.759 544.823 34.3058 550.21 37.8429 555.603C39.728 558.477 39.6502 560.427 36.8047 562.418C32.0279 565.76 27.0565 568.84 22.042 571.82C19.7917 573.157 18.0903 572.584 16.4837 570.506C15.1854 568.826 13.8654 567.144 12.766 565.335Z" fill="white"/>
<path d="M84.9957 484.298L84.2707 485.726C83.3291 485.704 82.3859 485.52 81.2597 485.385C80.642 486.108 79.7231 486.346 78.6372 485.756C78.0819 485.454 77.703 485.854 77.3224 486.176C76.7304 486.675 76.1398 487.177 75.5683 487.661C74.5919 486.751 73.9831 485.492 73.6127 483.758C73.4761 483.758 73.3334 483.749 73.1927 483.761C71.7951 483.877 71.6828 483.799 71.4308 482.431C71.3325 481.898 71.2653 481.36 71.186 480.837C70.4242 480.837 69.6671 480.963 68.9745 480.805C68.0662 480.599 68.0666 479.628 67.9486 479.214C66.8183 478.897 65.8976 478.732 65.0579 478.376C64.3753 478.086 64.3578 477.691 64.8184 477.075C65.5669 476.073 66.4795 475.282 67.6993 475.027C67.521 474.126 67.3634 473.329 67.2031 472.519C67.7869 472.306 68.1888 472.16 68.5222 472.038C68.5957 471.054 68.661 470.179 68.7333 469.212C68.0425 468.097 66.5901 467.499 65.852 466.091C67.3794 465.325 68.5599 463.995 70.5241 464.863C70.817 464.068 71.0695 463.382 71.3688 462.569C71.5975 462.954 71.7136 463.149 71.8283 463.341C72.8204 462.827 72.8204 462.827 72.5991 461.153C73.4183 461.541 73.8375 461.081 74.0833 460.651C74.0869 459.459 74.0297 458.468 74.1202 457.491C74.1615 457.047 74.3868 456.473 74.7238 456.238C75.2009 455.904 75.8024 456.129 76.1767 456.604C76.7913 457.384 77.7323 457.601 78.5513 457.607C79.8156 457.616 80.7911 457.91 81.4616 459.112C81.8735 458.954 82.3578 458.92 82.5698 458.662C83.4652 457.573 84.5217 457.644 85.6635 458.119C86.5194 457.579 87.347 457.058 88.1421 456.556C89.4433 457.615 89.7788 458.098 89.8863 459.771C89.9444 460.674 90.3597 461.103 91.1342 461.112C92.3087 461.127 92.6762 461.792 92.7781 462.79C92.8026 463.03 92.8517 463.268 92.8987 463.564C94.1304 463.736 95.1275 464.186 95.2626 465.58C95.661 465.563 95.957 465.547 96.2531 465.54C96.601 465.533 96.954 465.496 97.2963 465.54C98.1402 465.646 98.4132 466.213 97.8932 466.898C97.4763 467.447 96.9414 467.909 96.4409 468.391C96.1401 468.681 95.8051 468.935 95.4853 469.206C95.5213 469.307 95.5573 469.408 95.5933 469.509C96.0682 469.512 96.5429 469.516 97.2845 469.521C96.8303 470.454 96.4412 471.253 96.0205 472.117C96.5681 472.424 96.9885 472.66 97.6472 473.03C97.3805 473.57 97.1836 474.063 96.909 474.507C96.2682 475.545 96.2829 475.822 97.2763 476.575C97.6849 476.884 98.1568 477.131 98.0237 477.731C97.955 478.041 97.8104 478.279 97.6097 478.455C95.2885 477.981 92.7902 478.205 90.469 479.183C88.76 479.902 87.1957 481.331 86.0671 482.967C85.683 483.379 85.3238 483.82 84.9957 484.298Z" fill="black"/>
<path d="M90.151 662.565C89.5548 664.413 88.6013 666.062 87.3934 667.333C84.0547 670.845 78.7311 671.638 75.0171 671.928L74.7407 671.949L74.9265 671.744C75.3839 671.237 75.7974 670.807 76.1634 670.426C77.2864 669.257 78.0284 668.484 78.5244 667.091C78.8316 666.227 78.7582 665.216 78.3227 664.316C77.9004 663.442 77.1819 662.779 76.3503 662.498C75.4856 662.204 74.486 662.319 73.6078 662.813C72.7559 663.292 72.158 664.058 71.968 664.914C71.7906 665.711 71.9143 666.539 72.0341 667.339L72.7474 672.1C72.8392 672.712 72.9432 673.406 72.76 674.059C72.5902 674.664 72.068 675.326 71.3226 675.349C70.8674 675.363 70.448 675.127 70.1105 674.937L65.4673 672.423C64.9532 672.134 64.4082 671.864 63.8949 672.001C63.1364 672.204 62.854 673.192 62.8424 673.976C62.8406 674.12 62.8421 674.27 62.8435 674.418C62.8518 675.151 62.8901 675.833 62.4642 676.437C62.0296 677.052 61.1627 677.378 60.2554 677.267C59.8339 677.215 59.424 677.087 58.9043 676.85C58.6064 676.714 58.2759 676.551 58.0261 676.418C56.0415 675.361 55.1356 674.155 55.4067 672.93C55.5492 672.286 56.0035 671.792 56.443 671.314C56.8764 670.843 57.2982 670.349 57.4348 669.774C57.7259 668.547 56.6817 667.47 56.3259 667.168C56.0509 666.935 55.6748 666.687 55.3834 666.477C54.8304 666.077 54.1529 665.709 53.7192 665.161C52.3267 663.401 52.8525 660.856 53.9165 659.085C54.6927 657.793 55.7797 656.715 56.8312 655.671C57.272 655.234 57.7278 654.782 58.1531 654.321C60.4161 651.871 62.0625 648.909 62.9636 645.718C63.2467 644.715 63.4449 643.738 63.5764 642.698C63.6557 642.072 63.6827 641.428 63.3442 640.959C63.1226 640.651 62.7795 640.412 62.427 640.251C62.4242 640.25 62.4215 640.248 62.4186 640.247C61.3408 639.76 60.2262 639.413 59.045 639.347C58.9999 639.345 58.9544 639.342 58.9089 639.34C58.4967 639.32 58.1378 639.329 57.7695 639.117C57.5148 638.97 57.2947 638.798 57.235 638.516C57.1897 638.3 57.2538 637.997 57.3717 637.836C57.6156 637.502 58.1481 637.377 58.5355 637.306C59.6554 637.103 60.601 636.72 61.4203 636.324C59.6051 633.698 59.0472 630.308 60.131 627.534C61.3103 624.516 64.134 622.201 67.3242 621.636C68.6849 621.395 70.1472 621.49 71.5899 621.866C78.1165 623.786 82.001 630.547 80.3035 637.193C79.304 641.107 76.5872 644.127 73.1652 645.655C72.5074 645.949 71.8237 646.188 71.1213 646.367C71.0187 646.393 70.9158 646.418 70.8124 646.442L71.2951 646.085C72.6259 645.078 73.453 643.463 73.4742 641.794C73.4956 640.124 73.1773 638.563 71.8725 637.523C71.2828 637.052 70.4702 636.795 69.9837 637.281C69.779 637.485 69.694 637.746 69.6764 638.029C69.9863 638.259 70.5154 638.655 70.7602 638.857C71.1184 639.153 71.5188 639.982 70.684 640.853C70.593 640.948 70.5072 641.05 70.4279 641.152C70.1237 641.545 69.901 641.995 69.7599 642.471L68.8561 645.526C67.8105 648.848 66.2883 654.211 66.2429 657.716L66.2409 657.877L66.3917 657.821C67.5555 657.389 68.2591 656.248 68.5753 655.606C68.8721 655.002 69.0927 654.351 69.3067 653.718C69.4697 653.236 69.6383 652.738 69.841 652.261C70.5462 650.6 71.7187 649.13 73.2326 648.007C74.7466 646.885 76.4947 646.19 78.2884 645.998C80.2349 645.79 82.2563 646.166 84.1338 647.084C85.9746 647.984 87.5416 649.336 88.6657 650.992C89.7607 652.605 90.471 654.542 90.7206 656.593C90.9633 658.592 90.7668 660.657 90.151 662.565ZM92.7373 656.348C92.4493 653.977 91.6225 651.73 90.3466 649.851C89.0244 647.902 87.1847 646.314 85.0261 645.258C83.0823 644.308 80.9988 643.85 78.9498 643.917C80.5238 642.171 81.6705 640.051 82.2718 637.696C83.2225 633.974 82.6981 630.086 80.7955 626.75C78.8975 623.423 75.832 620.996 72.1635 619.917L72.1033 619.9C70.3517 619.443 68.5752 619.351 66.9703 619.635C63.0976 620.321 59.6705 623.131 58.2389 626.795C57.2174 629.408 57.3452 632.475 58.5153 635.236C58.4037 635.262 58.2892 635.286 58.1722 635.307C57.7091 635.391 56.4788 635.615 55.732 636.636C55.2748 637.261 55.0847 638.164 55.2471 638.935C55.4182 639.745 55.9252 640.399 56.7552 640.877C57.514 641.314 58.2205 641.344 58.6881 641.364L58.9319 641.376C59.7442 641.421 60.5812 641.648 61.5644 642.091L61.5935 642.105C61.5895 642.183 61.5802 642.292 61.561 642.443C61.4425 643.378 61.2618 644.269 61.0087 645.166C60.192 648.058 58.6886 650.747 56.6607 652.943C56.2667 653.369 55.8286 653.804 55.3997 654.23C54.313 655.308 53.0816 656.53 52.1754 658.039C50.0462 661.581 50.8181 664.769 52.1262 666.422C52.6489 667.082 53.2974 667.517 53.8187 667.867C53.9472 667.953 54.0738 668.037 54.1932 668.123C54.2835 668.189 54.3817 668.258 54.4828 668.329C54.672 668.461 54.8866 668.612 55.0116 668.718C55.1952 668.873 55.4097 669.172 55.4487 669.319C55.3909 669.432 55.2228 669.64 54.9477 669.939C54.4143 670.519 53.6839 671.313 53.4233 672.491C53.1437 673.753 53.2464 676.174 57.071 678.211C57.3593 678.365 57.7289 678.547 58.0596 678.698C58.5104 678.904 58.9146 679.052 59.3092 679.152C59.5432 679.212 59.7738 679.255 60.0086 679.284C61.6734 679.488 63.2505 678.846 64.1237 677.608C64.9037 676.504 64.8883 675.362 64.8767 674.528L64.8752 674.413L69.1289 676.716C69.5978 676.98 70.3742 677.411 71.3834 677.379C73.1635 677.326 74.34 675.948 74.7159 674.607C74.7758 674.395 74.8175 674.185 74.8458 673.979L75.1751 673.953C79.2227 673.637 85.0457 672.752 88.8654 668.732C90.2822 667.242 91.3954 665.325 92.0842 663.189C92.7899 661.003 93.0155 658.637 92.7373 656.348Z" fill="white"/>
<path d="M78.0867 726.236C75.5176 724.009 72.9339 721.793 70.2834 719.664C68.4303 721.353 66.5843 723.051 64.764 724.776C63.4477 726.024 62.1156 727.264 60.8813 728.594C59.786 729.773 58.7511 731.007 57.6865 732.214C57.1452 732.828 56.5888 733.443 56.016 734.048C59.7324 737.532 63.4576 741.007 67.1891 744.476C69.1778 746.324 70.7068 746.521 72.6337 744.569C75.8684 741.292 78.9245 737.828 81.9088 734.318C83.2479 732.743 83.027 731.342 81.6212 729.816C80.4853 728.582 79.35 727.332 78.0867 726.236Z" fill="white"/>
<path d="M55.6014 871.493C52.7085 857.629 52.0124 843.748 53.5329 830.236C54.9993 817.202 58.4551 805.057 63.8048 794.139C69.1384 783.255 76.0851 774.138 84.4529 767.044C93.0856 759.724 102.868 754.885 113.528 752.659L112.894 749.621C101.722 751.954 91.4784 757.02 82.447 764.677C73.7513 772.05 66.5418 781.503 61.0193 792.774C55.5124 804.013 51.9565 816.5 50.4502 829.889C48.8931 843.73 49.6043 857.941 52.5646 872.127L55.6014 871.493Z" fill="black"/>
<path d="M79.9722 918.888C78.1394 911.559 76.2903 904.234 74.4274 896.912C73.3902 892.835 71.5648 891.294 67.4158 892.218C60.4504 893.769 53.5612 895.713 46.7263 897.779C43.6594 898.705 42.7704 900.715 43.3193 903.882C43.7626 906.442 44.1906 909.024 44.9157 911.512C46.1931 915.894 47.4918 920.273 48.8974 924.616C51.6431 924.148 54.3875 923.673 57.1298 923.186C64.7583 921.831 72.3731 920.399 79.9722 918.888Z" fill="black"/>
</svg>
