<svg width="25" height="25" viewBox="0 0 25 25" fill="none" xmlns="http://www.w3.org/2000/svg">
<path fill-rule="evenodd" clip-rule="evenodd" d="M0 12.5C0 5.59644 5.59644 0 12.5 0C19.4036 0 25 5.59644 25 12.5C25 19.4036 19.4036 25 12.5 25C5.59644 25 0 19.4036 0 12.5ZM12.5 6.25C15.9375 6.25 18.75 9.0625 18.75 12.5C18.75 15.625 16.4844 18.2812 13.3594 18.75V14.2969H14.8438L15.1562 12.5H13.4375V11.3281C13.4375 10.8594 13.6719 10.3906 14.4531 10.3906H15.2344V8.82813C15.2344 8.82813 14.5313 8.67188 13.8281 8.67188C12.4219 8.67188 11.4844 9.53125 11.4844 11.0937V12.5H9.92187V14.2969H11.4844V18.6719C8.51562 18.2031 6.25 15.625 6.25 12.5C6.25 9.0625 9.0625 6.25 12.5 6.25Z" fill="white"/>
</svg>
