<svg width="26" height="25" viewBox="0 0 26 25" fill="none" xmlns="http://www.w3.org/2000/svg">
<path d="M13 14.6875C11.7812 14.6875 10.725 13.75 10.725 12.5C10.725 11.3281 11.7 10.3125 13 10.3125C14.2188 10.3125 15.275 11.25 15.275 12.5C15.275 13.6719 14.2188 14.6875 13 14.6875Z" fill="white"/>
<path fill-rule="evenodd" clip-rule="evenodd" d="M15.7625 7.1875H10.2375C9.5875 7.26562 9.2625 7.34375 9.01875 7.42187C8.69375 7.5 8.45 7.65625 8.20625 7.89062C8.01337 8.07608 7.92224 8.26154 7.8121 8.48571C7.78306 8.54478 7.75263 8.60671 7.71875 8.67187C7.70618 8.70813 7.69167 8.74626 7.67611 8.78712C7.59111 9.01041 7.475 9.31543 7.475 9.84375V15.1562C7.55625 15.7812 7.6375 16.0937 7.71875 16.3281C7.8 16.6406 7.9625 16.875 8.20625 17.1094C8.39913 17.2948 8.592 17.3825 8.82514 17.4884C8.88663 17.5163 8.95092 17.5455 9.01875 17.5781C9.05646 17.5902 9.09611 17.6042 9.13861 17.6191C9.37083 17.7009 9.68805 17.8125 10.2375 17.8125H15.7625C16.4125 17.7344 16.7375 17.6562 16.9812 17.5781C17.3062 17.5 17.55 17.3437 17.7937 17.1094C17.9866 16.9239 18.0778 16.7385 18.1879 16.5143C18.217 16.4552 18.2473 16.3933 18.2812 16.3281C18.2938 16.2919 18.3083 16.2537 18.3239 16.2129C18.4089 15.9896 18.525 15.6846 18.525 15.1562V9.84375C18.4437 9.21875 18.3625 8.90625 18.2812 8.67187C18.2 8.35937 18.0375 8.125 17.7937 7.89062C17.6009 7.70516 17.408 7.61754 17.1749 7.51163C17.1135 7.48374 17.049 7.45443 16.9812 7.42187C16.9435 7.40979 16.9039 7.39583 16.8614 7.38087C16.6292 7.29914 16.3119 7.1875 15.7625 7.1875ZM13 9.14062C11.05 9.14062 9.50625 10.625 9.50625 12.5C9.50625 14.375 11.05 15.8594 13 15.8594C14.95 15.8594 16.4937 14.375 16.4937 12.5C16.4937 10.625 14.95 9.14062 13 9.14062ZM17.3875 9.0625C17.3875 9.49397 17.0237 9.84375 16.575 9.84375C16.1263 9.84375 15.7625 9.49397 15.7625 9.0625C15.7625 8.63103 16.1263 8.28125 16.575 8.28125C17.0237 8.28125 17.3875 8.63103 17.3875 9.0625Z" fill="white"/>
<path fill-rule="evenodd" clip-rule="evenodd" d="M0 12.5C0 5.59644 5.8203 0 13 0C20.1797 0 26 5.59644 26 12.5C26 19.4036 20.1797 25 13 25C5.8203 25 0 19.4036 0 12.5ZM10.2375 6.01562H15.7625C16.4937 6.09375 16.9812 6.17187 17.3875 6.32812C17.875 6.5625 18.2 6.71875 18.6062 7.10937C19.0125 7.5 19.2563 7.89062 19.4188 8.28125C19.5813 8.67187 19.7437 9.14062 19.7437 9.84375V15.1562C19.6625 15.8594 19.5813 16.3281 19.4188 16.7187C19.175 17.1875 19.0125 17.5 18.6062 17.8906C18.2 18.2812 17.7937 18.5156 17.3875 18.6719C16.9812 18.8281 16.4937 18.9844 15.7625 18.9844H10.2375C9.50625 18.9062 9.01875 18.8281 8.6125 18.6719C8.125 18.4375 7.8 18.2812 7.39375 17.8906C6.9875 17.5 6.74375 17.1094 6.58125 16.7187C6.41875 16.3281 6.25625 15.8594 6.25625 15.1562V9.84375C6.3375 9.14062 6.41875 8.67187 6.58125 8.28125C6.825 7.8125 6.9875 7.5 7.39375 7.10937C7.8 6.71875 8.20625 6.48437 8.6125 6.32812C9.01875 6.17187 9.50625 6.01562 10.2375 6.01562Z" fill="white"/>
</svg>
