<?xml version="1.0" standalone="no"?>
<!DOCTYPE svg PUBLIC "-//W3C//DTD SVG 20010904//EN"
 "http://www.w3.org/TR/2001/REC-SVG-20010904/DTD/svg10.dtd">
<svg version="1.0" xmlns="http://www.w3.org/2000/svg"
 width="129.000000pt" height="129.000000pt" viewBox="0 0 129.000000 129.000000"
 preserveAspectRatio="xMidYMid meet">
<metadata>
Created by potrace 1.14, written by Peter Selinger 2001-2017
</metadata>
<g transform="translate(0.000000,129.000000) scale(0.100000,-0.100000)"
fill="#000000" stroke="none">
<path d="M0 645 l0 -645 645 0 645 0 0 645 0 645 -645 0 -645 0 0 -645z m601
362 c104 -55 121 -196 34 -277 l-27 -25 7 28 c8 32 -10 83 -32 92 -20 7 -27 0
-17 -17 5 -7 7 -68 5 -137 -2 -100 0 -122 11 -119 7 3 16 26 20 52 12 86 67
136 149 136 128 0 206 -169 126 -273 -24 -31 -124 -93 -135 -83 -2 2 4 19 13
36 21 41 13 78 -20 86 -30 8 -55 -10 -55 -40 0 -11 10 -44 22 -73 27 -67 19
-79 -45 -62 -60 15 -71 10 -71 -32 -1 -31 -4 -34 -32 -37 -19 -2 -39 4 -54 16
-19 15 -21 22 -11 40 17 32 14 40 -29 67 -57 36 -60 60 -14 153 27 54 39 94
42 134 5 72 -8 92 -55 85 -30 -5 -61 12 -37 20 35 13 37 20 14 67 -60 126 63
230 191 163z"/>
</g>
</svg>
